999
dxflib 3.17.0.0
  0
SECTION
  2
HEADER
  9
$ACADVER
  1
AC1015
  9
$HANDSEED
  5
FFFF
  9
$DIMADEC
 70
0
  9
$DIMASZ
 40
2.5
  9
$DIMAUNIT
 70
0
  9
$DIMAZIN
 70
2
  9
$DIMDEC
 70
4
  9
$DIMDSEP
 70
46
  9
$DIMEXE
 40
1.25
  9
$DIMEXO
 40
0.625
  9
$DIMGAP
 40
0.625
  9
$DIMLUNIT
 70
2
  9
$DIMSCALE
 40
1.0
  9
$DIMTSZ
 40
0.0
  9
$DIMTXT
 40
2.5
  9
$DIMZIN
 70
8
  9
$DWGCODEPAGE
  3
ANSI_1252
  9
$INSUNITS
 70
4
  9
$LTSCALE
 40
1.0
  9
$MAXACTVP
 70
64
  9
$MEASUREMENT
 70
1
  9
$PDMODE
 70
0
  9
$PDSIZE
 40
0.0
  0
ENDSEC
  0
SECTION
  2
TABLES
  0
TABLE
  2
VPORT
  5
8
100
AcDbSymbolTable
 70
1
  0
VPORT
  5
30
100
AcDbSymbolTableRecord
100
AcDbViewportTableRecord
  2
*Active
 70
0
 10
0.0
 20
0.0
 11
1.0
 21
1.0
 12
286.30555555555549
 22
148.5
 13
0.0
 23
0.0
 14
10.0
 24
10.0
 15
10.0
 25
10.0
 16
0.0
 26
0.0
 36
1.0
 17
0.0
 27
0.0
 37
0.0
 40
297.0
 41
1.92798353909465
 42
50.0
 43
0.0
 44
0.0
 50
0.0
 51
0.0
 71
0
 72
100
 73
1
 74
3
 75
1
 76
1
 77
0
 78
0
281
0
 65
1
110
0.0
120
0.0
130
0.0
111
1.0
121
0.0
131
0.0
112
0.0
122
1.0
132
0.0
 79
0
146
0.0
  0
ENDTAB
  0
TABLE
  2
LTYPE
  5
5
100
AcDbSymbolTable
 70
41
  0
LTYPE
  5
16
100
AcDbSymbolTableRecord
100
AcDbLinetypeTableRecord
  2
Continuous
 70
0
  3
Solid line
 72
65
 73
0
 40
0.0
  0
LTYPE
  5
31
100
AcDbSymbolTableRecord
100
AcDbLinetypeTableRecord
  2
BORDERX2
 70
0
  3
Border (2x) ____  ____  .  ____  ____  .  ___
 72
65
 73
6
 40
88.899999999999977
 49
25.399999999999999
 74
0
 49
-12.699999999999999
 74
0
 49
25.399999999999999
 74
0
 49
-12.649999999999999
 74
0
 49
0.1
 74
0
 49
-12.649999999999999
 74
0
  0
LTYPE
  5
32
100
AcDbSymbolTableRecord
100
AcDbLinetypeTableRecord
  2
DASHED
 70
0
  3
Dashed __ __ __ __ __ __ __ __ __ __ __ __ __ _
 72
65
 73
2
 40
19.049999999999997
 49
12.699999999999999
 74
0
 49
-6.3499999999999996
 74
0
  0
LTYPE
  5
33
100
AcDbSymbolTableRecord
100
AcDbLinetypeTableRecord
  2
PHANTOM
 70
0
  3
Phantom ______  __  __  ______  __  __  ______ 
 72
65
 73
6
 40
63.500000000000007
 49
31.75
 74
0
 49
-6.3499999999999996
 74
0
 49
6.3499999999999996
 74
0
 49
-6.3499999999999996
 74
0
 49
6.3499999999999996
 74
0
 49
-6.3499999999999996
 74
0
  0
LTYPE
  5
34
100
AcDbSymbolTableRecord
100
AcDbLinetypeTableRecord
  2
ACAD_ISO15W100
 70
0
  3
ISO double-dash triple-dot __ __ . . . __ __ . .
 72
65
 73
10
 40
39.000000000000007
 49
12.0
 74
0
 49
-3.0
 74
0
 49
12.0
 74
0
 49
-2.9500000000000002
 74
0
 49
0.1
 74
0
 49
-2.9000000000000004
 74
0
 49
0.1
 74
0
 49
-2.9000000000000004
 74
0
 49
0.1
 74
0
 49
-2.9500000000000002
 74
0
  0
LTYPE
  5
35
100
AcDbSymbolTableRecord
100
AcDbLinetypeTableRecord
  2
ACAD_ISO07W100
 70
0
  3
ISO dot . . . . . . . . . . . . . . . . . . . . 
 72
65
 73
2
 40
3.0
 49
0.1
 74
0
 49
-2.8999999999999999
 74
0
  0
LTYPE
  5
36
100
AcDbSymbolTableRecord
100
AcDbLinetypeTableRecord
  2
ACAD_ISO03W100
 70
0
  3
ISO dash space __    __    __    __    __    __
 72
65
 73
2
 40
30.0
 49
12.0
 74
0
 49
-18.0
 74
0
  0
LTYPE
  5
37
100
AcDbSymbolTableRecord
100
AcDbLinetypeTableRecord
  2
DASHDOT2
 70
0
  3
Dash dot (.5x) _._._._._._._._._._._._._._._.
 72
65
 73
4
 40
12.699999999999999
 49
6.3499999999999996
 74
0
 49
-3.125
 74
0
 49
0.1
 74
0
 49
-3.125
 74
0
  0
LTYPE
  5
38
100
AcDbSymbolTableRecord
100
AcDbLinetypeTableRecord
  2
DOTX2
 70
0
  3
Dot (2x) .  .  .  .  .  .  .  .  .  .  .  .  .  .
 72
65
 73
2
 40
12.699999999999999
 49
0.1
 74
0
 49
-12.6
 74
0
  0
LTYPE
  5
39
100
AcDbSymbolTableRecord
100
AcDbLinetypeTableRecord
  2
BORDER
 70
0
  3
Border __ __ . __ __ . __ __ . __ __ . __ __ .
 72
65
 73
6
 40
44.449999999999996
 49
12.699999999999999
 74
0
 49
-6.3499999999999996
 74
0
 49
12.699999999999999
 74
0
 49
-6.2999999999999998
 74
0
 49
0.1
 74
0
 49
-6.2999999999999998
 74
0
  0
LTYPE
  5
3A
100
AcDbSymbolTableRecord
100
AcDbLinetypeTableRecord
  2
DASHED2
 70
0
  3
Dashed (.5x) _ _ _ _ _ _ _ _ _ _ _ _ _ _ _ _ _ 
 72
65
 73
2
 40
9.5249999999999986
 49
6.3499999999999996
 74
0
 49
-3.1749999999999998
 74
0
  0
LTYPE
  5
3B
100
AcDbSymbolTableRecord
100
AcDbLinetypeTableRecord
  2
ACAD_ISO11W100
 70
0
  3
ISO double-dash dot __ __ . __ __ . __ __ . __ _
 72
65
 73
6
 40
33.0
 49
12.0
 74
0
 49
-3.0
 74
0
 49
12.0
 74
0
 49
-2.9500000000000002
 74
0
 49
0.1
 74
0
 49
-2.9500000000000002
 74
0
  0
LTYPE
  5
3C
100
AcDbSymbolTableRecord
100
AcDbLinetypeTableRecord
  2
ACAD_ISO04W100
 70
0
  3
ISO long-dash dot ____ . ____ . ____ . ____ . _
 72
65
 73
4
 40
30.0
 49
24.0
 74
0
 49
-2.9500000000000002
 74
0
 49
0.1
 74
0
 49
-2.9500000000000002
 74
0
  0
LTYPE
  5
3D
100
AcDbSymbolTableRecord
100
AcDbLinetypeTableRecord
  2
ACAD_ISO08W100
 70
0
  3
ISO long-dash short-dash ____ __ ____ __ ____ _
 72
65
 73
4
 40
36.0
 49
24.0
 74
0
 49
-3.0
 74
0
 49
6.0
 74
0
 49
-3.0
 74
0
  0
LTYPE
  5
3E
100
AcDbSymbolTableRecord
100
AcDbLinetypeTableRecord
  2
PHANTOMX2
 70
0
  3
Phantom (2x) ____________    ____    ____   _
 72
65
 73
6
 40
127.00000000000001
 49
63.5
 74
0
 49
-12.699999999999999
 74
0
 49
12.699999999999999
 74
0
 49
-12.699999999999999
 74
0
 49
12.699999999999999
 74
0
 49
-12.699999999999999
 74
0
  0
LTYPE
  5
3F
100
AcDbSymbolTableRecord
100
AcDbLinetypeTableRecord
  2
DASHEDX2
 70
0
  3
Dashed (2x) ____  ____  ____  ____  ____  ___
 72
65
 73
2
 40
38.099999999999994
 49
25.399999999999999
 74
0
 49
-12.699999999999999
 74
0
  0
LTYPE
  5
40
100
AcDbSymbolTableRecord
100
AcDbLinetypeTableRecord
  2
ACAD_ISO06W100
 70
0
  3
ISO long-dash triple-dot ____ ... ____ ... ____
 72
65
 73
8
 40
36.000000000000007
 49
24.0
 74
0
 49
-2.9500000000000002
 74
0
 49
0.1
 74
0
 49
-2.9000000000000004
 74
0
 49
0.1
 74
0
 49
-2.9000000000000004
 74
0
 49
0.1
 74
0
 49
-2.9500000000000002
 74
0
  0
LTYPE
  5
41
100
AcDbSymbolTableRecord
100
AcDbLinetypeTableRecord
  2
DIVIDE
 70
0
  3
Divide ____ . . ____ . . ____ . . ____ . . ____
 72
65
 73
6
 40
31.750000000000004
 49
12.699999999999999
 74
0
 49
-6.2999999999999998
 74
0
 49
0.1
 74
0
 49
-6.25
 74
0
 49
0.1
 74
0
 49
-6.2999999999999998
 74
0
  0
LTYPE
  5
42
100
AcDbSymbolTableRecord
100
AcDbLinetypeTableRecord
  2
ACAD_ISO13W100
 70
0
  3
ISO double-dash double-dot __ __ . . __ __ . . _
 72
65
 73
8
 40
36.000000000000007
 49
12.0
 74
0
 49
-3.0
 74
0
 49
12.0
 74
0
 49
-2.9500000000000002
 74
0
 49
0.1
 74
0
 49
-2.9000000000000004
 74
0
 49
0.1
 74
0
 49
-2.9500000000000002
 74
0
  0
LTYPE
  5
43
100
AcDbSymbolTableRecord
100
AcDbLinetypeTableRecord
  2
HIDDEN
 70
0
  3
Hidden __ __ __ __ __ __ __ __ __ __ __ __ __ __
 72
65
 73
2
 40
9.5249999999999986
 49
6.3499999999999996
 74
0
 49
-3.1749999999999998
 74
0
  0
LTYPE
  5
44
100
AcDbSymbolTableRecord
100
AcDbLinetypeTableRecord
  2
CENTER
 70
0
  3
Center ____ _ ____ _ ____ _ ____ _ ____ _ ____
 72
65
 73
4
 40
50.800000000000004
 49
31.75
 74
0
 49
-6.3499999999999996
 74
0
 49
6.3499999999999996
 74
0
 49
-6.3499999999999996
 74
0
  0
LTYPE
  5
45
100
AcDbSymbolTableRecord
100
AcDbLinetypeTableRecord
  2
DOT
 70
0
  3
Dot . . . . . . . . . . . . . . . . . . . . . . . .
 72
65
 73
2
 40
6.3499999999999996
 49
0.1
 74
0
 49
-6.25
 74
0
  0
LTYPE
  5
46
100
AcDbSymbolTableRecord
100
AcDbLinetypeTableRecord
  2
DOT2
 70
0
  3
Dot (.5x) ........................................
 72
65
 73
2
 40
3.1749999999999998
 49
0.1
 74
0
 49
-3.0749999999999997
 74
0
  0
LTYPE
  5
47
100
AcDbSymbolTableRecord
100
AcDbLinetypeTableRecord
  2
DIVIDEX2
 70
0
  3
Divide (2x) ________  .  .  ________  .  .  _
 72
65
 73
6
 40
63.5
 49
25.399999999999999
 74
0
 49
-12.649999999999999
 74
0
 49
0.1
 74
0
 49
-12.599999999999998
 74
0
 49
0.1
 74
0
 49
-12.649999999999999
 74
0
  0
LTYPE
  5
48
100
AcDbSymbolTableRecord
100
AcDbLinetypeTableRecord
  2
CENTER2
 70
0
  3
Center (.5x) ___ _ ___ _ ___ _ ___ _ ___ _ ___
 72
65
 73
4
 40
28.575000000000003
 49
19.050000000000001
 74
0
 49
-3.1749999999999998
 74
0
 49
3.1749999999999998
 74
0
 49
-3.1749999999999998
 74
0
  0
LTYPE
  5
49
100
AcDbSymbolTableRecord
100
AcDbLinetypeTableRecord
  2
DASHDOTX2
 70
0
  3
Dash dot (2x) ____  .  ____  .  ____  .  ___
 72
65
 73
4
 40
50.799999999999997
 49
25.399999999999999
 74
0
 49
-12.649999999999999
 74
0
 49
0.1
 74
0
 49
-12.649999999999999
 74
0
  0
LTYPE
  5
4A
100
AcDbSymbolTableRecord
100
AcDbLinetypeTableRecord
  2
DIVIDE2
 70
0
  3
Divide (.5x) __..__..__..__..__..__..__..__.._
 72
65
 73
6
 40
15.874999999999998
 49
6.3499999999999996
 74
0
 49
-3.125
 74
0
 49
0.1
 74
0
 49
-3.0750000000000002
 74
0
 49
0.1
 74
0
 49
-3.125
 74
0
  0
LTYPE
  5
4B
100
AcDbSymbolTableRecord
100
AcDbLinetypeTableRecord
  2
ACAD_ISO12W100
 70
0
  3
ISO dash double-dot __ . . __ . . __ . . __ . . 
 72
65
 73
6
 40
21.0
 49
12.0
 74
0
 49
-2.9500000000000002
 74
0
 49
0.1
 74
0
 49
-2.9000000000000004
 74
0
 49
0.1
 74
0
 49
-2.9500000000000002
 74
0
  0
LTYPE
  5
4C
100
AcDbSymbolTableRecord
100
AcDbLinetypeTableRecord
  2
HIDDENX2
 70
0
  3
Hidden (2x) ____ ____ ____ ____ ____ ____ ____ 
 72
65
 73
2
 40
19.049999999999997
 49
12.699999999999999
 74
0
 49
-6.3499999999999996
 74
0
  0
LTYPE
  5
14
100
AcDbSymbolTableRecord
100
AcDbLinetypeTableRecord
  2
BYBLOCK
 70
0
  3

 72
65
 73
0
 40
0.0
  0
LTYPE
  5
4D
100
AcDbSymbolTableRecord
100
AcDbLinetypeTableRecord
  2
ACAD_ISO09W100
 70
0
  3
ISO long-dash double-short-dash ____ __ __ ____
 72
65
 73
6
 40
45.0
 49
24.0
 74
0
 49
-3.0
 74
0
 49
6.0
 74
0
 49
-3.0
 74
0
 49
6.0
 74
0
 49
-3.0
 74
0
  0
LTYPE
  5
4E
100
AcDbSymbolTableRecord
100
AcDbLinetypeTableRecord
  2
ACAD_ISO10W100
 70
0
  3
ISO dash dot __ . __ . __ . __ . __ . __ . __ . 
 72
65
 73
4
 40
18.0
 49
12.0
 74
0
 49
-2.9500000000000002
 74
0
 49
0.1
 74
0
 49
-2.9500000000000002
 74
0
  0
LTYPE
  5
4F
100
AcDbSymbolTableRecord
100
AcDbLinetypeTableRecord
  2
ACAD_ISO02W100
 70
0
  3
ISO dash __ __ __ __ __ __ __ __ __ __ __ __ __
 72
65
 73
2
 40
15.0
 49
12.0
 74
0
 49
-3.0
 74
0
  0
LTYPE
  5
50
100
AcDbSymbolTableRecord
100
AcDbLinetypeTableRecord
  2
DASHDOT
 70
0
  3
Dash dot __ . __ . __ . __ . __ . __ . __ . __
 72
65
 73
4
 40
25.400000000000002
 49
12.699999999999999
 74
0
 49
-6.2999999999999998
 74
0
 49
0.1
 74
0
 49
-6.2999999999999998
 74
0
  0
LTYPE
  5
51
100
AcDbSymbolTableRecord
100
AcDbLinetypeTableRecord
  2
ACAD_ISO14W100
 70
0
  3
ISO dash triple-dot __ . . . __ . . . __ . . . _
 72
65
 73
8
 40
24.000000000000004
 49
12.0
 74
0
 49
-2.9500000000000002
 74
0
 49
0.1
 74
0
 49
-2.9000000000000004
 74
0
 49
0.1
 74
0
 49
-2.9000000000000004
 74
0
 49
0.1
 74
0
 49
-2.9500000000000002
 74
0
  0
LTYPE
  5
52
100
AcDbSymbolTableRecord
100
AcDbLinetypeTableRecord
  2
CENTERX2
 70
0
  3
Center (2x) ________  __  ________  __  _____
 72
65
 73
4
 40
101.60000000000001
 49
63.5
 74
0
 49
-12.699999999999999
 74
0
 49
12.699999999999999
 74
0
 49
-12.699999999999999
 74
0
  0
LTYPE
  5
53
100
AcDbSymbolTableRecord
100
AcDbLinetypeTableRecord
  2
ACAD_ISO05W100
 70
0
  3
ISO long-dash double-dot ____ .. ____ .. ____ . 
 72
65
 73
6
 40
33.000000000000007
 49
24.0
 74
0
 49
-2.9500000000000002
 74
0
 49
0.1
 74
0
 49
-2.9000000000000004
 74
0
 49
0.1
 74
0
 49
-2.9500000000000002
 74
0
  0
LTYPE
  5
15
100
AcDbSymbolTableRecord
100
AcDbLinetypeTableRecord
  2
BYLAYER
 70
0
  3

 72
65
 73
0
 40
0.0
  0
LTYPE
  5
54
100
AcDbSymbolTableRecord
100
AcDbLinetypeTableRecord
  2
PHANTOM2
 70
0
  3
Phantom (.5x) ___ _ _ ___ _ _ ___ _ _ ___ _ _
 72
65
 73
6
 40
31.750000000000004
 49
15.875
 74
0
 49
-3.1749999999999998
 74
0
 49
3.1749999999999998
 74
0
 49
-3.1749999999999998
 74
0
 49
3.1749999999999998
 74
0
 49
-3.1749999999999998
 74
0
  0
LTYPE
  5
55
100
AcDbSymbolTableRecord
100
AcDbLinetypeTableRecord
  2
BORDER2
 70
0
  3
Border (.5x) __.__.__.__.__.__.__.__.__.__.__.
 72
65
 73
6
 40
22.225000000000001
 49
6.3499999999999996
 74
0
 49
-3.1749999999999998
 74
0
 49
6.3499999999999996
 74
0
 49
-3.125
 74
0
 49
0.1
 74
0
 49
-3.125
 74
0
  0
LTYPE
  5
56
100
AcDbSymbolTableRecord
100
AcDbLinetypeTableRecord
  2
HIDDEN2
 70
0
  3
Hidden (.5x) _ _ _ _ _ _ _ _ _ _ _ _ _ _ _ _ _ 
 72
65
 73
2
 40
4.7624999999999993
 49
3.1749999999999998
 74
0
 49
-1.5874999999999999
 74
0
  0
ENDTAB
  0
TABLE
  2
LAYER
  5
2
100
AcDbSymbolTable
 70
1
  0
LAYER
  5
10
100
AcDbSymbolTableRecord
100
AcDbLayerTableRecord
  2
0
 70
0
 62
7
420
16777215
  6
Continuous
370
25
390
F
  0
ENDTAB
  0
TABLE
  2
STYLE
  5
3
100
AcDbSymbolTable
 70
1
  0
STYLE
  5
57
100
AcDbSymbolTableRecord
100
AcDbTextStyleTableRecord
  2
Standard
 70
0
 40
0.0
 41
1.0
 50
0.0
 71
0
 42
2.5
  3

  4

1001
ACAD
1000
txt
1071
0
  0
ENDTAB
  0
TABLE
  2
VIEW
  5
6
100
AcDbSymbolTable
 70
0
  0
ENDTAB
  0
TABLE
  2
UCS
  5
7
100
AcDbSymbolTable
 70
0
  0
ENDTAB
  0
TABLE
  2
APPID
  5
9
100
AcDbSymbolTable
 70
1
  0
APPID
  5
12
100
AcDbSymbolTableRecord
100
AcDbRegAppTableRecord
  2
ACAD
 70
0
  0
APPID
  5
58
100
AcDbSymbolTableRecord
100
AcDbRegAppTableRecord
  2
QCAD
 70
0
  0
ENDTAB
  0
TABLE
  2
DIMSTYLE
  5
A
100
AcDbSymbolTable
 70
1
100
AcDbDimStyleTable
 71
0
  0
DIMSTYLE
105
27
100
AcDbSymbolTableRecord
100
AcDbDimStyleTableRecord
  2
Standard
 41
2.5
 42
0.625
 43
3.75
 44
1.25
 70
0
 73
0
 74
0
 77
1
 78
8
140
2.5
141
2.5
143
0.03937007874016
147
0.625
171
3
172
1
271
2
272
2
274
3
278
44
283
0
284
8
340
57
  0
ENDTAB
  0
TABLE
  2
BLOCK_RECORD
  5
1
100
AcDbSymbolTable
 70
1
  0
BLOCK_RECORD
  5
1F
100
AcDbSymbolTableRecord
100
AcDbBlockTableRecord
  2
*Model_Space
340
22
  0
BLOCK_RECORD
  5
1B
100
AcDbSymbolTableRecord
100
AcDbBlockTableRecord
  2
*Paper_Space
340
1E
  0
BLOCK_RECORD
  5
23
100
AcDbSymbolTableRecord
100
AcDbBlockTableRecord
  2
*Paper_Space0
340
26
  0
ENDTAB
  0
ENDSEC
  0
SECTION
  2
BLOCKS
  0
BLOCK
  5
20
100
AcDbEntity
  8
0
100
AcDbBlockBegin
  2
*Model_Space
 70
0
 10
0.0
 20
0.0
 30
0.0
  3
*Model_Space
  1

  0
ENDBLK
  5
21
100
AcDbEntity
  8
0
100
AcDbBlockEnd
  0
BLOCK
  5
1C
100
AcDbEntity
 67
1
  8
0
100
AcDbBlockBegin
  2
*Paper_Space
 70
0
 10
0.0
 20
0.0
 30
0.0
  3
*Paper_Space
  1

  0
ENDBLK
  5
1D
100
AcDbEntity
 67
1
  8
0
100
AcDbBlockEnd
  0
BLOCK
  5
24
100
AcDbEntity
  8
0
100
AcDbBlockBegin
  2
*Paper_Space0
 70
0
 10
0.0
 20
0.0
 30
0.0
  3
*Paper_Space0
  1

  0
ENDBLK
  5
25
100
AcDbEntity
  8
0
100
AcDbBlockEnd
  0
ENDSEC
  0
SECTION
  2
ENTITIES
  0
LINE
  5
59
100
AcDbEntity
  8
0
 62
256
370
-1
 48
1.0
  6
BYLAYER
100
AcDbLine
 10
0.0
 20
0.0
 30
0.0
 11
0.0
 21
128.5
 31
0.0
  0
LINE
  5
5A
100
AcDbEntity
  8
0
 62
256
370
-1
 48
1.0
  6
BYLAYER
100
AcDbLine
 10
0.0
 20
0.0
 30
0.0
 11
20.0
 21
0.0
 31
0.0
  0
LINE
  5
5B
100
AcDbEntity
  8
0
 62
256
370
-1
 48
1.0
  6
BYLAYER
100
AcDbLine
 10
20.0
 20
0.0
 30
0.0
 11
20.0
 21
128.5
 31
0.0
  0
LINE
  5
5C
100
AcDbEntity
  8
0
 62
256
370
-1
 48
1.0
  6
BYLAYER
100
AcDbLine
 10
0.0
 20
128.5
 30
0.0
 11
20.0
 21
128.5
 31
0.0
  0
CIRCLE
  5
5D
100
AcDbEntity
  8
0
 62
256
370
-1
 48
1.0
  6
BYLAYER
100
AcDbCircle
 10
5.5
 20
104.75
 30
0.0
 40
2.5
  0
CIRCLE
  5
5E
100
AcDbEntity
  8
0
 62
256
370
-1
 48
1.0
  6
BYLAYER
100
AcDbCircle
 10
5.4999999999999982
 20
83.25
 30
0.0
 40
2.5
  0
CIRCLE
  5
5F
100
AcDbEntity
  8
0
 62
256
370
-1
 48
1.0
  6
BYLAYER
100
AcDbCircle
 10
5.4999999999999964
 20
61.99799999999999
 30
0.0
 40
2.5
  0
CIRCLE
  5
60
100
AcDbEntity
  8
0
 62
256
370
-1
 48
1.0
  6
BYLAYER
100
AcDbCircle
 10
5.4999999999999991
 20
40.0
 30
0.0
 40
2.5
  0
CIRCLE
  5
61
100
AcDbEntity
  8
0
 62
256
370
-1
 48
1.0
  6
BYLAYER
100
AcDbCircle
 10
12.499999999999998
 20
125.49999999999999
 30
0.0
 40
1.6000000000000085
  0
CIRCLE
  5
62
100
AcDbEntity
  8
0
 62
256
370
-1
 48
1.0
  6
BYLAYER
100
AcDbCircle
 10
7.4999999999999991
 20
2.9999999999999996
 30
0.0
 40
1.6000000000000085
  0
CIRCLE
  5
63
100
AcDbEntity
  8
0
 62
256
370
-1
 48
1.0
  6
BYLAYER
100
AcDbCircle
 10
9.0
 20
113.0
 30
0.0
 40
3.5
  0
CIRCLE
  5
64
100
AcDbEntity
  8
0
 62
256
370
-1
 48
1.0
  6
BYLAYER
100
AcDbCircle
 10
8.9999999999999982
 20
91.5
 30
0.0
 40
3.5
  0
CIRCLE
  5
65
100
AcDbEntity
  8
0
 62
256
370
-1
 48
1.0
  6
BYLAYER
100
AcDbCircle
 10
8.9999999999999964
 20
70.24799999999999
 30
0.0
 40
3.5
  0
CIRCLE
  5
66
100
AcDbEntity
  8
0
 62
256
370
-1
 48
1.0
  6
BYLAYER
100
AcDbCircle
 10
8.9999999999999947
 20
48.74799999999999
 30
0.0
 40
3.5
  0
CIRCLE
  5
67
100
AcDbEntity
  8
0
 62
256
370
-1
 48
1.0
  6
BYLAYER
100
AcDbCircle
 10
8.9999999999999929
 20
27.24799999999999
 30
0.0
 40
3.5
  0
LWPOLYLINE
  5
68
100
AcDbEntity
  8
0
 62
256
370
-1
 48
1.0
  6
BYLAYER
100
AcDbPolyline
 90
13
 70
129
 10
16.929467939972707
 20
117.46248294679398
 42
0.0694677356207328
 10
16.675716234652114
 20
116.97748976807638
 10
16.248021828103681
 20
117.20054570259207
 42
-0.0527653630373376
 10
16.360572987721689
 20
117.46862210095496
 42
-0.0097546836814977
 10
16.626603001364256
 20
117.87175989085947
 42
-0.1043559505006074
 10
16.497680763983627
 20
118.52455661664392
 42
-0.2109236866729664
 10
16.904911323328783
 20
119.60811732605728
 42
-0.198563397492523
 10
18.048840381991813
 20
119.99999999999999
 42
-0.1986937377325018
 10
19.191746248294677
 20
119.60709413369712
 42
-0.2114038129902632
 10
19.599999999999998
 20
118.54092769440653
 42
-0.212269833700431
 10
19.191746248294677
 20
117.48294679399726
 42
-0.1978946849165781
 10
18.048840381991813
 20
117.09208731241472
 42
-0.0883154482435686
 10
17.365347885402453
 20
117.20054570259207
 42
-0.0901630541702692
  0
LWPOLYLINE
  5
69
100
AcDbEntity
  8
0
 62
256
370
-1
 48
1.0
  6
BYLAYER
100
AcDbPolyline
 90
12
 70
129
 10
17.271214188267393
 20
117.94952251023192
 42
0.1045738303470736
 10
17.602728512960436
 20
117.77455661664392
 42
0.0727400207144972
 10
18.048840381991813
 20
117.71623465211458
 42
0.1840853094190252
 10
18.82544338335607
 20
117.94542974079125
 42
0.2236823454169547
 10
19.082264665757162
 20
118.54502046384719
 42
0.2236397269953562
 10
18.824420190995905
 20
119.14563437926329
 42
0.1844029229127403
 10
18.048840381991813
 20
119.37585266030013
 42
0.1825091992785405
 10
17.262005457025918
 20
119.14563437926329
 42
0.2256279702051948
 10
17.001091405184173
 20
118.56343792633014
 42
0.0891288695451307
 10
17.044065484311048
 20
118.31582537517052
 42
0.060024565241893
 10
17.232332878581172
 20
118.69031377899043
 10
17.578171896316505
 20
118.52046384720326
 42
-0.0792591628347377
  0
LWPOLYLINE
  5
6A
100
AcDbEntity
  8
0
 62
256
370
-1
 48
1.0
  6
BYLAYER
100
AcDbPolyline
 90
20
 70
129
 10
19.548840381991813
 20
116.61885778238883
 10
19.548840381991813
 20
116.0131279051719
 10
17.924010914051841
 20
116.0131279051719
 42
0.037277438232666
 10
17.422646657571622
 20
115.99061767324831
 42
0.1857457288812732
 10
17.126944065484309
 20
115.80541985605868
 42
0.1653286179779375
 10
17.015416098226464
 20
115.40535164323467
 42
0.1697375221284781
 10
17.120804911323326
 20
115.01653854637246
 42
0.18842468323509
 10
17.379672578444747
 20
114.85896692290724
 42
0.0378494324508948
 10
17.889222373806273
 20
114.83236392154298
 10
19.548840381991813
 20
114.83236392154298
 10
19.548840381991813
 20
114.22663404432606
 10
17.973124147339696
 20
114.22663404432606
 42
-0.0473349213820988
 10
17.209822646657567
 20
114.27574727761393
 42
-0.1255939727647623
 10
16.833287858117323
 20
114.4568523253629
 42
-0.1189846863158935
 10
16.588744884038196
 20
114.80985368961939
 42
-0.095991432064684
 10
16.497680763983627
 20
115.38693418075171
 42
-0.1001954078731559
 10
16.596930422919506
 20
116.038707714176
 42
-0.1184490819260591
 10
16.854774897680763
 20
116.38966269371215
 42
-0.1144212571579866
 10
17.187312414733967
 20
116.55951262549932
 42
-0.0525371796828326
 10
17.948567530695769
 20
116.61885778238883
  0
LWPOLYLINE
  5
6B
100
AcDbEntity
  8
0
 62
256
370
-1
 48
1.0
  6
BYLAYER
100
AcDbPolyline
 90
8
 70
129
 10
16.548840381991813
 20
110.87285456372383
 10
16.548840381991813
 20
111.53179044366927
 10
17.230286493860845
 20
111.79372768787117
 10
17.230286493860845
 20
112.99290913398303
 10
16.548840381991813
 20
113.24052168514265
 10
16.548840381991813
 20
113.88308648732547
 10
19.548840381991813
 20
112.71460081201852
 10
19.548840381991813
 20
112.07408239455603
  0
LWPOLYLINE
  5
6C
100
AcDbEntity
  8
0
 62
256
370
-1
 48
1.0
  6
BYLAYER
100
AcDbPolyline
 90
3
 70
129
 10
17.735743519781717
 20
111.98813423630227
 10
18.848976807639836
 20
112.40150394980841
 10
17.735743519781717
 20
112.80668812443325
  0
LWPOLYLINE
  5
6D
100
AcDbEntity
  8
0
 62
256
370
-1
 48
1.0
  6
BYLAYER
100
AcDbPolyline
 90
11
 70
129
 10
19.548840381991813
 20
110.54363169976553
 10
19.548840381991813
 20
109.4365375660684
 42
-0.0666508244572539
 10
19.491541609822647
 20
108.86559622909704
 42
-0.1344499765203865
 10
19.215279672578443
 20
108.41334520590468
 42
-0.1088878701120064
 10
18.72926330150068
 20
108.12685134505884
 42
-0.0813678137237312
 10
18.020190995907228
 20
108.02862487848313
 42
-0.0823488530412371
 10
17.381718963165074
 20
108.12071219089786
 42
-0.1188012209229356
 10
16.851705320600271
 20
108.44199459198927
 42
-0.1162071684506754
 10
16.612278308321962
 20
108.86764261381737
 42
-0.0740543908422706
 10
16.548840381991813
 20
109.40379541054315
 10
16.548840381991813
 20
110.54363169976553
  0
LWPOLYLINE
  5
6E
100
AcDbEntity
  8
0
 62
256
370
-1
 48
1.0
  6
BYLAYER
100
AcDbPolyline
 90
11
 70
129
 10
19.041336971350614
 20
109.93790182254861
 10
17.054297407912685
 20
109.93790182254861
 10
17.054297407912685
 20
109.48565079935625
 42
0.0558295038653026
 10
17.082946793997269
 20
109.11934793441765
 42
0.1246777329599363
 10
17.207776261937241
 20
108.87480496033851
 42
0.1322184632590526
 10
17.497339699863574
 20
108.71621014451314
 42
0.070980039510903
 10
18.046793997271486
 20
108.65481860290332
 42
0.0754210298554191
 10
18.580900409276943
 20
108.71621014451314
 42
0.124877368981543
 10
18.871487039563437
 20
108.88810646102064
 42
0.1387658659854735
 10
19.012687585266029
 20
109.1684611677055
 42
0.0454358940188756
 10
19.041336971350614
 20
109.66573265474504
  0
LWPOLYLINE
  5
6F
100
AcDbEntity
  8
0
 62
256
370
-1
 48
1.0
  6
BYLAYER
100
AcDbPolyline
 90
18
 70
129
 10
16.548840381991813
 20
106.34854302309431
 10
19.548840381991813
 20
106.34854302309431
 10
19.548840381991813
 20
105.07364534233034
 42
-0.08112836006173
 10
19.468008185538878
 20
104.37480496033851
 42
-0.1686139866338036
 10
19.180491132332875
 20
104.0258963655227
 42
-0.1448767492350653
 10
18.707776261937241
 20
103.89492774342173
 42
-0.191556661426821
 10
18.150136425648022
 20
104.0934270612935
 42
-0.1771772627636573
 10
17.872851296043656
 20
104.68687863018845
 42
-0.073017920739902
 10
17.621145975443383
 20
104.36252665201656
 42
-0.0437171141279232
 10
17.134106412005455
 20
104.01771082664138
 10
16.548840381991813
 20
103.65140796170277
 10
16.548840381991813
 20
104.37582815269867
 10
17.201637107776261
 20
104.81375448284875
 42
0.0321751181627939
 10
17.642633015006819
 20
105.13299049921983
 42
0.1204748279837653
 10
17.76746248294679
 20
105.31511873932897
 42
0.0772762983385701
 10
17.801227830832193
 20
105.62003006265775
 10
17.801227830832193
 20
105.74281314587739
 10
16.548840381991813
 20
105.74281314587739
  0
LWPOLYLINE
  5
70
100
AcDbEntity
  8
0
 62
256
370
-1
 48
1.0
  6
BYLAYER
100
AcDbPolyline
 90
9
 70
129
 10
18.280081855388811
 20
105.74281314587739
 10
18.280081855388811
 20
105.29465489212569
 42
0.0591431601119219
 10
18.316916780354706
 20
104.7503165565186
 42
0.1669928072445006
 10
18.443792633015004
 20
104.58046662473143
 42
0.1528181065357989
 10
18.668894952251023
 20
104.51907508312161
 42
0.1851344793069915
 10
18.913437926330147
 20
104.59990727957452
 42
0.1785379941196191
 10
19.031105047748976
 20
104.82807917589103
 42
0.0216813850265143
 10
19.041336971350614
 20
105.27009827548176
 10
19.041336971350614
 20
105.74281314587739
  0
LWPOLYLINE
  5
71
100
AcDbEntity
  8
0
 62
256
370
-1
 48
1.0
  6
BYLAYER
100
AcDbPolyline
 90
12
 70
129
 10
16.548840381991813
 20
103.31399955886316
 10
19.548840381991813
 20
103.31399955886316
 10
19.548840381991813
 20
101.08957936786726
 10
19.041336971350614
 20
101.08957936786726
 10
19.041336971350614
 20
102.70826968164624
 10
18.376261937244202
 20
102.70826968164624
 10
18.376261937244202
 20
101.20213052748525
 10
17.870804911323326
 20
101.20213052748525
 10
17.870804911323326
 20
102.70826968164624
 10
17.054297407912685
 20
102.70826968164624
 10
17.054297407912685
 20
101.03228059569808
 10
16.548840381991813
 20
101.03228059569808
  0
LWPOLYLINE
  5
72
100
AcDbEntity
  8
0
 62
256
370
-1
 48
1.0
  6
BYLAYER
100
AcDbPolyline
 90
7
 70
129
 10
16.548840381991813
 20
99.763019663265538
 10
19.548840381991813
 20
100.83532525671711
 10
19.548840381991813
 20
100.17843576149201
 10
17.328512960436559
 20
99.419227030250539
 10
19.548840381991813
 20
98.684574915652988
 10
19.548840381991813
 20
98.042010113470184
 10
16.548840381991813
 20
99.116362091642074
  0
LWPOLYLINE
  5
73
100
AcDbEntity
  8
0
 62
256
370
-1
 48
1.0
  6
BYLAYER
100
AcDbPolyline
 90
12
 70
129
 10
16.548840381991813
 20
97.742735538472829
 10
19.548840381991813
 20
97.742735538472829
 10
19.548840381991813
 20
95.518315347476928
 10
19.041336971350614
 20
95.518315347476928
 10
19.041336971350614
 20
97.137005661255913
 10
18.376261937244202
 20
97.137005661255913
 10
18.376261937244202
 20
95.630866507094936
 10
17.870804911323326
 20
95.630866507094936
 10
17.870804911323326
 20
97.137005661255913
 10
17.054297407912685
 20
97.137005661255913
 10
17.054297407912685
 20
95.461016575307752
 10
16.548840381991813
 20
95.461016575307752
  0
LWPOLYLINE
  5
74
100
AcDbEntity
  8
0
 62
256
370
-1
 48
1.0
  6
BYLAYER
100
AcDbPolyline
 90
18
 70
129
 10
16.548840381991813
 20
94.95505714355734
 10
19.548840381991813
 20
94.95505714355734
 10
19.548840381991813
 20
93.680159462793355
 42
-0.0811283600617278
 10
19.468008185538878
 20
92.981319080801541
 42
-0.1686139866337965
 10
19.180491132332875
 20
92.632410485985716
 42
-0.1448767492350962
 10
18.707776261937241
 20
92.501441863884764
 42
-0.191556661426821
 10
18.150136425648022
 20
92.699941181756529
 42
-0.1771772627636489
 10
17.872851296043656
 20
93.293392750651478
 42
-0.0730179207399071
 10
17.621145975443383
 20
92.969040772479588
 42
-0.0437171141279252
 10
17.134106412005455
 20
92.624224947104409
 10
16.548840381991813
 20
92.257922082165805
 10
16.548840381991813
 20
92.982342273161706
 10
17.201637107776261
 20
93.420268603311769
 42
0.0321751181628237
 10
17.642633015006819
 20
93.739504619682862
 42
0.1204748279837448
 10
17.76746248294679
 20
93.921632859791998
 42
0.0772762983385777
 10
17.801227830832193
 20
94.22654418312078
 10
17.801227830832193
 20
94.349327266340424
 10
16.548840381991813
 20
94.349327266340424
  0
LWPOLYLINE
  5
75
100
AcDbEntity
  8
0
 62
256
370
-1
 48
1.0
  6
BYLAYER
100
AcDbPolyline
 90
9
 70
129
 10
18.280081855388811
 20
94.349327266340424
 10
18.280081855388811
 20
93.901169012588724
 42
0.0591431601119219
 10
18.316916780354706
 20
93.35683067698163
 42
0.1669928072445416
 10
18.443792633015004
 20
93.186980745194447
 42
0.1528181065356835
 10
18.668894952251023
 20
93.125589203584624
 42
0.1851344793069546
 10
18.913437926330147
 20
93.206421400037556
 42
0.1785379941196191
 10
19.031105047748976
 20
93.434593296354066
 42
0.0216813850265151
 10
19.041336971350614
 20
93.876612395944804
 10
19.041336971350614
 20
94.349327266340424
  0
LWPOLYLINE
  5
76
100
AcDbEntity
  8
0
 62
256
370
-1
 48
1.0
  6
BYLAYER
100
AcDbPolyline
 90
30
 70
129
 10
17.524965893587993
 20
92.073992533350747
 10
17.582264665757162
 20
91.484633733896445
 42
0.1742698639722124
 10
17.146384720327418
 20
91.268740145901901
 42
0.1822119347677094
 10
17.007230559345153
 20
90.829790623391673
 42
0.1749322093143676
 10
17.131036834924963
 20
90.388794716161115
 42
0.232791442650234
 10
17.420600272851296
 20
90.240431823937371
 42
0.1811098694256335
 10
17.601705320600271
 20
90.302846557907358
 42
0.1292873456278717
 10
17.731650750341061
 20
90.520786530622232
 42
0.0168515435654326
 10
17.862619372442019
 20
91.005779709339834
 42
-0.1147099677201865
 10
18.159345156889493
 20
91.689272205929186
 42
-0.2232150866739611
 10
18.763028649386083
 20
91.965534143173386
 42
-0.1484219162819592
 10
19.191746248294677
 20
91.8355887134326
 42
-0.1516027065394839
 10
19.495634379263301
 20
91.461100309612675
 42
-0.1008779219693758
 10
19.599999999999998
 20
90.870718317798222
 42
-0.1805269069094589
 10
19.352387448840382
 20
90.020445466502181
 42
-0.2174301491091306
 10
18.691405184174624
 20
89.720650104974212
 10
18.664802182810366
 20
90.326379982191128
 42
0.1871423791969296
 10
18.997339699863574
 20
90.493160336897816
 42
0.1670009239443079
 10
19.098635743519779
 20
90.876857471959198
 42
0.1582324430724084
 10
18.990177353342425
 20
91.290227185465341
 42
0.2553934114734247
 10
18.803956343792631
 20
91.386407267320735
 42
0.2323241784268582
 10
18.621828103683491
 20
91.296366339626331
 42
0.0936974867588214
 10
18.421282401091403
 20
90.73974969569727
 42
-0.0588045002859137
 10
18.20538881309686
 20
90.08592977755265
 42
-0.1361073350707211
 10
17.900477489768075
 20
89.754415452859604
 42
-0.1408318990042077
 10
17.422646657571622
 20
89.634701946720455
 42
-0.14556642339795
 10
16.939699863574351
 20
89.777948877143373
 42
-0.1567867069059083
 10
16.605115961800816
 20
90.183133051768209
 42
-0.0983302336073182
 10
16.495634379263301
 20
90.83592977755265
 42
-0.1813076090757538
 10
16.758594815825372
 20
91.70973605313246
 42
-0.1923164667376534
  0
LWPOLYLINE
  5
77
100
AcDbEntity
  8
0
 62
256
370
-1
 48
1.0
  6
BYLAYER
100
AcDbPolyline
 90
12
 70
129
 10
16.548840381991813
 20
89.134881669131033
 10
19.548840381991813
 20
89.134881669131033
 10
19.548840381991813
 20
86.910461478135119
 10
19.041336971350614
 20
86.910461478135119
 10
19.041336971350614
 20
88.529151791914103
 10
18.376261937244202
 20
88.529151791914103
 10
18.376261937244202
 20
87.023012637753141
 10
17.870804911323326
 20
87.023012637753141
 10
17.870804911323326
 20
88.529151791914103
 10
17.054297407912685
 20
88.529151791914103
 10
17.054297407912685
 20
86.853162705965957
 10
16.548840381991813
 20
86.853162705965957
  0
LWPOLYLINE
  5
78
100
AcDbEntity
  8
0
 62
256
370
-1
 48
1.0
  6
BYLAYER
100
AcDbPolyline
 90
8
 70
129
 10
16.548840381991813
 20
82.644803163114403
 10
16.548840381991813
 20
83.303739043059835
 10
17.230286493860845
 20
83.565676287261752
 10
17.230286493860845
 20
84.764857733373617
 10
16.548840381991813
 20
85.012470284533237
 10
16.548840381991813
 20
85.655035086716055
 10
19.548840381991813
 20
84.486549411409101
 10
19.548840381991813
 20
83.846030993946613
  0
LWPOLYLINE
  5
79
100
AcDbEntity
  8
0
 62
256
370
-1
 48
1.0
  6
BYLAYER
100
AcDbPolyline
 90
3
 70
129
 10
17.735743519781717
 20
83.760082835692856
 10
18.848976807639836
 20
84.173452549198998
 10
17.735743519781717
 20
84.57863672382382
  0
LWPOLYLINE
  5
7A
100
AcDbEntity
  8
0
 62
256
370
-1
 48
1.0
  6
BYLAYER
100
AcDbPolyline
 90
7
 70
129
 10
16.548840381991813
 20
81.859138476117323
 10
19.548840381991813
 20
82.931444069568897
 10
19.548840381991813
 20
82.274554574343796
 10
17.328512960436559
 20
81.515345843102324
 10
19.548840381991813
 20
80.780693728504772
 10
19.548840381991813
 20
80.138128926321968
 10
16.548840381991813
 20
81.212480904493873
  0
LWPOLYLINE
  5
7B
100
AcDbEntity
  8
0
 62
256
370
-1
 48
1.0
  6
BYLAYER
100
AcDbPolyline
 90
8
 70
129
 10
16.548840381991813
 20
77.444486198135763
 10
16.548840381991813
 20
78.103422078081195
 10
17.230286493860845
 20
78.365359322283112
 10
17.230286493860845
 20
79.564540768394977
 10
16.548840381991813
 20
79.812153319554596
 10
16.548840381991813
 20
80.454718121737415
 10
19.548840381991813
 20
79.286232446430461
 10
19.548840381991813
 20
78.645714028967973
  0
LWPOLYLINE
  5
7C
100
AcDbEntity
  8
0
 62
256
370
-1
 48
1.0
  6
BYLAYER
100
AcDbPolyline
 90
3
 70
129
 10
17.735743519781717
 20
78.559765870714216
 10
18.848976807639836
 20
78.973135584220358
 10
17.735743519781717
 20
79.37831975884518
  0
LWPOLYLINE
  5
7D
100
AcDbEntity
  8
0
 62
256
370
-1
 48
1.0
  6
BYLAYER
100
AcDbPolyline
 90
6
 70
129
 10
16.548840381991813
 20
77.096845871694512
 10
19.524283765347885
 20
77.096845871694512
 10
19.524283765347885
 20
76.49111599447761
 10
17.054297407912685
 20
76.49111599447761
 10
17.054297407912685
 20
74.984976840316619
 10
16.548840381991813
 20
74.984976840316619
  0
LWPOLYLINE
  5
7E
100
AcDbEntity
  8
0
 62
256
370
-1
 48
1.0
  6
BYLAYER
100
AcDbPolyline
 90
8
 70
129
 10
16.548840381991813
 20
71.848126393869819
 10
16.548840381991813
 20
72.507062273815251
 10
17.230286493860845
 20
72.768999518017154
 10
17.230286493860845
 20
73.968180964129033
 10
16.548840381991813
 20
74.215793515288652
 10
16.548840381991813
 20
74.858358317471442
 10
19.548840381991813
 20
73.689872642164488
 10
19.548840381991813
 20
73.049354224702014
  0
LWPOLYLINE
  5
7F
100
AcDbEntity
  8
0
 62
256
370
-1
 48
1.0
  6
BYLAYER
100
AcDbPolyline
 90
3
 70
129
 10
17.735743519781717
 20
72.963406066448258
 10
18.848976807639836
 20
73.3767757799544
 10
17.735743519781717
 20
73.781959954579236
  0
LWPOLYLINE
  5
80
100
AcDbEntity
  8
0
 62
256
370
-1
 48
1.0
  6
BYLAYER
100
AcDbPolyline
 90
10
 70
129
 10
16.548840381991813
 20
71.510717991030191
 10
19.548840381991813
 20
71.510717991030191
 10
19.548840381991813
 20
70.921359191575903
 10
17.545429740791267
 20
69.693528359379457
 10
19.548840381991813
 20
69.693528359379457
 10
19.548840381991813
 20
69.130772561289405
 10
16.548840381991813
 20
69.130772561289405
 10
16.548840381991813
 20
69.738548823226665
 10
18.505184174624826
 20
70.947962192940167
 10
16.548840381991813
 20
70.947962192940167
  0
LWPOLYLINE
  5
81
100
AcDbEntity
  8
0
 62
256
370
-1
 48
1.0
  6
BYLAYER
100
AcDbPolyline
 90
18
 70
129
 10
17.651841746248294
 20
66.560758428572584
 10
17.465620736698497
 20
65.973446013838611
 42
-0.1671334748728582
 10
16.736084583901771
 20
66.422627459950462
 42
-0.1668573789571467
 10
16.497680763983627
 20
67.219694308518001
 42
-0.2156679250405146
 10
16.905934515688948
 20
68.201958974275158
 42
-0.1962365570038968
 10
18.022237380627555
 20
68.586679301696734
 42
-0.1939199734531183
 10
19.185607094133694
 20
68.199912589554856
 42
-0.2167562810564208
 10
19.599999999999998
 20
67.182859383552113
 42
-0.1981473977178539
 10
19.274624829467939
 20
66.288589260769029
 42
-0.1360063931839887
 10
18.722100954979535
 20
65.981631552719918
 10
18.578854024556616
 20
66.581222275775858
 42
0.1742050159678637
 10
18.94720327421555
 20
66.803255017931377
 42
0.1749533473553122
 10
19.082264665757162
 20
67.213555154357039
 42
0.2280391616546609
 10
18.842837653478853
 20
67.754823912883637
 42
0.1763450075047171
 10
18.06725784447476
 20
67.962531961996859
 42
0.170901232136977
 10
17.256889495225099
 20
67.757893489964118
 42
0.2316114705458022
 10
17.015416098226464
 20
67.225833462678992
 42
0.1889892712899923
 10
17.168894952251023
 20
66.810417364452519
 42
0.1561720808102986
  0
LWPOLYLINE
  5
82
100
AcDbEntity
  8
0
 62
256
370
-1
 48
1.0
  6
BYLAYER
100
AcDbPolyline
 90
12
 70
129
 10
16.548840381991813
 20
65.441631062567893
 10
19.548840381991813
 20
65.441631062567893
 10
19.548840381991813
 20
64.835901185350963
 10
18.368076398362891
 20
64.835901185350963
 10
18.368076398362891
 20
63.648998047561065
 10
19.548840381991813
 20
63.648998047561065
 10
19.548840381991813
 20
63.043268170344156
 10
16.548840381991813
 20
63.043268170344156
 10
16.548840381991813
 20
63.648998047561065
 10
17.860572987721689
 20
63.648998047561065
 10
17.860572987721689
 20
64.835901185350963
 10
16.548840381991813
 20
64.835901185350963
  0
LWPOLYLINE
  5
83
100
AcDbEntity
  8
0
 62
256
370
-1
 48
1.0
  6
BYLAYER
100
AcDbPolyline
 90
12
 70
129
 10
16.548840381991813
 20
62.40708759833673
 10
19.548840381991813
 20
62.40708759833673
 10
19.548840381991813
 20
60.182667407340823
 10
19.041336971350614
 20
60.182667407340823
 10
19.041336971350614
 20
61.801357721119821
 10
18.376261937244202
 20
61.801357721119821
 10
18.376261937244202
 20
60.29521856695883
 10
17.870804911323326
 20
60.29521856695883
 10
17.870804911323326
 20
61.801357721119821
 10
17.054297407912685
 20
61.801357721119821
 10
17.054297407912685
 20
60.125368635171661
 10
16.548840381991813
 20
60.125368635171661
  0
LWPOLYLINE
  5
84
100
AcDbEntity
  8
0
 62
256
370
-1
 48
1.0
  6
BYLAYER
100
AcDbPolyline
 90
10
 70
129
 10
18.030422919508865
 20
58.589832613082137
 42
-0.1035033566386815
 10
18.799863574351978
 20
58.452724836820202
 42
-0.0887304716847961
 10
19.211186903137786
 20
58.173393322495514
 42
-0.1022159918237273
 10
19.481309686221007
 20
57.785603417993464
 42
-0.1008111681527579
 10
19.599999999999998
 20
57.138945846370007
 42
-0.2109692091520954
 10
19.188676671214186
 20
56.077895368880228
 42
-0.199744770076468
 10
18.044747612551159
 20
55.679873540776541
 42
-0.199062599222238
 10
16.907980900409274
 20
56.074825791799732
 42
-0.2117135593124106
 10
16.497680763983627
 20
57.130760307488686
 42
-0.2107726254246683
 10
16.905934515688948
 20
58.194880362058946
 42
-0.2000088613351932
  0
LWPOLYLINE
  5
85
100
AcDbEntity
  8
0
 62
256
370
-1
 48
1.0
  6
BYLAYER
100
AcDbPolyline
 90
8
 70
129
 10
18.050886766712139
 20
57.965685273382277
 42
0.1858023423294547
 10
17.278376534788539
 20
57.730351030544625
 42
0.2234885323936789
 10
17.015416098226464
 20
57.132806692209023
 42
0.2242506675355647
 10
17.276330150068212
 20
56.538331930953895
 42
0.1840757256043328
 10
18.05907230559345
 20
56.306067265196738
 42
0.1837364737804558
 10
18.828512960436562
 20
56.532192776792918
 42
0.2237063844645732
 10
19.082264665757162
 20
57.132806692209023
 42
0.2235993490207207
 10
18.82544338335607
 20
57.736490184705609
 42
0.1842082365376963
  0
LWPOLYLINE
  5
86
100
AcDbEntity
  8
0
 62
256
370
-1
 48
1.0
  6
BYLAYER
100
AcDbPolyline
 90
30
 70
129
 10
17.524965893587993
 20
55.358076480054876
 10
17.582264665757162
 20
54.768717680600574
 42
0.1742698639721916
 10
17.146384720327418
 20
54.552824092606031
 42
0.1822119347677209
 10
17.007230559345153
 20
54.113874570095803
 42
0.1749322093143647
 10
17.131036834924963
 20
53.672878662865244
 42
0.2327914426502892
 10
17.420600272851296
 20
53.524515770641514
 42
0.1811098694256385
 10
17.601705320600271
 20
53.586930504611487
 42
0.1292873456278708
 10
17.731650750341061
 20
53.804870477326361
 42
0.016851543565451
 10
17.862619372442019
 20
54.289863656043963
 42
-0.1147099677201834
 10
18.159345156889493
 20
54.973356152633315
 42
-0.223215086673945
 10
18.763028649386083
 20
55.249618089877529
 42
-0.1484219162819289
 10
19.191746248294677
 20
55.119672660136729
 42
-0.1516027065394301
 10
19.495634379263301
 20
54.745184256316819
 42
-0.1008779219693635
 10
19.599999999999998
 20
54.154802264502351
 42
-0.1805269069094504
 10
19.352387448840382
 20
53.304529413206296
 42
-0.2174301491091118
 10
18.691405184174624
 20
53.004734051678341
 10
18.664802182810366
 20
53.610463928895243
 42
0.1871423791969048
 10
18.997339699863574
 20
53.777244283601945
 42
0.167000923944307
 10
19.098635743519779
 20
54.160941418663327
 42
0.1582324430723882
 10
18.990177353342425
 20
54.57431113216947
 42
0.2553934114734339
 10
18.803956343792631
 20
54.670491214024864
 42
0.2323241784268806
 10
18.621828103683491
 20
54.580450286330446
 42
0.0936974867588392
 10
18.421282401091403
 20
54.023833642401385
 42
-0.0588045002858925
 10
18.20538881309686
 20
53.370013724256779
 42
-0.1361073350707293
 10
17.900477489768075
 20
53.038499399563733
 42
-0.1408318990041842
 10
17.422646657571622
 20
52.918785893424584
 42
-0.1455664233979768
 10
16.939699863574351
 20
53.062032823847503
 42
-0.1567867069059035
 10
16.605115961800816
 20
53.467216998472324
 42
-0.0983302336073126
 10
16.495634379263301
 20
54.120013724256779
 42
-0.1813076090757609
 10
16.758594815825372
 20
54.993819999836589
 42
-0.1923164667376351
  0
LWPOLYLINE
  5
87
100
AcDbEntity
  8
0
 62
256
370
-1
 48
1.0
  6
BYLAYER
100
AcDbPolyline
 90
18
 70
129
 10
17.651841746248294
 20
50.499456748168029
 10
17.465620736698497
 20
49.912144333434057
 42
-0.1671334748728276
 10
16.736084583901771
 20
50.361325779545936
 42
-0.1668573789571684
 10
16.497680763983627
 20
51.158392628113461
 42
-0.2156679250404982
 10
16.905934515688948
 20
52.140657293870632
 42
-0.1962365570038669
 10
18.022237380627555
 20
52.525377621292179
 42
-0.1939199734531313
 10
19.185607094133694
 20
52.138610909150287
 42
-0.2167562810564387
 10
19.599999999999998
 20
51.121557703147559
 42
-0.198147397717855
 10
19.274624829467939
 20
50.227287580364489
 42
-0.1360063931839733
 10
18.722100954979535
 20
49.920329872315378
 10
18.578854024556616
 20
50.519920595371303
 42
0.1742050159678656
 10
18.94720327421555
 20
50.741953337526837
 42
0.1749533473553136
 10
19.082264665757162
 20
51.152253473952484
 42
0.2280391616546773
 10
18.842837653478853
 20
51.693522232479083
 42
0.1763450075046983
 10
18.06725784447476
 20
51.901230281592319
 42
0.1709012321369742
 10
17.256889495225099
 20
51.696591809559578
 42
0.2316114705458046
 10
17.015416098226464
 20
51.164531782274452
 42
0.1889892712899928
 10
17.168894952251023
 20
50.749115684047979
 42
0.1561720808102814
  0
LWPOLYLINE
  5
88
100
AcDbEntity
  8
0
 62
256
370
-1
 48
1.0
  6
BYLAYER
100
AcDbPolyline
 90
4
 70
129
 10
16.548840381991813
 20
49.400793229366613
 10
19.548840381991813
 20
49.400793229366613
 10
19.548840381991813
 20
48.795063352149711
 10
16.548840381991813
 20
48.795063352149711
  0
LWPOLYLINE
  5
89
100
AcDbEntity
  8
0
 62
256
370
-1
 48
1.0
  6
BYLAYER
100
AcDbPolyline
 90
6
 70
129
 10
16.548840381991813
 20
48.211598630841976
 10
19.524283765347885
 20
48.211598630841976
 10
19.524283765347885
 20
47.60586875362506
 10
17.054297407912685
 20
47.60586875362506
 10
17.054297407912685
 20
46.099729599464084
 10
16.548840381991813
 20
46.099729599464084
  0
LWPOLYLINE
  5
8A
100
AcDbEntity
  8
0
 62
256
370
-1
 48
1.0
  6
BYLAYER
100
AcDbPolyline
 90
6
 70
129
 10
16.548840381991813
 20
45.651828675527497
 10
19.524283765347885
 20
45.651828675527497
 10
19.524283765347885
 20
45.046098798310581
 10
17.054297407912685
 20
45.046098798310581
 10
17.054297407912685
 20
43.539959644149604
 10
16.548840381991813
 20
43.539959644149604
  0
LWPOLYLINE
  5
8B
100
AcDbEntity
  8
0
 62
256
370
-1
 48
1.0
  6
BYLAYER
100
AcDbPolyline
 90
8
 70
129
 10
16.548840381991813
 20
40.40310919770279
 10
16.548840381991813
 20
41.062045077648222
 10
17.230286493860845
 20
41.323982321850139
 10
17.230286493860845
 20
42.523163767962004
 10
16.548840381991813
 20
42.770776319121623
 10
16.548840381991813
 20
43.413341121304427
 10
19.548840381991813
 20
42.244855445997473
 10
19.548840381991813
 20
41.604337028534999
  0
LWPOLYLINE
  5
8C
100
AcDbEntity
  8
0
 62
256
370
-1
 48
1.0
  6
BYLAYER
100
AcDbPolyline
 90
3
 70
129
 10
17.735743519781717
 20
41.518388870281242
 10
18.848976807639836
 20
41.931758583787385
 10
17.735743519781717
 20
42.336942758412206
  0
LWPOLYLINE
  5
8D
100
AcDbEntity
  8
0
 62
256
370
-1
 48
1.0
  6
BYLAYER
100
AcDbPolyline
 90
8
 70
129
 10
16.548840381991813
 20
39.707485438400113
 10
19.041336971350614
 20
39.707485438400113
 10
19.041336971350614
 20
40.59766279174255
 10
19.548840381991813
 20
40.59766279174255
 10
19.548840381991813
 20
38.213624592561104
 10
19.041336971350614
 20
38.213624592561104
 10
19.041336971350614
 20
39.101755561183197
 10
16.548840381991813
 20
39.101755561183197
  0
LWPOLYLINE
  5
8E
100
AcDbEntity
  8
0
 62
256
370
-1
 48
1.0
  6
BYLAYER
100
AcDbPolyline
 90
10
 70
129
 10
18.030422919508865
 20
38.021484997263286
 42
-0.1035033566386723
 10
18.799863574351978
 20
37.884377221001358
 42
-0.088730471684781
 10
19.211186903137786
 20
37.605045706676663
 42
-0.1022159918237394
 10
19.481309686221007
 20
37.21725580217462
 42
-0.1008111681527557
 10
19.599999999999998
 20
36.570598230551148
 42
-0.2109692091520982
 10
19.188676671214186
 20
35.509547753061383
 42
-0.1997447700764609
 10
18.044747612551159
 20
35.111525924957689
 42
-0.1990625992222432
 10
16.907980900409274
 20
35.506478175980888
 42
-0.2117135593124143
 10
16.497680763983627
 20
36.562412691669834
 42
-0.2107726254246694
 10
16.905934515688948
 20
37.626532746240102
 42
-0.2000088613351957
  0
LWPOLYLINE
  5
8F
100
AcDbEntity
  8
0
 62
256
370
-1
 48
1.0
  6
BYLAYER
100
AcDbPolyline
 90
8
 70
129
 10
18.050886766712139
 20
37.397337657563426
 42
0.1858023423294538
 10
17.278376534788539
 20
37.162003414725774
 42
0.2234885323936823
 10
17.015416098226464
 20
36.564459076390165
 42
0.2242506675355618
 10
17.276330150068212
 20
35.969984315135051
 42
0.1840757256043479
 10
18.05907230559345
 20
35.737719649377894
 42
0.1837364737804393
 10
18.828512960436562
 20
35.96384516097406
 42
0.2237063844645576
 10
19.082264665757162
 20
36.564459076390165
 42
0.223599349020727
 10
18.82544338335607
 20
37.168142568886751
 42
0.1842082365376876
  0
LWPOLYLINE
  5
90
100
AcDbEntity
  8
0
 62
256
370
-1
 48
1.0
  6
BYLAYER
100
AcDbPolyline
 90
18
 70
129
 10
16.548840381991813
 20
34.634203625491153
 10
19.548840381991813
 20
34.634203625491153
 10
19.548840381991813
 20
33.359305944727168
 42
-0.0811283600617258
 10
19.468008185538878
 20
32.660465562735354
 42
-0.1686139866338073
 10
19.180491132332875
 20
32.311556967919515
 42
-0.144876749235095
 10
18.707776261937241
 20
32.180588345818578
 42
-0.1915566614267777
 10
18.150136425648022
 20
32.379087663690328
 42
-0.1771772627636584
 10
17.872851296043656
 20
32.972539232585277
 42
-0.0730179207398491
 10
17.621145975443383
 20
32.648187254413372
 42
-0.0437171141278983
 10
17.134106412005455
 20
32.303371429038222
 10
16.548840381991813
 20
31.937068564099604
 10
16.548840381991813
 20
32.661488755095505
 10
17.201637107776261
 20
33.099415085245582
 42
0.0321751181628124
 10
17.642633015006815
 20
33.418651101616646
 42
0.1204748279837486
 10
17.76746248294679
 20
33.600779341725797
 42
0.0772762983385556
 10
17.801227830832193
 20
33.905690665054593
 10
17.801227830832193
 20
34.028473748274237
 10
16.548840381991813
 20
34.028473748274237
  0
LWPOLYLINE
  5
91
100
AcDbEntity
  8
0
 62
256
370
-1
 48
1.0
  6
BYLAYER
100
AcDbPolyline
 90
9
 70
129
 10
18.280081855388811
 20
34.028473748274237
 10
18.280081855388811
 20
33.580315494522523
 42
0.0591431601119224
 10
18.316916780354706
 20
33.035977158915429
 42
0.1669928072444986
 10
18.443792633015004
 20
32.866127227128246
 42
0.1528181065357414
 10
18.668894952251023
 20
32.804735685518423
 42
0.1851344793069984
 10
18.913437926330147
 20
32.885567881971369
 42
0.1785379941196987
 10
19.031105047748976
 20
33.113739778287879
 42
0.0216813850265196
 10
19.041336971350614
 20
33.555758877878567
 10
19.041336971350614
 20
34.028473748274237
  0
LWPOLYLINE
  5
92
100
AcDbEntity
  8
0
 62
256
370
-1
 48
1.0
  6
BYLAYER
100
AcDbPolyline
 90
8
 70
129
 10
1.0
 20
20.058501208702658
 10
3.7650282030620468
 20
20.058501208702658
 10
3.7650282030620468
 20
19.473972602739728
 10
2.7700241740531828
 20
19.473972602739728
 10
2.7700241740531828
 20
17.058501208702658
 10
1.9964544721998387
 20
17.058501208702658
 10
1.9964544721998387
 20
19.473972602739728
 10
1.0
 20
19.473972602739728
  0
LWPOLYLINE
  5
93
100
AcDbEntity
  8
0
 62
256
370
-1
 48
1.0
  6
BYLAYER
100
AcDbPolyline
 90
8
 70
129
 10
5.2033843674456088
 20
18.848831587429494
 42
0.2528106725506646
 10
4.8388396454472202
 20
18.677195809830778
 42
0.1577890542291711
 10
4.7131345688960513
 20
18.18162771958098
 42
0.1576749368723376
 10
4.8388396454472202
 20
17.68630136986301
 42
0.2530325641940021
 10
5.2033843674456088
 20
17.514423851732474
 42
0.2543509340062357
 10
5.563094278807414
 20
17.68630136986301
 42
0.1566279833247684
 10
5.6878323932312647
 20
18.18162771958098
 42
0.1567413386403483
 10
5.563094278807414
 20
18.677195809830778
 42
0.2541302457085079
  0
LWPOLYLINE
  5
94
100
AcDbEntity
  8
0
 62
256
370
-1
 48
1.0
  6
BYLAYER
100
AcDbPolyline
 90
8
 70
129
 10
5.2033843674456088
 20
19.363255439161968
 42
-0.1985700988402823
 10
6.110636583400483
 20
19.049717969379529
 42
-0.2112549155218379
 10
6.4372280419016921
 20
18.18162771958098
 42
-0.2112549155218367
 10
6.110636583400483
 20
17.313537469782432
 42
-0.1985700988402757
 10
5.2033843674456088
 20
17.0
 42
-0.1977221508060223
 10
4.2922643029814669
 20
17.313537469782432
 42
-0.2121732306438218
 10
3.9637389202256248
 20
18.18162771958098
 42
-0.2121732306438215
 10
4.2922643029814669
 20
19.049717969379529
 42
-0.1977221508060276
  0
LWPOLYLINE
  5
95
100
AcDbEntity
  8
0
 62
256
370
-1
 48
1.0
  6
BYLAYER
100
AcDbPolyline
 90
19
 70
129
 10
9.2220789685737312
 20
18.429170024174056
 10
9.2220789685737312
 20
17.058501208702658
 10
8.4987912973408548
 20
17.058501208702658
 10
8.4987912973408548
 20
17.281385979049155
 10
8.4987912973408548
 20
18.107655116841258
 42
0.0247848332854448
 10
8.4857373086220793
 20
18.509186140209508
 42
0.1038630378753875
 10
8.4402900886381946
 20
18.671877518130536
 42
0.1375379517397435
 10
8.3259468170829969
 20
18.781627719580982
 42
0.1263805524733511
 10
8.1608380338436746
 20
18.82078968573731
 42
0.2519449839985686
 10
7.8074133763094276
 20
18.646978243352137
 42
0.1607868699696137
 10
7.6788074133763091
 20
18.165672844480255
 10
7.6788074133763091
 20
17.058501208702658
 10
6.9593875906526996
 20
17.058501208702658
 10
6.9593875906526996
 20
19.309105560032229
 10
7.6788074133763091
 20
19.309105560032229
 10
7.6788074133763091
 20
18.979371474617245
 42
-0.1030913173590038
 10
8.0242546333601936
 20
19.269943593875908
 42
-0.1199948138755563
 10
8.4282030620467374
 20
19.363255439161968
 42
-0.2296591057469126
 10
9.0199838839645441
 20
19.124174053182919
 42
-0.1777771703473499
  0
LWPOLYLINE
  5
96
100
AcDbEntity
  8
0
 62
256
370
-1
 48
1.0
  6
BYLAYER
100
AcDbPolyline
 90
15
 70
129
 10
12.135535858178889
 20
18.189846897663173
 10
12.135535858178889
 20
17.984850926672038
 10
10.453505237711523
 20
17.984850926672038
 42
0.2057646661349429
 10
10.636261079774375
 20
17.605076551168409
 42
0.1726032109462076
 10
11.074294923448832
 20
17.478646253021758
 42
0.0691113965401637
 10
11.539645447219982
 20
17.545850120870263
 42
0.0560479244608345
 10
12.028686543110394
 20
17.749879129734083
 10
12.028686543110394
 20
17.195326349717966
 42
-0.0428546638464196
 10
11.518372280419017
 20
17.049315068493151
 42
-0.0478948782524692
 10
11.00805801772764
 20
17.0
 42
-0.191410215487744
 10
10.05850120870266
 20
17.310636583400481
 42
-0.2179154268482878
 10
9.7200644641418208
 20
18.18162771958098
 42
-0.2132643270721901
 10
10.052457695406931
 20
19.047784045124899
 42
-0.1970960050083456
 10
10.967929089443997
 20
19.363255439161968
 42
-0.2062977058834573
 10
11.816921837228042
 20
19.043916196615633
 42
-0.2055188954015369
  0
LWPOLYLINE
  5
97
100
AcDbEntity
  8
0
 62
256
370
-1
 48
1.0
  6
BYLAYER
100
AcDbPolyline
 90
5
 70
129
 10
11.395809830781634
 20
18.429170024174056
 42
0.1990378483820721
 10
11.276148267526189
 20
18.759629331184527
 42
0.2135555669245612
 10
10.963577759871072
 20
18.885092667203864
 42
0.19067610793316
 10
10.624174053182918
 20
18.767606768734893
 42
0.1782448469664623
 10
10.461240934730057
 20
18.429170024174056
  0
LWPOLYLINE
  5
98
100
AcDbEntity
  8
0
 62
256
370
-1
 48
1.0
  6
BYLAYER
100
AcDbPolyline
 90
8
 70
129
 10
2.5432715551974217
 20
11.052296535052378
 42
0.2505068485578657
 10
1.9945205479452055
 20
10.790975020145044
 42
0.161232792649916
 10
1.7996776792908946
 20
10.05535858178888
 42
0.1613567239980854
 10
1.9945205479452053
 20
9.3221595487510065
 42
0.2505068485578643
 10
2.5432715551974212
 20
9.0608380338436731
 42
0.2504556348792377
 10
3.093956486704271
 20
9.3221595487510065
 42
0.1613567239980874
 10
3.2887993553585817
 20
10.055358581788884
 42
0.1612327926499185
 10
3.093956486704271
 20
10.790975020145044
 42
0.2504556348792388
  0
LWPOLYLINE
  5
99
100
AcDbEntity
  8
0
 62
256
370
-1
 48
1.0
  6
BYLAYER
100
AcDbPolyline
 90
8
 70
129
 10
2.5432715551974217
 20
11.613134568896051
 42
-0.2065258970150332
 10
3.6765511684125705
 20
11.199033037872681
 42
-0.2034761873901052
 10
4.0865431103948424
 20
10.05535858178888
 42
-0.2035394829797907
 10
3.6765511684125705
 20
8.9141015310233662
 42
-0.2065258970150307
 10
2.5432715551974208
 20
8.5
 42
-0.2062559212976729
 10
1.4109589041095885
 20
8.9141015310233662
 42
-0.2039016586242288
 10
1.0
 20
10.055358581788884
 42
-0.2038385593534723
 10
1.4109589041095889
 20
11.199033037872681
 42
-0.2062559212976767
  0
LWPOLYLINE
  5
9A
100
AcDbEntity
  8
0
 62
256
370
-1
 48
1.0
  6
BYLAYER
100
AcDbPolyline
 90
14
 70
129
 10
4.6710717163577762
 20
11.558501208702658
 10
5.4451248992747789
 20
11.558501208702658
 10
5.4451248992747789
 20
9.7599516518936333
 42
0.1559407484557945
 10
5.5664786462530227
 20
9.2288477034649468
 42
0.2426884002515189
 10
5.9634165995165187
 20
9.0690572119258661
 42
0.2422444696798971
 10
6.3620467365028208
 20
9.2288477034649468
 42
0.1562133535446031
 10
6.4836422240128933
 20
9.7599516518936333
 10
6.4836422240128933
 20
11.558501208702658
 10
7.2572119258662369
 20
11.558501208702658
 10
7.2572119258662369
 20
9.7599516518936333
 42
-0.2051564173052024
 10
6.9378726833199025
 20
8.8116035455277988
 42
-0.1973320675000549
 10
5.9634165995165187
 20
8.5
 42
-0.1973313416100766
 10
4.9906526994359393
 20
8.8116035455277988
 42
-0.2052761430112905
 10
4.6710717163577762
 20
9.7599516518936333
  0
LWPOLYLINE
  5
9B
100
AcDbEntity
  8
0
 62
256
370
-1
 48
1.0
  6
BYLAYER
100
AcDbPolyline
 90
8
 70
129
 10
7.6551168412570512
 20
11.558501208702658
 10
10.420145044319097
 20
11.558501208702658
 10
10.420145044319097
 20
10.973972602739725
 10
9.4251410153102331
 20
10.973972602739725
 10
9.4251410153102331
 20
8.5585012087026584
 10
8.6515713134568895
 20
8.5585012087026584
 10
8.6515713134568895
 20
10.973972602739725
 10
7.6551168412570512
 20
10.973972602739725
  0
CIRCLE
  5
9C
100
AcDbEntity
  8
0
 62
256
370
-1
 48
1.0
  6
BYLAYER
100
AcDbCircle
 10
14.999999999999998
 20
12.999999999999998
 30
0.0
 40
3.0
  0
CIRCLE
  5
9D
100
AcDbEntity
  8
0
 62
256
370
-1
 48
1.0
  6
BYLAYER
100
AcDbCircle
 10
14.999999999999998
 20
12.999999999999998
 30
0.0
 40
4.0
  0
LWPOLYLINE
  5
9E
100
AcDbEntity
  8
0
 62
256
370
-1
 48
1.0
  6
BYLAYER
100
AcDbPolyline
 90
13
 70
129
 10
3.3158253751705322
 20
127.0
 10
3.9195088676671217
 20
127.0
 10
3.9195088676671217
 20
125.10095497953616
 42
-0.0748203804421611
 10
3.8540245566166442
 20
124.52796725784448
 42
-0.1672270804551309
 10
3.5347885402455663
 20
124.1074351978172
 42
-0.152210822780096
 10
2.9249658935879936
 20
123.94884038199181
 42
-0.2098168171466538
 10
2.2414733969986358
 20
124.1974761255116
 42
-0.1958161224478357
 10
2.0
 20
124.92701227830833
 10
2.5709413369713507
 20
124.99249658935879
 42
0.1180701456380786
 10
2.6466575716234653
 20
124.62824010914052
 42
0.2810411191678653
 10
2.9454297407912691
 20
124.46657571623466
 42
0.2481457213654018
 10
3.2319236016371082
 20
124.58219645293315
 42
0.1362712626477257
 10
3.3158253751705322
 20
125.06207366984994
  0
LWPOLYLINE
  5
9F
100
AcDbEntity
  8
0
 62
256
370
-1
 48
1.0
  6
BYLAYER
100
AcDbPolyline
 90
12
 70
129
 10
4.5671957585511107
 20
124.0
 10
4.5671957585511107
 20
127.0
 10
6.791615949547019
 20
127.0
 10
6.791615949547019
 20
126.49249658935879
 10
5.1729256357680278
 20
126.49249658935879
 10
5.1729256357680278
 20
125.82742155525239
 10
6.6790647899290105
 20
125.82742155525239
 10
6.6790647899290105
 20
125.32196452933151
 10
5.1729256357680278
 20
125.32196452933151
 10
5.1729256357680278
 20
124.50545702592088
 10
6.8489147217161861
 20
124.50545702592088
 10
6.8489147217161861
 20
124.0
  0
ENDSEC
  0
SECTION
  2
OBJECTS
  0
DICTIONARY
  5
C
100
AcDbDictionary
280
0
281
1
  3
ACAD_GROUP
350
D
  3
ACAD_LAYOUT
350
1A
  3
ACAD_MLINESTYLE
350
17
  3
ACAD_PLOTSETTINGS
350
19
  3
ACAD_PLOTSTYLENAME
350
E
  3
AcDbVariableDictionary
350
A0
  3
QCAD_OBJECTS
350
A1
  0
DICTIONARY
  5
D
100
AcDbDictionary
280
0
281
1
  0
ACDBDICTIONARYWDFLT
  5
E
100
AcDbDictionary
281
1
  3
Normal
350
F
100
AcDbDictionaryWithDefault
340
F
  0
ACDBPLACEHOLDER
  5
F
  0
DICTIONARY
  5
17
100
AcDbDictionary
280
0
281
1
  3
Standard
350
18
  0
MLINESTYLE
  5
18
100
AcDbMlineStyle
  2
STANDARD
 70
0
  3

 62
256
 51
90.0
 52
90.0
 71
2
 49
0.5
 62
256
  6
BYLAYER
 49
-0.5
 62
256
  6
BYLAYER
  0
DICTIONARY
  5
19
100
AcDbDictionary
280
0
281
1
  0
DICTIONARY
  5
1A
100
AcDbDictionary
281
1
  3
Layout1
350
1E
  3
Layout2
350
26
  3
Model
350
22
  0
LAYOUT
  5
1E
100
AcDbPlotSettings
  1

  2
none_device
  4

  6

 40
0.0
 41
0.0
 42
0.0
 43
0.0
 44
0.0
 45
0.0
 46
0.0
 47
0.0
 48
0.0
 49
0.0
140
0.0
141
0.0
142
1.0
143
1.0
 70
688
 72
0
 73
0
 74
5
  7

 75
16
147
1.0
148
0.0
149
0.0
100
AcDbLayout
  1
Layout1
 70
1
 71
1
 10
0.0
 20
0.0
 11
420.0
 21
297.0
 12
0.0
 22
0.0
 32
0.0
 14
100000000000000000000.0
 24
100000000000000000000.0
 34
100000000000000000000.0
 15
-100000000000000000000.0
 25
-100000000000000000000.0
 35
-100000000000000000000.0
146
0.0
 13
0.0
 23
0.0
 33
0.0
 16
1.0
 26
0.0
 36
0.0
 17
0.0
 27
1.0
 37
0.0
 76
0
330
1B
  0
LAYOUT
  5
22
100
AcDbPlotSettings
  1

  2
none_device
  4

  6

 40
0.0
 41
0.0
 42
0.0
 43
0.0
 44
0.0
 45
0.0
 46
0.0
 47
0.0
 48
0.0
 49
0.0
140
0.0
141
0.0
142
1.0
143
1.0
 70
1712
 72
0
 73
0
 74
0
  7

 75
0
147
1.0
148
0.0
149
0.0
100
AcDbLayout
  1
Model
 70
1
 71
0
 10
0.0
 20
0.0
 11
12.0
 21
9.0
 12
0.0
 22
0.0
 32
0.0
 14
0.0
 24
0.0
 34
0.0
 15
0.0
 25
0.0
 35
0.0
146
0.0
 13
0.0
 23
0.0
 33
0.0
 16
1.0
 26
0.0
 36
0.0
 17
0.0
 27
1.0
 37
0.0
 76
0
330
1F
  0
LAYOUT
  5
26
100
AcDbPlotSettings
  1

  2
none_device
  4

  6

 40
0.0
 41
0.0
 42
0.0
 43
0.0
 44
0.0
 45
0.0
 46
0.0
 47
0.0
 48
0.0
 49
0.0
140
0.0
141
0.0
142
1.0
143
1.0
 70
688
 72
0
 73
0
 74
5
  7

 75
16
147
1.0
148
0.0
149
0.0
100
AcDbLayout
  1
Layout2
 70
1
 71
2
 10
0.0
 20
0.0
 11
12.0
 21
9.0
 12
0.0
 22
0.0
 32
0.0
 14
0.0
 24
0.0
 34
0.0
 15
0.0
 25
0.0
 35
0.0
146
0.0
 13
0.0
 23
0.0
 33
0.0
 16
1.0
 26
0.0
 36
0.0
 17
0.0
 27
1.0
 37
0.0
 76
0
330
23
  0
DICTIONARY
  5
A0
100
AcDbDictionary
281
1
  3
DIMASSOC
350
A3
  3
HIDETEXT
350
A2
  0
DICTIONARYVAR
  5
A2
100
DictionaryVariables
280
0
  1
2
  0
DICTIONARYVAR
  5
A3
100
DictionaryVariables
280
0
  1
1
  0
DICTIONARY
  5
A1
100
AcDbDictionary
281
1
  3
ColorSettings/BackgroundColor
350
A4
  3
ColorSettings/ColorMode
350
A5
  3
Grid/DisplayGrid00
350
A6
  3
Grid/DisplayGrid01
350
A7
  3
Grid/DisplayGrid02
350
A8
  3
Grid/DisplayGrid03
350
A9
  3
Grid/GridSpacingX00
350
AA
  3
Grid/GridSpacingX01
350
AB
  3
Grid/GridSpacingX02
350
AC
  3
Grid/GridSpacingX03
350
AD
  3
Grid/GridSpacingY00
350
AE
  3
Grid/GridSpacingY01
350
AF
  3
Grid/GridSpacingY02
350
B0
  3
Grid/GridSpacingY03
350
B1
  3
Grid/IsometricGrid00
350
B2
  3
Grid/IsometricGrid01
350
B3
  3
Grid/IsometricGrid02
350
B4
  3
Grid/IsometricGrid03
350
B5
  3
Grid/IsometricProjection00
350
B6
  3
Grid/IsometricProjection01
350
B7
  3
Grid/IsometricProjection02
350
B8
  3
Grid/IsometricProjection03
350
B9
  3
Grid/MetaGridSpacingX00
350
BA
  3
Grid/MetaGridSpacingX01
350
BB
  3
Grid/MetaGridSpacingX02
350
BC
  3
Grid/MetaGridSpacingX03
350
BD
  3
Grid/MetaGridSpacingY00
350
BE
  3
Grid/MetaGridSpacingY01
350
BF
  3
Grid/MetaGridSpacingY02
350
C0
  3
Grid/MetaGridSpacingY03
350
C1
  3
MultiPageSettings/Columns
350
C2
  3
MultiPageSettings/GlueMarginsBottom
350
C3
  3
MultiPageSettings/GlueMarginsLeft
350
C4
  3
MultiPageSettings/GlueMarginsRight
350
C5
  3
MultiPageSettings/GlueMarginsTop
350
C6
  3
MultiPageSettings/PrintCropMarks
350
C7
  3
MultiPageSettings/Rows
350
C8
  3
PageSettings/OffsetX
350
C9
  3
PageSettings/OffsetY
350
CA
  3
PageSettings/PageOrientation
350
CB
  3
PageSettings/PaperHeight
350
CC
  3
PageSettings/PaperWidth
350
CD
  3
PageSettings/Scale
350
CE
  3
PageSettings/ShowPaperBorders
350
CF
  3
QCADVersion
350
D0
  3
UnitSettings/PaperUnit
350
D1
  3
ViewportCenter
350
D2
  3
ViewportHeight
350
D3
  3
ViewportWidth
350
D4
  0
XRECORD
  5
A4
330
A1
100
AcDbXrecord
280
1
1000
White
  0
XRECORD
  5
A5
330
A1
100
AcDbXrecord
280
1
1000
FullColor
  0
XRECORD
  5
A6
330
A1
100
AcDbXrecord
280
1
290
1
  0
XRECORD
  5
A7
330
A1
100
AcDbXrecord
280
1
290
1
  0
XRECORD
  5
A8
330
A1
100
AcDbXrecord
280
1
290
1
  0
XRECORD
  5
A9
330
A1
100
AcDbXrecord
280
1
290
1
  0
XRECORD
  5
AA
330
A1
100
AcDbXrecord
280
1
1000
auto
  0
XRECORD
  5
AB
330
A1
100
AcDbXrecord
280
1
1000
auto
  0
XRECORD
  5
AC
330
A1
100
AcDbXrecord
280
1
1000
auto
  0
XRECORD
  5
AD
330
A1
100
AcDbXrecord
280
1
1000
auto
  0
XRECORD
  5
AE
330
A1
100
AcDbXrecord
280
1
1000
auto
  0
XRECORD
  5
AF
330
A1
100
AcDbXrecord
280
1
1000
auto
  0
XRECORD
  5
B0
330
A1
100
AcDbXrecord
280
1
1000
auto
  0
XRECORD
  5
B1
330
A1
100
AcDbXrecord
280
1
1000
auto
  0
XRECORD
  5
B2
330
A1
100
AcDbXrecord
280
1
290
0
  0
XRECORD
  5
B3
330
A1
100
AcDbXrecord
280
1
290
0
  0
XRECORD
  5
B4
330
A1
100
AcDbXrecord
280
1
290
0
  0
XRECORD
  5
B5
330
A1
100
AcDbXrecord
280
1
290
0
  0
XRECORD
  5
B6
330
A1
100
AcDbXrecord
280
1
 90
65537
  0
XRECORD
  5
B7
330
A1
100
AcDbXrecord
280
1
 90
65537
  0
XRECORD
  5
B8
330
A1
100
AcDbXrecord
280
1
 90
65537
  0
XRECORD
  5
B9
330
A1
100
AcDbXrecord
280
1
 90
65537
  0
XRECORD
  5
BA
330
A1
100
AcDbXrecord
280
1
1000
auto
  0
XRECORD
  5
BB
330
A1
100
AcDbXrecord
280
1
1000
auto
  0
XRECORD
  5
BC
330
A1
100
AcDbXrecord
280
1
1000
auto
  0
XRECORD
  5
BD
330
A1
100
AcDbXrecord
280
1
1000
auto
  0
XRECORD
  5
BE
330
A1
100
AcDbXrecord
280
1
1000
auto
  0
XRECORD
  5
BF
330
A1
100
AcDbXrecord
280
1
1000
auto
  0
XRECORD
  5
C0
330
A1
100
AcDbXrecord
280
1
1000
auto
  0
XRECORD
  5
C1
330
A1
100
AcDbXrecord
280
1
1000
auto
  0
XRECORD
  5
C2
330
A1
100
AcDbXrecord
280
1
 90
1
  0
XRECORD
  5
C3
330
A1
100
AcDbXrecord
280
1
 40
10.0
  0
XRECORD
  5
C4
330
A1
100
AcDbXrecord
280
1
 40
10.0
  0
XRECORD
  5
C5
330
A1
100
AcDbXrecord
280
1
 40
10.0
  0
XRECORD
  5
C6
330
A1
100
AcDbXrecord
280
1
 40
10.0
  0
XRECORD
  5
C7
330
A1
100
AcDbXrecord
280
1
290
0
  0
XRECORD
  5
C8
330
A1
100
AcDbXrecord
280
1
 90
1
  0
XRECORD
  5
C9
330
A1
100
AcDbXrecord
280
1
 40
0.0
  0
XRECORD
  5
CA
330
A1
100
AcDbXrecord
280
1
 40
0.0
  0
XRECORD
  5
CB
330
A1
100
AcDbXrecord
280
1
1000
Portrait
  0
XRECORD
  5
CC
330
A1
100
AcDbXrecord
280
1
 40
297.0
  0
XRECORD
  5
CD
330
A1
100
AcDbXrecord
280
1
 40
210.0
  0
XRECORD
  5
CE
330
A1
100
AcDbXrecord
280
1
1000
1:1
  0
XRECORD
  5
CF
330
A1
100
AcDbXrecord
280
1
290
1
  0
XRECORD
  5
D0
330
A1
100
AcDbXrecord
280
1
1000
3.20.1
  0
XRECORD
  5
D1
330
A1
100
AcDbXrecord
280
1
 90
4
  0
XRECORD
  5
D3
330
A1
100
AcDbXrecord
280
1
 40
45.734504940414958
  0
XRECORD
  5
D4
330
A1
100
AcDbXrecord
280
1
 40
79.014991373028124
  0
ENDSEC
  0
EOF
