999
dxflib 3.17.0.0
  0
SECTION
  2
HEADER
  9
$ACADVER
  1
AC1015
  9
$HANDSEED
  5
FFFF
  9
$DIMADEC
 70
0
  9
$DIMASZ
 40
2.5
  9
$DIMAUNIT
 70
0
  9
$DIMAZIN
 70
2
  9
$DIMDEC
 70
4
  9
$DIMDSEP
 70
46
  9
$DIMEXE
 40
1.25
  9
$DIMEXO
 40
0.625
  9
$DIMGAP
 40
0.625
  9
$DIMLUNIT
 70
2
  9
$DIMSCALE
 40
1.0
  9
$DIMTSZ
 40
0.0
  9
$DIMTXT
 40
2.5
  9
$DIMZIN
 70
8
  9
$DWGCODEPAGE
  3
ANSI_1252
  9
$INSUNITS
 70
4
  9
$LTSCALE
 40
1.0
  9
$MAXACTVP
 70
64
  9
$MEASUREMENT
 70
1
  9
$PDMODE
 70
0
  9
$PDSIZE
 40
0.0
  0
ENDSEC
  0
SECTION
  2
TABLES
  0
TABLE
  2
VPORT
  5
8
100
AcDbSymbolTable
 70
1
  0
VPORT
  5
30
100
AcDbSymbolTableRecord
100
AcDbViewportTableRecord
  2
*Active
 70
0
 10
0.0
 20
0.0
 11
1.0
 21
1.0
 12
286.3055555555554861
 22
148.5
 13
0.0
 23
0.0
 14
10.0
 24
10.0
 15
10.0
 25
10.0
 16
0.0
 26
0.0
 36
1.0
 17
0.0
 27
0.0
 37
0.0
 40
297.0
 41
1.92798353909465
 42
50.0
 43
0.0
 44
0.0
 50
0.0
 51
0.0
 71
0
 72
100
 73
1
 74
3
 75
1
 76
1
 77
0
 78
0
281
0
 65
1
110
0.0
120
0.0
130
0.0
111
1.0
121
0.0
131
0.0
112
0.0
122
1.0
132
0.0
 79
0
146
0.0
  0
ENDTAB
  0
TABLE
  2
LTYPE
  5
5
100
AcDbSymbolTable
 70
41
  0
LTYPE
  5
16
100
AcDbSymbolTableRecord
100
AcDbLinetypeTableRecord
  2
Continuous
 70
0
  3
Solid line
 72
65
 73
0
 40
0.0
  0
LTYPE
  5
31
100
AcDbSymbolTableRecord
100
AcDbLinetypeTableRecord
  2
HIDDEN2
 70
0
  3
Hidden (.5x) _ _ _ _ _ _ _ _ _ _ _ _ _ _ _ _ _ 
 72
65
 73
2
 40
4.7624999999999993
 49
3.1749999999999998
 74
0
 49
-1.5874999999999999
 74
0
  0
LTYPE
  5
32
100
AcDbSymbolTableRecord
100
AcDbLinetypeTableRecord
  2
DASHED2
 70
0
  3
Dashed (.5x) _ _ _ _ _ _ _ _ _ _ _ _ _ _ _ _ _ 
 72
65
 73
2
 40
9.5249999999999986
 49
6.3499999999999996
 74
0
 49
-3.1749999999999998
 74
0
  0
LTYPE
  5
33
100
AcDbSymbolTableRecord
100
AcDbLinetypeTableRecord
  2
DIVIDE2
 70
0
  3
Divide (.5x) __..__..__..__..__..__..__..__.._
 72
65
 73
6
 40
15.8749999999999982
 49
6.3499999999999996
 74
0
 49
-3.125
 74
0
 49
0.1
 74
0
 49
-3.0750000000000002
 74
0
 49
0.1
 74
0
 49
-3.125
 74
0
  0
LTYPE
  5
34
100
AcDbSymbolTableRecord
100
AcDbLinetypeTableRecord
  2
BORDER
 70
0
  3
Border __ __ . __ __ . __ __ . __ __ . __ __ .
 72
65
 73
6
 40
44.4499999999999957
 49
12.6999999999999993
 74
0
 49
-6.3499999999999996
 74
0
 49
12.6999999999999993
 74
0
 49
-6.2999999999999998
 74
0
 49
0.1
 74
0
 49
-6.2999999999999998
 74
0
  0
LTYPE
  5
35
100
AcDbSymbolTableRecord
100
AcDbLinetypeTableRecord
  2
DASHDOT
 70
0
  3
Dash dot __ . __ . __ . __ . __ . __ . __ . __
 72
65
 73
4
 40
25.4000000000000021
 49
12.6999999999999993
 74
0
 49
-6.2999999999999998
 74
0
 49
0.1
 74
0
 49
-6.2999999999999998
 74
0
  0
LTYPE
  5
36
100
AcDbSymbolTableRecord
100
AcDbLinetypeTableRecord
  2
ACAD_ISO04W100
 70
0
  3
ISO long-dash dot ____ . ____ . ____ . ____ . _
 72
65
 73
4
 40
30.0
 49
24.0
 74
0
 49
-2.9500000000000002
 74
0
 49
0.1
 74
0
 49
-2.9500000000000002
 74
0
  0
LTYPE
  5
37
100
AcDbSymbolTableRecord
100
AcDbLinetypeTableRecord
  2
DIVIDEX2
 70
0
  3
Divide (2x) ________  .  .  ________  .  .  _
 72
65
 73
6
 40
63.5
 49
25.3999999999999986
 74
0
 49
-12.6499999999999986
 74
0
 49
0.1
 74
0
 49
-12.5999999999999979
 74
0
 49
0.1
 74
0
 49
-12.6499999999999986
 74
0
  0
LTYPE
  5
38
100
AcDbSymbolTableRecord
100
AcDbLinetypeTableRecord
  2
ACAD_ISO09W100
 70
0
  3
ISO long-dash double-short-dash ____ __ __ ____
 72
65
 73
6
 40
45.0
 49
24.0
 74
0
 49
-3.0
 74
0
 49
6.0
 74
0
 49
-3.0
 74
0
 49
6.0
 74
0
 49
-3.0
 74
0
  0
LTYPE
  5
39
100
AcDbSymbolTableRecord
100
AcDbLinetypeTableRecord
  2
CENTERX2
 70
0
  3
Center (2x) ________  __  ________  __  _____
 72
65
 73
4
 40
101.6000000000000085
 49
63.5
 74
0
 49
-12.6999999999999993
 74
0
 49
12.6999999999999993
 74
0
 49
-12.6999999999999993
 74
0
  0
LTYPE
  5
3A
100
AcDbSymbolTableRecord
100
AcDbLinetypeTableRecord
  2
ACAD_ISO10W100
 70
0
  3
ISO dash dot __ . __ . __ . __ . __ . __ . __ . 
 72
65
 73
4
 40
18.0
 49
12.0
 74
0
 49
-2.9500000000000002
 74
0
 49
0.1
 74
0
 49
-2.9500000000000002
 74
0
  0
LTYPE
  5
3B
100
AcDbSymbolTableRecord
100
AcDbLinetypeTableRecord
  2
CENTER
 70
0
  3
Center ____ _ ____ _ ____ _ ____ _ ____ _ ____
 72
65
 73
4
 40
50.8000000000000043
 49
31.75
 74
0
 49
-6.3499999999999996
 74
0
 49
6.3499999999999996
 74
0
 49
-6.3499999999999996
 74
0
  0
LTYPE
  5
3C
100
AcDbSymbolTableRecord
100
AcDbLinetypeTableRecord
  2
ACAD_ISO15W100
 70
0
  3
ISO double-dash triple-dot __ __ . . . __ __ . .
 72
65
 73
10
 40
39.0000000000000071
 49
12.0
 74
0
 49
-3.0
 74
0
 49
12.0
 74
0
 49
-2.9500000000000002
 74
0
 49
0.1
 74
0
 49
-2.9000000000000004
 74
0
 49
0.1
 74
0
 49
-2.9000000000000004
 74
0
 49
0.1
 74
0
 49
-2.9500000000000002
 74
0
  0
LTYPE
  5
3D
100
AcDbSymbolTableRecord
100
AcDbLinetypeTableRecord
  2
HIDDEN
 70
0
  3
Hidden __ __ __ __ __ __ __ __ __ __ __ __ __ __
 72
65
 73
2
 40
9.5249999999999986
 49
6.3499999999999996
 74
0
 49
-3.1749999999999998
 74
0
  0
LTYPE
  5
3E
100
AcDbSymbolTableRecord
100
AcDbLinetypeTableRecord
  2
PHANTOM2
 70
0
  3
Phantom (.5x) ___ _ _ ___ _ _ ___ _ _ ___ _ _
 72
65
 73
6
 40
31.7500000000000036
 49
15.875
 74
0
 49
-3.1749999999999998
 74
0
 49
3.1749999999999998
 74
0
 49
-3.1749999999999998
 74
0
 49
3.1749999999999998
 74
0
 49
-3.1749999999999998
 74
0
  0
LTYPE
  5
3F
100
AcDbSymbolTableRecord
100
AcDbLinetypeTableRecord
  2
DASHED
 70
0
  3
Dashed __ __ __ __ __ __ __ __ __ __ __ __ __ _
 72
65
 73
2
 40
19.0499999999999972
 49
12.6999999999999993
 74
0
 49
-6.3499999999999996
 74
0
  0
LTYPE
  5
40
100
AcDbSymbolTableRecord
100
AcDbLinetypeTableRecord
  2
BORDER2
 70
0
  3
Border (.5x) __.__.__.__.__.__.__.__.__.__.__.
 72
65
 73
6
 40
22.2250000000000014
 49
6.3499999999999996
 74
0
 49
-3.1749999999999998
 74
0
 49
6.3499999999999996
 74
0
 49
-3.125
 74
0
 49
0.1
 74
0
 49
-3.125
 74
0
  0
LTYPE
  5
41
100
AcDbSymbolTableRecord
100
AcDbLinetypeTableRecord
  2
DIVIDE
 70
0
  3
Divide ____ . . ____ . . ____ . . ____ . . ____
 72
65
 73
6
 40
31.7500000000000036
 49
12.6999999999999993
 74
0
 49
-6.2999999999999998
 74
0
 49
0.1
 74
0
 49
-6.25
 74
0
 49
0.1
 74
0
 49
-6.2999999999999998
 74
0
  0
LTYPE
  5
42
100
AcDbSymbolTableRecord
100
AcDbLinetypeTableRecord
  2
ACAD_ISO06W100
 70
0
  3
ISO long-dash triple-dot ____ ... ____ ... ____
 72
65
 73
8
 40
36.0000000000000071
 49
24.0
 74
0
 49
-2.9500000000000002
 74
0
 49
0.1
 74
0
 49
-2.9000000000000004
 74
0
 49
0.1
 74
0
 49
-2.9000000000000004
 74
0
 49
0.1
 74
0
 49
-2.9500000000000002
 74
0
  0
LTYPE
  5
43
100
AcDbSymbolTableRecord
100
AcDbLinetypeTableRecord
  2
ACAD_ISO07W100
 70
0
  3
ISO dot . . . . . . . . . . . . . . . . . . . . 
 72
65
 73
2
 40
3.0
 49
0.1
 74
0
 49
-2.8999999999999999
 74
0
  0
LTYPE
  5
44
100
AcDbSymbolTableRecord
100
AcDbLinetypeTableRecord
  2
ACAD_ISO12W100
 70
0
  3
ISO dash double-dot __ . . __ . . __ . . __ . . 
 72
65
 73
6
 40
21.0
 49
12.0
 74
0
 49
-2.9500000000000002
 74
0
 49
0.1
 74
0
 49
-2.9000000000000004
 74
0
 49
0.1
 74
0
 49
-2.9500000000000002
 74
0
  0
LTYPE
  5
45
100
AcDbSymbolTableRecord
100
AcDbLinetypeTableRecord
  2
ACAD_ISO02W100
 70
0
  3
ISO dash __ __ __ __ __ __ __ __ __ __ __ __ __
 72
65
 73
2
 40
15.0
 49
12.0
 74
0
 49
-3.0
 74
0
  0
LTYPE
  5
46
100
AcDbSymbolTableRecord
100
AcDbLinetypeTableRecord
  2
ACAD_ISO08W100
 70
0
  3
ISO long-dash short-dash ____ __ ____ __ ____ _
 72
65
 73
4
 40
36.0
 49
24.0
 74
0
 49
-3.0
 74
0
 49
6.0
 74
0
 49
-3.0
 74
0
  0
LTYPE
  5
47
100
AcDbSymbolTableRecord
100
AcDbLinetypeTableRecord
  2
ACAD_ISO11W100
 70
0
  3
ISO double-dash dot __ __ . __ __ . __ __ . __ _
 72
65
 73
6
 40
33.0
 49
12.0
 74
0
 49
-3.0
 74
0
 49
12.0
 74
0
 49
-2.9500000000000002
 74
0
 49
0.1
 74
0
 49
-2.9500000000000002
 74
0
  0
LTYPE
  5
48
100
AcDbSymbolTableRecord
100
AcDbLinetypeTableRecord
  2
PHANTOM
 70
0
  3
Phantom ______  __  __  ______  __  __  ______ 
 72
65
 73
6
 40
63.5000000000000071
 49
31.75
 74
0
 49
-6.3499999999999996
 74
0
 49
6.3499999999999996
 74
0
 49
-6.3499999999999996
 74
0
 49
6.3499999999999996
 74
0
 49
-6.3499999999999996
 74
0
  0
LTYPE
  5
49
100
AcDbSymbolTableRecord
100
AcDbLinetypeTableRecord
  2
BORDERX2
 70
0
  3
Border (2x) ____  ____  .  ____  ____  .  ___
 72
65
 73
6
 40
88.8999999999999773
 49
25.3999999999999986
 74
0
 49
-12.6999999999999993
 74
0
 49
25.3999999999999986
 74
0
 49
-12.6499999999999986
 74
0
 49
0.1
 74
0
 49
-12.6499999999999986
 74
0
  0
LTYPE
  5
4A
100
AcDbSymbolTableRecord
100
AcDbLinetypeTableRecord
  2
PHANTOMX2
 70
0
  3
Phantom (2x) ____________    ____    ____   _
 72
65
 73
6
 40
127.0000000000000142
 49
63.5
 74
0
 49
-12.6999999999999993
 74
0
 49
12.6999999999999993
 74
0
 49
-12.6999999999999993
 74
0
 49
12.6999999999999993
 74
0
 49
-12.6999999999999993
 74
0
  0
LTYPE
  5
4B
100
AcDbSymbolTableRecord
100
AcDbLinetypeTableRecord
  2
DASHEDX2
 70
0
  3
Dashed (2x) ____  ____  ____  ____  ____  ___
 72
65
 73
2
 40
38.0999999999999943
 49
25.3999999999999986
 74
0
 49
-12.6999999999999993
 74
0
  0
LTYPE
  5
4C
100
AcDbSymbolTableRecord
100
AcDbLinetypeTableRecord
  2
DASHDOT2
 70
0
  3
Dash dot (.5x) _._._._._._._._._._._._._._._.
 72
65
 73
4
 40
12.6999999999999993
 49
6.3499999999999996
 74
0
 49
-3.125
 74
0
 49
0.1
 74
0
 49
-3.125
 74
0
  0
LTYPE
  5
4D
100
AcDbSymbolTableRecord
100
AcDbLinetypeTableRecord
  2
ACAD_ISO13W100
 70
0
  3
ISO double-dash double-dot __ __ . . __ __ . . _
 72
65
 73
8
 40
36.0000000000000071
 49
12.0
 74
0
 49
-3.0
 74
0
 49
12.0
 74
0
 49
-2.9500000000000002
 74
0
 49
0.1
 74
0
 49
-2.9000000000000004
 74
0
 49
0.1
 74
0
 49
-2.9500000000000002
 74
0
  0
LTYPE
  5
4E
100
AcDbSymbolTableRecord
100
AcDbLinetypeTableRecord
  2
DOT2
 70
0
  3
Dot (.5x) ........................................
 72
65
 73
2
 40
3.1749999999999998
 49
0.1
 74
0
 49
-3.0749999999999997
 74
0
  0
LTYPE
  5
4F
100
AcDbSymbolTableRecord
100
AcDbLinetypeTableRecord
  2
HIDDENX2
 70
0
  3
Hidden (2x) ____ ____ ____ ____ ____ ____ ____ 
 72
65
 73
2
 40
19.0499999999999972
 49
12.6999999999999993
 74
0
 49
-6.3499999999999996
 74
0
  0
LTYPE
  5
15
100
AcDbSymbolTableRecord
100
AcDbLinetypeTableRecord
  2
BYLAYER
 70
0
  3

 72
65
 73
0
 40
0.0
  0
LTYPE
  5
50
100
AcDbSymbolTableRecord
100
AcDbLinetypeTableRecord
  2
CENTER2
 70
0
  3
Center (.5x) ___ _ ___ _ ___ _ ___ _ ___ _ ___
 72
65
 73
4
 40
28.5750000000000028
 49
19.0500000000000007
 74
0
 49
-3.1749999999999998
 74
0
 49
3.1749999999999998
 74
0
 49
-3.1749999999999998
 74
0
  0
LTYPE
  5
51
100
AcDbSymbolTableRecord
100
AcDbLinetypeTableRecord
  2
DOT
 70
0
  3
Dot . . . . . . . . . . . . . . . . . . . . . . . .
 72
65
 73
2
 40
6.3499999999999996
 49
0.1
 74
0
 49
-6.25
 74
0
  0
LTYPE
  5
52
100
AcDbSymbolTableRecord
100
AcDbLinetypeTableRecord
  2
ACAD_ISO03W100
 70
0
  3
ISO dash space __    __    __    __    __    __
 72
65
 73
2
 40
30.0
 49
12.0
 74
0
 49
-18.0
 74
0
  0
LTYPE
  5
14
100
AcDbSymbolTableRecord
100
AcDbLinetypeTableRecord
  2
BYBLOCK
 70
0
  3

 72
65
 73
0
 40
0.0
  0
LTYPE
  5
53
100
AcDbSymbolTableRecord
100
AcDbLinetypeTableRecord
  2
DASHDOTX2
 70
0
  3
Dash dot (2x) ____  .  ____  .  ____  .  ___
 72
65
 73
4
 40
50.7999999999999972
 49
25.3999999999999986
 74
0
 49
-12.6499999999999986
 74
0
 49
0.1
 74
0
 49
-12.6499999999999986
 74
0
  0
LTYPE
  5
54
100
AcDbSymbolTableRecord
100
AcDbLinetypeTableRecord
  2
DOTX2
 70
0
  3
Dot (2x) .  .  .  .  .  .  .  .  .  .  .  .  .  .
 72
65
 73
2
 40
12.6999999999999993
 49
0.1
 74
0
 49
-12.5999999999999996
 74
0
  0
LTYPE
  5
55
100
AcDbSymbolTableRecord
100
AcDbLinetypeTableRecord
  2
ACAD_ISO14W100
 70
0
  3
ISO dash triple-dot __ . . . __ . . . __ . . . _
 72
65
 73
8
 40
24.0000000000000036
 49
12.0
 74
0
 49
-2.9500000000000002
 74
0
 49
0.1
 74
0
 49
-2.9000000000000004
 74
0
 49
0.1
 74
0
 49
-2.9000000000000004
 74
0
 49
0.1
 74
0
 49
-2.9500000000000002
 74
0
  0
LTYPE
  5
56
100
AcDbSymbolTableRecord
100
AcDbLinetypeTableRecord
  2
ACAD_ISO05W100
 70
0
  3
ISO long-dash double-dot ____ .. ____ .. ____ . 
 72
65
 73
6
 40
33.0000000000000071
 49
24.0
 74
0
 49
-2.9500000000000002
 74
0
 49
0.1
 74
0
 49
-2.9000000000000004
 74
0
 49
0.1
 74
0
 49
-2.9500000000000002
 74
0
  0
ENDTAB
  0
TABLE
  2
LAYER
  5
2
100
AcDbSymbolTable
 70
1
  0
LAYER
  5
10
100
AcDbSymbolTableRecord
100
AcDbLayerTableRecord
  2
0
 70
0
 62
7
420
16777215
  6
Continuous
370
25
390
F
  0
ENDTAB
  0
TABLE
  2
STYLE
  5
3
100
AcDbSymbolTable
 70
1
  0
STYLE
  5
57
100
AcDbSymbolTableRecord
100
AcDbTextStyleTableRecord
  2
Standard
 70
0
 40
0.0
 41
1.0
 50
0.0
 71
0
 42
2.5
  3

  4

1001
ACAD
1000
txt
1071
0
  0
ENDTAB
  0
TABLE
  2
VIEW
  5
6
100
AcDbSymbolTable
 70
0
  0
ENDTAB
  0
TABLE
  2
UCS
  5
7
100
AcDbSymbolTable
 70
0
  0
ENDTAB
  0
TABLE
  2
APPID
  5
9
100
AcDbSymbolTable
 70
1
  0
APPID
  5
12
100
AcDbSymbolTableRecord
100
AcDbRegAppTableRecord
  2
ACAD
 70
0
  0
APPID
  5
58
100
AcDbSymbolTableRecord
100
AcDbRegAppTableRecord
  2
QCAD
 70
0
  0
ENDTAB
  0
TABLE
  2
DIMSTYLE
  5
A
100
AcDbSymbolTable
 70
1
100
AcDbDimStyleTable
 71
0
  0
DIMSTYLE
105
27
100
AcDbSymbolTableRecord
100
AcDbDimStyleTableRecord
  2
Standard
 41
2.5
 42
0.625
 43
3.75
 44
1.25
 70
0
 73
0
 74
0
 77
1
 78
8
140
2.5
141
2.5
143
0.03937007874016
147
0.625
171
3
172
1
271
2
272
2
274
3
278
44
283
0
284
8
340
57
  0
ENDTAB
  0
TABLE
  2
BLOCK_RECORD
  5
1
100
AcDbSymbolTable
 70
1
  0
BLOCK_RECORD
  5
1F
100
AcDbSymbolTableRecord
100
AcDbBlockTableRecord
  2
*Model_Space
340
22
  0
BLOCK_RECORD
  5
1B
100
AcDbSymbolTableRecord
100
AcDbBlockTableRecord
  2
*Paper_Space
340
1E
  0
BLOCK_RECORD
  5
23
100
AcDbSymbolTableRecord
100
AcDbBlockTableRecord
  2
*Paper_Space0
340
26
  0
ENDTAB
  0
ENDSEC
  0
SECTION
  2
BLOCKS
  0
BLOCK
  5
20
100
AcDbEntity
  8
0
100
AcDbBlockBegin
  2
*Model_Space
 70
0
 10
0.0
 20
0.0
 30
0.0
  3
*Model_Space
  1

  0
ENDBLK
  5
21
100
AcDbEntity
  8
0
100
AcDbBlockEnd
  0
BLOCK
  5
1C
100
AcDbEntity
 67
1
  8
0
100
AcDbBlockBegin
  2
*Paper_Space
 70
0
 10
0.0
 20
0.0
 30
0.0
  3
*Paper_Space
  1

  0
ENDBLK
  5
1D
100
AcDbEntity
 67
1
  8
0
100
AcDbBlockEnd
  0
BLOCK
  5
24
100
AcDbEntity
  8
0
100
AcDbBlockBegin
  2
*Paper_Space0
 70
0
 10
0.0
 20
0.0
 30
0.0
  3
*Paper_Space0
  1

  0
ENDBLK
  5
25
100
AcDbEntity
  8
0
100
AcDbBlockEnd
  0
ENDSEC
  0
SECTION
  2
ENTITIES
  0
LINE
  5
59
100
AcDbEntity
  8
0
 62
256
370
-1
 48
1.0
  6
BYLAYER
100
AcDbLine
 10
0.0
 20
0.0
 30
0.0
 11
0.0
 21
128.5
 31
0.0
  0
LINE
  5
5A
100
AcDbEntity
  8
0
 62
256
370
-1
 48
1.0
  6
BYLAYER
100
AcDbLine
 10
0.0
 20
0.0
 30
0.0
 11
20.0
 21
0.0
 31
0.0
  0
LINE
  5
5B
100
AcDbEntity
  8
0
 62
256
370
-1
 48
1.0
  6
BYLAYER
100
AcDbLine
 10
20.0
 20
0.0
 30
0.0
 11
20.0
 21
128.5
 31
0.0
  0
LINE
  5
5C
100
AcDbEntity
  8
0
 62
256
370
-1
 48
1.0
  6
BYLAYER
100
AcDbLine
 10
0.0
 20
128.5
 30
0.0
 11
20.0
 21
128.5
 31
0.0
  0
CIRCLE
  5
5D
100
AcDbEntity
  8
0
 62
256
370
-1
 48
1.0
  6
BYLAYER
100
AcDbCircle
 10
7.4999999999999991
 20
2.9999999999999996
 30
0.0
 40
1.3000000000000003
  0
CIRCLE
  5
5E
100
AcDbEntity
  8
0
 62
256
370
-1
 48
1.0
  6
BYLAYER
100
AcDbCircle
 10
12.4999999999999982
 20
125.4999999999999858
 30
0.0
 40
1.3000000000000003
  0
CIRCLE
  5
5F
100
AcDbEntity
  8
0
 62
256
370
-1
 48
1.0
  6
BYLAYER
100
AcDbCircle
 10
9.5
 20
112.9999999999999858
 30
0.0
 40
5.0
  0
CIRCLE
  5
60
100
AcDbEntity
  8
0
 62
256
370
-1
 48
1.0
  6
BYLAYER
100
AcDbCircle
 10
9.4999999999999982
 20
91.4999999999999858
 30
0.0
 40
5.0
  0
CIRCLE
  5
61
100
AcDbEntity
  8
0
 62
256
370
-1
 48
1.0
  6
BYLAYER
100
AcDbCircle
 10
9.4999999999999964
 20
70.2479999999999762
 30
0.0
 40
5.0
  0
CIRCLE
  5
62
100
AcDbEntity
  8
0
 62
256
370
-1
 48
1.0
  6
BYLAYER
100
AcDbCircle
 10
9.4999999999999947
 20
48.7479999999999762
 30
0.0
 40
5.0
  0
CIRCLE
  5
63
100
AcDbEntity
  8
0
 62
256
370
-1
 48
1.0
  6
BYLAYER
100
AcDbCircle
 10
9.4999999999999929
 20
27.2479999999999762
 30
0.0
 40
5.0
  0
CIRCLE
  5
64
100
AcDbEntity
  8
0
 62
256
370
-1
 48
1.0
  6
BYLAYER
100
AcDbCircle
 10
5.5
 20
104.7499999999999858
 30
0.0
 40
2.5
  0
CIRCLE
  5
65
100
AcDbEntity
  8
0
 62
256
370
-1
 48
1.0
  6
BYLAYER
100
AcDbCircle
 10
5.4999999999999982
 20
83.2499999999999858
 30
0.0
 40
2.5
  0
CIRCLE
  5
66
100
AcDbEntity
  8
0
 62
256
370
-1
 48
1.0
  6
BYLAYER
100
AcDbCircle
 10
5.4999999999999964
 20
61.9979999999999762
 30
0.0
 40
2.5
  0
CIRCLE
  5
67
100
AcDbEntity
  8
0
 62
256
370
-1
 48
1.0
  6
BYLAYER
100
AcDbCircle
 10
5.4999999999999947
 20
40.4979999999999762
 30
0.0
 40
2.5
  0
CIRCLE
  5
68
100
AcDbEntity
  8
0
 62
256
370
-1
 48
1.0
  6
BYLAYER
100
AcDbCircle
 10
15.0
 20
15.0
 30
0.0
 40
3.4999999999999982
  0
CIRCLE
  5
69
100
AcDbEntity
  8
0
 62
256
370
-1
 48
1.0
  6
BYLAYER
100
AcDbCircle
 10
12.4999999999999982
 20
125.4999999999999858
 30
0.0
 40
1.6000000000000085
  0
CIRCLE
  5
6A
100
AcDbEntity
  8
0
 62
256
370
-1
 48
1.0
  6
BYLAYER
100
AcDbCircle
 10
7.4999999999999991
 20
2.9999999999999996
 30
0.0
 40
1.6000000000000085
  0
LWPOLYLINE
  5
6B
100
AcDbEntity
  8
0
 62
256
370
-1
 48
1.0
  6
BYLAYER
100
AcDbPolyline
 90
30
 70
129
 10
-14.1594949173752909
 20
142.2428530398301234
 10
-13.5701361179209918
 20
142.3001518119993136
 42
0.1742698639721951
 10
-13.3542425299264522
 20
141.8642718665695668
 42
0.1822119347677206
 10
-12.9152930074162171
 20
141.7251177055873086
 42
0.1749322093143458
 10
-12.4742971001856588
 20
141.8489239811671041
 42
0.2327914426503368
 10
-12.3259342079619216
 20
142.1384874190934511
 42
0.1811098694255915
 10
-12.3883489419319091
 20
142.3195924668424084
 42
0.1292873456280753
 10
-12.6062889146467789
 20
142.4495378965831947
 42
0.0168515435653556
 10
-13.0912820933643772
 20
142.5805065186841603
 42
-0.1147099677202233
 10
-13.7747745899537382
 20
142.8772323031316489
 42
-0.2232150866739564
 10
-14.0510365271979367
 20
143.4809157956282206
 42
-0.1484219162819237
 10
-13.9210910974571469
 20
143.9096333945368258
 42
-0.1516027065393765
 10
-13.5466026936372295
 20
144.2135215255054561
 42
-0.1008779219693722
 10
-12.9562207018227653
 20
144.3178871462421284
 42
-0.1805269069094528
 10
-12.1059478505267251
 20
144.0702745950825374
 42
-0.2174301491091585
 10
-11.8061524889987552
 20
143.4092923304167471
 10
-12.4118823662156714
 20
143.3826893290525106
 42
0.1871423791968932
 10
-12.578662720922356
 20
143.7152268461057076
 42
0.1670009239442889
 10
-12.962359855983749
 20
143.8165228897619272
 42
0.1582324430724008
 10
-13.3757295694898879
 20
143.708064499584566
 42
0.255393411473441
 10
-13.4719096513452783
 20
143.5218434900347688
 42
0.2323241784267772
 10
-13.3818687236508715
 20
143.3397152499256322
 42
0.0936974867588299
 10
-12.8252520797218121
 20
143.1391695473335517
 42
-0.0588045002858507
 10
-12.1714321615772008
 20
142.9232759593390085
 42
-0.1361073350706522
 10
-11.8399178368841582
 20
142.6183646360102273
 42
-0.1408318990042263
 10
-11.7202043307450054
 20
142.1405338038137529
 42
-0.1455664233979763
 10
-11.8634512611679241
 20
141.6575870098164955
 42
-0.1567867069059329
 10
-12.2686354357927527
 20
141.3230031080429683
 42
-0.09833023360736
 10
-12.9214321615772008
 20
141.2135215255054561
 42
-0.1813076090757023
 10
-13.7952384371570105
 20
141.4764819620675098
 42
-0.1923164667376641
  0
LWPOLYLINE
  5
6C
100
AcDbEntity
  8
0
 62
256
370
-1
 48
1.0
  6
BYLAYER
100
AcDbPolyline
 90
30
 70
129
 10
-11.2485818912902964
 20
143.4399881012216724
 10
-10.7185682487254965
 20
143.4399881012216724
 10
-10.7185682487254965
 20
143.1432623167742122
 42
-0.235277428612176
 10
-10.0412149062971174
 20
143.4891013345095416
 42
-0.1297180932575184
 10
-9.6790048107991637
 20
143.4031531762557847
 42
-0.1396127710664674
 10
-9.4272994901988909
 20
143.1432623167742122
 42
-0.1015752160210833
 10
-9.1182953974294492
 20
143.4031531762557847
 42
-0.1219202445143887
 10
-8.7642708408128058
 20
143.4891013345095416
 42
-0.134500100241547
 10
-8.3590866661879772
 20
143.3918980602939826
 42
-0.1628622979486118
 10
-8.1114741150283578
 20
143.1064273918082961
 42
-0.0924606854379847
 10
-8.0521289581388658
 20
142.6562227533362659
 10
-8.0521289581388658
 20
141.2667275282339574
 10
-8.6271630645508708
 20
141.2667275282339574
 10
-8.6271630645508708
 20
142.5088830534727151
 42
0.1155892055045251
 10
-8.6865082214403628
 20
142.9263455364194897
 42
0.2704032074157135
 10
-8.9320743878796556
 20
143.0491286196391343
 42
0.1560368153909316
 10
-9.1592230918359974
 20
142.9754587697073589
 42
0.1665428661649798
 10
-9.3127019458605567
 20
142.7595651817128157
 42
0.0730791917483651
 10
-9.359768794428085
 20
142.3103837356009365
 10
-9.359768794428085
 20
141.2667275282339574
 10
-9.93480290084009
 20
141.2667275282339574
 10
-9.93480290084009
 20
142.4577234354645157
 42
0.0623513009056601
 10
-9.9654986716450011
 20
142.8670003795299976
 42
0.1640436051320804
 10
-10.06065556114023
 20
143.0041081557919256
 42
0.1537011612322166
 10
-10.2356214547282249
 20
143.0491286196391343
 42
0.1525559180264694
 10
-10.4750484670065305
 20
142.9775051544276891
 42
0.1680348615221561
 10
-10.6275041286709246
 20
142.7708202976746179
 42
0.0737117464130287
 10
-10.6735477848782914
 20
142.322662043922918
 10
-10.6735477848782914
 20
141.2667275282339574
 10
-11.2485818912902964
 20
141.2667275282339574
  0
LWPOLYLINE
  5
6D
100
AcDbEntity
  8
0
 62
256
370
-1
 48
1.0
  6
BYLAYER
100
AcDbPolyline
 90
25
 70
129
 10
-7.0575398250058967
 20
142.7769594518355802
 10
-7.5793679286893862
 20
142.8710931489706581
 42
-0.1764233188762236
 10
-7.2765029900809282
 20
143.3376688652053019
 42
-0.151409579975755
 10
-6.6380309573387741
 20
143.4891013345095416
 42
-0.1066098011782165
 10
-6.0650432356470958
 20
143.3980372144549733
 42
-0.1576832483993909
 10
-5.8000364143646959
 20
143.1667957410579675
 42
-0.1110589339840804
 10
-5.7232969873524162
 20
142.6521299838956338
 10
-5.7294361415133999
 20
141.9809157956282206
 42
0.0455263498574629
 10
-5.7018099477889788
 20
141.5583373508806062
 42
0.062954815950137
 10
-5.5984675194124449
 20
141.2667275282339574
 10
-6.1673624716634663
 20
141.2667275282339574
 42
-0.0211225456056167
 10
-6.2226148591123049
 20
141.436577460021141
 42
0.0170698393989998
 10
-6.243078706315579
 20
141.5041081557919256
 42
-0.0927727221191484
 10
-6.5582219532460053
 20
141.2892377601575618
 42
-0.1022100173172585
 10
-6.9163392793033021
 20
141.2176142949460882
 42
-0.1961347624720624
 10
-7.4453297295079395
 20
141.3997425350552533
 42
-0.2158389386634396
 10
-7.6387130855788854
 20
141.8601790971289063
 42
-0.1402444068760463
 10
-7.5507185426048054
 20
142.1886238447414712
 42
-0.1471011708480446
 10
-7.304129183805351
 20
142.4096333945368258
 42
-0.0620634030351646
 10
-6.8467621988121721
 20
142.5436715937182726
 42
0.0460780818374603
 10
-6.2880991701627842
 20
142.684872139420861
 10
-6.2880991701627842
 20
142.7421709115900228
 42
0.2202108619331227
 10
-6.3699545589758806
 20
142.9785283467878401
 42
0.1660009986570416
 10
-6.6789586517453223
 20
143.0491286196391343
 42
0.153548130458897
 10
-6.9183856640236314
 20
142.9887602703894913
 42
0.1546318814124183
  0
LWPOLYLINE
  5
6E
100
AcDbEntity
  8
0
 62
256
370
-1
 48
1.0
  6
BYLAYER
100
AcDbPolyline
 90
9
 70
129
 10
-6.2880991701627842
 20
142.3103837356009365
 42
-0.0251125371531674
 10
-6.6380309573387759
 20
142.2223891926268493
 42
0.0784565440284193
 10
-6.9511278195488693
 20
142.1221163413308091
 42
0.257618462456185
 10
-7.0636789791668768
 20
141.9195242540183983
 42
0.2104033417637571
 10
-6.9736380514724701
 20
141.7107930125449968
 42
0.2033201795233627
 10
-6.7444429627958016
 20
141.6227984695709381
 42
0.1616872553874098
 10
-6.4477171783483236
 20
141.7251177055873086
 42
0.1673624820507596
 10
-6.310609402086385
 20
141.9154314845777378
 42
0.0621623233862291
 10
-6.2880991701627842
 20
142.1957861912626129
  0
LWPOLYLINE
  5
6F
100
AcDbEntity
  8
0
 62
256
370
-1
 48
1.0
  6
BYLAYER
100
AcDbPolyline
 90
4
 70
129
 10
-5.1554483069884771
 20
141.2667275282339574
 10
-5.1554483069884771
 20
144.2667275282339574
 10
-4.5804142005764739
 20
144.2667275282339574
 10
-4.5804142005764739
 20
141.2667275282339574
  0
LWPOLYLINE
  5
70
100
AcDbEntity
  8
0
 62
256
370
-1
 48
1.0
  6
BYLAYER
100
AcDbPolyline
 90
4
 70
129
 10
-3.9895321523453902
 20
141.2667275282339574
 10
-3.9895321523453902
 20
144.2667275282339574
 10
-3.4144980459333851
 20
144.2667275282339574
 10
-3.4144980459333851
 20
141.2667275282339574
  0
LWPOLYLINE
  5
71
100
AcDbEntity
  8
0
 62
256
370
-1
 48
1.0
  6
BYLAYER
100
AcDbPolyline
 90
14
 70
129
 10
-1.565089394700939
 20
141.9584055637046163
 10
-0.9921016730092589
 20
141.8622254818492365
 42
-0.161958581388968
 10
-1.3410102678250855
 20
141.3823482649324603
 42
-0.1545460799286757
 10
-1.9375314138005295
 20
141.2176142949460882
 42
-0.2506197482441906
 10
-2.7765491491347714
 20
141.5880099293253522
 42
-0.160580435198081
 10
-2.9914195447691512
 20
142.3369867369652013
 42
-0.1927516888920774
 10
-2.7090184533639672
 20
143.1831668188205811
 42
-0.2188537467415002
 10
-1.9948301859696969
 20
143.4891013345095416
 42
-0.2259863963910344
 10
-1.2294823005672413
 20
143.1688421257782977
 42
-0.1856404654604807
 10
-0.9614059022043477
 20
142.1876006523812919
 10
-2.4020607453148539
 20
142.1876006523812919
 42
0.1875592298419474
 10
-2.2629065843325904
 20
141.7895788242776121
 42
0.2169548293509852
 10
-1.9313922596395481
 20
141.6473550862148443
 42
0.1747326725965006
 10
-1.7042435556832027
 20
141.7210249361466481
 42
0.15482424297012
  0
LWPOLYLINE
  5
72
100
AcDbEntity
  8
0
 62
256
370
-1
 48
1.0
  6
BYLAYER
100
AcDbPolyline
 90
5
 70
129
 10
-1.5323472391757191
 20
142.5395788242776121
 42
0.1873846994946027
 10
-1.6612694765563276
 20
142.919183189898348
 42
0.2154434067535189
 10
-1.9600416457241288
 20
143.0491286196391343
 42
0.223399815324231
 10
-2.2710921232138972
 20
142.9120208433772063
 42
0.1912376905497553
 10
-2.3918288217132169
 20
142.5395788242776121
  0
LWPOLYLINE
  5
73
100
AcDbEntity
  8
0
 62
256
370
-1
 48
1.0
  6
BYLAYER
100
AcDbPolyline
 90
13
 70
129
 10
0.05869380135195
 20
141.2667275282339574
 10
-0.516340305060055
 20
141.2667275282339574
 10
-0.516340305060055
 20
143.4399881012216724
 10
0.0177661069454018
 20
143.4399881012216724
 10
0.0177661069454018
 20
143.1309840084522307
 42
-0.103252621878729
 10
0.264355465744856
 20
143.4195242540183983
 42
-0.145293608913326
 10
0.5129912092646371
 20
143.4891013345095416
 42
-0.1374436283284362
 10
0.8915723825252115
 20
143.3806429443321804
 10
0.7135369118567247
 20
142.8792786878519792
 42
0.1446986624674601
 10
0.4434141287735045
 20
142.9734123849870286
 42
0.1736219943319229
 10
0.2387756567407635
 20
142.9069048815763949
 42
0.1544311530859156
 10
0.1067838422796434
 20
142.6664546769379172
 42
0.0535877492108412
 10
0.05869380135195
 20
141.9379417165013422
  0
LWPOLYLINE
  5
74
100
AcDbEntity
  8
0
 62
256
370
-1
 48
1.0
  6
BYLAYER
100
AcDbPolyline
 90
30
 70
129
 10
2.2697432530849646
 20
143.4399881012216724
 10
2.799756895649768
 20
143.4399881012216724
 10
2.799756895649768
 20
143.1432623167742122
 42
-0.2352774286121817
 10
3.4771102380781436
 20
143.4891013345095416
 42
-0.1297180932575086
 10
3.8393203335760973
 20
143.4031531762557847
 42
-0.139612771066453
 10
4.0910256541763736
 20
143.1432623167742122
 42
-0.1015752160210961
 10
4.4000297469458118
 20
143.4031531762557847
 42
-0.121920244514384
 10
4.7540543035624552
 20
143.4891013345095416
 42
-0.1345001002415422
 10
5.1592384781872838
 20
143.3918980602939826
 42
-0.1628622979486084
 10
5.4068510293469032
 20
143.1064273918082961
 42
-0.0924606854379905
 10
5.4661961862363988
 20
142.6562227533362659
 10
5.4661961862363988
 20
141.2667275282339574
 10
4.8911620798243938
 20
141.2667275282339574
 10
4.8911620798243938
 20
142.5088830534727151
 42
0.1155892055045251
 10
4.8318169229348946
 20
142.9263455364194897
 42
0.2704032074157391
 10
4.5862507564956054
 20
143.0491286196391343
 42
0.156036815390931
 10
4.3591020525392636
 20
142.9754587697073589
 42
0.1665428661650108
 10
4.2056231985147043
 20
142.7595651817128157
 42
0.0730791917483744
 10
4.158556349947176
 20
142.3103837356009365
 10
4.158556349947176
 20
141.2667275282339574
 10
3.583522243535171
 20
141.2667275282339574
 10
3.583522243535171
 20
142.4577234354645157
 42
0.0623513009056592
 10
3.5528264727302599
 20
142.8670003795299976
 42
0.1640436051320085
 10
3.4576695832350346
 20
143.0041081557919256
 42
0.1537011612322169
 10
3.2827036896470396
 20
143.0491286196391343
 42
0.1525559180264614
 10
3.0432766773687305
 20
142.9775051544276891
 42
0.1680348615221728
 10
2.8908210157043399
 20
142.7708202976746179
 42
0.0737117464130368
 10
2.8447773594969732
 20
142.322662043922918
 10
2.8447773594969732
 20
141.2667275282339574
 10
2.2697432530849646
 20
141.2667275282339574
  0
LWPOLYLINE
  5
75
100
AcDbEntity
  8
0
 62
256
370
-1
 48
1.0
  6
BYLAYER
100
AcDbPolyline
 90
10
 70
129
 10
5.8980295212793301
 20
142.3840535855327403
 42
-0.1235530753264399
 10
6.0392300669819186
 20
142.9386238447414712
 42
-0.1509984122013903
 10
6.4392982798059286
 20
143.3479007888069532
 42
-0.127339229918683
 10
7.0174019632984255
 20
143.4891013345095416
 42
-0.2090855185083636
 10
7.8257239278277559
 20
143.1688421257782977
 42
-0.2044432215222028
 10
8.1408671747581813
 20
142.3594969688888057
 42
-0.2040261810827944
 10
7.8226543507472677
 20
141.5419662731179926
 42
-0.2097458665472458
 10
7.0214947327390824
 20
141.2176142949460882
 42
-0.1176310026618147
 10
6.451576588127895
 20
141.3526756864877143
 42
-0.1581167900377879
 10
6.0392300669819186
 20
141.7486511298710639
 42
-0.1252767960355503
  0
LWPOLYLINE
  5
76
100
AcDbEntity
  8
0
 62
256
370
-1
 48
1.0
  6
BYLAYER
100
AcDbPolyline
 90
8
 70
129
 10
6.4873883207336149
 20
142.3533578147278149
 42
0.186259474266206
 10
6.6408671747581813
 20
141.858132712408576
 42
0.2238423430887823
 10
7.0194483480187522
 20
141.6862363959010906
 42
0.2248461522325764
 10
7.3970063289191614
 20
141.858132712408576
 42
0.1849238093447479
 10
7.5494619905835556
 20
142.3574505841684754
 42
0.1855851125505623
 10
7.3970063289191614
 20
142.8485829170470538
 42
0.2248461522326146
 10
7.0194483480187522
 20
143.0204792335545676
 42
0.2238423430888329
 10
6.6408671747581813
 20
142.8485829170470538
 42
0.1862594742662191
  0
LWPOLYLINE
  5
77
100
AcDbEntity
  8
0
 62
256
370
-1
 48
1.0
  6
BYLAYER
100
AcDbPolyline
 90
19
 70
129
 10
10.013878488855152
 20
141.2667275282339574
 10
10.013878488855152
 20
141.5921026987660127
 42
-0.1259556170213654
 10
9.701804819005222
 20
141.3178871462421284
 42
-0.121917401639632
 10
9.2935510672999051
 20
141.2176142949460882
 42
-0.128792036973953
 10
8.9006452009970367
 20
141.3137943768014964
 42
-0.1671038193848633
 10
8.6489398803967639
 20
141.5839171598847201
 42
-0.1020889602928784
 10
8.5711772610243209
 20
142.0648175691616473
 10
8.5711772610243209
 20
143.4399881012216724
 10
9.1462113674363259
 20
143.4399881012216724
 10
9.1462113674363259
 20
142.4413523577019021
 42
0.0509227707216297
 10
9.1779303306014022
 20
141.8796197519720295
 42
0.1682080884581781
 10
9.2935510672999051
 20
141.7159089743458367
 42
0.159605783940853
 10
9.5063750782139564
 20
141.6555406250961653
 42
0.1562691711445581
 10
9.770358707136193
 20
141.7363728215491108
 42
0.1598178526061129
 10
9.9299767153217289
 20
141.9369185241411913
 42
0.0633887207416085
 10
9.9729507944486038
 20
142.5232077465149985
 10
9.9729507944486038
 20
143.4399881012216724
 10
10.5479849008606159
 20
143.4399881012216724
 10
10.5479849008606159
 20
141.2667275282339574
  0
LWPOLYLINE
  5
78
100
AcDbEntity
  8
0
 62
256
370
-1
 48
1.0
  6
BYLAYER
100
AcDbPolyline
 90
19
 70
129
 10
13.1126742504282561
 20
141.2667275282339574
 10
12.5376401440162475
 20
141.2667275282339574
 10
12.5376401440162475
 20
142.3758680466514193
 42
0.0669175869413325
 10
12.5008052190503562
 20
142.8311886469242609
 42
0.1608929415362995
 10
12.3810917129112035
 20
142.9918298474699725
 42
0.1553418751934634
 10
12.181569202679281
 20
143.0491286196391343
 42
0.1556564042004272
 10
11.9134928043163875
 20
142.9672732308260379
 42
0.1690594357830406
 10
11.7508052190503562
 20
142.7503564504713438
 42
0.0671360903059328
 10
11.7068079475633162
 20
142.2510385787114444
 10
11.7068079475633162
 20
141.2667275282339574
 10
11.1317738411513112
 20
141.2667275282339574
 10
11.1317738411513112
 20
143.4399881012216724
 10
11.665880253156768
 20
143.4399881012216724
 10
11.665880253156768
 20
143.1207520848506078
 42
-0.2453154310907059
 10
12.3821149052713686
 20
143.4891013345095416
 42
-0.1038457803010397
 10
12.7300003077270283
 20
143.4205474463785777
 42
-0.1289378461665298
 10
12.9684041276451687
 20
143.2455815527905827
 42
-0.1062700363775065
 10
13.0809552872631762
 20
143.0041081557919256
 42
-0.0541739054045497
 10
13.1126742504282561
 20
142.6173414436500479
  0
LWPOLYLINE
  5
79
100
AcDbEntity
  8
0
 62
256
370
-1
 48
1.0
  6
BYLAYER
100
AcDbPolyline
 90
21
 70
129
 10
14.6848670106370989
 20
143.4399881012216724
 10
14.6848670106370989
 20
142.9815979238683497
 10
14.291961144334234
 20
142.9815979238683497
 10
14.291961144334234
 20
142.1057452635681955
 42
0.0356477566266293
 10
14.3032162602960362
 20
141.7957179784386028
 42
0.1816276587617781
 10
14.3543758783042215
 20
141.7230713208669783
 42
0.160133350339593
 10
14.4515791525197734
 20
141.6944219347823832
 42
0.0804174096891125
 10
14.6828206259167722
 20
141.7496743222312148
 10
14.7319338592046343
 20
141.3035624531998451
 42
-0.1021774704330127
 10
14.27763645129194
 20
141.2176142949460882
 42
-0.0999273148092868
 10
13.9972817446070898
 20
141.2697971053144386
 42
-0.1418457765400062
 10
13.814130312137781
 20
141.4048584968560647
 42
-0.1131446565550913
 10
13.7332981156848497
 20
141.6289376237319004
 42
-0.0364267570303059
 10
13.7148806532019023
 20
142.0341217983567503
 10
13.7148806532019023
 20
142.9815979238683497
 10
13.4508970242796622
 20
142.9815979238683497
 10
13.4508970242796622
 20
143.4399881012216724
 10
13.7148806532019023
 20
143.4399881012216724
 10
13.7148806532019023
 20
143.8717752772107588
 10
14.291961144334234
 20
144.2073823713444654
 10
14.291961144334234
 20
143.4399881012216724
  0
LWPOLYLINE
  5
7A
100
AcDbEntity
  8
0
 62
256
370
-1
 48
1.0
  6
BYLAYER
100
AcDbPolyline
 90
4
 70
129
 10
15.0747725384402358
 20
143.7346675009488308
 10
15.0747725384402358
 20
144.2667275282339574
 10
15.6498066448522373
 20
144.2667275282339574
 10
15.6498066448522373
 20
143.7346675009488308
  0
LWPOLYLINE
  5
7B
100
AcDbEntity
  8
0
 62
256
370
-1
 48
1.0
  6
BYLAYER
100
AcDbPolyline
 90
4
 70
129
 10
15.0747725384402358
 20
141.2667275282339574
 10
15.0747725384402358
 20
143.4399881012216724
 10
15.6498066448522373
 20
143.4399881012216724
 10
15.6498066448522373
 20
141.2667275282339574
  0
LWPOLYLINE
  5
7C
100
AcDbEntity
  8
0
 62
256
370
-1
 48
1.0
  6
BYLAYER
100
AcDbPolyline
 90
19
 70
129
 10
18.2174963329196125
 20
141.2667275282339574
 10
17.6424622265076074
 20
141.2667275282339574
 10
17.6424622265076074
 20
142.3758680466514193
 42
0.0669175869413441
 10
17.6056273015417126
 20
142.8311886469242609
 42
0.1608929415363469
 10
17.4859137954025599
 20
142.9918298474699725
 42
0.155341875193464
 10
17.2863912851706374
 20
143.0491286196391343
 42
0.1556564042004346
 10
17.0183148868077474
 20
142.9672732308260379
 42
0.1690594357829794
 10
16.8556273015417126
 20
142.7503564504713438
 42
0.067136090305937
 10
16.8116300300546762
 20
142.2510385787114444
 10
16.8116300300546762
 20
141.2667275282339574
 10
16.2365959236426676
 20
141.2667275282339574
 10
16.2365959236426676
 20
143.4399881012216724
 10
16.770702335648128
 20
143.4399881012216724
 10
16.770702335648128
 20
143.1207520848506078
 42
-0.2453154310907027
 10
17.4869369877627214
 20
143.4891013345095416
 42
-0.1038457803010384
 10
17.8348223902183882
 20
143.4205474463785777
 42
-0.1289378461664944
 10
18.0732262101365286
 20
143.2455815527905827
 42
-0.1062700363774981
 10
18.1857773697545362
 20
143.0041081557919256
 42
-0.0541739054045514
 10
18.2174963329196125
 20
142.6173414436500479
  0
LWPOLYLINE
  5
7D
100
AcDbEntity
  8
0
 62
256
370
-1
 48
1.0
  6
BYLAYER
100
AcDbPolyline
 90
23
 70
129
 10
18.7398937316004925
 20
141.1234805978110387
 10
19.396783226825594
 20
141.0436715937182726
 42
0.2028735617155919
 10
19.4724994614777067
 20
140.8860999702530705
 42
0.1570565330901259
 10
19.7303439362389632
 20
140.8247084286432482
 42
0.130762891298356
 10
20.0679974150929858
 20
140.8922391244140329
 42
0.171114116922001
 10
20.1825949594313236
 20
141.0375324395572818
 42
0.0764185420511434
 10
20.2091979607955743
 20
141.3015160684795148
 10
20.2091979607955743
 20
141.6187057001302776
 42
-0.2529118102960241
 10
19.5584476197314565
 20
141.2667275282339574
 42
-0.2622986338777653
 10
18.8647231995404603
 20
141.6371231626132214
 42
-0.1535759222052056
 10
18.6641774969483727
 20
142.3656361230497964
 42
-0.1891690883154343
 10
18.9271379335104477
 20
143.200561088943374
 42
-0.2208160651295238
 10
19.5809578516550609
 20
143.4891013345095416
 42
-0.2516013889544093
 10
20.2460328857614691
 20
143.1350767778928912
 10
20.2460328857614691
 20
143.4399881012216724
 10
20.7842320672075864
 20
143.4399881012216724
 10
20.7842320672075864
 20
141.4897834627496422
 42
-0.0748506363367663
 10
20.7207941408774339
 20
140.9147493563376372
 42
-0.123911666747724
 10
20.5427586702089435
 20
140.6159771871698467
 42
-0.1124680504751003
 10
20.2368241545199972
 20
140.4461272553826632
 42
-0.0761699053024
 10
19.7528541681625676
 20
140.3847357137728409
 42
-0.1653177059520193
 10
18.969088820277161
 20
140.5740263004031192
 42
-0.2368254624348089
 10
18.7378473468801623
 20
141.0539035173198954
 42
-0.0121959639454302
  0
LWPOLYLINE
  5
7E
100
AcDbEntity
  8
0
 62
256
370
-1
 48
1.0
  6
BYLAYER
100
AcDbPolyline
 90
8
 70
129
 10
19.2535362964026717
 20
142.3983782785750236
 42
0.1720707089507205
 10
19.3875744955841149
 20
141.8918980602939826
 42
0.2337957751995212
 10
19.7180656279169959
 20
141.7312568597482709
 42
0.2256137442505718
 10
20.0741365692539695
 20
141.8959908297346431
 42
0.1832493650987161
 10
20.2194298843972184
 20
142.3840535855327403
 42
0.1762373789180314
 10
20.0802757234149531
 20
142.8854178420129415
 42
0.2312157061890738
 10
19.728297551518633
 20
143.0491286196391343
 42
0.2339890961572703
 10
19.3875744955841149
 20
142.8884874190934511
 42
0.1737079645967002
  0
LWPOLYLINE
  5
7F
100
AcDbEntity
  8
0
 62
256
370
-1
 48
1.0
  6
BYLAYER
100
AcDbPolyline
 90
19
 70
129
 10
23.0844146519094444
 20
144.2667275282339574
 10
23.0844146519094444
 20
143.1637261639774863
 42
-0.2297683159001825
 10
23.7494896860158597
 20
143.4891013345095416
 42
-0.1095043667615198
 10
24.1076070120731565
 20
143.4154314845777378
 42
-0.1327577679670449
 10
24.3480572167116343
 20
143.2271640903076388
 42
-0.1024506007344402
 10
24.4585619916093115
 20
142.9734123849870286
 42
-0.0478078184136502
 10
24.4882345700540647
 20
142.5416252089979423
 10
24.4882345700540647
 20
141.2667275282339574
 10
23.9132004636420525
 20
141.2667275282339574
 10
23.9132004636420525
 20
142.4147493563376372
 42
0.0642513426534637
 10
23.8804583081168111
 20
142.8485829170470538
 42
0.1684049185418778
 10
23.7648375714183153
 20
142.9948994245504537
 42
0.1474606683999668
 10
23.5571295223050861
 20
143.0491286196391343
 42
0.1418909020378269
 10
23.3013314322641527
 20
142.9795515391480194
 42
0.1709473953315241
 10
23.1365974622777948
 20
142.7697971053144386
 42
0.0839388745353761
 10
23.0844146519094444
 20
142.3554041994481452
 10
23.0844146519094444
 20
141.2667275282339574
 10
22.5093805454974394
 20
141.2667275282339574
 10
22.5093805454974394
 20
144.2667275282339574
  0
LWPOLYLINE
  5
80
100
AcDbEntity
  8
0
 62
256
370
-1
 48
1.0
  6
BYLAYER
100
AcDbPolyline
 90
10
 70
129
 10
24.930822964642168
 20
142.3840535855327118
 42
-0.1235530753264302
 10
25.0720235103447529
 20
142.9386238447414712
 42
-0.1509984122013972
 10
25.47209172316877
 20
143.3479007888069532
 42
-0.1273392299186853
 10
26.0501954066612633
 20
143.4891013345095416
 42
-0.20908551850837
 10
26.8585173711905973
 20
143.1688421257782977
 42
-0.204443221522185
 10
27.1736606181210227
 20
142.3594969688888057
 42
-0.2040261810827937
 10
26.855447794110102
 20
141.5419662731179926
 42
-0.2097458665472461
 10
26.0542881761019167
 20
141.2176142949460882
 42
-0.117631002661812
 10
25.4843700314907302
 20
141.3526756864877143
 42
-0.1581167900377822
 10
25.0720235103447529
 20
141.7486511298710639
 42
-0.1252767960355516
  0
LWPOLYLINE
  5
81
100
AcDbEntity
  8
0
 62
256
370
-1
 48
1.0
  6
BYLAYER
100
AcDbPolyline
 90
8
 70
129
 10
25.5201817640964563
 20
142.3533578147278149
 42
0.1862594742662077
 10
25.6736606181210227
 20
141.858132712408576
 42
0.2238423430887808
 10
26.0522417913815936
 20
141.6862363959010906
 42
0.224846152232567
 10
26.4297997722820064
 20
141.858132712408576
 42
0.1849238093447403
 10
26.5822554339463899
 20
142.3574505841684754
 42
0.1855851125505559
 10
26.4297997722820064
 20
142.8485829170470538
 42
0.2248461522326429
 10
26.0522417913815936
 20
143.0204792335545676
 42
0.2238423430888324
 10
25.6736606181210227
 20
142.8485829170470538
 42
0.1862594742662177
  0
LWPOLYLINE
  5
82
100
AcDbEntity
  8
0
 62
256
370
-1
 48
1.0
  6
BYLAYER
100
AcDbPolyline
 90
4
 70
129
 10
27.6162490127091296
 20
141.2667275282339574
 10
27.6162490127091296
 20
144.2667275282339574
 10
28.1912831191211346
 20
144.2667275282339574
 10
28.1912831191211346
 20
141.2667275282339574
  0
LWPOLYLINE
  5
83
100
AcDbEntity
  8
0
 62
256
370
-1
 48
1.0
  6
BYLAYER
100
AcDbPolyline
 90
14
 70
129
 10
30.040691770353579
 20
141.9584055637046163
 10
30.6136794920452537
 20
141.8622254818492365
 42
-0.1619585813889678
 10
30.264770897229436
 20
141.3823482649324603
 42
-0.1545460799286723
 10
29.6682497512539918
 20
141.2176142949460882
 42
-0.2506197482441986
 10
28.8292320159197466
 20
141.5880099293253522
 42
-0.1605804351980646
 10
28.6143616202853686
 20
142.3369867369652013
 42
-0.1927516888920695
 10
28.8967627116905454
 20
143.1831668188205811
 42
-0.2188537467414895
 10
29.6109509790848229
 20
143.4891013345095416
 42
-0.2259863963910327
 10
30.3762988644872713
 20
143.1688421257782977
 42
-0.1856404654605
 10
30.6443752628501649
 20
142.1876006523812919
 10
29.203720419739664
 20
142.1876006523812919
 42
0.1875592298419699
 10
29.3428745807219293
 20
141.7895788242776121
 42
0.2169548293509982
 10
29.6743889054149683
 20
141.6473550862148443
 42
0.1747326725965276
 10
29.9015376093713137
 20
141.7210249361466481
 42
0.1548242429701069
  0
LWPOLYLINE
  5
84
100
AcDbEntity
  8
0
 62
256
370
-1
 48
1.0
  6
BYLAYER
100
AcDbPolyline
 90
5
 70
129
 10
30.0734339258788239
 20
142.5395788242776121
 42
0.1873846994945744
 10
29.9445116884981921
 20
142.919183189898348
 42
0.2154434067535195
 10
29.6457395193303874
 20
143.0491286196391343
 42
0.2233998153242151
 10
29.3346890418406225
 20
142.9120208433772063
 42
0.1912376905497258
 10
29.2139523433413011
 20
142.5395788242776121
  0
LWPOLYLINE
  5
85
100
AcDbEntity
  8
0
 62
256
370
-1
 48
1.0
  6
BYLAYER
100
AcDbPolyline
 90
26
 70
129
 10
30.9114053893259815
 20
141.8867820984931711
 10
31.4884858804583097
 20
141.9747766414672583
 42
0.1802897130256346
 10
31.637871965042212
 20
141.7200017437864688
 42
0.1663912994955104
 10
31.9530152119726303
 20
141.6330303931725609
 42
0.1554653797789024
 10
32.2886223061063333
 20
141.7148857819856573
 42
0.2486454460039053
 10
32.364338540758439
 20
141.8683646360102273
 42
0.1995951405943736
 10
32.3234108463518908
 20
141.9768230261875601
 42
0.1142675158993629
 10
32.1310506826411171
 20
142.0525392608396942
 42
-0.0750039404673162
 10
31.2490588681800006
 20
142.3328939675245408
 42
-0.2640932623139385
 10
30.9912143934187476
 20
142.8219799156827889
 42
-0.2289676122616498
 10
31.2142703279344325
 20
143.2967411707987537
 42
-0.177757720191955
 10
31.9059483634051055
 20
143.4891013345095416
 42
-0.1435244907170714
 10
32.5689770127911942
 20
143.3438080193662927
 42
-0.1820429793206861
 10
32.8677491819589989
 20
142.9140672280975366
 10
32.325457231072221
 20
142.8137943768014964
 42
0.1809644690422182
 10
32.1934654166111045
 20
143.0082009252325861
 42
0.1512025160575552
 10
31.9161802870067426
 20
143.0757316210033991
 42
0.135077307825182
 10
31.5908051164746801
 20
143.0122936946732466
 42
0.2623801400273191
 10
31.5253208054242045
 20
142.8956497656145928
 42
0.2486934353261442
 10
31.5826195775933734
 20
142.791284144877892
 42
0.0652820663456764
 10
32.1197955666793149
 20
142.6296197519720295
 42
-0.1092628380847109
 10
32.7613371765019679
 20
142.373821661931089
 42
-0.2297389100242054
 10
32.9414190318907742
 20
141.9461272553826632
 42
-0.2288852516768948
 10
32.6917600960108388
 20
141.4324846905804804
 42
-0.1796655323248974
 10
31.9530152119726303
 20
141.2176142949460882
 42
-0.1531631714921367
 10
31.2500820605401692
 20
141.397696150334923
 42
-0.1854152645468135
  0
LWPOLYLINE
  5
86
100
AcDbEntity
  8
0
 62
256
370
-1
 48
1.0
  6
BYLAYER
100
AcDbPolyline
 90
19
 70
129
 10
-14.546954015324804
 20
138.6821128537578716
 10
-14.2277179989537252
 20
138.6821128537578716
 10
-14.2277179989537252
 20
138.8458236313840644
 42
-0.0959078809463432
 10
-14.1693960344243948
 20
139.2551005754495463
 42
-0.1716885180150657
 10
-13.9545256387900167
 20
139.47508693288475
 42
-0.1247255299483333
 10
-13.5585501954066601
 20
139.5600118987783276
 42
-0.0764318557865518
 10
-13.0776497861297152
 20
139.4863420488465522
 10
-13.1554124055021582
 20
139.0852506436623628
 42
0.0587502648538778
 10
-13.4193960344243948
 20
139.11799279918759
 42
0.2086865325189712
 10
-13.5984546974530431
 20
139.0596708346582773
 42
0.1758652178904401
 10
-13.6526838925417202
 20
138.8355917077824131
 10
-13.6526838925417202
 20
138.6821128537578716
 10
-13.2229431012729641
 20
138.6821128537578716
 10
-13.2229431012729641
 20
138.2298618305655111
 10
-13.6526838925417202
 20
138.2298618305655111
 10
-13.6526838925417202
 20
136.5088522807701281
 10
-14.2277179989537252
 20
136.5088522807701281
 10
-14.2277179989537252
 20
138.2298618305655111
 10
-14.546954015324804
 20
138.2298618305655111
  0
LWPOLYLINE
  5
87
100
AcDbEntity
  8
0
 62
256
370
-1
 48
1.0
  6
BYLAYER
100
AcDbPolyline
 90
10
 70
129
 10
-13.0417688149432216
 20
137.6261783380689394
 42
-0.1235530753264493
 10
-12.9005682692406296
 20
138.1807485972776419
 42
-0.1509984122013826
 10
-12.5005000564166195
 20
138.5900255413431239
 42
-0.1273392299185948
 10
-11.9223963729241227
 20
138.7312260870457123
 42
-0.2090855185083042
 10
-11.1140744083947922
 20
138.4109668783144684
 42
-0.2044432215222558
 10
-10.7989311614643668
 20
137.6016217214249764
 42
-0.2040261810827759
 10
-11.117143985475284
 20
136.7840910256541918
 42
-0.2097458665472461
 10
-11.9183036034834693
 20
136.4597390474822873
 42
-0.1176310026617667
 10
-12.4882217480946558
 20
136.594800439023885
 42
-0.1581167900377833
 10
-12.9005682692406296
 20
136.9907758824072346
 42
-0.1252767960355084
  0
LWPOLYLINE
  5
88
100
AcDbEntity
  8
0
 62
256
370
-1
 48
1.0
  6
BYLAYER
100
AcDbPolyline
 90
8
 70
129
 10
-12.4524100154889279
 20
137.5954825672640141
 42
0.1862594742662199
 10
-12.2989311614643704
 20
137.1002574649447752
 42
0.2238423430889481
 10
-11.920349988203796
 20
136.9283611484372614
 42
0.2248461522327698
 10
-11.5427920073033867
 20
137.1002574649447752
 42
0.1849238093448138
 10
-11.3903363456389926
 20
137.5995753367046461
 42
0.185585112550574
 10
-11.5427920073033867
 20
138.0907076695832245
 42
0.2248461522326273
 10
-11.920349988203796
 20
138.2626039860907383
 42
0.2238423430888329
 10
-12.2989311614643704
 20
138.0907076695832245
 42
0.1862594742661695
  0
LWPOLYLINE
  5
89
100
AcDbEntity
  8
0
 62
256
370
-1
 48
1.0
  6
BYLAYER
100
AcDbPolyline
 90
13
 70
129
 10
-9.805865277108186
 20
136.5088522807701281
 10
-10.380899383520191
 20
136.5088522807701281
 10
-10.380899383520191
 20
138.6821128537578716
 10
-9.8467929715147342
 20
138.6821128537578716
 10
-9.8467929715147342
 20
138.3731087609884298
 42
-0.1032526218787245
 10
-9.6002036127152799
 20
138.6616490065545975
 42
-0.1452936089130093
 10
-9.3515678691954989
 20
138.7312260870457123
 42
-0.1374436283283774
 10
-8.9729866959349245
 20
138.6227676968683795
 10
-9.1510221666034113
 20
138.1214034403881499
 42
0.1446986624674824
 10
-9.421144949686628
 20
138.2155371375231994
 42
0.1736219943321864
 10
-9.6257834217193725
 20
138.1490296341125656
 42
0.1544311530858889
 10
-9.7577752361804926
 20
137.9085794294740879
 42
0.053587749210829
 10
-9.805865277108186
 20
137.1800664690375413
  0
LWPOLYLINE
  5
8A
100
AcDbEntity
  8
0
 62
256
370
-1
 48
1.0
  6
BYLAYER
100
AcDbPolyline
 90
18
 70
129
 10
-5.6568894952251014
 20
138.0395480515750535
 10
-6.2237380627557997
 20
137.937228815558683
 42
0.1800241240423825
 10
-6.3536834924965859
 20
138.193026905599595
 42
0.1820889974822739
 10
-6.6166439290586609
 20
138.2789750638533519
 42
0.2286876629121153
 10
-6.9594133697135057
 20
138.1306121716296218
 42
0.1736001157841254
 10
-7.0873124147339688
 20
137.634363876950232
 42
0.163953516742715
 10
-6.957366984993179
 20
137.0879791566227937
 42
0.2374916202501224
 10
-6.6084583901773541
 20
136.9283611484372614
 42
0.1896451092624663
 10
-6.3403819918144606
 20
137.0214716532121599
 42
0.1614870208009143
 10
-6.1930422919508885
 20
137.3417308619434039
 10
-5.628240109140517
 20
137.2455507800880241
 42
-0.174105277445932
 10
-5.9658935879945414
 20
136.6582383653540376
 42
-0.1718942095237209
 10
-6.6350613915416092
 20
136.4597390474822873
 42
-0.2149439961590149
 10
-7.3952933151432454
 20
136.7605576013704081
 42
-0.1958184163489098
 10
-7.6787175989085945
 20
137.5934361825436838
 42
-0.1965705241260595
 10
-7.3942701227830838
 20
138.4314307255177425
 42
-0.2136769016566275
 10
-6.6248294679399713
 20
138.7312260870457123
 42
-0.1597392867003625
 10
-5.9935197817189625
 20
138.5603529628983779
 42
-0.1684092384496182
  0
LWPOLYLINE
  5
8B
100
AcDbEntity
  8
0
 62
256
370
-1
 48
1.0
  6
BYLAYER
100
AcDbPolyline
 90
25
 70
129
 10
-4.7902686456933594
 20
138.0190842043717794
 10
-5.3120967493768525
 20
138.1132179015068289
 42
-0.1764233188762502
 10
-5.0092318107683944
 20
138.5797936177415011
 42
-0.1514095799757933
 10
-4.3707597780262386
 20
138.7312260870457123
 42
-0.1066098011783127
 10
-3.7977720563345585
 20
138.640161966991144
 42
-0.1576832483995125
 10
-3.5327652350521586
 20
138.4089204935941382
 42
-0.1110589339840716
 10
-3.4560258080398789
 20
137.8942547364318045
 10
-3.4621649622008626
 20
137.2230405481644198
 42
0.0455263498574574
 10
-3.4345387684764441
 20
136.8004621034168053
 42
0.0629548159501072
 10
-3.3311963400999076
 20
136.5088522807701281
 10
-3.9000912923509308
 20
136.5088522807701281
 42
-0.0211225456055176
 10
-3.9553436797997712
 20
136.6787022125573117
 42
0.0170698393989042
 10
-3.9758075270030453
 20
136.7462329083281247
 42
-0.0927727221190835
 10
-4.2909507739334689
 20
136.5313625126937325
 42
-0.1022100173173393
 10
-4.6490680999907674
 20
136.4597390474822873
 42
-0.1961347624720106
 10
-5.1780585501954057
 20
136.641867287591424
 42
-0.215838938663405
 10
-5.3714419062663481
 20
137.1023038496651054
 42
-0.1402444068760823
 10
-5.2834473632922681
 20
137.4307485972776419
 42
-0.147101170848166
 10
-5.0368580044928137
 20
137.6517581470729965
 42
-0.0620634030352875
 10
-4.5794910194996348
 20
137.7857963462544433
 42
0.0460780818373633
 10
-4.0208279908502496
 20
137.9269968919570317
 10
-4.0208279908502487
 20
137.9842956641262219
 42
0.2202108619330936
 10
-4.1026833796633451
 20
138.2206530993240392
 42
0.1660009986568734
 10
-4.4116874724327868
 20
138.2912533721753334
 42
0.1535481304590214
 10
-4.6511144847110941
 20
138.230885022925662
 42
0.1546318814122122
  0
LWPOLYLINE
  5
8C
100
AcDbEntity
  8
0
 62
256
370
-1
 48
1.0
  6
BYLAYER
100
AcDbPolyline
 90
9
 70
129
 10
-4.0208279908502478
 20
137.5525084881371356
 42
-0.0251125371531698
 10
-4.3707597780262386
 20
137.4645139451630484
 42
0.0784565440284152
 10
-4.6838566402363337
 20
137.3642410938670082
 42
0.2576184624562034
 10
-4.7964077998543413
 20
137.1616490065545975
 42
0.2104033417638379
 10
-4.7063668721599345
 20
136.952917765081196
 42
0.2033201795237431
 10
-4.4771717834832643
 20
136.8649232221071088
 42
0.1616872553872416
 10
-4.1804459990357863
 20
136.9672424581234793
 42
0.1673624820506841
 10
-4.0433382227738495
 20
137.157556237113937
 42
0.062162323386259
 10
-4.0208279908502487
 20
137.4379109437987836
  0
LWPOLYLINE
  5
8D
100
AcDbEntity
  8
0
 62
256
370
-1
 48
1.0
  6
BYLAYER
100
AcDbPolyline
 90
13
 70
129
 10
-2.9045482054385605
 20
138.6821128537578716
 10
-2.3683954087127752
 20
138.6821128537578716
 10
-2.3683954087127752
 20
138.3628768373867786
 42
-0.1227175361457858
 10
-2.085994317307593
 20
138.6289068510293419
 42
-0.1333649245479383
 10
-1.6910420662843997
 20
138.7312260870457123
 42
-0.2242941000401659
 10
-1.0484772641015887
 20
138.4345003025982521
 42
-0.1869725400720726
 10
-0.7844936351793539
 20
137.6077608755859671
 42
-0.1853594764234333
 10
-1.050523648821917
 20
136.7615807937305874
 42
-0.2256234885490094
 10
-1.6951348357250531
 20
136.4597390474822873
 42
-0.1155855007234923
 10
-2.0215331986172775
 20
136.5313625126937325
 42
-0.0902340527775648
 10
-2.3295140990265573
 20
136.7769286791330217
 10
-2.3295140990265573
 20
135.6821128537578716
 10
-2.9045482054385605
 20
135.6821128537578716
  0
LWPOLYLINE
  5
8E
100
AcDbEntity
  8
0
 62
256
370
-1
 48
1.0
  6
BYLAYER
100
AcDbPolyline
 90
8
 70
129
 10
-2.3356532531875231
 20
137.6323174922299017
 42
0.172335587482841
 10
-2.190359938044292
 20
137.0910487337033032
 42
0.2343402436800648
 10
-1.8363353814276471
 20
136.9160828401153083
 42
0.2350672154349204
 10
-1.5027746720142794
 20
137.0767240406609915
 42
0.1688328644413505
 10
-1.3697596651929942
 20
137.6036681061453066
 42
0.1722728066742496
 10
-1.5068674414549328
 20
138.1111715167864986
 42
0.2351187663210481
 10
-1.8465673050292839
 20
138.2769286791330217
 42
0.2302695428954817
 10
-2.1964990922052756
 20
138.1142410938670082
 42
0.1787035655014974
  0
LWPOLYLINE
  5
8F
100
AcDbEntity
  8
0
 62
256
370
-1
 48
1.0
  6
BYLAYER
100
AcDbPolyline
 90
21
 70
129
 10
0.6608232723691891
 20
138.6821128537578716
 10
0.6608232723691891
 20
138.2237226764045204
 10
0.2679174060663243
 20
138.2237226764045204
 10
0.2679174060663243
 20
137.3478700161043946
 42
0.0356477566266022
 10
0.2791725220281265
 20
137.0378427309747735
 42
0.1816276587619013
 10
0.3303321400363117
 20
136.9651960734031491
 42
0.1601333503393775
 10
0.4275354142518673
 20
136.9365466873185824
 42
0.0804174096890962
 10
0.6587768876488639
 20
136.9917990747674139
 10
0.707890120936721
 20
136.5456872057360442
 42
-0.1021774704330087
 10
0.2535927130240333
 20
136.4597390474822873
 42
-0.0999273148094777
 10
-0.0267619936608236
 20
136.5119218578506377
 42
-0.1418457765399093
 10
-0.2099134261301253
 20
136.6469832493922354
 42
-0.1131446565551268
 10
-0.29074562258306
 20
136.8710623762680996
 42
-0.0364267570303095
 10
-0.3091630850660074
 20
137.2762465508929211
 10
-0.3091630850660074
 20
138.2237226764045204
 10
-0.573146713988244
 20
138.2237226764045204
 10
-0.573146713988244
 20
138.6821128537578716
 10
-0.3091630850660074
 20
138.6821128537578716
 10
-0.3091630850660074
 20
139.1139000297469579
 10
0.2679174060663243
 20
139.4495071238806361
 10
0.2679174060663243
 20
138.6821128537578716
  0
LWPOLYLINE
  5
90
100
AcDbEntity
  8
0
 62
256
370
-1
 48
1.0
  6
BYLAYER
100
AcDbPolyline
 90
4
 70
129
 10
1.0507288001723261
 20
138.9767922534850015
 10
1.0507288001723261
 20
139.5088522807701281
 10
1.6257629065843346
 20
139.5088522807701281
 10
1.6257629065843346
 20
138.9767922534850015
  0
LWPOLYLINE
  5
91
100
AcDbEntity
  8
0
 62
256
370
-1
 48
1.0
  6
BYLAYER
100
AcDbPolyline
 90
4
 70
129
 10
1.0507288001723261
 20
136.5088522807701281
 10
1.0507288001723261
 20
138.6821128537578716
 10
1.6257629065843346
 20
138.6821128537578716
 10
1.6257629065843346
 20
136.5088522807701281
  0
LWPOLYLINE
  5
92
100
AcDbEntity
  8
0
 62
256
370
-1
 48
1.0
  6
BYLAYER
100
AcDbPolyline
 90
10
 70
129
 10
2.8141892931510242
 20
136.5088522807701281
 10
1.9383366328508878
 20
138.6821128537578716
 10
2.5420201253474772
 20
138.6821128537578716
 10
2.9512970694129592
 20
137.5729723353404097
 10
3.0699873831919504
 20
137.2025767009611457
 42
0.0108254449539016
 10
3.129332540081446
 20
137.3887977105109428
 42
-0.0100001111012946
 10
3.1907240816912683
 20
137.5729723353404097
 10
3.6040937951974072
 20
138.6821128537578716
 10
4.195498979372033
 20
138.6821128537578716
 10
3.3319246273938603
 20
136.5088522807701281
  0
LWPOLYLINE
  5
93
100
AcDbEntity
  8
0
 62
256
370
-1
 48
1.0
  6
BYLAYER
100
AcDbPolyline
 90
14
 70
129
 10
5.7124701248345957
 20
137.2005303162408154
 10
6.2854578465262776
 20
137.1043502343854072
 42
-0.161958581388899
 10
5.9365492517104492
 20
136.624473017468631
 42
-0.1545460799287142
 10
5.340028105735005
 20
136.4597390474822873
 42
-0.2506197482442532
 10
4.5010103704007633
 20
136.8301346818615514
 42
-0.1605804351980726
 10
4.2861399747663853
 20
137.579111489501372
 42
-0.1927516888920972
 10
4.5685410661715693
 20
138.4252915713567802
 42
-0.2188537467414551
 10
5.2827293335658396
 20
138.7312260870457123
 42
-0.2259863963909629
 10
6.0480772189682952
 20
138.4109668783144684
 42
-0.1856404654604602
 10
6.3161536173311887
 20
137.429725404917491
 10
4.8754987742206808
 20
137.429725404917491
 42
0.1875592298419135
 10
5.0146529352029461
 20
137.0317035768137828
 42
0.2169548293509032
 10
5.3461672598959886
 20
136.8894798387510434
 42
0.1747326725964006
 10
5.5733159638523304
 20
136.9631496886828188
 42
0.1548242429700284
  0
LWPOLYLINE
  5
94
100
AcDbEntity
  8
0
 62
256
370
-1
 48
1.0
  6
BYLAYER
100
AcDbPolyline
 90
5
 70
129
 10
5.7452122803598442
 20
137.7817035768137828
 42
0.1873846994945941
 10
5.6162900429792089
 20
138.1613079424345472
 42
0.2154434067535187
 10
5.3175178738114042
 20
138.2912533721753334
 42
0.2233998153243052
 10
5.0064673963216393
 20
138.1541455959133771
 42
0.1912376905497874
 10
4.8857306978223178
 20
137.7817035768137828
  0
LWPOLYLINE
  5
95
100
AcDbEntity
  8
0
 62
256
370
-1
 48
1.0
  6
BYLAYER
100
AcDbPolyline
 90
21
 70
129
 10
8.948281344561952
 20
138.6821128537578716
 10
8.948281344561952
 20
138.2237226764045204
 10
8.5553754782590872
 20
138.2237226764045204
 10
8.5553754782590872
 20
137.3478700161043946
 42
0.0356477566266397
 10
8.5666305942208893
 20
137.0378427309747735
 42
0.1816276587619634
 10
8.6177902122290746
 20
136.9651960734031491
 42
0.1601333503393739
 10
8.7149934864446266
 20
136.9365466873185824
 42
0.0804174096891018
 10
8.9462349598416218
 20
136.9917990747674139
 10
8.9953481931294803
 20
136.5456872057360442
 42
-0.1021774704330156
 10
8.5410507852167967
 20
136.4597390474822873
 42
-0.099927314809475
 10
8.2606960785319359
 20
136.5119218578506377
 42
-0.1418457765398889
 10
8.0775446460626341
 20
136.6469832493922354
 42
-0.1131446565551024
 10
7.9967124496096993
 20
136.8710623762680996
 42
-0.0364267570302929
 10
7.9782949871267554
 20
137.2762465508929211
 10
7.9782949871267554
 20
138.2237226764045204
 10
7.7143113582045189
 20
138.2237226764045204
 10
7.7143113582045189
 20
138.6821128537578716
 10
7.9782949871267554
 20
138.6821128537578716
 10
7.9782949871267554
 20
139.1139000297469579
 10
8.5553754782590872
 20
139.4495071238806361
 10
8.5553754782590872
 20
138.6821128537578716
  0
LWPOLYLINE
  5
96
100
AcDbEntity
  8
0
 62
256
370
-1
 48
1.0
  6
BYLAYER
100
AcDbPolyline
 90
19
 70
129
 10
9.9111745940567673
 20
139.5088522807701281
 10
9.9111745940567673
 20
138.405850916513657
 42
-0.2297683159001879
 10
10.576249628163179
 20
138.7312260870457123
 42
-0.1095043667614354
 10
10.9343669542204758
 20
138.657556237113937
 42
-0.1327577679671502
 10
11.1748171588589464
 20
138.4692888428438096
 42
-0.1024506007344589
 10
11.2853219337566308
 20
138.2155371375231994
 42
-0.047807818413648
 10
11.3149945122013733
 20
137.783749961534113
 10
11.3149945122013733
 20
136.5088522807701281
 10
10.7399604057893718
 20
136.5088522807701281
 10
10.7399604057893718
 20
137.6568741088738363
 42
0.0642513426534802
 10
10.707218250264134
 20
138.0907076695832245
 42
0.1684049185418249
 10
10.5915975135656346
 20
138.2370241770866528
 42
0.1474606683999599
 10
10.3838894644523982
 20
138.2912533721753334
 42
0.141890902037925
 10
10.128091374411472
 20
138.2216762916841901
 42
0.1709473953316095
 10
9.9633574044251176
 20
138.0119218578506377
 42
0.0839388745353813
 10
9.9111745940567673
 20
137.5975289519843159
 10
9.9111745940567673
 20
136.5088522807701281
 10
9.3361404876447587
 20
136.5088522807701281
 10
9.3361404876447587
 20
139.5088522807701281
  0
LWPOLYLINE
  5
97
100
AcDbEntity
  8
0
 62
256
370
-1
 48
1.0
  6
BYLAYER
100
AcDbPolyline
 90
19
 70
129
 10
13.3210208331196363
 20
136.5088522807701281
 10
13.3210208331196363
 20
136.8342274513022119
 42
-0.125955617021353
 10
13.0089471632697027
 20
136.5600118987783276
 42
-0.1219174016396381
 10
12.6006934115643787
 20
136.4597390474822873
 42
-0.1287920369738823
 10
12.2077875452615174
 20
136.5559191293376671
 42
-0.1671038193848446
 10
11.9560822246612446
 20
136.8260419124208909
 42
-0.1020889602928537
 10
11.8783196052888016
 20
137.3069423216978464
 10
11.8783196052888016
 20
138.6821128537578716
 10
12.4533537117008102
 20
138.6821128537578716
 10
12.4533537117008102
 20
137.6834771102380728
 42
0.0509227707216301
 10
12.4850726748658829
 20
137.1217445045082002
 42
0.1682080884580406
 10
12.6006934115643787
 20
136.9580337268820074
 42
0.159605783940565
 10
12.8135174224784336
 20
136.897665377632336
 42
0.1562691711447435
 10
13.0775010514006702
 20
136.9784975740852815
 42
0.1598178526061163
 10
13.2371190595862132
 20
137.179043276677362
 42
0.0633887207416011
 10
13.2800931387130881
 20
137.7653324990511692
 10
13.2800931387130881
 20
138.6821128537578716
 10
13.8551272451250895
 20
138.6821128537578716
 10
13.8551272451250895
 20
136.5088522807701281
  0
LWPOLYLINE
  5
98
100
AcDbEntity
  8
0
 62
256
370
-1
 48
1.0
  6
BYLAYER
100
AcDbPolyline
 90
30
 70
129
 10
14.400034875729574
 20
138.6821128537578716
 10
14.9300485182943703
 20
138.6821128537578716
 10
14.9300485182943703
 20
138.3853870693103829
 42
-0.2352774286122368
 10
15.6074018607227494
 20
138.7312260870457123
 42
-0.129718093257664
 10
15.9696119562207031
 20
138.6452779287919554
 42
-0.1396127710664862
 10
16.2213172768209759
 20
138.3853870693103829
 42
-0.1015752160210954
 10
16.5303213695904176
 20
138.6452779287919554
 42
-0.1219202445145425
 10
16.8843459262070574
 20
138.7312260870457123
 42
-0.1345001002415384
 10
17.2895301008318896
 20
138.6340228128301533
 42
-0.1628622979485787
 10
17.537142651991509
 20
138.3485521443444952
 42
-0.0924606854379861
 10
17.5964878088810011
 20
137.898347505872465
 10
17.5964878088810011
 20
136.5088522807701281
 10
17.021453702468996
 20
136.5088522807701281
 10
17.021453702468996
 20
137.7510078060088858
 42
0.1155892055045195
 10
16.962108545579504
 20
138.1684702889556888
 42
0.2704032074157329
 10
16.7165423791402148
 20
138.2912533721753334
 42
0.1560368153910476
 10
16.4893936751838694
 20
138.2175835222435296
 42
0.1665428661649518
 10
16.3359148211593066
 20
138.0016899342489864
 42
0.0730791917483811
 10
16.2888479725917819
 20
137.5525084881371356
 10
16.2888479725917819
 20
136.5088522807701281
 10
15.7138138661797768
 20
136.5088522807701281
 10
15.7138138661797768
 20
137.6998481880006864
 42
0.0623513009056715
 10
15.6831180953748657
 20
138.1091251320661968
 42
0.1640436051320619
 10
15.5879612058796369
 20
138.2462329083281247
 42
0.1537011612319279
 10
15.4129953122916454
 20
138.2912533721753334
 42
0.1525559180263682
 10
15.1735683000133363
 20
138.2196299069638599
 42
0.1680348615222905
 10
15.0211126383489422
 20
138.0129450502107886
 42
0.0737117464130386
 10
14.9750689821415754
 20
137.5647867964590887
 10
14.9750689821415754
 20
136.5088522807701281
 10
14.400034875729574
 20
136.5088522807701281
  0
LWPOLYLINE
  5
99
100
AcDbEntity
  8
0
 62
256
370
-1
 48
1.0
  6
BYLAYER
100
AcDbPolyline
 90
12
 70
129
 10
18.1367795341012865
 20
136.5088522807701281
 10
18.1367795341012865
 20
139.5088522807701281
 10
18.7118136405132915
 20
139.5088522807701281
 10
18.7118136405132915
 20
138.4283611484372614
 42
-0.2258094728776491
 10
19.3421001343741352
 20
138.7312260870457123
 42
-0.2220073889212995
 10
19.9989896295992367
 20
138.443709033839724
 42
-0.1882333761730023
 10
20.2588804890808163
 20
137.61799279918759
 42
-0.1846727954538677
 10
19.9938736677984181
 20
136.7605576013704081
 42
-0.2257123956902725
 10
19.3502856732554491
 20
136.4597390474822873
 42
-0.1208142953308189
 10
18.9829596159566734
 20
136.5528495522571859
 42
-0.1201480642403446
 10
18.6708859461067362
 20
136.8280882971412211
 10
18.6708859461067362
 20
136.5088522807701281
  0
LWPOLYLINE
  5
9A
100
AcDbEntity
  8
0
 62
256
370
-1
 48
1.0
  6
BYLAYER
100
AcDbPolyline
 90
8
 70
129
 10
18.7077208710726097
 20
137.6425494158315246
 42
0.1408327143524329
 10
18.814132876529662
 20
137.1432315440716536
 42
0.2703290392750095
 10
19.2111315122731767
 20
136.914036455394978
 42
0.2353604972031905
 10
19.535483490445074
 20
137.0767240406609915
 42
0.1702670683790601
 10
19.6695216896265208
 20
137.5893434131030233
 42
0.1677360037589368
 10
19.534460298084916
 20
138.1265194021889613
 42
0.2366234811640463
 10
19.1886212803495724
 20
138.2912533721753334
 42
0.2305811972302643
 10
18.8448286473345732
 20
138.1306121716296218
 42
0.177224405229252
  0
LWPOLYLINE
  5
9B
100
AcDbEntity
  8
0
 62
256
370
-1
 48
1.0
  6
BYLAYER
100
AcDbPolyline
 90
26
 70
129
 10
20.5111551046784797
 20
137.1289068510293419
 10
21.0882355958108079
 20
137.216901394003429
 42
0.180289713025629
 10
21.2376216803947173
 20
136.9621264963226679
 42
0.1663912994955205
 10
21.5527649273251356
 20
136.8751551457087601
 42
0.155465379778901
 10
21.8883720214588351
 20
136.9570105345218565
 42
0.2486454460037607
 10
21.9640882561109478
 20
137.110489388546398
 42
0.1995951405943126
 10
21.9231605617043996
 20
137.2189477787237593
 42
0.1142675158994407
 10
21.7308003979936188
 20
137.2946640133758649
 42
-0.0750039404674151
 10
20.8488085835325023
 20
137.57501872006074
 42
-0.2640932623139542
 10
20.5909641087712458
 20
138.0641046682189881
 42
-0.2289676122615531
 10
20.8140200432869378
 20
138.5388659233349529
 42
-0.1777577201919147
 10
21.5056980787576038
 20
138.7312260870457123
 42
-0.1435244907169843
 10
22.1687267281436888
 20
138.5859327719024634
 42
-0.1820429793207344
 10
22.4674988973114935
 20
138.1561919806337073
 10
21.9252069464247228
 20
138.0559191293376671
 42
0.1809644690421471
 10
21.7932151319636063
 20
138.2503256777687852
 42
0.1512025160576434
 10
21.5159300023592408
 20
138.3178563735395699
 42
0.1350773078251764
 10
21.1905548318271784
 20
138.2544184472094173
 42
0.26238014002757
 10
21.1250705207767027
 20
138.1377745181507635
 42
0.2486934353261223
 10
21.1823692929458716
 20
138.0334088974140627
 42
0.0652820663456784
 10
21.7195452820318167
 20
137.8717445045082002
 42
-0.1092628380846609
 10
22.3610868918544625
 20
137.6159464144672882
 42
-0.2297389100241813
 10
22.5411687472432831
 20
137.1882520079188339
 42
-0.2288852516769777
 10
22.2915098113633334
 20
136.6746094431166512
 42
-0.1796655323249361
 10
21.5527649273251356
 20
136.4597390474822873
 42
-0.1531631714921735
 10
20.8498317758926675
 20
136.6398209028710937
 42
-0.1854152645467707
  0
LWPOLYLINE
  5
9C
100
AcDbEntity
  8
0
 62
256
370
-1
 48
1.0
  6
BYLAYER
100
AcDbPolyline
 90
18
 70
129
 10
24.9405317523002594
 20
138.0395480515750535
 10
24.3736831847695612
 20
137.937228815558683
 42
0.1800241240423677
 10
24.2437377550287749
 20
138.193026905599595
 42
0.1820889974822608
 10
23.9807773184666999
 20
138.2789750638533519
 42
0.2286876629121012
 10
23.6380078778118516
 20
138.1306121716296218
 42
0.1736001157841361
 10
23.5101088327913956
 20
137.634363876950232
 42
0.1639535167427376
 10
23.6400542625321819
 20
137.0879791566227937
 42
0.2374916202501061
 10
23.9889628573480067
 20
136.9283611484372614
 42
0.1896451092624539
 10
24.2570392557109002
 20
137.0214716532121599
 42
0.16148702080085
 10
24.4043789555744794
 20
137.3417308619434039
 10
24.9691811383848474
 20
137.2455507800880241
 42
-0.1741052774459206
 10
24.6315276595308248
 20
136.6582383653540376
 42
-0.1718942095237132
 10
23.962359855983749
 20
136.4597390474822873
 42
-0.2149439961590152
 10
23.2021279323821119
 20
136.7605576013704081
 42
-0.1958184163489115
 10
22.9187036486167628
 20
137.5934361825436838
 42
-0.196570524126058
 10
23.2031511247422841
 20
138.4314307255177425
 42
-0.2136769016566426
 10
23.972591779585386
 20
138.7312260870457123
 42
-0.1597392867003684
 10
24.6039014658064019
 20
138.5603529628983779
 42
-0.1684092384496121
  0
LWPOLYLINE
  5
9D
100
AcDbEntity
  8
0
 62
256
370
-1
 48
1.0
  6
BYLAYER
100
AcDbPolyline
 90
13
 70
129
 10
25.9278893003313158
 20
136.5088522807701281
 10
25.3528551939193179
 20
136.5088522807701281
 10
25.3528551939193179
 20
138.6821128537578716
 10
25.8869616059247676
 20
138.6821128537578716
 10
25.8869616059247676
 20
138.3731087609884298
 42
-0.1032526218787233
 10
26.133550964724229
 20
138.6616490065545975
 42
-0.1452936089129981
 10
26.3821867082440065
 20
138.7312260870457123
 42
-0.1374436283283625
 10
26.7607678815045844
 20
138.6227676968683795
 10
26.5827324108360941
 20
138.1214034403881499
 42
0.1446986624674779
 10
26.3126096277528703
 20
138.2155371375231994
 42
0.1736219943321542
 10
26.1079711557201293
 20
138.1490296341125656
 42
0.1544311530859334
 10
25.9759793412590128
 20
137.9085794294740879
 42
0.0535877492108312
 10
25.9278893003313158
 20
137.1800664690375413
  0
LWPOLYLINE
  5
9E
100
AcDbEntity
  8
0
 62
256
370
-1
 48
1.0
  6
BYLAYER
100
AcDbPolyline
 90
14
 70
129
 10
28.2745232795494843
 20
137.2005303162408154
 10
28.8475110012411662
 20
137.1043502343854072
 42
-0.1619585813888873
 10
28.4986024064253414
 20
136.624473017468631
 42
-0.1545460799287096
 10
27.9020812604498971
 20
136.4597390474822873
 42
-0.2506197482442531
 10
27.0630635251156519
 20
136.8301346818615514
 42
-0.160580435198064
 10
26.8481931294812739
 20
137.579111489501372
 42
-0.1927516888920946
 10
27.1305942208864579
 20
138.4252915713567802
 42
-0.2188537467414555
 10
27.8447824882807282
 20
138.7312260870457123
 42
-0.2259863963909767
 10
28.6101303736831838
 20
138.4109668783144684
 42
-0.1856404654604774
 10
28.8782067720460773
 20
137.429725404917491
 10
27.4375519289355694
 20
137.429725404917491
 42
0.1875592298419206
 10
27.5767060899178418
 20
137.0317035768137828
 42
0.2169548293509157
 10
27.9082204146108808
 20
136.8894798387510434
 42
0.1747326725964035
 10
28.1353691185672261
 20
136.9631496886828188
 42
0.1548242429700689
  0
LWPOLYLINE
  5
9F
100
AcDbEntity
  8
0
 62
256
370
-1
 48
1.0
  6
BYLAYER
100
AcDbPolyline
 90
5
 70
129
 10
28.3072654350747293
 20
137.7817035768137828
 42
0.1873846994945909
 10
28.1783431976940975
 20
138.1613079424345472
 42
0.2154434067535195
 10
27.8795710285262928
 20
138.2912533721753334
 42
0.2233998153242898
 10
27.5685205510365279
 20
138.1541455959133771
 42
0.1912376905497882
 10
27.4477838525372064
 20
137.7817035768137828
  0
LWPOLYLINE
  5
A0
100
AcDbEntity
  8
0
 62
256
370
-1
 48
1.0
  6
BYLAYER
100
AcDbPolyline
 90
13
 70
129
 10
29.7530131604591261
 20
136.5088522807701281
 10
29.0654278944291136
 20
138.6821128537578716
 10
29.624090923078505
 20
138.6821128537578716
 10
30.0313214824236567
 20
137.2578290884099772
 10
30.4058098862435742
 20
138.6821128537578716
 10
30.9603801454523122
 20
138.6821128537578716
 10
31.3225902409502623
 20
137.2578290884099772
 10
31.738006339176728
 20
138.6821128537578716
 10
32.3048549067074262
 20
138.6821128537578716
 10
31.6070377170757695
 20
136.5088522807701281
 10
31.0545138425873688
 20
136.5088522807701281
 10
30.6800254387674514
 20
137.9065330447537576
 10
30.3116761891085105
 20
136.5088522807701281
  0
LWPOLYLINE
  5
A1
100
AcDbEntity
  8
0
 62
256
370
-1
 48
1.0
  6
BYLAYER
100
AcDbPolyline
 90
26
 70
129
 10
32.5169403727600042
 20
137.1289068510293419
 10
33.0940208638923323
 20
137.216901394003429
 42
0.1802897130256506
 10
33.2434069484762418
 20
136.9621264963226679
 42
0.1663912994955298
 10
33.5585501954066601
 20
136.8751551457087601
 42
0.1554653797788933
 10
33.8941572895403596
 20
136.9570105345218565
 42
0.2486454460038294
 10
33.9698735241924723
 20
137.110489388546398
 42
0.1995951405943126
 10
33.9289458297859241
 20
137.2189477787237593
 42
0.1142675158994289
 10
33.7365856660751504
 20
137.2946640133758649
 42
-0.0750039404674104
 10
32.8545938516140268
 20
137.57501872006074
 42
-0.2640932623139416
 10
32.5967493768527703
 20
138.0641046682189881
 42
-0.2289676122615874
 10
32.8198053113684622
 20
138.5388659233349529
 42
-0.1777577201919269
 10
33.5114833468391353
 20
138.7312260870457123
 42
-0.1435244907169827
 10
34.1745119962252133
 20
138.5859327719024634
 42
-0.1820429793207627
 10
34.473284165393018
 20
138.1561919806337073
 10
33.9309922145062544
 20
138.0559191293376671
 42
0.1809644690421532
 10
33.7990004000451307
 20
138.2503256777687852
 42
0.1512025160576403
 10
33.5217152704407724
 20
138.3178563735395699
 42
0.1350773078251664
 10
33.1963400999087028
 20
138.2544184472094173
 42
0.2623801400274896
 10
33.1308557888582342
 20
138.1377745181507635
 42
0.248693435326107
 10
33.188154561027396
 20
138.0334088974140627
 42
0.0652820663456811
 10
33.7253305501133482
 20
137.8717445045082002
 42
-0.1092628380846618
 10
34.3668721599360012
 20
137.6159464144672882
 42
-0.2297389100241547
 10
34.5469540153248076
 20
137.1882520079188339
 42
-0.2288852516769785
 10
34.2972950794448579
 20
136.6746094431166512
 42
-0.179665532324931
 10
33.5585501954066601
 20
136.4597390474822873
 42
-0.1531631714921704
 10
32.8556170439741919
 20
136.6398209028710937
 42
-0.1854152645467709
  0
LWPOLYLINE
  5
A2
100
AcDbEntity
  8
0
 62
256
370
-1
 48
1.0
  6
BYLAYER
100
AcDbPolyline
 90
8
 70
129
 10
15.6589358799454299
 20
102.4938608458390235
 10
15.0839017735334249
 20
102.4938608458390235
 10
15.0839017735334249
 20
104.6609822646657619
 42
-0.1099280811122665
 10
14.3410641200545701
 20
104.2251023192360151
 10
14.3410641200545701
 20
104.7469304229195188
 42
0.0852870096898178
 10
14.8301500682128236
 20
105.0262619372442146
 42
0.1445706368945033
 10
15.1923601637107772
 20
105.5061391541609908
 10
15.6589358799454299
 20
105.5061391541609908
  0
LWPOLYLINE
  5
A3
100
AcDbEntity
  8
0
 62
256
370
-1
 48
1.0
  6
BYLAYER
100
AcDbPolyline
 90
21
 70
129
 10
16.0078444747612565
 20
82.0279672578444803
 10
16.0078444747612565
 20
81.4938608458390235
 10
13.9921555252387453
 20
81.4938608458390235
 42
-0.1105963301644764
 10
14.1886084583901777
 20
82.0678717598908634
 42
-0.0635609915235277
 10
14.8352660300136421
 20
82.7871759890859522
 42
0.0421479203749408
 10
15.31207366984993
 20
83.2783083219645306
 42
0.1500945349394309
 10
15.4307639836289212
 20
83.6302864938608508
 42
0.2038431041097626
 10
15.3274215552523874
 20
83.9259890859481601
 42
0.2050057676366608
 10
15.0419508867667115
 20
84.0293315143246957
 42
0.2086261155037577
 10
14.7554570259208724
 20
83.9208731241473487
 42
0.1760691838329093
 10
14.6326739427012278
 20
83.5607094133697217
 10
14.0596862210095495
 20
83.6180081855388835
 42
-0.2092785674361496
 10
14.3809686221009549
 20
84.2994542974079195
 42
-0.168294650467835
 10
15.0562755798090038
 20
84.5061391541609908
 42
-0.1962538116056298
 10
15.7540927694406552
 20
84.2667121418826781
 42
-0.21564463313075
 10
16.0078444747612565
 20
83.671214188267399
 42
-0.095527105327161
 10
15.935197817189632
 20
83.2854706684856865
 42
-0.0716784105217103
 10
15.7049795361527966
 20
82.90177353342429
 42
-0.0364798985823215
 10
15.3284447476125489
 20
82.5190995907230587
 42
0.0195462198952765
 10
14.9836289222373793
 20
82.1875852660300126
 42
0.0500684858961267
 10
14.8659618008185532
 20
82.0279672578444803
  0
LWPOLYLINE
  5
A4
100
AcDbEntity
  8
0
 62
256
370
-1
 48
1.0
  6
BYLAYER
100
AcDbPolyline
 90
28
 70
129
 10
14.0034106412005457
 20
61.3154843110504828
 10
14.5600272851296051
 20
61.3830150068212816
 42
0.1737520740297032
 10
14.7032742155525238
 20
61.0576398362892263
 42
0.2018750732183992
 10
14.9856753069577078
 20
60.9450886766712117
 42
0.2224093331159287
 10
15.2854706684856758
 20
61.0801500682128164
 42
0.1899860761866296
 10
15.4072305593451571
 20
61.4444065484311039
 42
0.1927793992304995
 10
15.2905866302864943
 20
61.7881991814461173
 42
0.2194823095466228
 10
15.0061391541609819
 20
61.9150750341064082
 42
0.0669523301687828
 10
14.7421555252387453
 20
61.8721009549795298
 10
14.8055934515688943
 20
62.340723055934518
 42
0.1902763608947039
 10
15.1616643929058661
 20
62.4420190995907234
 42
0.2265125286282692
 10
15.2844474761255107
 20
62.7274897680763956
 42
0.2058012581372478
 10
15.1944065484311057
 20
62.9689631650750385
 42
0.2059976047869004
 10
14.9549795361527966
 20
63.0590040927694417
 42
0.2042100602121159
 10
14.7032742155525238
 20
62.9566848567530712
 42
0.1739311079315228
 10
14.576398362892224
 20
62.6579126875852666
 10
14.0463847203274224
 20
62.7479536152796697
 42
-0.0992601207867501
 10
14.213165075034107
 20
63.1828103683492515
 42
-0.1362289696456509
 10
14.5242155525238736
 20
63.4386084583901777
 42
-0.1106278783392042
 10
14.9713506139154156
 20
63.5317189631650763
 42
-0.2143594188117699
 10
15.6507503410641196
 20
63.2615961800818525
 42
-0.1998399126611714
 10
15.8615279672578442
 20
62.7622783083219673
 42
-0.2936239586544853
 10
15.4297407912687579
 20
62.1319918144611165
 42
-0.1775571458301648
 10
15.8420873124147334
 20
61.8843792633014971
 42
-0.175590217330149
 10
15.9965893587994543
 20
61.4198499317871693
 42
-0.2124030578800646
 10
15.7080491132332885
 20
60.7465893587994543
 42
-0.2016358623901103
 10
14.989768076398363
 20
60.4682810368349237
 42
-0.1870148557159742
 10
14.3144611186903141
 20
60.7025920873124107
 42
-0.1935963176376277
  0
LWPOLYLINE
  5
A5
100
AcDbEntity
  8
0
 62
256
370
-1
 48
1.0
  6
BYLAYER
100
AcDbPolyline
 90
10
 70
129
 10
10.8428425310249992
 20
9.8042639584467253
 42
-0.1035033566386786
 10
10.9799503072869378
 20
10.5737046132898342
 42
-0.0887304716847963
 10
11.2592818216116299
 20
10.9850279420756465
 42
-0.1022159918237364
 10
11.6470717261136762
 20
11.2551507251588667
 42
-0.1008111681527628
 10
12.2937292977371406
 20
11.3738410389378579
 42
-0.210969209152094
 10
13.3547797752269091
 20
10.9625177101520457
 42
-0.1997447700764639
 10
13.7528016033305924
 20
9.8185886514890157
 42
-0.1990625992222405
 10
13.3578493523074009
 20
8.6818219393471345
 42
-0.2117135593124134
 10
12.301914836618451
 20
8.2715218029214874
 42
-0.2107726254246627
 10
11.2377947820481907
 20
8.6797755546268078
 42
-0.200008861335194
  0
LWPOLYLINE
  5
A6
100
AcDbEntity
  8
0
 62
256
370
-1
 48
1.0
  6
BYLAYER
100
AcDbPolyline
 90
8
 70
129
 10
11.4669898707248628
 20
9.8247278056499994
 42
0.1858023423294451
 10
11.7023241135625167
 20
9.0522175737263986
 42
0.2234885323936685
 10
12.2998684518981243
 20
8.7892571371643236
 42
0.2242506675355614
 10
12.8943432131532401
 20
9.0501711890060683
 42
0.1840757256043475
 10
13.1266078789104021
 20
9.8329133445313097
 42
0.1837364737804466
 10
12.9004823673142219
 20
10.6023539993744187
 42
0.2237063844645552
 10
12.2998684518981243
 20
10.8561057046950182
 42
0.2235993490207226
 10
11.6961849594015348
 20
10.5992844222939269
 42
0.1842082365376996
  0
LWPOLYLINE
  5
A7
100
AcDbEntity
  8
0
 62
256
370
-1
 48
1.0
  6
BYLAYER
100
AcDbPolyline
 90
19
 70
129
 10
15.6376142488598315
 20
8.3226814209296727
 10
15.6376142488598315
 20
8.6480565914617316
 42
-0.1259556170213167
 10
15.3255405790098997
 20
8.3738410389378579
 42
-0.1219174016396426
 10
14.9172868273045793
 20
8.2735681876418141
 42
-0.1287920369738307
 10
14.5243809610017145
 20
8.369748269497201
 42
-0.1671038193848583
 10
14.2726756404014417
 20
8.6398710525804212
 42
-0.1020889602928761
 10
14.1949130210289987
 20
9.1207714618573696
 10
14.1949130210289987
 20
10.4959419939173948
 10
14.7699471274410055
 20
10.4959419939173948
 10
14.7699471274410055
 20
9.4973062503976102
 42
0.0509227707216153
 10
14.80166609060608
 20
8.9355736446677341
 42
0.1682080884581295
 10
14.9172868273045793
 20
8.7718628670415413
 42
0.1596057839407558
 10
15.1301108382186307
 20
8.7114945177918806
 42
0.1562691711446468
 10
15.394094467140869
 20
8.7923267142448154
 42
0.1598178526060041
 10
15.5537124753264067
 20
8.992872416836903
 42
0.0633887207416043
 10
15.5966865544532833
 20
9.5791616392107102
 10
15.5966865544532833
 20
10.4959419939173948
 10
16.1717206608652901
 20
10.4959419939173948
 10
16.1717206608652901
 20
8.3226814209296727
  0
LWPOLYLINE
  5
A8
100
AcDbEntity
  8
0
 62
256
370
-1
 48
1.0
  6
BYLAYER
100
AcDbPolyline
 90
21
 70
129
 10
17.7561917293960967
 20
10.4959419939173948
 10
17.7561917293960967
 20
10.0375518165640507
 10
17.3632858630932319
 20
10.0375518165640507
 10
17.3632858630932319
 20
9.1616991562639143
 42
0.0356477566266286
 10
17.374540979055034
 20
8.8516718711343145
 42
0.1816276587619605
 10
17.4257005970632193
 20
8.7790252135626865
 42
0.1601333503394274
 10
17.5229038712787712
 20
8.7503758274781021
 42
0.0804174096891156
 10
17.75414534467577
 20
8.8056282149269443
 10
17.8032585779636285
 20
8.3595163458955639
 42
-0.1021774704330668
 10
17.3489611700509414
 20
8.2735681876418141
 42
-0.0999273148094312
 10
17.0686064633660841
 20
8.3257509980101609
 42
-0.1418457765398636
 10
16.8854550308967788
 20
8.4608123895517728
 42
-0.1131446565550596
 10
16.8046228344438475
 20
8.6848915164276264
 42
-0.0364267570303115
 10
16.7862053719609001
 20
9.0900756910524585
 10
16.7862053719609001
 20
10.0375518165640507
 10
16.5222217430386635
 20
10.0375518165640507
 10
16.5222217430386635
 20
10.4959419939173948
 10
16.7862053719609001
 20
10.4959419939173948
 10
16.7862053719609001
 20
10.9277291699064811
 10
17.3632858630932319
 20
11.2633362640401771
 10
17.3632858630932319
 20
10.4959419939173948
  0
LWPOLYLINE
  5
A9
100
AcDbEntity
  8
0
 62
256
370
-1
 48
1.0
  6
BYLAYER
100
AcDbPolyline
 90
8
 70
129
 10
2.1801499462697205
 20
18.5245566166439275
 10
2.1801499462697205
 20
21.0170532060027284
 10
1.2899725929272918
 20
21.0170532060027284
 10
1.2899725929272918
 20
21.5245566166439275
 10
3.6740107921087386
 20
21.5245566166439275
 10
3.6740107921087386
 20
21.0170532060027284
 10
2.7858798234866367
 20
21.0170532060027284
 10
2.7858798234866367
 20
18.5245566166439275
  0
LWPOLYLINE
  5
AA
100
AcDbEntity
  8
0
 62
256
370
-1
 48
1.0
  6
BYLAYER
100
AcDbPolyline
 90
10
 70
129
 10
3.6094650484863777
 20
19.6418826739426784
 42
-0.1235530753264732
 10
3.7506655941889733
 20
20.1964529331514306
 42
-0.1509984122013761
 10
4.1507338070129833
 20
20.6057298772169162
 42
-0.1273392299186422
 10
4.7288374905054802
 20
20.7469304229195082
 42
-0.2090855185083215
 10
5.5371594550348107
 20
20.4266712141882643
 42
-0.2044432215222106
 10
5.8523027019652343
 20
19.6173260572987687
 42
-0.2040261810827733
 10
5.5340898779543188
 20
18.7997953615279663
 42
-0.2097458665472352
 10
4.7329302599461336
 20
18.4754433833560689
 42
-0.1176310026617933
 10
4.1630121153349471
 20
18.6105047748976773
 42
-0.1581167900378135
 10
3.7506655941889733
 20
19.006480218281034
 42
-0.1252767960355574
  0
LWPOLYLINE
  5
AB
100
AcDbEntity
  8
0
 62
256
370
-1
 48
1.0
  6
BYLAYER
100
AcDbPolyline
 90
8
 70
129
 10
4.1988238479406768
 20
19.6111869031377886
 42
0.1862594742662095
 10
4.3523027019652343
 20
19.1159618008185532
 42
0.2238423430888258
 10
4.7308838752258069
 20
18.9440654843110501
 42
0.2248461522326314
 10
5.1084418561262162
 20
19.1159618008185532
 42
0.1849238093447899
 10
5.2608975177906103
 20
19.615279672578442
 42
0.1855851125505609
 10
5.1084418561262162
 20
20.1064120054570239
 42
0.2248461522326269
 10
4.7308838752258069
 20
20.278308321964527
 42
0.2238423430888275
 10
4.3523027019652343
 20
20.1064120054570239
 42
0.1862594742662091
  0
LWPOLYLINE
  5
AC
100
AcDbEntity
  8
0
 62
256
370
-1
 48
1.0
  6
BYLAYER
100
AcDbPolyline
 90
19
 70
129
 10
8.2716987363896308
 20
18.5245566166439275
 10
7.6966646299776258
 20
18.5245566166439275
 10
7.6966646299776258
 20
19.6336971350613894
 42
0.0669175869412948
 10
7.6598297050117328
 20
20.0890177353342416
 42
0.1608929415361547
 10
7.5401161988725782
 20
20.2496589358799426
 42
0.1553418751934526
 10
7.340593688640654
 20
20.3069577080491115
 42
0.1556564042004197
 10
7.0725172902777622
 20
20.2251023192360151
 42
0.1690594357830562
 10
6.909829705011731
 20
20.0081855388813068
 42
0.0671360903059428
 10
6.865832433524691
 20
19.5088676671214145
 10
6.865832433524691
 20
18.5245566166439275
 10
6.2907983271126859
 20
18.5245566166439275
 10
6.2907983271126859
 20
20.6978171896316496
 10
6.8249047391181428
 20
20.6978171896316496
 10
6.8249047391181428
 20
20.3785811732605708
 42
-0.2453154310907386
 10
7.5411393912327398
 20
20.7469304229195082
 42
-0.103845780301037
 10
7.889024793688403
 20
20.6783765347885371
 42
-0.1289378461665295
 10
8.127428613606547
 20
20.5034106412005457
 42
-0.1062700363775646
 10
8.2399797732245545
 20
20.2619372442019099
 42
-0.0541739054045466
 10
8.2716987363896308
 20
19.875170532060018
  0
LWPOLYLINE
  5
AD
100
AcDbEntity
  8
0
 62
256
370
-1
 48
1.0
  6
BYLAYER
100
AcDbPolyline
 90
14
 70
129
 10
10.1058287408003835
 20
19.216234652114597
 10
10.6788164624920618
 20
19.1200545702592066
 42
-0.1619585813889174
 10
10.329907867676237
 20
18.6401773533424269
 42
-0.1545460799286869
 10
9.7333867217007963
 20
18.4754433833560689
 42
-0.2506197482442109
 10
8.8943689863665512
 20
18.845839017735333
 42
-0.1605804351980766
 10
8.6794985907321713
 20
19.5948158253751643
 42
-0.1927516888920903
 10
8.9618996821373571
 20
20.4409959072305583
 42
-0.2188537467414733
 10
9.6760879495316274
 20
20.7469304229195082
 42
-0.2259863963909839
 10
10.441435834934083
 20
20.4266712141882643
 42
-0.1856404654604754
 10
10.709512233296973
 20
19.4454297407912655
 10
9.2688573901864686
 20
19.4454297407912655
 42
0.1875592298419802
 10
9.4080115511687339
 20
19.0474079126875822
 42
0.2169548293509224
 10
9.7395258758617764
 20
18.9051841746248286
 42
0.1747326725964244
 10
9.9666745798181182
 20
18.9788540245566146
 42
0.1548242429700839
  0
LWPOLYLINE
  5
AE
100
AcDbEntity
  8
0
 62
256
370
-1
 48
1.0
  6
BYLAYER
100
AcDbPolyline
 90
5
 70
129
 10
10.1385708963256249
 20
19.7974079126875822
 42
0.187384699494581
 10
10.0096486589449967
 20
20.1770122783083217
 42
0.215443406753378
 10
9.710876489777192
 20
20.3069577080491115
 42
0.2233998153242442
 10
9.3998260122874271
 20
20.1698499317871729
 42
0.191237690549776
 10
9.2790893137881056
 20
19.7974079126875822
  0
LWPOLYLINE
  5
AF
100
AcDbEntity
  8
0
 62
256
370
-1
 48
1.0
  6
BYLAYER
100
AcDbPolyline
 90
11
 70
129
 10
15.1493860845839023
 20
38.4938608458390163
 10
15.1493860845839023
 20
39.0975443383356023
 10
13.9215552523874493
 20
39.0975443383356023
 10
13.9215552523874493
 20
39.600954979536148
 10
15.2230559345156884
 20
41.5061391541609837
 10
15.70600272851296
 20
41.5061391541609837
 10
15.70600272851296
 20
39.6030013642564782
 10
16.0784447476125507
 20
39.6030013642564782
 10
16.0784447476125507
 20
39.0975443383356023
 10
15.70600272851296
 20
39.0975443383356023
 10
15.70600272851296
 20
38.4938608458390163
  0
LWPOLYLINE
  5
B0
100
AcDbEntity
  8
0
 62
256
370
-1
 48
1.0
  6
BYLAYER
100
AcDbPolyline
 90
3
 70
129
 10
15.1493860845839023
 20
39.6030013642564782
 10
15.1493860845839023
 20
40.6282401091405205
 10
14.4597544338335613
 20
39.6030013642564782
  0
ENDSEC
  0
SECTION
  2
OBJECTS
  0
DICTIONARY
  5
C
100
AcDbDictionary
280
0
281
1
  3
ACAD_GROUP
350
D
  3
ACAD_LAYOUT
350
1A
  3
ACAD_MLINESTYLE
350
17
  3
ACAD_PLOTSETTINGS
350
19
  3
ACAD_PLOTSTYLENAME
350
E
  3
AcDbVariableDictionary
350
B1
  3
QCAD_OBJECTS
350
B2
  0
DICTIONARY
  5
D
100
AcDbDictionary
280
0
281
1
  0
ACDBDICTIONARYWDFLT
  5
E
100
AcDbDictionary
281
1
  3
Normal
350
F
100
AcDbDictionaryWithDefault
340
F
  0
ACDBPLACEHOLDER
  5
F
  0
DICTIONARY
  5
17
100
AcDbDictionary
280
0
281
1
  3
Standard
350
18
  0
MLINESTYLE
  5
18
100
AcDbMlineStyle
  2
STANDARD
 70
0
  3

 62
256
 51
90.0
 52
90.0
 71
2
 49
0.5
 62
256
  6
BYLAYER
 49
-0.5
 62
256
  6
BYLAYER
  0
DICTIONARY
  5
19
100
AcDbDictionary
280
0
281
1
  0
DICTIONARY
  5
1A
100
AcDbDictionary
281
1
  3
Layout1
350
1E
  3
Layout2
350
26
  3
Model
350
22
  0
LAYOUT
  5
1E
100
AcDbPlotSettings
  1

  2
none_device
  4

  6

 40
0.0
 41
0.0
 42
0.0
 43
0.0
 44
0.0
 45
0.0
 46
0.0
 47
0.0
 48
0.0
 49
0.0
140
0.0
141
0.0
142
1.0
143
1.0
 70
688
 72
0
 73
0
 74
5
  7

 75
16
147
1.0
148
0.0
149
0.0
100
AcDbLayout
  1
Layout1
 70
1
 71
1
 10
0.0
 20
0.0
 11
420.0
 21
297.0
 12
0.0
 22
0.0
 32
0.0
 14
100000000000000000000.0
 24
100000000000000000000.0
 34
100000000000000000000.0
 15
-100000000000000000000.0
 25
-100000000000000000000.0
 35
-100000000000000000000.0
146
0.0
 13
0.0
 23
0.0
 33
0.0
 16
1.0
 26
0.0
 36
0.0
 17
0.0
 27
1.0
 37
0.0
 76
0
330
1B
  0
LAYOUT
  5
22
100
AcDbPlotSettings
  1

  2
none_device
  4

  6

 40
0.0
 41
0.0
 42
0.0
 43
0.0
 44
0.0
 45
0.0
 46
0.0
 47
0.0
 48
0.0
 49
0.0
140
0.0
141
0.0
142
1.0
143
1.0
 70
1712
 72
0
 73
0
 74
0
  7

 75
0
147
1.0
148
0.0
149
0.0
100
AcDbLayout
  1
Model
 70
1
 71
0
 10
0.0
 20
0.0
 11
12.0
 21
9.0
 12
0.0
 22
0.0
 32
0.0
 14
0.0
 24
0.0
 34
0.0
 15
0.0
 25
0.0
 35
0.0
146
0.0
 13
0.0
 23
0.0
 33
0.0
 16
1.0
 26
0.0
 36
0.0
 17
0.0
 27
1.0
 37
0.0
 76
0
330
1F
  0
LAYOUT
  5
26
100
AcDbPlotSettings
  1

  2
none_device
  4

  6

 40
0.0
 41
0.0
 42
0.0
 43
0.0
 44
0.0
 45
0.0
 46
0.0
 47
0.0
 48
0.0
 49
0.0
140
0.0
141
0.0
142
1.0
143
1.0
 70
688
 72
0
 73
0
 74
5
  7

 75
16
147
1.0
148
0.0
149
0.0
100
AcDbLayout
  1
Layout2
 70
1
 71
2
 10
0.0
 20
0.0
 11
12.0
 21
9.0
 12
0.0
 22
0.0
 32
0.0
 14
0.0
 24
0.0
 34
0.0
 15
0.0
 25
0.0
 35
0.0
146
0.0
 13
0.0
 23
0.0
 33
0.0
 16
1.0
 26
0.0
 36
0.0
 17
0.0
 27
1.0
 37
0.0
 76
0
330
23
  0
DICTIONARY
  5
B1
100
AcDbDictionary
281
1
  3
DIMASSOC
350
B4
  3
HIDETEXT
350
B3
  0
DICTIONARYVAR
  5
B3
100
DictionaryVariables
280
0
  1
2
  0
DICTIONARYVAR
  5
B4
100
DictionaryVariables
280
0
  1
1
  0
DICTIONARY
  5
B2
100
AcDbDictionary
281
1
  3
ColorSettings/BackgroundColor
350
B5
  3
ColorSettings/ColorMode
350
B6
  3
Grid/DisplayGrid00
350
B7
  3
Grid/DisplayGrid01
350
B8
  3
Grid/DisplayGrid02
350
B9
  3
Grid/DisplayGrid03
350
BA
  3
Grid/GridSpacingX00
350
BB
  3
Grid/GridSpacingX01
350
BC
  3
Grid/GridSpacingX02
350
BD
  3
Grid/GridSpacingX03
350
BE
  3
Grid/GridSpacingY00
350
BF
  3
Grid/GridSpacingY01
350
C0
  3
Grid/GridSpacingY02
350
C1
  3
Grid/GridSpacingY03
350
C2
  3
Grid/IsometricGrid00
350
C3
  3
Grid/IsometricGrid01
350
C4
  3
Grid/IsometricGrid02
350
C5
  3
Grid/IsometricGrid03
350
C6
  3
Grid/IsometricProjection00
350
C7
  3
Grid/IsometricProjection01
350
C8
  3
Grid/IsometricProjection02
350
C9
  3
Grid/IsometricProjection03
350
CA
  3
Grid/MetaGridSpacingX00
350
CB
  3
Grid/MetaGridSpacingX01
350
CC
  3
Grid/MetaGridSpacingX02
350
CD
  3
Grid/MetaGridSpacingX03
350
CE
  3
Grid/MetaGridSpacingY00
350
CF
  3
Grid/MetaGridSpacingY01
350
D0
  3
Grid/MetaGridSpacingY02
350
D1
  3
Grid/MetaGridSpacingY03
350
D2
  3
MultiPageSettings/Columns
350
D3
  3
MultiPageSettings/GlueMarginsBottom
350
D4
  3
MultiPageSettings/GlueMarginsLeft
350
D5
  3
MultiPageSettings/GlueMarginsRight
350
D6
  3
MultiPageSettings/GlueMarginsTop
350
D7
  3
MultiPageSettings/PrintCropMarks
350
D8
  3
MultiPageSettings/Rows
350
D9
  3
PageSettings/OffsetX
350
DA
  3
PageSettings/OffsetY
350
DB
  3
PageSettings/PageOrientation
350
DC
  3
PageSettings/PaperHeight
350
DD
  3
PageSettings/PaperWidth
350
DE
  3
PageSettings/Scale
350
DF
  3
PageSettings/ShowPaperBorders
350
E0
  3
QCADVersion
350
E1
  3
UnitSettings/PaperUnit
350
E2
  3
ViewportCenter
350
E3
  3
ViewportHeight
350
E4
  3
ViewportWidth
350
E5
  0
XRECORD
  5
B5
330
B2
100
AcDbXrecord
280
1
1000
White
  0
XRECORD
  5
B6
330
B2
100
AcDbXrecord
280
1
1000
FullColor
  0
XRECORD
  5
B7
330
B2
100
AcDbXrecord
280
1
290
1
  0
XRECORD
  5
B8
330
B2
100
AcDbXrecord
280
1
290
1
  0
XRECORD
  5
B9
330
B2
100
AcDbXrecord
280
1
290
1
  0
XRECORD
  5
BA
330
B2
100
AcDbXrecord
280
1
290
1
  0
XRECORD
  5
BB
330
B2
100
AcDbXrecord
280
1
1000
auto
  0
XRECORD
  5
BC
330
B2
100
AcDbXrecord
280
1
1000
auto
  0
XRECORD
  5
BD
330
B2
100
AcDbXrecord
280
1
1000
auto
  0
XRECORD
  5
BE
330
B2
100
AcDbXrecord
280
1
1000
auto
  0
XRECORD
  5
BF
330
B2
100
AcDbXrecord
280
1
1000
auto
  0
XRECORD
  5
C0
330
B2
100
AcDbXrecord
280
1
1000
auto
  0
XRECORD
  5
C1
330
B2
100
AcDbXrecord
280
1
1000
auto
  0
XRECORD
  5
C2
330
B2
100
AcDbXrecord
280
1
1000
auto
  0
XRECORD
  5
C3
330
B2
100
AcDbXrecord
280
1
290
0
  0
XRECORD
  5
C4
330
B2
100
AcDbXrecord
280
1
290
0
  0
XRECORD
  5
C5
330
B2
100
AcDbXrecord
280
1
290
0
  0
XRECORD
  5
C6
330
B2
100
AcDbXrecord
280
1
290
0
  0
XRECORD
  5
C7
330
B2
100
AcDbXrecord
280
1
 90
65537
  0
XRECORD
  5
C8
330
B2
100
AcDbXrecord
280
1
 90
65537
  0
XRECORD
  5
C9
330
B2
100
AcDbXrecord
280
1
 90
65537
  0
XRECORD
  5
CA
330
B2
100
AcDbXrecord
280
1
 90
65537
  0
XRECORD
  5
CB
330
B2
100
AcDbXrecord
280
1
1000
auto
  0
XRECORD
  5
CC
330
B2
100
AcDbXrecord
280
1
1000
auto
  0
XRECORD
  5
CD
330
B2
100
AcDbXrecord
280
1
1000
auto
  0
XRECORD
  5
CE
330
B2
100
AcDbXrecord
280
1
1000
auto
  0
XRECORD
  5
CF
330
B2
100
AcDbXrecord
280
1
1000
auto
  0
XRECORD
  5
D0
330
B2
100
AcDbXrecord
280
1
1000
auto
  0
XRECORD
  5
D1
330
B2
100
AcDbXrecord
280
1
1000
auto
  0
XRECORD
  5
D2
330
B2
100
AcDbXrecord
280
1
1000
auto
  0
XRECORD
  5
D3
330
B2
100
AcDbXrecord
280
1
 90
1
  0
XRECORD
  5
D4
330
B2
100
AcDbXrecord
280
1
 40
10.0
  0
XRECORD
  5
D5
330
B2
100
AcDbXrecord
280
1
 40
10.0
  0
XRECORD
  5
D6
330
B2
100
AcDbXrecord
280
1
 40
10.0
  0
XRECORD
  5
D7
330
B2
100
AcDbXrecord
280
1
 40
10.0
  0
XRECORD
  5
D8
330
B2
100
AcDbXrecord
280
1
290
0
  0
XRECORD
  5
D9
330
B2
100
AcDbXrecord
280
1
 90
1
  0
XRECORD
  5
DA
330
B2
100
AcDbXrecord
280
1
 40
0.0
  0
XRECORD
  5
DB
330
B2
100
AcDbXrecord
280
1
 40
0.0
  0
XRECORD
  5
DC
330
B2
100
AcDbXrecord
280
1
1000
Portrait
  0
XRECORD
  5
DD
330
B2
100
AcDbXrecord
280
1
 40
297.0
  0
XRECORD
  5
DE
330
B2
100
AcDbXrecord
280
1
 40
210.0
  0
XRECORD
  5
DF
330
B2
100
AcDbXrecord
280
1
1000
1:1
  0
XRECORD
  5
E0
330
B2
100
AcDbXrecord
280
1
290
1
  0
XRECORD
  5
E1
330
B2
100
AcDbXrecord
280
1
1000
3.21.2
  0
XRECORD
  5
E2
330
B2
100
AcDbXrecord
280
1
 90
4
  0
XRECORD
  5
E4
330
B2
100
AcDbXrecord
280
1
 40
77.1793143428486559
  0
XRECORD
  5
E5
330
B2
100
AcDbXrecord
280
1
 40
148.7889874444608154
  0
ENDSEC
  0
EOF
