999
dxflib 3.17.0.0
  0
SECTION
  2
HEADER
  9
$ACADVER
  1
AC1015
  9
$HANDSEED
  5
FFFF
  9
$DIMADEC
 70
0
  9
$DIMASZ
 40
2.5
  9
$DIMAUNIT
 70
0
  9
$DIMAZIN
 70
2
  9
$DIMDEC
 70
4
  9
$DIMDSEP
 70
46
  9
$DIMEXE
 40
1.25
  9
$DIMEXO
 40
0.625
  9
$DIMGAP
 40
0.625
  9
$DIMLUNIT
 70
2
  9
$DIMSCALE
 40
1.0
  9
$DIMTSZ
 40
0.0
  9
$DIMTXT
 40
2.5
  9
$DIMZIN
 70
8
  9
$DWGCODEPAGE
  3
ANSI_1252
  9
$INSUNITS
 70
4
  9
$LTSCALE
 40
1.0
  9
$MAXACTVP
 70
64
  9
$MEASUREMENT
 70
1
  9
$PDMODE
 70
0
  9
$PDSIZE
 40
0.0
  0
ENDSEC
  0
SECTION
  2
TABLES
  0
TABLE
  2
VPORT
  5
8
100
AcDbSymbolTable
 70
1
  0
VPORT
  5
30
100
AcDbSymbolTableRecord
100
AcDbViewportTableRecord
  2
*Active
 70
0
 10
0.0
 20
0.0
 11
1.0
 21
1.0
 12
286.30555555555549
 22
148.5
 13
0.0
 23
0.0
 14
10.0
 24
10.0
 15
10.0
 25
10.0
 16
0.0
 26
0.0
 36
1.0
 17
0.0
 27
0.0
 37
0.0
 40
297.0
 41
1.92798353909465
 42
50.0
 43
0.0
 44
0.0
 50
0.0
 51
0.0
 71
0
 72
100
 73
1
 74
3
 75
1
 76
1
 77
0
 78
0
281
0
 65
1
110
0.0
120
0.0
130
0.0
111
1.0
121
0.0
131
0.0
112
0.0
122
1.0
132
0.0
 79
0
146
0.0
  0
ENDTAB
  0
TABLE
  2
LTYPE
  5
5
100
AcDbSymbolTable
 70
41
  0
LTYPE
  5
16
100
AcDbSymbolTableRecord
100
AcDbLinetypeTableRecord
  2
Continuous
 70
0
  3
Solid line
 72
65
 73
0
 40
0.0
  0
LTYPE
  5
31
100
AcDbSymbolTableRecord
100
AcDbLinetypeTableRecord
  2
DASHDOT2
 70
0
  3
Dash dot (.5x) _._._._._._._._._._._._._._._.
 72
65
 73
4
 40
12.699999999999999
 49
6.3499999999999996
 74
0
 49
-3.125
 74
0
 49
0.1
 74
0
 49
-3.125
 74
0
  0
LTYPE
  5
14
100
AcDbSymbolTableRecord
100
AcDbLinetypeTableRecord
  2
BYBLOCK
 70
0
  3

 72
65
 73
0
 40
0.0
  0
LTYPE
  5
32
100
AcDbSymbolTableRecord
100
AcDbLinetypeTableRecord
  2
CENTERX2
 70
0
  3
Center (2x) ________  __  ________  __  _____
 72
65
 73
4
 40
101.60000000000001
 49
63.5
 74
0
 49
-12.699999999999999
 74
0
 49
12.699999999999999
 74
0
 49
-12.699999999999999
 74
0
  0
LTYPE
  5
33
100
AcDbSymbolTableRecord
100
AcDbLinetypeTableRecord
  2
DASHDOTX2
 70
0
  3
Dash dot (2x) ____  .  ____  .  ____  .  ___
 72
65
 73
4
 40
50.799999999999997
 49
25.399999999999999
 74
0
 49
-12.649999999999999
 74
0
 49
0.1
 74
0
 49
-12.649999999999999
 74
0
  0
LTYPE
  5
34
100
AcDbSymbolTableRecord
100
AcDbLinetypeTableRecord
  2
DOT2
 70
0
  3
Dot (.5x) ........................................
 72
65
 73
2
 40
3.1749999999999998
 49
0.1
 74
0
 49
-3.0749999999999997
 74
0
  0
LTYPE
  5
35
100
AcDbSymbolTableRecord
100
AcDbLinetypeTableRecord
  2
BORDERX2
 70
0
  3
Border (2x) ____  ____  .  ____  ____  .  ___
 72
65
 73
6
 40
88.899999999999977
 49
25.399999999999999
 74
0
 49
-12.699999999999999
 74
0
 49
25.399999999999999
 74
0
 49
-12.649999999999999
 74
0
 49
0.1
 74
0
 49
-12.649999999999999
 74
0
  0
LTYPE
  5
36
100
AcDbSymbolTableRecord
100
AcDbLinetypeTableRecord
  2
HIDDEN2
 70
0
  3
Hidden (.5x) _ _ _ _ _ _ _ _ _ _ _ _ _ _ _ _ _ 
 72
65
 73
2
 40
4.7624999999999993
 49
3.1749999999999998
 74
0
 49
-1.5874999999999999
 74
0
  0
LTYPE
  5
37
100
AcDbSymbolTableRecord
100
AcDbLinetypeTableRecord
  2
ACAD_ISO06W100
 70
0
  3
ISO long-dash triple-dot ____ ... ____ ... ____
 72
65
 73
8
 40
36.000000000000007
 49
24.0
 74
0
 49
-2.9500000000000002
 74
0
 49
0.1
 74
0
 49
-2.9000000000000004
 74
0
 49
0.1
 74
0
 49
-2.9000000000000004
 74
0
 49
0.1
 74
0
 49
-2.9500000000000002
 74
0
  0
LTYPE
  5
38
100
AcDbSymbolTableRecord
100
AcDbLinetypeTableRecord
  2
ACAD_ISO09W100
 70
0
  3
ISO long-dash double-short-dash ____ __ __ ____
 72
65
 73
6
 40
45.0
 49
24.0
 74
0
 49
-3.0
 74
0
 49
6.0
 74
0
 49
-3.0
 74
0
 49
6.0
 74
0
 49
-3.0
 74
0
  0
LTYPE
  5
39
100
AcDbSymbolTableRecord
100
AcDbLinetypeTableRecord
  2
ACAD_ISO03W100
 70
0
  3
ISO dash space __    __    __    __    __    __
 72
65
 73
2
 40
30.0
 49
12.0
 74
0
 49
-18.0
 74
0
  0
LTYPE
  5
3A
100
AcDbSymbolTableRecord
100
AcDbLinetypeTableRecord
  2
BORDER2
 70
0
  3
Border (.5x) __.__.__.__.__.__.__.__.__.__.__.
 72
65
 73
6
 40
22.225000000000001
 49
6.3499999999999996
 74
0
 49
-3.1749999999999998
 74
0
 49
6.3499999999999996
 74
0
 49
-3.125
 74
0
 49
0.1
 74
0
 49
-3.125
 74
0
  0
LTYPE
  5
3B
100
AcDbSymbolTableRecord
100
AcDbLinetypeTableRecord
  2
CENTER
 70
0
  3
Center ____ _ ____ _ ____ _ ____ _ ____ _ ____
 72
65
 73
4
 40
50.800000000000004
 49
31.75
 74
0
 49
-6.3499999999999996
 74
0
 49
6.3499999999999996
 74
0
 49
-6.3499999999999996
 74
0
  0
LTYPE
  5
3C
100
AcDbSymbolTableRecord
100
AcDbLinetypeTableRecord
  2
ACAD_ISO05W100
 70
0
  3
ISO long-dash double-dot ____ .. ____ .. ____ . 
 72
65
 73
6
 40
33.000000000000007
 49
24.0
 74
0
 49
-2.9500000000000002
 74
0
 49
0.1
 74
0
 49
-2.9000000000000004
 74
0
 49
0.1
 74
0
 49
-2.9500000000000002
 74
0
  0
LTYPE
  5
3D
100
AcDbSymbolTableRecord
100
AcDbLinetypeTableRecord
  2
DOTX2
 70
0
  3
Dot (2x) .  .  .  .  .  .  .  .  .  .  .  .  .  .
 72
65
 73
2
 40
12.699999999999999
 49
0.1
 74
0
 49
-12.6
 74
0
  0
LTYPE
  5
3E
100
AcDbSymbolTableRecord
100
AcDbLinetypeTableRecord
  2
ACAD_ISO12W100
 70
0
  3
ISO dash double-dot __ . . __ . . __ . . __ . . 
 72
65
 73
6
 40
21.0
 49
12.0
 74
0
 49
-2.9500000000000002
 74
0
 49
0.1
 74
0
 49
-2.9000000000000004
 74
0
 49
0.1
 74
0
 49
-2.9500000000000002
 74
0
  0
LTYPE
  5
3F
100
AcDbSymbolTableRecord
100
AcDbLinetypeTableRecord
  2
DASHED
 70
0
  3
Dashed __ __ __ __ __ __ __ __ __ __ __ __ __ _
 72
65
 73
2
 40
19.049999999999997
 49
12.699999999999999
 74
0
 49
-6.3499999999999996
 74
0
  0
LTYPE
  5
40
100
AcDbSymbolTableRecord
100
AcDbLinetypeTableRecord
  2
PHANTOM
 70
0
  3
Phantom ______  __  __  ______  __  __  ______ 
 72
65
 73
6
 40
63.500000000000007
 49
31.75
 74
0
 49
-6.3499999999999996
 74
0
 49
6.3499999999999996
 74
0
 49
-6.3499999999999996
 74
0
 49
6.3499999999999996
 74
0
 49
-6.3499999999999996
 74
0
  0
LTYPE
  5
41
100
AcDbSymbolTableRecord
100
AcDbLinetypeTableRecord
  2
ACAD_ISO02W100
 70
0
  3
ISO dash __ __ __ __ __ __ __ __ __ __ __ __ __
 72
65
 73
2
 40
15.0
 49
12.0
 74
0
 49
-3.0
 74
0
  0
LTYPE
  5
42
100
AcDbSymbolTableRecord
100
AcDbLinetypeTableRecord
  2
CENTER2
 70
0
  3
Center (.5x) ___ _ ___ _ ___ _ ___ _ ___ _ ___
 72
65
 73
4
 40
28.575000000000003
 49
19.050000000000001
 74
0
 49
-3.1749999999999998
 74
0
 49
3.1749999999999998
 74
0
 49
-3.1749999999999998
 74
0
  0
LTYPE
  5
43
100
AcDbSymbolTableRecord
100
AcDbLinetypeTableRecord
  2
HIDDEN
 70
0
  3
Hidden __ __ __ __ __ __ __ __ __ __ __ __ __ __
 72
65
 73
2
 40
9.5249999999999986
 49
6.3499999999999996
 74
0
 49
-3.1749999999999998
 74
0
  0
LTYPE
  5
44
100
AcDbSymbolTableRecord
100
AcDbLinetypeTableRecord
  2
DIVIDEX2
 70
0
  3
Divide (2x) ________  .  .  ________  .  .  _
 72
65
 73
6
 40
63.5
 49
25.399999999999999
 74
0
 49
-12.649999999999999
 74
0
 49
0.1
 74
0
 49
-12.599999999999998
 74
0
 49
0.1
 74
0
 49
-12.649999999999999
 74
0
  0
LTYPE
  5
45
100
AcDbSymbolTableRecord
100
AcDbLinetypeTableRecord
  2
DOT
 70
0
  3
Dot . . . . . . . . . . . . . . . . . . . . . . . .
 72
65
 73
2
 40
6.3499999999999996
 49
0.1
 74
0
 49
-6.25
 74
0
  0
LTYPE
  5
46
100
AcDbSymbolTableRecord
100
AcDbLinetypeTableRecord
  2
PHANTOMX2
 70
0
  3
Phantom (2x) ____________    ____    ____   _
 72
65
 73
6
 40
127.00000000000001
 49
63.5
 74
0
 49
-12.699999999999999
 74
0
 49
12.699999999999999
 74
0
 49
-12.699999999999999
 74
0
 49
12.699999999999999
 74
0
 49
-12.699999999999999
 74
0
  0
LTYPE
  5
47
100
AcDbSymbolTableRecord
100
AcDbLinetypeTableRecord
  2
DIVIDE
 70
0
  3
Divide ____ . . ____ . . ____ . . ____ . . ____
 72
65
 73
6
 40
31.750000000000004
 49
12.699999999999999
 74
0
 49
-6.2999999999999998
 74
0
 49
0.1
 74
0
 49
-6.25
 74
0
 49
0.1
 74
0
 49
-6.2999999999999998
 74
0
  0
LTYPE
  5
15
100
AcDbSymbolTableRecord
100
AcDbLinetypeTableRecord
  2
BYLAYER
 70
0
  3

 72
65
 73
0
 40
0.0
  0
LTYPE
  5
48
100
AcDbSymbolTableRecord
100
AcDbLinetypeTableRecord
  2
BORDER
 70
0
  3
Border __ __ . __ __ . __ __ . __ __ . __ __ .
 72
65
 73
6
 40
44.449999999999996
 49
12.699999999999999
 74
0
 49
-6.3499999999999996
 74
0
 49
12.699999999999999
 74
0
 49
-6.2999999999999998
 74
0
 49
0.1
 74
0
 49
-6.2999999999999998
 74
0
  0
LTYPE
  5
49
100
AcDbSymbolTableRecord
100
AcDbLinetypeTableRecord
  2
HIDDENX2
 70
0
  3
Hidden (2x) ____ ____ ____ ____ ____ ____ ____ 
 72
65
 73
2
 40
19.049999999999997
 49
12.699999999999999
 74
0
 49
-6.3499999999999996
 74
0
  0
LTYPE
  5
4A
100
AcDbSymbolTableRecord
100
AcDbLinetypeTableRecord
  2
DIVIDE2
 70
0
  3
Divide (.5x) __..__..__..__..__..__..__..__.._
 72
65
 73
6
 40
15.874999999999998
 49
6.3499999999999996
 74
0
 49
-3.125
 74
0
 49
0.1
 74
0
 49
-3.0750000000000002
 74
0
 49
0.1
 74
0
 49
-3.125
 74
0
  0
LTYPE
  5
4B
100
AcDbSymbolTableRecord
100
AcDbLinetypeTableRecord
  2
DASHEDX2
 70
0
  3
Dashed (2x) ____  ____  ____  ____  ____  ___
 72
65
 73
2
 40
38.099999999999994
 49
25.399999999999999
 74
0
 49
-12.699999999999999
 74
0
  0
LTYPE
  5
4C
100
AcDbSymbolTableRecord
100
AcDbLinetypeTableRecord
  2
ACAD_ISO04W100
 70
0
  3
ISO long-dash dot ____ . ____ . ____ . ____ . _
 72
65
 73
4
 40
30.0
 49
24.0
 74
0
 49
-2.9500000000000002
 74
0
 49
0.1
 74
0
 49
-2.9500000000000002
 74
0
  0
LTYPE
  5
4D
100
AcDbSymbolTableRecord
100
AcDbLinetypeTableRecord
  2
PHANTOM2
 70
0
  3
Phantom (.5x) ___ _ _ ___ _ _ ___ _ _ ___ _ _
 72
65
 73
6
 40
31.750000000000004
 49
15.875
 74
0
 49
-3.1749999999999998
 74
0
 49
3.1749999999999998
 74
0
 49
-3.1749999999999998
 74
0
 49
3.1749999999999998
 74
0
 49
-3.1749999999999998
 74
0
  0
LTYPE
  5
4E
100
AcDbSymbolTableRecord
100
AcDbLinetypeTableRecord
  2
ACAD_ISO13W100
 70
0
  3
ISO double-dash double-dot __ __ . . __ __ . . _
 72
65
 73
8
 40
36.000000000000007
 49
12.0
 74
0
 49
-3.0
 74
0
 49
12.0
 74
0
 49
-2.9500000000000002
 74
0
 49
0.1
 74
0
 49
-2.9000000000000004
 74
0
 49
0.1
 74
0
 49
-2.9500000000000002
 74
0
  0
LTYPE
  5
4F
100
AcDbSymbolTableRecord
100
AcDbLinetypeTableRecord
  2
ACAD_ISO14W100
 70
0
  3
ISO dash triple-dot __ . . . __ . . . __ . . . _
 72
65
 73
8
 40
24.000000000000004
 49
12.0
 74
0
 49
-2.9500000000000002
 74
0
 49
0.1
 74
0
 49
-2.9000000000000004
 74
0
 49
0.1
 74
0
 49
-2.9000000000000004
 74
0
 49
0.1
 74
0
 49
-2.9500000000000002
 74
0
  0
LTYPE
  5
50
100
AcDbSymbolTableRecord
100
AcDbLinetypeTableRecord
  2
ACAD_ISO15W100
 70
0
  3
ISO double-dash triple-dot __ __ . . . __ __ . .
 72
65
 73
10
 40
39.000000000000007
 49
12.0
 74
0
 49
-3.0
 74
0
 49
12.0
 74
0
 49
-2.9500000000000002
 74
0
 49
0.1
 74
0
 49
-2.9000000000000004
 74
0
 49
0.1
 74
0
 49
-2.9000000000000004
 74
0
 49
0.1
 74
0
 49
-2.9500000000000002
 74
0
  0
LTYPE
  5
51
100
AcDbSymbolTableRecord
100
AcDbLinetypeTableRecord
  2
ACAD_ISO11W100
 70
0
  3
ISO double-dash dot __ __ . __ __ . __ __ . __ _
 72
65
 73
6
 40
33.0
 49
12.0
 74
0
 49
-3.0
 74
0
 49
12.0
 74
0
 49
-2.9500000000000002
 74
0
 49
0.1
 74
0
 49
-2.9500000000000002
 74
0
  0
LTYPE
  5
52
100
AcDbSymbolTableRecord
100
AcDbLinetypeTableRecord
  2
ACAD_ISO08W100
 70
0
  3
ISO long-dash short-dash ____ __ ____ __ ____ _
 72
65
 73
4
 40
36.0
 49
24.0
 74
0
 49
-3.0
 74
0
 49
6.0
 74
0
 49
-3.0
 74
0
  0
LTYPE
  5
53
100
AcDbSymbolTableRecord
100
AcDbLinetypeTableRecord
  2
DASHED2
 70
0
  3
Dashed (.5x) _ _ _ _ _ _ _ _ _ _ _ _ _ _ _ _ _ 
 72
65
 73
2
 40
9.5249999999999986
 49
6.3499999999999996
 74
0
 49
-3.1749999999999998
 74
0
  0
LTYPE
  5
54
100
AcDbSymbolTableRecord
100
AcDbLinetypeTableRecord
  2
DASHDOT
 70
0
  3
Dash dot __ . __ . __ . __ . __ . __ . __ . __
 72
65
 73
4
 40
25.400000000000002
 49
12.699999999999999
 74
0
 49
-6.2999999999999998
 74
0
 49
0.1
 74
0
 49
-6.2999999999999998
 74
0
  0
LTYPE
  5
55
100
AcDbSymbolTableRecord
100
AcDbLinetypeTableRecord
  2
ACAD_ISO07W100
 70
0
  3
ISO dot . . . . . . . . . . . . . . . . . . . . 
 72
65
 73
2
 40
3.0
 49
0.1
 74
0
 49
-2.8999999999999999
 74
0
  0
LTYPE
  5
56
100
AcDbSymbolTableRecord
100
AcDbLinetypeTableRecord
  2
ACAD_ISO10W100
 70
0
  3
ISO dash dot __ . __ . __ . __ . __ . __ . __ . 
 72
65
 73
4
 40
18.0
 49
12.0
 74
0
 49
-2.9500000000000002
 74
0
 49
0.1
 74
0
 49
-2.9500000000000002
 74
0
  0
ENDTAB
  0
TABLE
  2
LAYER
  5
2
100
AcDbSymbolTable
 70
1
  0
LAYER
  5
10
100
AcDbSymbolTableRecord
100
AcDbLayerTableRecord
  2
0
 70
0
 62
7
420
16777215
  6
Continuous
370
25
390
F
  0
ENDTAB
  0
TABLE
  2
STYLE
  5
3
100
AcDbSymbolTable
 70
2
  0
STYLE
  5
57
100
AcDbSymbolTableRecord
100
AcDbTextStyleTableRecord
  2
Standard
 70
0
 40
0.0
 41
1.0
 50
0.0
 71
0
 42
2.5
  3

  4

1001
ACAD
1000
txt
1071
0
  0
STYLE
  5
58
100
AcDbSymbolTableRecord
100
AcDbTextStyleTableRecord
  2
textstyle0
 70
0
 40
0.0
 41
1.0
 50
0.0
 71
0
 42
5.0
  3

  4

1001
ACAD
1000
Arial
1071
0
  0
ENDTAB
  0
TABLE
  2
VIEW
  5
6
100
AcDbSymbolTable
 70
0
  0
ENDTAB
  0
TABLE
  2
UCS
  5
7
100
AcDbSymbolTable
 70
0
  0
ENDTAB
  0
TABLE
  2
APPID
  5
9
100
AcDbSymbolTable
 70
1
  0
APPID
  5
12
100
AcDbSymbolTableRecord
100
AcDbRegAppTableRecord
  2
ACAD
 70
0
  0
APPID
  5
59
100
AcDbSymbolTableRecord
100
AcDbRegAppTableRecord
  2
QCAD
 70
0
  0
ENDTAB
  0
TABLE
  2
DIMSTYLE
  5
A
100
AcDbSymbolTable
 70
1
100
AcDbDimStyleTable
 71
0
  0
DIMSTYLE
105
27
100
AcDbSymbolTableRecord
100
AcDbDimStyleTableRecord
  2
Standard
 41
2.5
 42
0.625
 43
3.75
 44
1.25
 70
0
 73
0
 74
0
 77
1
 78
8
140
2.5
141
2.5
143
0.03937007874016
147
0.625
171
3
172
1
271
2
272
2
274
3
278
44
283
0
284
8
340
57
  0
ENDTAB
  0
TABLE
  2
BLOCK_RECORD
  5
1
100
AcDbSymbolTable
 70
1
  0
BLOCK_RECORD
  5
1F
100
AcDbSymbolTableRecord
100
AcDbBlockTableRecord
  2
*Model_Space
340
22
  0
BLOCK_RECORD
  5
1B
100
AcDbSymbolTableRecord
100
AcDbBlockTableRecord
  2
*Paper_Space
340
1E
  0
BLOCK_RECORD
  5
23
100
AcDbSymbolTableRecord
100
AcDbBlockTableRecord
  2
*Paper_Space0
340
26
  0
ENDTAB
  0
ENDSEC
  0
SECTION
  2
BLOCKS
  0
BLOCK
  5
20
100
AcDbEntity
  8
0
100
AcDbBlockBegin
  2
*Model_Space
 70
0
 10
0.0
 20
0.0
 30
0.0
  3
*Model_Space
  1

  0
ENDBLK
  5
21
100
AcDbEntity
  8
0
100
AcDbBlockEnd
  0
BLOCK
  5
1C
100
AcDbEntity
 67
1
  8
0
100
AcDbBlockBegin
  2
*Paper_Space
 70
0
 10
0.0
 20
0.0
 30
0.0
  3
*Paper_Space
  1

  0
ENDBLK
  5
1D
100
AcDbEntity
 67
1
  8
0
100
AcDbBlockEnd
  0
BLOCK
  5
24
100
AcDbEntity
  8
0
100
AcDbBlockBegin
  2
*Paper_Space0
 70
0
 10
0.0
 20
0.0
 30
0.0
  3
*Paper_Space0
  1

  0
ENDBLK
  5
25
100
AcDbEntity
  8
0
100
AcDbBlockEnd
  0
ENDSEC
  0
SECTION
  2
ENTITIES
  0
LINE
  5
5A
100
AcDbEntity
  8
0
 62
256
370
-1
 48
1.0
  6
BYLAYER
100
AcDbLine
 10
0.0
 20
0.0
 30
0.0
 11
0.0
 21
128.5
 31
0.0
  0
LINE
  5
5B
100
AcDbEntity
  8
0
 62
256
370
-1
 48
1.0
  6
BYLAYER
100
AcDbLine
 10
0.0
 20
0.0
 30
0.0
 11
20.0
 21
0.0
 31
0.0
  0
LINE
  5
5C
100
AcDbEntity
  8
0
 62
256
370
-1
 48
1.0
  6
BYLAYER
100
AcDbLine
 10
20.0
 20
0.0
 30
0.0
 11
20.0
 21
128.5
 31
0.0
  0
LINE
  5
5D
100
AcDbEntity
  8
0
 62
256
370
-1
 48
1.0
  6
BYLAYER
100
AcDbLine
 10
0.0
 20
128.5
 30
0.0
 11
20.0
 21
128.5
 31
0.0
  0
CIRCLE
  5
5E
100
AcDbEntity
  8
0
 62
256
370
-1
 48
1.0
  6
BYLAYER
100
AcDbCircle
 10
7.0
 20
104.75
 30
0.0
 40
2.5
  0
CIRCLE
  5
5F
100
AcDbEntity
  8
0
 62
256
370
-1
 48
1.0
  6
BYLAYER
100
AcDbCircle
 10
6.9999999999999982
 20
83.25
 30
0.0
 40
2.5
  0
CIRCLE
  5
60
100
AcDbEntity
  8
0
 62
256
370
-1
 48
1.0
  6
BYLAYER
100
AcDbCircle
 10
6.9999999999999964
 20
61.99799999999999
 30
0.0
 40
2.5
  0
CIRCLE
  5
61
100
AcDbEntity
  8
0
 62
256
370
-1
 48
1.0
  6
BYLAYER
100
AcDbCircle
 10
6.9999999999999991
 20
40.0
 30
0.0
 40
2.5
  0
CIRCLE
  5
62
100
AcDbEntity
  8
0
 62
256
370
-1
 48
1.0
  6
BYLAYER
100
AcDbCircle
 10
12.499999999999998
 20
125.49999999999999
 30
0.0
 40
1.6000000000000085
  0
CIRCLE
  5
63
100
AcDbEntity
  8
0
 62
256
370
-1
 48
1.0
  6
BYLAYER
100
AcDbCircle
 10
7.4999999999999991
 20
2.9999999999999996
 30
0.0
 40
1.6000000000000085
  0
CIRCLE
  5
64
100
AcDbEntity
  8
0
 62
256
370
-1
 48
1.0
  6
BYLAYER
100
AcDbCircle
 10
10.0
 20
113.0
 30
0.0
 40
3.5
  0
CIRCLE
  5
65
100
AcDbEntity
  8
0
 62
256
370
-1
 48
1.0
  6
BYLAYER
100
AcDbCircle
 10
9.9999999999999982
 20
91.5
 30
0.0
 40
3.5
  0
CIRCLE
  5
66
100
AcDbEntity
  8
0
 62
256
370
-1
 48
1.0
  6
BYLAYER
100
AcDbCircle
 10
9.9999999999999964
 20
70.24799999999999
 30
0.0
 40
3.5
  0
CIRCLE
  5
67
100
AcDbEntity
  8
0
 62
256
370
-1
 48
1.0
  6
BYLAYER
100
AcDbCircle
 10
9.9999999999999947
 20
48.74799999999999
 30
0.0
 40
3.5
  0
CIRCLE
  5
68
100
AcDbEntity
  8
0
 62
256
370
-1
 48
1.0
  6
BYLAYER
100
AcDbCircle
 10
9.9999999999999929
 20
27.24799999999999
 30
0.0
 40
3.5
  0
LWPOLYLINE
  5
69
100
AcDbEntity
  8
0
 62
256
370
-1
 48
1.0
  6
BYLAYER
100
AcDbPolyline
 90
13
 70
129
 10
16.929467939972707
 20
117.46248294679398
 42
0.0694677356207328
 10
16.675716234652114
 20
116.97748976807638
 10
16.248021828103681
 20
117.20054570259207
 42
-0.0527653630373376
 10
16.360572987721689
 20
117.46862210095496
 42
-0.0097546836814977
 10
16.626603001364256
 20
117.87175989085947
 42
-0.1043559505006074
 10
16.497680763983627
 20
118.52455661664392
 42
-0.2109236866729664
 10
16.904911323328783
 20
119.60811732605728
 42
-0.198563397492523
 10
18.048840381991813
 20
119.99999999999999
 42
-0.1986937377325018
 10
19.191746248294677
 20
119.60709413369712
 42
-0.2114038129902632
 10
19.599999999999998
 20
118.54092769440653
 42
-0.212269833700431
 10
19.191746248294677
 20
117.48294679399726
 42
-0.1978946849165781
 10
18.048840381991813
 20
117.09208731241472
 42
-0.0883154482435686
 10
17.365347885402453
 20
117.20054570259207
 42
-0.0901630541702692
  0
LWPOLYLINE
  5
6A
100
AcDbEntity
  8
0
 62
256
370
-1
 48
1.0
  6
BYLAYER
100
AcDbPolyline
 90
12
 70
129
 10
17.271214188267393
 20
117.94952251023192
 42
0.1045738303470736
 10
17.602728512960436
 20
117.77455661664392
 42
0.0727400207144972
 10
18.048840381991813
 20
117.71623465211458
 42
0.1840853094190252
 10
18.82544338335607
 20
117.94542974079125
 42
0.2236823454169547
 10
19.082264665757162
 20
118.54502046384719
 42
0.2236397269953562
 10
18.824420190995905
 20
119.14563437926329
 42
0.1844029229127403
 10
18.048840381991813
 20
119.37585266030013
 42
0.1825091992785405
 10
17.262005457025918
 20
119.14563437926329
 42
0.2256279702051948
 10
17.001091405184173
 20
118.56343792633014
 42
0.0891288695451307
 10
17.044065484311048
 20
118.31582537517052
 42
0.060024565241893
 10
17.232332878581172
 20
118.69031377899043
 10
17.578171896316505
 20
118.52046384720326
 42
-0.0792591628347377
  0
LWPOLYLINE
  5
6B
100
AcDbEntity
  8
0
 62
256
370
-1
 48
1.0
  6
BYLAYER
100
AcDbPolyline
 90
20
 70
129
 10
19.548840381991813
 20
116.61885778238883
 10
19.548840381991813
 20
116.0131279051719
 10
17.924010914051841
 20
116.0131279051719
 42
0.037277438232666
 10
17.422646657571622
 20
115.99061767324831
 42
0.1857457288812732
 10
17.126944065484309
 20
115.80541985605868
 42
0.1653286179779375
 10
17.015416098226464
 20
115.40535164323467
 42
0.1697375221284781
 10
17.120804911323326
 20
115.01653854637246
 42
0.18842468323509
 10
17.379672578444747
 20
114.85896692290724
 42
0.0378494324508948
 10
17.889222373806273
 20
114.83236392154298
 10
19.548840381991813
 20
114.83236392154298
 10
19.548840381991813
 20
114.22663404432606
 10
17.973124147339696
 20
114.22663404432606
 42
-0.0473349213820988
 10
17.209822646657567
 20
114.27574727761393
 42
-0.1255939727647623
 10
16.833287858117323
 20
114.4568523253629
 42
-0.1189846863158935
 10
16.588744884038196
 20
114.80985368961939
 42
-0.095991432064684
 10
16.497680763983627
 20
115.38693418075171
 42
-0.1001954078731559
 10
16.596930422919506
 20
116.038707714176
 42
-0.1184490819260591
 10
16.854774897680763
 20
116.38966269371215
 42
-0.1144212571579866
 10
17.187312414733967
 20
116.55951262549932
 42
-0.0525371796828326
 10
17.948567530695769
 20
116.61885778238883
  0
LWPOLYLINE
  5
6C
100
AcDbEntity
  8
0
 62
256
370
-1
 48
1.0
  6
BYLAYER
100
AcDbPolyline
 90
8
 70
129
 10
16.548840381991813
 20
110.87285456372383
 10
16.548840381991813
 20
111.53179044366927
 10
17.230286493860845
 20
111.79372768787117
 10
17.230286493860845
 20
112.99290913398303
 10
16.548840381991813
 20
113.24052168514265
 10
16.548840381991813
 20
113.88308648732547
 10
19.548840381991813
 20
112.71460081201852
 10
19.548840381991813
 20
112.07408239455603
  0
LWPOLYLINE
  5
6D
100
AcDbEntity
  8
0
 62
256
370
-1
 48
1.0
  6
BYLAYER
100
AcDbPolyline
 90
3
 70
129
 10
17.735743519781717
 20
111.98813423630227
 10
18.848976807639836
 20
112.40150394980841
 10
17.735743519781717
 20
112.80668812443325
  0
LWPOLYLINE
  5
6E
100
AcDbEntity
  8
0
 62
256
370
-1
 48
1.0
  6
BYLAYER
100
AcDbPolyline
 90
11
 70
129
 10
19.548840381991813
 20
110.54363169976553
 10
19.548840381991813
 20
109.4365375660684
 42
-0.0666508244572539
 10
19.491541609822647
 20
108.86559622909704
 42
-0.1344499765203865
 10
19.215279672578443
 20
108.41334520590468
 42
-0.1088878701120064
 10
18.72926330150068
 20
108.12685134505884
 42
-0.0813678137237312
 10
18.020190995907228
 20
108.02862487848313
 42
-0.0823488530412371
 10
17.381718963165074
 20
108.12071219089786
 42
-0.1188012209229356
 10
16.851705320600271
 20
108.44199459198927
 42
-0.1162071684506754
 10
16.612278308321962
 20
108.86764261381737
 42
-0.0740543908422706
 10
16.548840381991813
 20
109.40379541054315
 10
16.548840381991813
 20
110.54363169976553
  0
LWPOLYLINE
  5
6F
100
AcDbEntity
  8
0
 62
256
370
-1
 48
1.0
  6
BYLAYER
100
AcDbPolyline
 90
11
 70
129
 10
19.041336971350614
 20
109.93790182254861
 10
17.054297407912685
 20
109.93790182254861
 10
17.054297407912685
 20
109.48565079935625
 42
0.0558295038653026
 10
17.082946793997269
 20
109.11934793441765
 42
0.1246777329599363
 10
17.207776261937241
 20
108.87480496033851
 42
0.1322184632590526
 10
17.497339699863574
 20
108.71621014451314
 42
0.070980039510903
 10
18.046793997271486
 20
108.65481860290332
 42
0.0754210298554191
 10
18.580900409276943
 20
108.71621014451314
 42
0.124877368981543
 10
18.871487039563437
 20
108.88810646102064
 42
0.1387658659854735
 10
19.012687585266029
 20
109.1684611677055
 42
0.0454358940188756
 10
19.041336971350614
 20
109.66573265474504
  0
LWPOLYLINE
  5
70
100
AcDbEntity
  8
0
 62
256
370
-1
 48
1.0
  6
BYLAYER
100
AcDbPolyline
 90
18
 70
129
 10
16.548840381991813
 20
106.34854302309431
 10
19.548840381991813
 20
106.34854302309431
 10
19.548840381991813
 20
105.07364534233034
 42
-0.08112836006173
 10
19.468008185538878
 20
104.37480496033851
 42
-0.1686139866338036
 10
19.180491132332875
 20
104.0258963655227
 42
-0.1448767492350653
 10
18.707776261937241
 20
103.89492774342173
 42
-0.191556661426821
 10
18.150136425648022
 20
104.0934270612935
 42
-0.1771772627636573
 10
17.872851296043656
 20
104.68687863018845
 42
-0.073017920739902
 10
17.621145975443383
 20
104.36252665201656
 42
-0.0437171141279232
 10
17.134106412005455
 20
104.01771082664138
 10
16.548840381991813
 20
103.65140796170277
 10
16.548840381991813
 20
104.37582815269867
 10
17.201637107776261
 20
104.81375448284875
 42
0.0321751181627939
 10
17.642633015006819
 20
105.13299049921983
 42
0.1204748279837653
 10
17.76746248294679
 20
105.31511873932897
 42
0.0772762983385701
 10
17.801227830832193
 20
105.62003006265775
 10
17.801227830832193
 20
105.74281314587739
 10
16.548840381991813
 20
105.74281314587739
  0
LWPOLYLINE
  5
71
100
AcDbEntity
  8
0
 62
256
370
-1
 48
1.0
  6
BYLAYER
100
AcDbPolyline
 90
9
 70
129
 10
18.280081855388811
 20
105.74281314587739
 10
18.280081855388811
 20
105.29465489212569
 42
0.0591431601119219
 10
18.316916780354706
 20
104.7503165565186
 42
0.1669928072445006
 10
18.443792633015004
 20
104.58046662473143
 42
0.1528181065357989
 10
18.668894952251023
 20
104.51907508312161
 42
0.1851344793069915
 10
18.913437926330147
 20
104.59990727957452
 42
0.1785379941196191
 10
19.031105047748976
 20
104.82807917589103
 42
0.0216813850265143
 10
19.041336971350614
 20
105.27009827548176
 10
19.041336971350614
 20
105.74281314587739
  0
LWPOLYLINE
  5
72
100
AcDbEntity
  8
0
 62
256
370
-1
 48
1.0
  6
BYLAYER
100
AcDbPolyline
 90
12
 70
129
 10
16.548840381991813
 20
103.31399955886316
 10
19.548840381991813
 20
103.31399955886316
 10
19.548840381991813
 20
101.08957936786726
 10
19.041336971350614
 20
101.08957936786726
 10
19.041336971350614
 20
102.70826968164624
 10
18.376261937244202
 20
102.70826968164624
 10
18.376261937244202
 20
101.20213052748525
 10
17.870804911323326
 20
101.20213052748525
 10
17.870804911323326
 20
102.70826968164624
 10
17.054297407912685
 20
102.70826968164624
 10
17.054297407912685
 20
101.03228059569808
 10
16.548840381991813
 20
101.03228059569808
  0
LWPOLYLINE
  5
73
100
AcDbEntity
  8
0
 62
256
370
-1
 48
1.0
  6
BYLAYER
100
AcDbPolyline
 90
7
 70
129
 10
16.548840381991813
 20
99.763019663265538
 10
19.548840381991813
 20
100.83532525671711
 10
19.548840381991813
 20
100.17843576149201
 10
17.328512960436559
 20
99.419227030250539
 10
19.548840381991813
 20
98.684574915652988
 10
19.548840381991813
 20
98.042010113470184
 10
16.548840381991813
 20
99.116362091642074
  0
LWPOLYLINE
  5
74
100
AcDbEntity
  8
0
 62
256
370
-1
 48
1.0
  6
BYLAYER
100
AcDbPolyline
 90
12
 70
129
 10
16.548840381991813
 20
97.742735538472829
 10
19.548840381991813
 20
97.742735538472829
 10
19.548840381991813
 20
95.518315347476928
 10
19.041336971350614
 20
95.518315347476928
 10
19.041336971350614
 20
97.137005661255913
 10
18.376261937244202
 20
97.137005661255913
 10
18.376261937244202
 20
95.630866507094936
 10
17.870804911323326
 20
95.630866507094936
 10
17.870804911323326
 20
97.137005661255913
 10
17.054297407912685
 20
97.137005661255913
 10
17.054297407912685
 20
95.461016575307752
 10
16.548840381991813
 20
95.461016575307752
  0
LWPOLYLINE
  5
75
100
AcDbEntity
  8
0
 62
256
370
-1
 48
1.0
  6
BYLAYER
100
AcDbPolyline
 90
18
 70
129
 10
16.548840381991813
 20
94.95505714355734
 10
19.548840381991813
 20
94.95505714355734
 10
19.548840381991813
 20
93.680159462793355
 42
-0.0811283600617278
 10
19.468008185538878
 20
92.981319080801541
 42
-0.1686139866337965
 10
19.180491132332875
 20
92.632410485985716
 42
-0.1448767492350962
 10
18.707776261937241
 20
92.501441863884764
 42
-0.191556661426821
 10
18.150136425648022
 20
92.699941181756529
 42
-0.1771772627636489
 10
17.872851296043656
 20
93.293392750651478
 42
-0.0730179207399071
 10
17.621145975443383
 20
92.969040772479588
 42
-0.0437171141279252
 10
17.134106412005455
 20
92.624224947104409
 10
16.548840381991813
 20
92.257922082165805
 10
16.548840381991813
 20
92.982342273161706
 10
17.201637107776261
 20
93.420268603311769
 42
0.0321751181628237
 10
17.642633015006819
 20
93.739504619682862
 42
0.1204748279837448
 10
17.76746248294679
 20
93.921632859791998
 42
0.0772762983385777
 10
17.801227830832193
 20
94.22654418312078
 10
17.801227830832193
 20
94.349327266340424
 10
16.548840381991813
 20
94.349327266340424
  0
LWPOLYLINE
  5
76
100
AcDbEntity
  8
0
 62
256
370
-1
 48
1.0
  6
BYLAYER
100
AcDbPolyline
 90
9
 70
129
 10
18.280081855388811
 20
94.349327266340424
 10
18.280081855388811
 20
93.901169012588724
 42
0.0591431601119219
 10
18.316916780354706
 20
93.35683067698163
 42
0.1669928072445416
 10
18.443792633015004
 20
93.186980745194447
 42
0.1528181065356835
 10
18.668894952251023
 20
93.125589203584624
 42
0.1851344793069546
 10
18.913437926330147
 20
93.206421400037556
 42
0.1785379941196191
 10
19.031105047748976
 20
93.434593296354066
 42
0.0216813850265151
 10
19.041336971350614
 20
93.876612395944804
 10
19.041336971350614
 20
94.349327266340424
  0
LWPOLYLINE
  5
77
100
AcDbEntity
  8
0
 62
256
370
-1
 48
1.0
  6
BYLAYER
100
AcDbPolyline
 90
30
 70
129
 10
17.524965893587993
 20
92.073992533350747
 10
17.582264665757162
 20
91.484633733896445
 42
0.1742698639722124
 10
17.146384720327418
 20
91.268740145901901
 42
0.1822119347677094
 10
17.007230559345153
 20
90.829790623391673
 42
0.1749322093143676
 10
17.131036834924963
 20
90.388794716161115
 42
0.232791442650234
 10
17.420600272851296
 20
90.240431823937371
 42
0.1811098694256335
 10
17.601705320600271
 20
90.302846557907358
 42
0.1292873456278717
 10
17.731650750341061
 20
90.520786530622232
 42
0.0168515435654326
 10
17.862619372442019
 20
91.005779709339834
 42
-0.1147099677201865
 10
18.159345156889493
 20
91.689272205929186
 42
-0.2232150866739611
 10
18.763028649386083
 20
91.965534143173386
 42
-0.1484219162819592
 10
19.191746248294677
 20
91.8355887134326
 42
-0.1516027065394839
 10
19.495634379263301
 20
91.461100309612675
 42
-0.1008779219693758
 10
19.599999999999998
 20
90.870718317798222
 42
-0.1805269069094589
 10
19.352387448840382
 20
90.020445466502181
 42
-0.2174301491091306
 10
18.691405184174624
 20
89.720650104974212
 10
18.664802182810366
 20
90.326379982191128
 42
0.1871423791969296
 10
18.997339699863574
 20
90.493160336897816
 42
0.1670009239443079
 10
19.098635743519779
 20
90.876857471959198
 42
0.1582324430724084
 10
18.990177353342425
 20
91.290227185465341
 42
0.2553934114734247
 10
18.803956343792631
 20
91.386407267320735
 42
0.2323241784268582
 10
18.621828103683491
 20
91.296366339626331
 42
0.0936974867588214
 10
18.421282401091403
 20
90.73974969569727
 42
-0.0588045002859137
 10
18.20538881309686
 20
90.08592977755265
 42
-0.1361073350707211
 10
17.900477489768075
 20
89.754415452859604
 42
-0.1408318990042077
 10
17.422646657571622
 20
89.634701946720455
 42
-0.14556642339795
 10
16.939699863574351
 20
89.777948877143373
 42
-0.1567867069059083
 10
16.605115961800816
 20
90.183133051768209
 42
-0.0983302336073182
 10
16.495634379263301
 20
90.83592977755265
 42
-0.1813076090757538
 10
16.758594815825372
 20
91.70973605313246
 42
-0.1923164667376534
  0
LWPOLYLINE
  5
78
100
AcDbEntity
  8
0
 62
256
370
-1
 48
1.0
  6
BYLAYER
100
AcDbPolyline
 90
12
 70
129
 10
16.548840381991813
 20
89.134881669131033
 10
19.548840381991813
 20
89.134881669131033
 10
19.548840381991813
 20
86.910461478135119
 10
19.041336971350614
 20
86.910461478135119
 10
19.041336971350614
 20
88.529151791914103
 10
18.376261937244202
 20
88.529151791914103
 10
18.376261937244202
 20
87.023012637753141
 10
17.870804911323326
 20
87.023012637753141
 10
17.870804911323326
 20
88.529151791914103
 10
17.054297407912685
 20
88.529151791914103
 10
17.054297407912685
 20
86.853162705965957
 10
16.548840381991813
 20
86.853162705965957
  0
LWPOLYLINE
  5
79
100
AcDbEntity
  8
0
 62
256
370
-1
 48
1.0
  6
BYLAYER
100
AcDbPolyline
 90
8
 70
129
 10
16.548840381991813
 20
82.644803163114403
 10
16.548840381991813
 20
83.303739043059835
 10
17.230286493860845
 20
83.565676287261752
 10
17.230286493860845
 20
84.764857733373617
 10
16.548840381991813
 20
85.012470284533237
 10
16.548840381991813
 20
85.655035086716055
 10
19.548840381991813
 20
84.486549411409101
 10
19.548840381991813
 20
83.846030993946613
  0
LWPOLYLINE
  5
7A
100
AcDbEntity
  8
0
 62
256
370
-1
 48
1.0
  6
BYLAYER
100
AcDbPolyline
 90
3
 70
129
 10
17.735743519781717
 20
83.760082835692856
 10
18.848976807639836
 20
84.173452549198998
 10
17.735743519781717
 20
84.57863672382382
  0
LWPOLYLINE
  5
7B
100
AcDbEntity
  8
0
 62
256
370
-1
 48
1.0
  6
BYLAYER
100
AcDbPolyline
 90
7
 70
129
 10
16.548840381991813
 20
81.859138476117323
 10
19.548840381991813
 20
82.931444069568897
 10
19.548840381991813
 20
82.274554574343796
 10
17.328512960436559
 20
81.515345843102324
 10
19.548840381991813
 20
80.780693728504772
 10
19.548840381991813
 20
80.138128926321968
 10
16.548840381991813
 20
81.212480904493873
  0
LWPOLYLINE
  5
7C
100
AcDbEntity
  8
0
 62
256
370
-1
 48
1.0
  6
BYLAYER
100
AcDbPolyline
 90
8
 70
129
 10
16.548840381991813
 20
77.444486198135763
 10
16.548840381991813
 20
78.103422078081195
 10
17.230286493860845
 20
78.365359322283112
 10
17.230286493860845
 20
79.564540768394977
 10
16.548840381991813
 20
79.812153319554596
 10
16.548840381991813
 20
80.454718121737415
 10
19.548840381991813
 20
79.286232446430461
 10
19.548840381991813
 20
78.645714028967973
  0
LWPOLYLINE
  5
7D
100
AcDbEntity
  8
0
 62
256
370
-1
 48
1.0
  6
BYLAYER
100
AcDbPolyline
 90
3
 70
129
 10
17.735743519781717
 20
78.559765870714216
 10
18.848976807639836
 20
78.973135584220358
 10
17.735743519781717
 20
79.37831975884518
  0
LWPOLYLINE
  5
7E
100
AcDbEntity
  8
0
 62
256
370
-1
 48
1.0
  6
BYLAYER
100
AcDbPolyline
 90
6
 70
129
 10
16.548840381991813
 20
77.096845871694512
 10
19.524283765347885
 20
77.096845871694512
 10
19.524283765347885
 20
76.49111599447761
 10
17.054297407912685
 20
76.49111599447761
 10
17.054297407912685
 20
74.984976840316619
 10
16.548840381991813
 20
74.984976840316619
  0
LWPOLYLINE
  5
7F
100
AcDbEntity
  8
0
 62
256
370
-1
 48
1.0
  6
BYLAYER
100
AcDbPolyline
 90
8
 70
129
 10
16.548840381991813
 20
71.848126393869819
 10
16.548840381991813
 20
72.507062273815251
 10
17.230286493860845
 20
72.768999518017154
 10
17.230286493860845
 20
73.968180964129033
 10
16.548840381991813
 20
74.215793515288652
 10
16.548840381991813
 20
74.858358317471442
 10
19.548840381991813
 20
73.689872642164488
 10
19.548840381991813
 20
73.049354224702014
  0
LWPOLYLINE
  5
80
100
AcDbEntity
  8
0
 62
256
370
-1
 48
1.0
  6
BYLAYER
100
AcDbPolyline
 90
3
 70
129
 10
17.735743519781717
 20
72.963406066448258
 10
18.848976807639836
 20
73.3767757799544
 10
17.735743519781717
 20
73.781959954579236
  0
LWPOLYLINE
  5
81
100
AcDbEntity
  8
0
 62
256
370
-1
 48
1.0
  6
BYLAYER
100
AcDbPolyline
 90
10
 70
129
 10
16.548840381991813
 20
71.510717991030191
 10
19.548840381991813
 20
71.510717991030191
 10
19.548840381991813
 20
70.921359191575903
 10
17.545429740791267
 20
69.693528359379457
 10
19.548840381991813
 20
69.693528359379457
 10
19.548840381991813
 20
69.130772561289405
 10
16.548840381991813
 20
69.130772561289405
 10
16.548840381991813
 20
69.738548823226665
 10
18.505184174624826
 20
70.947962192940167
 10
16.548840381991813
 20
70.947962192940167
  0
LWPOLYLINE
  5
82
100
AcDbEntity
  8
0
 62
256
370
-1
 48
1.0
  6
BYLAYER
100
AcDbPolyline
 90
18
 70
129
 10
17.651841746248294
 20
66.560758428572584
 10
17.465620736698497
 20
65.973446013838611
 42
-0.1671334748728582
 10
16.736084583901771
 20
66.422627459950462
 42
-0.1668573789571467
 10
16.497680763983627
 20
67.219694308518001
 42
-0.2156679250405146
 10
16.905934515688948
 20
68.201958974275158
 42
-0.1962365570038968
 10
18.022237380627555
 20
68.586679301696734
 42
-0.1939199734531183
 10
19.185607094133694
 20
68.199912589554856
 42
-0.2167562810564208
 10
19.599999999999998
 20
67.182859383552113
 42
-0.1981473977178539
 10
19.274624829467939
 20
66.288589260769029
 42
-0.1360063931839887
 10
18.722100954979535
 20
65.981631552719918
 10
18.578854024556616
 20
66.581222275775858
 42
0.1742050159678637
 10
18.94720327421555
 20
66.803255017931377
 42
0.1749533473553122
 10
19.082264665757162
 20
67.213555154357039
 42
0.2280391616546609
 10
18.842837653478853
 20
67.754823912883637
 42
0.1763450075047171
 10
18.06725784447476
 20
67.962531961996859
 42
0.170901232136977
 10
17.256889495225099
 20
67.757893489964118
 42
0.2316114705458022
 10
17.015416098226464
 20
67.225833462678992
 42
0.1889892712899923
 10
17.168894952251023
 20
66.810417364452519
 42
0.1561720808102986
  0
LWPOLYLINE
  5
83
100
AcDbEntity
  8
0
 62
256
370
-1
 48
1.0
  6
BYLAYER
100
AcDbPolyline
 90
12
 70
129
 10
16.548840381991813
 20
65.441631062567893
 10
19.548840381991813
 20
65.441631062567893
 10
19.548840381991813
 20
64.835901185350963
 10
18.368076398362891
 20
64.835901185350963
 10
18.368076398362891
 20
63.648998047561065
 10
19.548840381991813
 20
63.648998047561065
 10
19.548840381991813
 20
63.043268170344156
 10
16.548840381991813
 20
63.043268170344156
 10
16.548840381991813
 20
63.648998047561065
 10
17.860572987721689
 20
63.648998047561065
 10
17.860572987721689
 20
64.835901185350963
 10
16.548840381991813
 20
64.835901185350963
  0
LWPOLYLINE
  5
84
100
AcDbEntity
  8
0
 62
256
370
-1
 48
1.0
  6
BYLAYER
100
AcDbPolyline
 90
12
 70
129
 10
16.548840381991813
 20
62.40708759833673
 10
19.548840381991813
 20
62.40708759833673
 10
19.548840381991813
 20
60.182667407340823
 10
19.041336971350614
 20
60.182667407340823
 10
19.041336971350614
 20
61.801357721119821
 10
18.376261937244202
 20
61.801357721119821
 10
18.376261937244202
 20
60.29521856695883
 10
17.870804911323326
 20
60.29521856695883
 10
17.870804911323326
 20
61.801357721119821
 10
17.054297407912685
 20
61.801357721119821
 10
17.054297407912685
 20
60.125368635171661
 10
16.548840381991813
 20
60.125368635171661
  0
LWPOLYLINE
  5
85
100
AcDbEntity
  8
0
 62
256
370
-1
 48
1.0
  6
BYLAYER
100
AcDbPolyline
 90
10
 70
129
 10
18.030422919508865
 20
58.589832613082137
 42
-0.1035033566386815
 10
18.799863574351978
 20
58.452724836820202
 42
-0.0887304716847961
 10
19.211186903137786
 20
58.173393322495514
 42
-0.1022159918237273
 10
19.481309686221007
 20
57.785603417993464
 42
-0.1008111681527579
 10
19.599999999999998
 20
57.138945846370007
 42
-0.2109692091520954
 10
19.188676671214186
 20
56.077895368880228
 42
-0.199744770076468
 10
18.044747612551159
 20
55.679873540776541
 42
-0.199062599222238
 10
16.907980900409274
 20
56.074825791799732
 42
-0.2117135593124106
 10
16.497680763983627
 20
57.130760307488686
 42
-0.2107726254246683
 10
16.905934515688948
 20
58.194880362058946
 42
-0.2000088613351932
  0
LWPOLYLINE
  5
86
100
AcDbEntity
  8
0
 62
256
370
-1
 48
1.0
  6
BYLAYER
100
AcDbPolyline
 90
8
 70
129
 10
18.050886766712139
 20
57.965685273382277
 42
0.1858023423294547
 10
17.278376534788539
 20
57.730351030544625
 42
0.2234885323936789
 10
17.015416098226464
 20
57.132806692209023
 42
0.2242506675355647
 10
17.276330150068212
 20
56.538331930953895
 42
0.1840757256043328
 10
18.05907230559345
 20
56.306067265196738
 42
0.1837364737804558
 10
18.828512960436562
 20
56.532192776792918
 42
0.2237063844645732
 10
19.082264665757162
 20
57.132806692209023
 42
0.2235993490207207
 10
18.82544338335607
 20
57.736490184705609
 42
0.1842082365376963
  0
LWPOLYLINE
  5
87
100
AcDbEntity
  8
0
 62
256
370
-1
 48
1.0
  6
BYLAYER
100
AcDbPolyline
 90
30
 70
129
 10
17.524965893587993
 20
55.358076480054876
 10
17.582264665757162
 20
54.768717680600574
 42
0.1742698639721916
 10
17.146384720327418
 20
54.552824092606031
 42
0.1822119347677209
 10
17.007230559345153
 20
54.113874570095803
 42
0.1749322093143647
 10
17.131036834924963
 20
53.672878662865244
 42
0.2327914426502892
 10
17.420600272851296
 20
53.524515770641514
 42
0.1811098694256385
 10
17.601705320600271
 20
53.586930504611487
 42
0.1292873456278708
 10
17.731650750341061
 20
53.804870477326361
 42
0.016851543565451
 10
17.862619372442019
 20
54.289863656043963
 42
-0.1147099677201834
 10
18.159345156889493
 20
54.973356152633315
 42
-0.223215086673945
 10
18.763028649386083
 20
55.249618089877529
 42
-0.1484219162819289
 10
19.191746248294677
 20
55.119672660136729
 42
-0.1516027065394301
 10
19.495634379263301
 20
54.745184256316819
 42
-0.1008779219693635
 10
19.599999999999998
 20
54.154802264502351
 42
-0.1805269069094504
 10
19.352387448840382
 20
53.304529413206296
 42
-0.2174301491091118
 10
18.691405184174624
 20
53.004734051678341
 10
18.664802182810366
 20
53.610463928895243
 42
0.1871423791969048
 10
18.997339699863574
 20
53.777244283601945
 42
0.167000923944307
 10
19.098635743519779
 20
54.160941418663327
 42
0.1582324430723882
 10
18.990177353342425
 20
54.57431113216947
 42
0.2553934114734339
 10
18.803956343792631
 20
54.670491214024864
 42
0.2323241784268806
 10
18.621828103683491
 20
54.580450286330446
 42
0.0936974867588392
 10
18.421282401091403
 20
54.023833642401385
 42
-0.0588045002858925
 10
18.20538881309686
 20
53.370013724256779
 42
-0.1361073350707293
 10
17.900477489768075
 20
53.038499399563733
 42
-0.1408318990041842
 10
17.422646657571622
 20
52.918785893424584
 42
-0.1455664233979768
 10
16.939699863574351
 20
53.062032823847503
 42
-0.1567867069059035
 10
16.605115961800816
 20
53.467216998472324
 42
-0.0983302336073126
 10
16.495634379263301
 20
54.120013724256779
 42
-0.1813076090757609
 10
16.758594815825372
 20
54.993819999836589
 42
-0.1923164667376351
  0
LWPOLYLINE
  5
88
100
AcDbEntity
  8
0
 62
256
370
-1
 48
1.0
  6
BYLAYER
100
AcDbPolyline
 90
18
 70
129
 10
17.651841746248294
 20
50.499456748168029
 10
17.465620736698497
 20
49.912144333434057
 42
-0.1671334748728276
 10
16.736084583901771
 20
50.361325779545936
 42
-0.1668573789571684
 10
16.497680763983627
 20
51.158392628113461
 42
-0.2156679250404982
 10
16.905934515688948
 20
52.140657293870632
 42
-0.1962365570038669
 10
18.022237380627555
 20
52.525377621292179
 42
-0.1939199734531313
 10
19.185607094133694
 20
52.138610909150287
 42
-0.2167562810564387
 10
19.599999999999998
 20
51.121557703147559
 42
-0.198147397717855
 10
19.274624829467939
 20
50.227287580364489
 42
-0.1360063931839733
 10
18.722100954979535
 20
49.920329872315378
 10
18.578854024556616
 20
50.519920595371303
 42
0.1742050159678656
 10
18.94720327421555
 20
50.741953337526837
 42
0.1749533473553136
 10
19.082264665757162
 20
51.152253473952484
 42
0.2280391616546773
 10
18.842837653478853
 20
51.693522232479083
 42
0.1763450075046983
 10
18.06725784447476
 20
51.901230281592319
 42
0.1709012321369742
 10
17.256889495225099
 20
51.696591809559578
 42
0.2316114705458046
 10
17.015416098226464
 20
51.164531782274452
 42
0.1889892712899928
 10
17.168894952251023
 20
50.749115684047979
 42
0.1561720808102814
  0
LWPOLYLINE
  5
89
100
AcDbEntity
  8
0
 62
256
370
-1
 48
1.0
  6
BYLAYER
100
AcDbPolyline
 90
4
 70
129
 10
16.548840381991813
 20
49.400793229366613
 10
19.548840381991813
 20
49.400793229366613
 10
19.548840381991813
 20
48.795063352149711
 10
16.548840381991813
 20
48.795063352149711
  0
LWPOLYLINE
  5
8A
100
AcDbEntity
  8
0
 62
256
370
-1
 48
1.0
  6
BYLAYER
100
AcDbPolyline
 90
6
 70
129
 10
16.548840381991813
 20
48.211598630841976
 10
19.524283765347885
 20
48.211598630841976
 10
19.524283765347885
 20
47.60586875362506
 10
17.054297407912685
 20
47.60586875362506
 10
17.054297407912685
 20
46.099729599464084
 10
16.548840381991813
 20
46.099729599464084
  0
LWPOLYLINE
  5
8B
100
AcDbEntity
  8
0
 62
256
370
-1
 48
1.0
  6
BYLAYER
100
AcDbPolyline
 90
6
 70
129
 10
16.548840381991813
 20
45.651828675527497
 10
19.524283765347885
 20
45.651828675527497
 10
19.524283765347885
 20
45.046098798310581
 10
17.054297407912685
 20
45.046098798310581
 10
17.054297407912685
 20
43.539959644149604
 10
16.548840381991813
 20
43.539959644149604
  0
LWPOLYLINE
  5
8C
100
AcDbEntity
  8
0
 62
256
370
-1
 48
1.0
  6
BYLAYER
100
AcDbPolyline
 90
8
 70
129
 10
16.548840381991813
 20
40.40310919770279
 10
16.548840381991813
 20
41.062045077648222
 10
17.230286493860845
 20
41.323982321850139
 10
17.230286493860845
 20
42.523163767962004
 10
16.548840381991813
 20
42.770776319121623
 10
16.548840381991813
 20
43.413341121304427
 10
19.548840381991813
 20
42.244855445997473
 10
19.548840381991813
 20
41.604337028534999
  0
LWPOLYLINE
  5
8D
100
AcDbEntity
  8
0
 62
256
370
-1
 48
1.0
  6
BYLAYER
100
AcDbPolyline
 90
3
 70
129
 10
17.735743519781717
 20
41.518388870281242
 10
18.848976807639836
 20
41.931758583787385
 10
17.735743519781717
 20
42.336942758412206
  0
LWPOLYLINE
  5
8E
100
AcDbEntity
  8
0
 62
256
370
-1
 48
1.0
  6
BYLAYER
100
AcDbPolyline
 90
8
 70
129
 10
16.548840381991813
 20
39.707485438400113
 10
19.041336971350614
 20
39.707485438400113
 10
19.041336971350614
 20
40.59766279174255
 10
19.548840381991813
 20
40.59766279174255
 10
19.548840381991813
 20
38.213624592561104
 10
19.041336971350614
 20
38.213624592561104
 10
19.041336971350614
 20
39.101755561183197
 10
16.548840381991813
 20
39.101755561183197
  0
LWPOLYLINE
  5
8F
100
AcDbEntity
  8
0
 62
256
370
-1
 48
1.0
  6
BYLAYER
100
AcDbPolyline
 90
10
 70
129
 10
18.030422919508865
 20
38.021484997263286
 42
-0.1035033566386723
 10
18.799863574351978
 20
37.884377221001358
 42
-0.088730471684781
 10
19.211186903137786
 20
37.605045706676663
 42
-0.1022159918237394
 10
19.481309686221007
 20
37.21725580217462
 42
-0.1008111681527557
 10
19.599999999999998
 20
36.570598230551148
 42
-0.2109692091520982
 10
19.188676671214186
 20
35.509547753061383
 42
-0.1997447700764609
 10
18.044747612551159
 20
35.111525924957689
 42
-0.1990625992222432
 10
16.907980900409274
 20
35.506478175980888
 42
-0.2117135593124143
 10
16.497680763983627
 20
36.562412691669834
 42
-0.2107726254246694
 10
16.905934515688948
 20
37.626532746240102
 42
-0.2000088613351957
  0
LWPOLYLINE
  5
90
100
AcDbEntity
  8
0
 62
256
370
-1
 48
1.0
  6
BYLAYER
100
AcDbPolyline
 90
8
 70
129
 10
18.050886766712139
 20
37.397337657563426
 42
0.1858023423294538
 10
17.278376534788539
 20
37.162003414725774
 42
0.2234885323936823
 10
17.015416098226464
 20
36.564459076390165
 42
0.2242506675355618
 10
17.276330150068212
 20
35.969984315135051
 42
0.1840757256043479
 10
18.05907230559345
 20
35.737719649377894
 42
0.1837364737804393
 10
18.828512960436562
 20
35.96384516097406
 42
0.2237063844645576
 10
19.082264665757162
 20
36.564459076390165
 42
0.223599349020727
 10
18.82544338335607
 20
37.168142568886751
 42
0.1842082365376876
  0
LWPOLYLINE
  5
91
100
AcDbEntity
  8
0
 62
256
370
-1
 48
1.0
  6
BYLAYER
100
AcDbPolyline
 90
18
 70
129
 10
16.548840381991813
 20
34.634203625491153
 10
19.548840381991813
 20
34.634203625491153
 10
19.548840381991813
 20
33.359305944727168
 42
-0.0811283600617258
 10
19.468008185538878
 20
32.660465562735354
 42
-0.1686139866338073
 10
19.180491132332875
 20
32.311556967919515
 42
-0.144876749235095
 10
18.707776261937241
 20
32.180588345818578
 42
-0.1915566614267777
 10
18.150136425648022
 20
32.379087663690328
 42
-0.1771772627636584
 10
17.872851296043656
 20
32.972539232585277
 42
-0.0730179207398491
 10
17.621145975443383
 20
32.648187254413372
 42
-0.0437171141278983
 10
17.134106412005455
 20
32.303371429038222
 10
16.548840381991813
 20
31.937068564099604
 10
16.548840381991813
 20
32.661488755095505
 10
17.201637107776261
 20
33.099415085245582
 42
0.0321751181628124
 10
17.642633015006815
 20
33.418651101616646
 42
0.1204748279837486
 10
17.76746248294679
 20
33.600779341725797
 42
0.0772762983385556
 10
17.801227830832193
 20
33.905690665054593
 10
17.801227830832193
 20
34.028473748274237
 10
16.548840381991813
 20
34.028473748274237
  0
LWPOLYLINE
  5
92
100
AcDbEntity
  8
0
 62
256
370
-1
 48
1.0
  6
BYLAYER
100
AcDbPolyline
 90
9
 70
129
 10
18.280081855388811
 20
34.028473748274237
 10
18.280081855388811
 20
33.580315494522523
 42
0.0591431601119224
 10
18.316916780354706
 20
33.035977158915429
 42
0.1669928072444986
 10
18.443792633015004
 20
32.866127227128246
 42
0.1528181065357414
 10
18.668894952251023
 20
32.804735685518423
 42
0.1851344793069984
 10
18.913437926330147
 20
32.885567881971369
 42
0.1785379941196987
 10
19.031105047748976
 20
33.113739778287879
 42
0.0216813850265196
 10
19.041336971350614
 20
33.555758877878567
 10
19.041336971350614
 20
34.028473748274237
  0
LWPOLYLINE
  5
93
100
AcDbEntity
  8
0
 62
256
370
-1
 48
1.0
  6
BYLAYER
100
AcDbPolyline
 90
8
 70
129
 10
1.0
 20
21.058501208702658
 10
3.7650282030620468
 20
21.058501208702658
 10
3.7650282030620468
 20
20.473972602739728
 10
2.7700241740531828
 20
20.473972602739728
 10
2.7700241740531828
 20
18.058501208702658
 10
1.9964544721998387
 20
18.058501208702658
 10
1.9964544721998387
 20
20.473972602739728
 10
1.0
 20
20.473972602739728
  0
LWPOLYLINE
  5
94
100
AcDbEntity
  8
0
 62
256
370
-1
 48
1.0
  6
BYLAYER
100
AcDbPolyline
 90
8
 70
129
 10
5.2033843674456088
 20
19.848831587429494
 42
0.2528106725506646
 10
4.8388396454472202
 20
19.677195809830778
 42
0.1577890542291711
 10
4.7131345688960513
 20
19.18162771958098
 42
0.1576749368723376
 10
4.8388396454472202
 20
18.68630136986301
 42
0.2530325641940021
 10
5.2033843674456088
 20
18.514423851732474
 42
0.2543509340062357
 10
5.563094278807414
 20
18.68630136986301
 42
0.1566279833247684
 10
5.6878323932312647
 20
19.18162771958098
 42
0.1567413386403483
 10
5.563094278807414
 20
19.677195809830778
 42
0.2541302457085079
  0
LWPOLYLINE
  5
95
100
AcDbEntity
  8
0
 62
256
370
-1
 48
1.0
  6
BYLAYER
100
AcDbPolyline
 90
8
 70
129
 10
5.2033843674456088
 20
20.363255439161968
 42
-0.1985700988402823
 10
6.110636583400483
 20
20.049717969379529
 42
-0.2112549155218379
 10
6.4372280419016921
 20
19.18162771958098
 42
-0.2112549155218367
 10
6.110636583400483
 20
18.313537469782432
 42
-0.1985700988402757
 10
5.2033843674456088
 20
18.0
 42
-0.1977221508060223
 10
4.2922643029814669
 20
18.313537469782432
 42
-0.2121732306438218
 10
3.9637389202256248
 20
19.18162771958098
 42
-0.2121732306438215
 10
4.2922643029814669
 20
20.049717969379529
 42
-0.1977221508060276
  0
LWPOLYLINE
  5
96
100
AcDbEntity
  8
0
 62
256
370
-1
 48
1.0
  6
BYLAYER
100
AcDbPolyline
 90
19
 70
129
 10
9.2220789685737312
 20
19.429170024174056
 10
9.2220789685737312
 20
18.058501208702658
 10
8.4987912973408548
 20
18.058501208702658
 10
8.4987912973408548
 20
18.281385979049155
 10
8.4987912973408548
 20
19.107655116841258
 42
0.0247848332854448
 10
8.4857373086220793
 20
19.509186140209508
 42
0.1038630378753875
 10
8.4402900886381946
 20
19.671877518130536
 42
0.1375379517397435
 10
8.3259468170829969
 20
19.781627719580982
 42
0.1263805524733511
 10
8.1608380338436746
 20
19.82078968573731
 42
0.2519449839985686
 10
7.8074133763094276
 20
19.646978243352137
 42
0.1607868699696137
 10
7.6788074133763091
 20
19.165672844480255
 10
7.6788074133763091
 20
18.058501208702658
 10
6.9593875906526996
 20
18.058501208702658
 10
6.9593875906526996
 20
20.309105560032229
 10
7.6788074133763091
 20
20.309105560032229
 10
7.6788074133763091
 20
19.979371474617245
 42
-0.1030913173590038
 10
8.0242546333601936
 20
20.269943593875908
 42
-0.1199948138755563
 10
8.4282030620467374
 20
20.363255439161968
 42
-0.2296591057469126
 10
9.0199838839645441
 20
20.124174053182919
 42
-0.1777771703473499
  0
LWPOLYLINE
  5
97
100
AcDbEntity
  8
0
 62
256
370
-1
 48
1.0
  6
BYLAYER
100
AcDbPolyline
 90
15
 70
129
 10
12.135535858178889
 20
19.189846897663173
 10
12.135535858178889
 20
18.984850926672038
 10
10.453505237711523
 20
18.984850926672038
 42
0.2057646661349429
 10
10.636261079774375
 20
18.605076551168409
 42
0.1726032109462076
 10
11.074294923448832
 20
18.478646253021758
 42
0.0691113965401637
 10
11.539645447219982
 20
18.545850120870263
 42
0.0560479244608345
 10
12.028686543110394
 20
18.749879129734083
 10
12.028686543110394
 20
18.195326349717966
 42
-0.0428546638464196
 10
11.518372280419017
 20
18.049315068493151
 42
-0.0478948782524692
 10
11.00805801772764
 20
18.0
 42
-0.191410215487744
 10
10.05850120870266
 20
18.310636583400481
 42
-0.2179154268482878
 10
9.7200644641418208
 20
19.18162771958098
 42
-0.2132643270721901
 10
10.052457695406931
 20
20.047784045124899
 42
-0.1970960050083456
 10
10.967929089443997
 20
20.363255439161968
 42
-0.2062977058834573
 10
11.816921837228042
 20
20.043916196615633
 42
-0.2055188954015369
  0
LWPOLYLINE
  5
98
100
AcDbEntity
  8
0
 62
256
370
-1
 48
1.0
  6
BYLAYER
100
AcDbPolyline
 90
5
 70
129
 10
11.395809830781634
 20
19.429170024174056
 42
0.1990378483820721
 10
11.276148267526189
 20
19.759629331184527
 42
0.2135555669245612
 10
10.963577759871072
 20
19.885092667203864
 42
0.19067610793316
 10
10.624174053182918
 20
19.767606768734893
 42
0.1782448469664623
 10
10.461240934730057
 20
19.429170024174056
  0
LWPOLYLINE
  5
99
100
AcDbEntity
  8
0
 62
256
370
-1
 48
1.0
  6
BYLAYER
100
AcDbPolyline
 90
8
 70
129
 10
2.5432715551974217
 20
14.052296535052378
 42
0.2505068485578657
 10
1.9945205479452055
 20
13.790975020145044
 42
0.161232792649916
 10
1.7996776792908946
 20
13.05535858178888
 42
0.1613567239980854
 10
1.9945205479452053
 20
12.322159548751006
 42
0.2505068485578643
 10
2.5432715551974212
 20
12.060838033843673
 42
0.2504556348792377
 10
3.093956486704271
 20
12.322159548751006
 42
0.1613567239980874
 10
3.2887993553585817
 20
13.055358581788884
 42
0.1612327926499185
 10
3.093956486704271
 20
13.790975020145044
 42
0.2504556348792388
  0
LWPOLYLINE
  5
9A
100
AcDbEntity
  8
0
 62
256
370
-1
 48
1.0
  6
BYLAYER
100
AcDbPolyline
 90
8
 70
129
 10
2.5432715551974217
 20
14.613134568896051
 42
-0.2065258970150332
 10
3.6765511684125705
 20
14.199033037872681
 42
-0.2034761873901052
 10
4.0865431103948424
 20
13.05535858178888
 42
-0.2035394829797907
 10
3.6765511684125705
 20
11.914101531023366
 42
-0.2065258970150307
 10
2.5432715551974208
 20
11.5
 42
-0.2062559212976729
 10
1.4109589041095885
 20
11.914101531023366
 42
-0.2039016586242288
 10
1.0
 20
13.055358581788884
 42
-0.2038385593534723
 10
1.4109589041095889
 20
14.199033037872681
 42
-0.2062559212976767
  0
LWPOLYLINE
  5
9B
100
AcDbEntity
  8
0
 62
256
370
-1
 48
1.0
  6
BYLAYER
100
AcDbPolyline
 90
14
 70
129
 10
4.6710717163577762
 20
14.558501208702658
 10
5.4451248992747789
 20
14.558501208702658
 10
5.4451248992747789
 20
12.759951651893633
 42
0.1559407484557945
 10
5.5664786462530227
 20
12.228847703464947
 42
0.2426884002515189
 10
5.9634165995165187
 20
12.069057211925866
 42
0.2422444696798971
 10
6.3620467365028208
 20
12.228847703464947
 42
0.1562133535446031
 10
6.4836422240128933
 20
12.759951651893633
 10
6.4836422240128933
 20
14.558501208702658
 10
7.2572119258662369
 20
14.558501208702658
 10
7.2572119258662369
 20
12.759951651893633
 42
-0.2051564173052024
 10
6.9378726833199025
 20
11.811603545527799
 42
-0.1973320675000549
 10
5.9634165995165187
 20
11.5
 42
-0.1973313416100766
 10
4.9906526994359393
 20
11.811603545527799
 42
-0.2052761430112905
 10
4.6710717163577762
 20
12.759951651893633
  0
LWPOLYLINE
  5
9C
100
AcDbEntity
  8
0
 62
256
370
-1
 48
1.0
  6
BYLAYER
100
AcDbPolyline
 90
8
 70
129
 10
7.6551168412570512
 20
14.558501208702658
 10
10.420145044319097
 20
14.558501208702658
 10
10.420145044319097
 20
13.973972602739725
 10
9.4251410153102331
 20
13.973972602739725
 10
9.4251410153102331
 20
11.558501208702658
 10
8.6515713134568895
 20
11.558501208702658
 10
8.6515713134568895
 20
13.973972602739725
 10
7.6551168412570512
 20
13.973972602739725
  0
CIRCLE
  5
9D
100
AcDbEntity
  8
0
 62
256
370
-1
 48
1.0
  6
BYLAYER
100
AcDbCircle
 10
14.999999999999998
 20
12.999999999999998
 30
0.0
 40
3.0
  0
CIRCLE
  5
9E
100
AcDbEntity
  8
0
 62
256
370
-1
 48
1.0
  6
BYLAYER
100
AcDbCircle
 10
14.999999999999998
 20
12.999999999999998
 30
0.0
 40
4.0
  0
LWPOLYLINE
  5
9F
100
AcDbEntity
  8
0
 62
256
370
-1
 48
1.0
  6
BYLAYER
100
AcDbPolyline
 90
12
 70
129
 10
24.0
 20
13.88815471394037
 10
26.088154713940369
 20
13.88815471394037
 10
26.088154713940369
 20
13.303626107977436
 10
24.774053182917001
 20
13.303626107977436
 10
24.774053182917001
 20
12.744721998388396
 10
26.00983078162772
 20
12.744721998388396
 10
26.00983078162772
 20
12.160193392425462
 10
24.774053182917001
 20
12.160193392425462
 10
24.774053182917001
 20
11.472683319903304
 10
26.132151490733278
 20
11.472683319903304
 10
26.132151490733278
 20
10.88815471394037
 10
24.0
 20
10.88815471394037
  0
LWPOLYLINE
  5
A0
100
AcDbEntity
  8
0
 62
256
370
-1
 48
1.0
  6
BYLAYER
100
AcDbPolyline
 90
19
 70
129
 10
29.04174053182917
 20
12.258823529411764
 10
29.04174053182917
 20
10.88815471394037
 10
28.318452860596295
 20
10.88815471394037
 10
28.318452860596295
 20
11.111039484286866
 10
28.318452860596295
 20
11.937308622078969
 42
0.0247848332854366
 10
28.305398871877522
 20
12.338839645447216
 42
0.1038630378753483
 10
28.259951651893637
 20
12.501531023368251
 42
0.1375379517397097
 10
28.145608380338437
 20
12.611281224818693
 42
0.1263805524732766
 10
27.980499597099111
 20
12.650443190975018
 42
0.25194498399856
 10
27.627074939564871
 20
12.476631748589845
 42
0.1607868699696375
 10
27.498468976631749
 20
11.995326349717971
 10
27.498468976631749
 20
10.88815471394037
 10
26.77904915390814
 20
10.88815471394037
 10
26.77904915390814
 20
13.138759065269944
 10
27.498468976631749
 20
13.138759065269944
 10
27.498468976631749
 20
12.809024979854954
 42
-0.1030913173589995
 10
27.843916196615631
 20
13.099597099113616
 42
-0.1199948138755326
 10
28.247864625302178
 20
13.192908944399676
 42
-0.2296591057468865
 10
28.839645447219986
 20
12.953827558420627
 42
-0.1777771703473664
  0
LWPOLYLINE
  5
A1
100
AcDbEntity
  8
0
 62
256
370
-1
 48
1.0
  6
BYLAYER
100
AcDbPolyline
 90
21
 70
129
 10
31.239645447219985
 20
11.270104754230459
 42
-0.1127324724929662
 10
30.912087026591458
 20
10.980499597099111
 42
-0.1209967489770076
 10
30.497985495568088
 20
10.88815471394037
 42
-0.2347420051123806
 10
29.816760676873486
 20
11.212570507655116
 42
-0.1793405498423599
 10
29.547461724415797
 20
12.03980660757454
 42
-0.1800806131102563
 10
29.816760676873486
 20
12.866559226430297
 42
-0.2338533904953957
 10
30.497985495568088
 20
13.18904109589041
 42
-0.120996748977009
 10
30.912087026591458
 20
13.096696212731668
 42
-0.1138961412761866
 10
31.239645447219985
 20
12.805157131345688
 10
31.239645447219985
 20
13.138759065269944
 10
31.96293311845286
 20
13.138759065269944
 10
31.96293311845286
 20
11.11539081385979
 42
-0.2318526227356313
 10
31.620386784850929
 20
10.286220789685736
 42
-0.1761683456016694
 10
30.62659145850121
 20
10.0
 42
-0.0405068409548973
 10
30.218775181305396
 20
10.03215149073328
 42
-0.0400646434878723
 10
29.823045930701049
 20
10.130539887187751
 10
29.823045930701049
 20
10.691377921031425
 42
0.0594478539924725
 10
30.192667203867849
 20
10.52941176470588
 42
0.0718981953348652
 10
30.556486704270753
 20
10.476228847703464
 42
0.1898145981906256
 10
31.074778404512493
 20
10.630942788074133
 42
0.210026578448203
 10
31.239645447219985
 20
11.11539081385979
  0
LWPOLYLINE
  5
A2
100
AcDbEntity
  8
0
 62
256
370
-1
 48
1.0
  6
BYLAYER
100
AcDbPolyline
 90
8
 70
129
 10
30.765350523771154
 20
12.670749395648674
 42
0.2483763559468528
 10
30.417727639000809
 20
12.505882352941175
 42
0.1630903031298048
 10
30.292989524576953
 20
12.039806607574537
 42
0.1613568374392318
 10
30.413618049959709
 20
11.570346494762287
 42
0.247651760701188
 10
30.765350523771154
 20
11.410797743755037
 42
0.2483364479367743
 10
31.115149073327963
 20
11.575423045930702
 42
0.1631078792237347
 10
31.239645447219985
 20
12.039806607574537
 42
0.1628216857808582
 10
31.115149073327963
 20
12.505882352941175
 42
0.2485650503719941
  0
LWPOLYLINE
  5
A3
100
AcDbEntity
  8
0
 62
256
370
-1
 48
1.0
  6
BYLAYER
100
AcDbPolyline
 90
14
 70
129
 10
34.326188557614827
 20
12.525705076551169
 42
0.0550742085011626
 10
34.138356164383559
 20
12.591216760676872
 42
0.055505859497249
 10
33.950523771152298
 20
12.612248186946012
 42
0.2312351226365814
 10
33.523368251410155
 20
12.434327155519743
 42
0.1776799302117543
 10
33.3737308622079
 20
11.92522159548751
 10
33.3737308622079
 20
10.88815471394037
 10
32.654311039484284
 20
10.88815471394037
 10
32.654311039484284
 20
13.138759065269944
 10
33.3737308622079
 20
13.138759065269944
 10
33.3737308622079
 20
12.768896051571314
 42
-0.125287180187598
 10
33.692344883158739
 20
13.091377921031427
 42
-0.1304071855901145
 10
34.123126510878322
 20
13.192908944399676
 42
-0.0171476150823296
 10
34.201450443190978
 20
13.190008058017728
 42
-0.0129718099352998
 10
34.324254633360191
 20
13.176954069298951
  0
LWPOLYLINE
  5
A4
100
AcDbEntity
  8
0
 62
256
370
-1
 48
1.0
  6
BYLAYER
100
AcDbPolyline
 90
8
 70
129
 10
35.692022562449637
 20
11.901047542304596
 42
0.1451510853777971
 10
35.353585817888799
 20
11.824657534246576
 42
0.2659109527271772
 10
35.239967767929087
 20
11.599355358581789
 42
0.2309825932323668
 10
35.331345688960518
 20
11.3856567284448
 42
0.1796804069466397
 10
35.585656728444803
 20
11.308299758259469
 42
0.2143665064183676
 10
35.927236099919419
 20
11.453827558420627
 42
0.199604803831499
 10
36.06575342465753
 20
11.818372280419016
 10
36.06575342465753
 20
11.901047542304592
  0
LWPOLYLINE
  5
A5
100
AcDbEntity
  8
0
 62
256
370
-1
 48
1.0
  6
BYLAYER
100
AcDbPolyline
 90
20
 70
129
 10
36.791458501208702
 20
12.172280419016921
 10
36.791458501208702
 20
10.88815471394037
 10
36.06575342465753
 20
10.88815471394037
 10
36.06575342465753
 20
11.221756647864623
 42
-0.1210944946334621
 10
35.740370668815473
 20
10.923207091055598
 42
-0.1203064534254363
 10
35.300402900886382
 20
10.829653505237712
 42
-0.1964276427889955
 10
34.732796132151492
 20
11.033682514101532
 42
-0.2165494766864851
 10
34.514746172441576
 20
11.563577759871077
 42
-0.2627820749486207
 10
34.786946011281223
 20
12.143996776792907
 42
-0.1440836651755839
 10
35.641740531829171
 20
12.328928283642224
 10
36.06575342465753
 20
12.328928283642224
 10
36.06575342465753
 20
12.385012087026592
 42
0.2852728508450643
 10
35.931103948428685
 20
12.635455278001611
 42
0.1269008383232555
 10
35.51120064464142
 20
12.714746172441579
 42
0.0570932845889193
 10
35.081144238517325
 20
12.668573730862207
 42
0.0673514154823674
 10
34.711522965350525
 20
12.530056406124093
 10
34.711522965350525
 20
13.078323932312649
 42
-0.029083276611909
 10
35.175664786462534
 20
13.163900080580177
 42
-0.0310003554121947
 10
35.641740531829171
 20
13.192908944399676
 42
-0.1796044772764034
 10
36.521192586623691
 20
12.952860596293313
 42
-0.2169990663484303
  0
LWPOLYLINE
  5
A6
100
AcDbEntity
  8
0
 62
256
370
-1
 48
1.0
  6
BYLAYER
100
AcDbPolyline
 90
7
 70
129
 10
37.1767929089444
 20
13.138759065269944
 10
37.896212731668008
 20
13.138759065269944
 10
38.456567284448028
 20
11.583400483481064
 10
39.015471394037064
 20
13.138759065269944
 10
39.736825141015309
 20
13.138759065269944
 10
38.850604351329572
 20
10.88815471394037
 10
38.0610797743755
 20
10.88815471394037
  0
LWPOLYLINE
  5
A7
100
AcDbEntity
  8
0
 62
256
370
-1
 48
1.0
  6
BYLAYER
100
AcDbPolyline
 90
15
 70
129
 10
42.389202256244964
 20
12.019500402900885
 10
42.389202256244964
 20
11.81450443190975
 10
40.707171635777598
 20
11.81450443190975
 42
0.2057646661349028
 10
40.889927477840459
 20
11.434730056406124
 42
0.1726032109462243
 10
41.327961321514906
 20
11.308299758259469
 42
0.0691113965401845
 10
41.793311845286063
 20
11.375503626107978
 42
0.0560479244608263
 10
42.28235294117647
 20
11.579532634971798
 10
42.28235294117647
 20
11.024979854955681
 42
-0.0428546638464149
 10
41.772038678485089
 20
10.878968573730862
 42
-0.0478948782524563
 10
41.261724415793722
 20
10.829653505237712
 42
-0.1914102154877484
 10
40.312167606768739
 20
11.140290088638196
 42
-0.2179154268482881
 10
39.973730862207894
 20
12.011281224818696
 42
-0.2132643270721841
 10
40.306124093473002
 20
12.877437550362611
 42
-0.1970960050083361
 10
41.221595487510072
 20
13.192908944399676
 42
-0.2062977058834701
 10
42.070588235294117
 20
12.873569701853345
 42
-0.2055188954015413
  0
LWPOLYLINE
  5
A8
100
AcDbEntity
  8
0
 62
256
370
-1
 48
1.0
  6
BYLAYER
100
AcDbPolyline
 90
5
 70
129
 10
41.649476228847703
 20
12.258823529411764
 42
0.1990378483820844
 10
41.529814665592269
 20
12.589282836422239
 42
0.2135555669245721
 10
41.217244157937145
 20
12.714746172441579
 42
0.190676107933145
 10
40.877840451248993
 20
12.597260273972601
 42
0.1782448469664817
 10
40.71490733279613
 20
12.258823529411764
  0
LWPOLYLINE
  5
A9
100
AcDbEntity
  8
0
 62
256
370
-1
 48
1.0
  6
BYLAYER
100
AcDbPolyline
 90
4
 70
129
 10
44.366156325543919
 20
14.014826752618855
 10
45.085576148267528
 20
14.014826752618855
 10
45.085576148267528
 20
10.88815471394037
 10
44.366156325543919
 20
10.88815471394037
  0
LWPOLYLINE
  5
AA
100
AcDbEntity
  8
0
 62
256
370
-1
 48
1.0
  6
BYLAYER
100
AcDbPolyline
 90
8
 70
129
 10
46.785012087026594
 20
11.901047542304592
 42
0.1451510853778138
 10
46.446575342465756
 20
11.824657534246576
 42
0.265910952727158
 10
46.332957292506045
 20
11.599355358581789
 42
0.2309825932322925
 10
46.424335213537475
 20
11.3856567284448
 42
0.1796804069466204
 10
46.678646253021753
 20
11.308299758259469
 42
0.214366506418363
 10
47.020225624496376
 20
11.453827558420627
 42
0.1996048038315126
 10
47.158742949234494
 20
11.818372280419016
 10
47.158742949234494
 20
11.901047542304592
  0
LWPOLYLINE
  5
AB
100
AcDbEntity
  8
0
 62
256
370
-1
 48
1.0
  6
BYLAYER
100
AcDbPolyline
 90
20
 70
129
 10
47.884448025785659
 20
12.172280419016921
 10
47.884448025785659
 20
10.88815471394037
 10
47.158742949234494
 20
10.88815471394037
 10
47.158742949234494
 20
11.221756647864623
 42
-0.1210944946334413
 10
46.833360193392423
 20
10.923207091055598
 42
-0.1203064534254397
 10
46.39339242546334
 20
10.829653505237712
 42
-0.1964276427889888
 10
45.825785656728442
 20
11.033682514101532
 42
-0.2165494766864935
 10
45.607735697018533
 20
11.563577759871073
 42
-0.2627820749486432
 10
45.879935535858181
 20
12.143996776792907
 42
-0.1440836651755851
 10
46.734730056406121
 20
12.328928283642224
 10
47.158742949234494
 20
12.328928283642224
 10
47.158742949234494
 20
12.385012087026592
 42
0.2852728508450768
 10
47.024093473005642
 20
12.635455278001611
 42
0.1269008383232535
 10
46.60419016921837
 20
12.714746172441579
 42
0.0570932845889133
 10
46.174133763094275
 20
12.668573730862207
 42
0.0673514154823671
 10
45.804512489927475
 20
12.530056406124093
 10
45.804512489927475
 20
13.078323932312649
 42
-0.029083276611909
 10
46.268654311039484
 20
13.163900080580177
 42
-0.0310003554121923
 10
46.734730056406121
 20
13.192908944399676
 42
-0.1796044772763983
 10
47.614182111200648
 20
12.952860596293313
 42
-0.2169990663484173
  0
LWPOLYLINE
  5
AC
100
AcDbEntity
  8
0
 62
256
370
-1
 48
1.0
  6
BYLAYER
100
AcDbPolyline
 90
14
 70
129
 10
50.224979854955684
 20
12.525705076551166
 42
0.0550742085011664
 10
50.037147461724416
 20
12.591216760676872
 42
0.0555058594972597
 10
49.849315068493155
 20
12.612248186946012
 42
0.2312351226365814
 10
49.422159548751011
 20
12.434327155519743
 42
0.1776799302117246
 10
49.272522159548757
 20
11.92522159548751
 10
49.272522159548757
 20
10.88815471394037
 10
48.553102336825148
 20
10.88815471394037
 10
48.553102336825148
 20
13.138759065269944
 10
49.272522159548757
 20
13.138759065269944
 10
49.272522159548757
 20
12.768896051571314
 42
-0.1252871801875912
 10
49.591136180499603
 20
13.091377921031427
 42
-0.1304071855901315
 10
50.021917808219186
 20
13.192908944399676
 42
-0.0171476150823357
 10
50.100241740531828
 20
13.190008058017728
 42
-0.0129718099353075
 10
50.223045930701048
 20
13.176954069298951
  0
LWPOLYLINE
  5
AD
100
AcDbEntity
  8
0
 62
256
370
-1
 48
1.0
  6
BYLAYER
100
AcDbPolyline
 90
21
 70
129
 10
52.113456889605168
 20
11.270104754230456
 42
-0.1127324724929361
 10
51.78589846897664
 20
10.980499597099111
 42
-0.1209967489770027
 10
51.371796937953263
 20
10.88815471394037
 42
-0.2347420051123815
 10
50.690572119258661
 20
11.212570507655116
 42
-0.1793405498423608
 10
50.421273166800972
 20
12.03980660757454
 42
-0.1800806131102572
 10
50.690572119258661
 20
12.866559226430297
 42
-0.2338533904953905
 10
51.371796937953263
 20
13.18904109589041
 42
-0.1209967489770057
 10
51.78589846897664
 20
13.096696212731668
 42
-0.1138961412761582
 10
52.11345688960516
 20
12.805157131345688
 10
52.11345688960516
 20
13.138759065269944
 10
52.836744560838028
 20
13.138759065269944
 10
52.836744560838028
 20
11.11539081385979
 42
-0.2318526227356313
 10
52.494198227236105
 20
10.286220789685736
 42
-0.1761683456016721
 10
51.500402900886385
 20
10.0
 42
-0.0405068409548975
 10
51.092586623690572
 20
10.03215149073328
 42
-0.0400646434878705
 10
50.696857373086218
 20
10.130539887187751
 10
50.696857373086218
 20
10.691377921031425
 42
0.0594478539924707
 10
51.066478646253032
 20
10.52941176470588
 42
0.0718981953348649
 10
51.430298146655929
 20
10.476228847703464
 42
0.1898145981906373
 10
51.948589846897661
 20
10.630942788074133
 42
0.2100265784481945
 10
52.11345688960516
 20
11.11539081385979
  0
LWPOLYLINE
  5
AE
100
AcDbEntity
  8
0
 62
256
370
-1
 48
1.0
  6
BYLAYER
100
AcDbPolyline
 90
8
 70
129
 10
51.639161966156323
 20
12.67074939564867
 42
0.2483763559468604
 10
51.291539081385977
 20
12.505882352941175
 42
0.163090303129781
 10
51.166800966962128
 20
12.039806607574537
 42
0.161356837439233
 10
51.287429492344884
 20
11.570346494762287
 42
0.2476517607011775
 10
51.639161966156323
 20
11.410797743755037
 42
0.248336447936779
 10
51.988960515713138
 20
11.575423045930702
 42
0.1631078792237299
 10
52.11345688960516
 20
12.039806607574537
 42
0.1628216857808548
 10
51.988960515713138
 20
12.505882352941175
 42
0.2485650503719967
  0
LWPOLYLINE
  5
AF
100
AcDbEntity
  8
0
 62
256
370
-1
 48
1.0
  6
BYLAYER
100
AcDbPolyline
 90
15
 70
129
 10
55.774858984689772
 20
12.019500402900885
 10
55.774858984689772
 20
11.81450443190975
 10
54.092828364222399
 20
11.81450443190975
 42
0.2057646661349014
 10
54.275584206285259
 20
11.434730056406124
 42
0.1726032109462213
 10
54.713618049959713
 20
11.308299758259469
 42
0.0691113965401867
 10
55.17896857373087
 20
11.375503626107978
 42
0.0560479244608334
 10
55.66800966962127
 20
11.579532634971798
 10
55.66800966962127
 20
11.024979854955681
 42
-0.0428546638464171
 10
55.157695406929896
 20
10.878968573730862
 42
-0.0478948782524554
 10
54.647381144238523
 20
10.829653505237712
 42
-0.1914102154877473
 10
53.697824335213539
 20
11.140290088638196
 42
-0.2179154268482814
 10
53.359387590652702
 20
12.011281224818696
 42
-0.2132643270721987
 10
53.69178082191781
 20
12.877437550362611
 42
-0.1970960050083367
 10
54.607252215954873
 20
13.192908944399676
 42
-0.2062977058834681
 10
55.456244963738925
 20
12.873569701853345
 42
-0.2055188954015374
  0
LWPOLYLINE
  5
B0
100
AcDbEntity
  8
0
 62
256
370
-1
 48
1.0
  6
BYLAYER
100
AcDbPolyline
 90
5
 70
129
 10
55.035132957292504
 20
12.258823529411764
 42
0.1990378483820781
 10
54.91547139403707
 20
12.589282836422239
 42
0.2135555669245785
 10
54.602900886381946
 20
12.714746172441579
 42
0.1906761079331474
 10
54.2634971796938
 20
12.597260273972601
 42
0.1782448469664717
 10
54.100564061240931
 20
12.258823529411764
  0
LWPOLYLINE
  5
B1
100
AcDbEntity
  8
0
 62
256
370
-1
 48
1.0
  6
BYLAYER
100
AcDbPolyline
 90
14
 70
129
 10
57.991136180499595
 20
12.525705076551166
 42
0.0550742085011624
 10
57.803303787268327
 20
12.591216760676872
 42
0.0555058594972555
 10
57.615471394037066
 20
12.612248186946012
 42
0.2312351226365734
 10
57.188315874294922
 20
12.434327155519743
 42
0.1776799302117514
 10
57.038678485092667
 20
11.925221595487507
 10
57.038678485092667
 20
10.88815471394037
 10
56.319258662369052
 20
10.88815471394037
 10
56.319258662369052
 20
13.138759065269944
 10
57.038678485092667
 20
13.138759065269944
 10
57.038678485092667
 20
12.768896051571314
 42
-0.1252871801875885
 10
57.357292506043514
 20
13.091377921031427
 42
-0.1304071855901257
 10
57.788074133763097
 20
13.192908944399676
 42
-0.0171476150823343
 10
57.866398066075746
 20
13.190008058017728
 42
-0.0129718099353026
 10
57.989202256244965
 20
13.176954069298951
  0
LWPOLYLINE
  5
B2
100
AcDbEntity
  8
0
 62
256
370
-1
 48
1.0
  6
BYLAYER
100
AcDbPolyline
 90
18
 70
129
 10
61.599355358581789
 20
13.068654311039484
 10
61.599355358581789
 20
12.48170829975826
 42
0.0719287294775028
 10
61.30515713134568
 20
12.6303787268332
 42
0.0793655715632827
 10
60.998871877518127
 20
12.678485092667202
 42
0.2118256662430088
 10
60.529411764705884
 20
12.502739726027396
 42
0.1974864220820216
 10
60.361643835616434
 20
12.011281224818696
 42
0.1973390529581001
 10
60.529411764705884
 20
11.520064464141822
 42
0.2120402740829409
 10
60.998871877518127
 20
11.344077356970185
 42
0.0807235888708232
 10
61.319178082191783
 20
11.394359387590651
 42
0.08426247422664
 10
61.599355358581789
 20
11.543271555197421
 10
61.599355358581789
 20
10.954391619661564
 42
-0.0442433789948146
 10
61.256809024979844
 20
10.860838033843674
 42
-0.0444975518998461
 10
60.908460918614026
 20
10.829653505237712
 42
-0.190501256273066
 10
59.955761482675257
 20
11.142224012892829
 42
-0.2195104813311766
 10
59.612248186946005
 20
12.011281224818696
 42
-0.2196038618349711
 10
59.955761482675257
 20
12.880580177276389
 42
-0.1903850582461772
 10
60.908460918614026
 20
13.192908944399676
 42
-0.0449905062155352
 10
61.256809024979844
 20
13.161724415793714
 42
-0.0421826187006543
  0
LWPOLYLINE
  5
B3
100
AcDbEntity
  8
0
 62
256
370
-1
 48
1.0
  6
BYLAYER
100
AcDbPolyline
 90
4
 70
129
 10
62.220145044319096
 20
13.138759065269944
 10
62.939564867042705
 20
13.138759065269944
 10
62.939564867042705
 20
10.88815471394037
 10
62.220145044319096
 20
10.88815471394037
  0
LWPOLYLINE
  5
B4
100
AcDbEntity
  8
0
 62
256
370
-1
 48
1.0
  6
BYLAYER
100
AcDbPolyline
 90
4
 70
129
 10
62.220145044319096
 20
14.014826752618855
 10
62.939564867042705
 20
14.014826752618855
 10
62.939564867042705
 20
13.428364222401289
 10
62.220145044319096
 20
13.428364222401289
  0
LWPOLYLINE
  5
B5
100
AcDbEntity
  8
0
 62
256
370
-1
 48
1.0
  6
BYLAYER
100
AcDbPolyline
 90
14
 70
129
 10
65.302336825141012
 20
12.525705076551166
 42
0.0550742085011498
 10
65.114504431909751
 20
12.591216760676872
 42
0.0555058594972599
 10
64.92667203867849
 20
12.612248186946012
 42
0.2312351226365592
 10
64.499516518936332
 20
12.434327155519743
 42
0.1776799302116969
 10
64.349879129734092
 20
11.92522159548751
 10
64.349879129734092
 20
10.88815471394037
 10
63.630459307010483
 20
10.88815471394037
 10
63.630459307010483
 20
13.138759065269944
 10
64.349879129734092
 20
13.138759065269944
 10
64.349879129734092
 20
12.768896051571314
 42
-0.1252871801876072
 10
64.668493150684924
 20
13.091377921031427
 42
-0.130407185590114
 10
65.099274778404521
 20
13.192908944399676
 42
-0.0171476150823232
 10
65.177598710717163
 20
13.190008058017728
 42
-0.0129718099353026
 10
65.300402900886382
 20
13.176954069298951
  0
LWPOLYLINE
  5
B6
100
AcDbEntity
  8
0
 62
256
370
-1
 48
1.0
  6
BYLAYER
100
AcDbPolyline
 90
18
 70
129
 10
67.478001611603545
 20
13.068654311039484
 10
67.478001611603545
 20
12.48170829975826
 42
0.0719287294774903
 10
67.183803384367451
 20
12.6303787268332
 42
0.0793655715632937
 10
66.877518130539883
 20
12.678485092667202
 42
0.2118256662430424
 10
66.40805801772764
 20
12.502739726027396
 42
0.1974864220820216
 10
66.24029008863819
 20
12.011281224818696
 42
0.1973390529581008
 10
66.40805801772764
 20
11.520064464141822
 42
0.2120402740829739
 10
66.877518130539883
 20
11.344077356970185
 42
0.0807235888708297
 10
67.197824335213539
 20
11.394359387590651
 42
0.0842624742266552
 10
67.478001611603545
 20
11.543271555197421
 10
67.478001611603545
 20
10.954391619661564
 42
-0.0442433789948082
 10
67.135455278001615
 20
10.860838033843674
 42
-0.0444975518998426
 10
66.787107171635768
 20
10.829653505237712
 42
-0.190501256273081
 10
65.834407735697027
 20
11.142224012892829
 42
-0.2195104813311766
 10
65.490894439967775
 20
12.011281224818696
 42
-0.219603861834974
 10
65.834407735697027
 20
12.880580177276389
 42
-0.1903850582461936
 10
66.787107171635768
 20
13.192908944399676
 42
-0.0449905062155185
 10
67.135455278001615
 20
13.161724415793714
 42
-0.0421826187006705
  0
LWPOLYLINE
  5
B7
100
AcDbEntity
  8
0
 62
256
370
-1
 48
1.0
  6
BYLAYER
100
AcDbPolyline
 90
4
 70
129
 10
68.098791297340853
 20
14.014826752618855
 10
68.818211120064461
 20
14.014826752618855
 10
68.818211120064461
 20
10.88815471394037
 10
68.098791297340853
 20
10.88815471394037
  0
LWPOLYLINE
  5
B8
100
AcDbEntity
  8
0
 62
256
370
-1
 48
1.0
  6
BYLAYER
100
AcDbPolyline
 90
15
 70
129
 10
71.755842062852537
 20
12.019500402900885
 10
71.755842062852537
 20
11.81450443190975
 10
70.073811442385164
 20
11.81450443190975
 42
0.2057646661349643
 10
70.256567284448025
 20
11.434730056406124
 42
0.1726032109461923
 10
70.694601128122486
 20
11.308299758259469
 42
0.0691113965401816
 10
71.159951651893635
 20
11.375503626107978
 42
0.0560479244608292
 10
71.648992747784035
 20
11.579532634971798
 10
71.648992747784035
 20
11.024979854955681
 42
-0.0428546638464082
 10
71.138678485092669
 20
10.878968573730862
 42
-0.0478948782524501
 10
70.628364222401288
 20
10.829653505237712
 42
-0.1914102154877436
 10
69.678807413376319
 20
11.140290088638196
 42
-0.2179154268483014
 10
69.340370668815467
 20
12.011281224818696
 42
-0.2132643270722065
 10
69.672763900080582
 20
12.877437550362611
 42
-0.1970960050083346
 10
70.588235294117652
 20
13.192908944399676
 42
-0.2062977058834626
 10
71.43722804190169
 20
12.873569701853345
 42
-0.2055188954015531
  0
LWPOLYLINE
  5
B9
100
AcDbEntity
  8
0
 62
256
370
-1
 48
1.0
  6
BYLAYER
100
AcDbPolyline
 90
5
 70
129
 10
71.016116035455269
 20
12.258823529411764
 42
0.1990378483821176
 10
70.896454472199849
 20
12.589282836422239
 42
0.2135555669245689
 10
70.583883964544725
 20
12.714746172441579
 42
0.1906761079331576
 10
70.244480257856566
 20
12.597260273972601
 42
0.1782448469665063
 10
70.08154713940371
 20
12.258823529411764
  0
LWPOLYLINE
  5
BA
100
AcDbEntity
  8
0
 62
256
370
-1
 48
1.0
  6
BYLAYER
100
AcDbPolyline
 90
8
 70
129
 10
74.930378726833197
 20
11.352296535052368
 42
0.2553550601534051
 10
75.283078162771957
 20
11.521031426269136
 42
0.1553404256416276
 10
75.404673650282021
 20
12.011281224818696
 42
0.1551865646931646
 10
75.283078162771957
 20
12.501772763900078
 42
0.2555798560058803
 10
74.930378726833197
 20
12.67074939564867
 42
0.2541797758809611
 10
74.575745366639808
 20
12.500805801772763
 42
0.1568605189444197
 10
74.452215954875101
 20
12.011281224818696
 42
0.1569005089722861
 10
74.575745366639808
 20
11.522240128928281
 42
0.254179775880969
  0
LWPOLYLINE
  5
BB
100
AcDbEntity
  8
0
 62
256
370
-1
 48
1.0
  6
BYLAYER
100
AcDbPolyline
 90
13
 70
129
 10
74.452215954875101
 20
12.809024979854954
 42
-0.1135843200852712
 10
74.781708299758265
 20
13.099597099113616
 42
-0.1207775821665137
 10
75.197743755036271
 20
13.192908944399676
 42
-0.2385946677863434
 10
75.880902497985488
 20
12.862449637389201
 42
-0.1754545092340034
 10
76.148267526188562
 20
12.011281224818696
 42
-0.1753747862226731
 10
75.880902497985488
 20
11.160354552780017
 42
-0.2387033830843209
 10
75.197743755036271
 20
10.829653505237712
 42
-0.1210591816799141
 10
74.781708299758265
 20
10.923207091055598
 42
-0.1130190467333422
 10
74.452215954875101
 20
11.213537469782434
 10
74.452215954875101
 20
10.88815471394037
 10
73.732796132151492
 20
10.88815471394037
 10
73.732796132151492
 20
14.014826752618855
 10
74.452215954875101
 20
14.014826752618855
  0
LWPOLYLINE
  5
BC
100
AcDbEntity
  8
0
 62
256
370
-1
 48
1.0
  6
BYLAYER
100
AcDbPolyline
 90
15
 70
129
 10
78.925382755842065
 20
12.019500402900885
 10
78.925382755842065
 20
11.81450443190975
 10
77.243352135374693
 20
11.81450443190975
 42
0.2057646661349689
 10
77.426107977437553
 20
11.434730056406124
 42
0.1726032109462092
 10
77.864141821112014
 20
11.308299758259469
 42
0.0691113965401918
 10
78.32949234488315
 20
11.375503626107978
 42
0.0560479244608385
 10
78.818533440773564
 20
11.579532634971798
 10
78.818533440773564
 20
11.024979854955681
 42
-0.0428546638464084
 10
78.308219178082197
 20
10.878968573730862
 42
-0.047894878252455
 10
77.797904915390802
 20
10.829653505237712
 42
-0.1914102154877438
 10
76.848348106365833
 20
11.140290088638196
 42
-0.2179154268482769
 10
76.509911361804996
 20
12.011281224818696
 42
-0.2132643270722071
 10
76.842304593070111
 20
12.877437550362611
 42
-0.1970960050083324
 10
77.757775987107166
 20
13.192908944399676
 42
-0.2062977058834604
 10
78.606768734891219
 20
12.873569701853345
 42
-0.2055188954015214
  0
LWPOLYLINE
  5
BD
100
AcDbEntity
  8
0
 62
256
370
-1
 48
1.0
  6
BYLAYER
100
AcDbPolyline
 90
5
 70
129
 10
78.185656728444798
 20
12.258823529411764
 42
0.1990378483820871
 10
78.065995165189364
 20
12.589282836422239
 42
0.2135555669246017
 10
77.753424657534239
 20
12.714746172441579
 42
0.1906761079331478
 10
77.414020950846094
 20
12.597260273972601
 42
0.1782448469665024
 10
77.251087832393239
 20
12.258823529411764
  0
LWPOLYLINE
  5
BE
100
AcDbEntity
  8
0
 62
256
370
-1
 48
1.0
  6
BYLAYER
100
AcDbPolyline
 90
18
 70
129
 10
80.950684931506856
 20
14.014826752618855
 10
80.950684931506856
 20
13.542465753424658
 10
80.552780016116031
 20
13.542465753424658
 42
0.179158636355386
 10
80.339806607574531
 20
13.487348912167604
 42
0.2079638973060442
 10
80.27961321514907
 20
13.295406929895243
 10
80.27961321514907
 20
13.138759065269944
 10
80.894601128122474
 20
13.138759065269944
 10
80.894601128122474
 20
12.624335213537471
 10
80.27961321514907
 20
12.624335213537471
 10
80.27961321514907
 20
10.88815471394037
 10
79.560193392425461
 20
10.88815471394037
 10
79.560193392425461
 20
12.624335213537471
 10
79.202417405318286
 20
12.624335213537471
 10
79.202417405318286
 20
13.138759065269944
 10
79.560193392425461
 20
13.138759065269944
 10
79.560193392425461
 20
13.295406929895243
 42
-0.2252439893085789
 10
79.765189363416596
 20
13.83908138597905
 42
-0.1769534742336135
 10
80.400000000000006
 20
14.014826752618855
  0
LWPOLYLINE
  5
BF
100
AcDbEntity
  8
0
 62
256
370
-1
 48
1.0
  6
BYLAYER
100
AcDbPolyline
 90
8
 70
129
 10
82.331023368251408
 20
12.678485092667216
 42
0.2528106725506369
 10
81.966478646253023
 20
12.506849315068493
 42
0.1577890542292087
 10
81.840773569701852
 20
12.011281224818696
 42
0.1576749368723837
 10
81.966478646253023
 20
11.515954875100725
 42
0.253032564193972
 10
82.331023368251408
 20
11.344077356970185
 42
0.2543509340062201
 10
82.690733279613227
 20
11.515954875100725
 42
0.1566279833247365
 10
82.815471394037061
 20
12.011281224818696
 42
0.1567413386403119
 10
82.690733279613227
 20
12.506849315068493
 42
0.2541302457084554
  0
LWPOLYLINE
  5
C0
100
AcDbEntity
  8
0
 62
256
370
-1
 48
1.0
  6
BYLAYER
100
AcDbPolyline
 90
8
 70
129
 10
82.331023368251408
 20
13.192908944399669
 42
-0.1985700988402728
 10
83.238275584206292
 20
12.879371474617244
 42
-0.2112549155218546
 10
83.564867042707505
 20
12.011281224818696
 42
-0.2112549155218557
 10
83.238275584206292
 20
11.143190975020143
 42
-0.1985700988402787
 10
82.331023368251408
 20
10.829653505237712
 42
-0.1977221508060076
 10
81.419903303787265
 20
11.143190975020143
 42
-0.2121732306438484
 10
81.091377921031423
 20
12.011281224818696
 42
-0.2121732306438494
 10
81.419903303787265
 20
12.879371474617244
 42
-0.1977221508060182
  0
LWPOLYLINE
  5
C1
100
AcDbEntity
  8
0
 62
256
370
-1
 48
1.0
  6
BYLAYER
100
AcDbPolyline
 90
14
 70
129
 10
85.758904109589039
 20
12.525705076551166
 42
0.0550742085011413
 10
85.571071716357778
 20
12.591216760676872
 42
0.0555058594972601
 10
85.383239323126503
 20
12.612248186946012
 42
0.2312351226365544
 10
84.956083803384359
 20
12.434327155519743
 42
0.17767993021169
 10
84.806446414182119
 20
11.92522159548751
 10
84.806446414182119
 20
10.88815471394037
 10
84.087026591458496
 20
10.88815471394037
 10
84.087026591458496
 20
13.138759065269944
 10
84.806446414182119
 20
13.138759065269944
 10
84.806446414182119
 20
12.768896051571314
 42
-0.1252871801876043
 10
85.125060435132951
 20
13.091377921031427
 42
-0.1304071855901113
 10
85.555842062852534
 20
13.192908944399676
 42
-0.0171476150823325
 10
85.634165995165191
 20
13.190008058017728
 42
-0.0129718099352996
 10
85.75697018533441
 20
13.176954069298951
  0
LWPOLYLINE
  5
C2
100
AcDbEntity
  8
0
 62
256
370
-1
 48
1.0
  6
BYLAYER
100
AcDbPolyline
 90
15
 70
129
 10
88.362933118452872
 20
12.019500402900885
 10
88.362933118452872
 20
11.81450443190975
 10
86.6809024979855
 20
11.81450443190975
 42
0.2057646661349405
 10
86.863658340048346
 20
11.434730056406124
 42
0.1726032109462197
 10
87.301692183722807
 20
11.308299758259469
 42
0.0691113965401939
 10
87.767042707493957
 20
11.375503626107978
 42
0.0560479244608385
 10
88.256083803384371
 20
11.579532634971798
 10
88.256083803384371
 20
11.024979854955681
 42
-0.0428546638464158
 10
87.74576954069299
 20
10.878968573730862
 42
-0.0478948782524567
 10
87.235455278001609
 20
10.829653505237712
 42
-0.1914102154877466
 10
86.285898468976626
 20
11.140290088638196
 42
-0.2179154268482754
 10
85.947461724415788
 20
12.011281224818699
 42
-0.2132643270721729
 10
86.279854955680904
 20
12.877437550362611
 42
-0.1970960050083324
 10
87.195326349717973
 20
13.192908944399676
 42
-0.2062977058834743
 10
88.044319097502012
 20
12.873569701853345
 42
-0.2055188954015337
  0
LWPOLYLINE
  5
C3
100
AcDbEntity
  8
0
 62
256
370
-1
 48
1.0
  6
BYLAYER
100
AcDbPolyline
 90
5
 70
129
 10
87.623207091055605
 20
12.258823529411764
 42
0.199037848382124
 10
87.503545527800156
 20
12.589282836422239
 42
0.2135555669245705
 10
87.190975020145046
 20
12.714746172441579
 42
0.190676107933146
 10
86.851571313456901
 20
12.597260273972601
 42
0.178244846966432
 10
86.688638195004017
 20
12.258823529411764
  0
LWPOLYLINE
  5
C4
100
AcDbEntity
  8
0
 62
256
370
-1
 48
1.0
  6
BYLAYER
100
AcDbPolyline
 90
18
 70
129
 10
92.158259468170826
 20
13.068654311039484
 10
92.158259468170826
 20
12.48170829975826
 42
0.0719287294774626
 10
91.864061240934731
 20
12.6303787268332
 42
0.079365571563266
 10
91.557775987107178
 20
12.678485092667202
 42
0.2118256662430176
 10
91.088315874294921
 20
12.502739726027396
 42
0.1974864220820368
 10
90.920547945205485
 20
12.011281224818696
 42
0.1973390529581291
 10
91.088315874294921
 20
11.520064464141822
 42
0.2120402740829429
 10
91.557775987107178
 20
11.344077356970185
 42
0.0807235888708339
 10
91.87808219178082
 20
11.394359387590651
 42
0.0842624742266601
 10
92.158259468170826
 20
11.543271555197421
 10
92.158259468170826
 20
10.954391619661564
 42
-0.0442433789948082
 10
91.815713134568895
 20
10.860838033843674
 42
-0.0444975518998515
 10
91.467365028203062
 20
10.829653505237712
 42
-0.190501256273066
 10
90.514665592264294
 20
11.142224012892829
 42
-0.2195104813311474
 10
90.171152296535041
 20
12.011281224818696
 42
-0.2196038618349368
 10
90.514665592264294
 20
12.880580177276389
 42
-0.190385058246176
 10
91.467365028203062
 20
13.192908944399676
 42
-0.0449905062155271
 10
91.815713134568895
 20
13.161724415793714
 42
-0.0421826187006688
  0
LWPOLYLINE
  5
C5
100
AcDbEntity
  8
0
 62
256
370
-1
 48
1.0
  6
BYLAYER
100
AcDbPolyline
 90
20
 70
129
 10
92.754875100725229
 20
11.764222401289281
 10
92.754875100725229
 20
13.138759065269944
 10
93.478162771958097
 20
13.138759065269944
 10
93.478162771958097
 20
12.913940370668815
 42
-0.0016953687267244
 10
93.476228847703453
 20
12.454391619661934
 42
0.0014012582688634
 10
93.474294923448838
 20
12.085737308621621
 42
0.0258175615342271
 10
93.488315874294926
 20
11.694842868654309
 42
0.1055436883545426
 10
93.536663980660762
 20
11.521031426269136
 42
0.1326289315703261
 10
93.651974214343269
 20
11.41273166800967
 42
0.1250020919892015
 10
93.816116035455281
 20
11.37453666398066
 42
0.2510926372715019
 10
94.169540692989528
 20
11.547381144238518
 42
0.1614232261198541
 10
94.29814665592265
 20
12.027719580983078
 10
94.29814665592265
 20
13.138759065269944
 10
95.017566478646259
 20
13.138759065269944
 10
95.017566478646259
 20
10.88815471394037
 10
94.29814665592265
 20
10.88815471394037
 10
94.29814665592265
 20
11.213537469782434
 42
-0.1014001120056994
 10
93.953424657534242
 20
10.923207091055598
 42
-0.1209965211844139
 10
93.552618855761494
 20
10.829653505237712
 42
-0.2284982578231494
 10
92.958904109589042
 20
11.06897663174859
 42
-0.1790545242477793
  0
LWPOLYLINE
  5
C6
100
AcDbEntity
  8
0
 62
256
370
-1
 48
1.0
  6
BYLAYER
100
AcDbPolyline
 90
18
 70
129
 10
96.494117647058829
 20
13.777921031426267
 10
96.494117647058829
 20
13.138759065269944
 10
97.235777598710712
 20
13.138759065269944
 10
97.235777598710712
 20
12.624335213537471
 10
96.494117647058829
 20
12.624335213537471
 10
96.494117647058829
 20
11.669943593875907
 42
0.2064810433625101
 10
96.556486704270753
 20
11.457937147461724
 42
0.1667858399497681
 10
96.803545527800168
 20
11.402578565672844
 10
97.173408541498787
 20
11.402578565672844
 10
97.173408541498787
 20
10.88815471394037
 10
96.556486704270753
 20
10.88815471394037
 42
-0.1954084677493242
 10
95.952618855761472
 20
11.066075745366639
 42
-0.1954084677493122
 10
95.77469782433522
 20
11.669943593875907
 10
95.77469782433522
 20
12.624335213537471
 10
95.416921837228045
 20
12.624335213537471
 10
95.416921837228045
 20
13.138759065269944
 10
95.77469782433522
 20
13.138759065269944
 10
95.77469782433522
 20
13.777921031426267
  0
LWPOLYLINE
  5
C7
100
AcDbEntity
  8
0
 62
256
370
-1
 48
1.0
  6
BYLAYER
100
AcDbPolyline
 90
18
 70
129
 10
98.460918614020954
 20
13.777921031426267
 10
98.460918614020954
 20
13.138759065269944
 10
99.202578565672837
 20
13.138759065269944
 10
99.202578565672837
 20
12.624335213537471
 10
98.460918614020954
 20
12.624335213537471
 10
98.460918614020954
 20
11.669943593875907
 42
0.2064810433623891
 10
98.523287671232879
 20
11.457937147461724
 42
0.1667858399497477
 10
98.770346494762293
 20
11.402578565672844
 10
99.140209508460913
 20
11.402578565672844
 10
99.140209508460913
 20
10.88815471394037
 10
98.523287671232879
 20
10.88815471394037
 42
-0.1954084677493299
 10
97.919419822723611
 20
11.066075745366639
 42
-0.1954084677493453
 10
97.741498791297346
 20
11.669943593875907
 10
97.741498791297346
 20
12.624335213537471
 10
97.383722804190171
 20
12.624335213537471
 10
97.383722804190171
 20
13.138759065269944
 10
97.741498791297346
 20
13.138759065269944
 10
97.741498791297346
 20
13.777921031426267
  0
LWPOLYLINE
  5
C8
100
AcDbEntity
  8
0
 62
256
370
-1
 48
1.0
  6
BYLAYER
100
AcDbPolyline
 90
4
 70
129
 10
99.642062852538274
 20
13.138759065269944
 10
100.36148267526188
 20
13.138759065269944
 10
100.36148267526188
 20
10.88815471394037
 10
99.642062852538274
 20
10.88815471394037
  0
LWPOLYLINE
  5
C9
100
AcDbEntity
  8
0
 62
256
370
-1
 48
1.0
  6
BYLAYER
100
AcDbPolyline
 90
4
 70
129
 10
99.642062852538274
 20
14.014826752618855
 10
100.36148267526188
 20
14.014826752618855
 10
100.36148267526188
 20
13.428364222401289
 10
99.642062852538274
 20
13.428364222401289
  0
LWPOLYLINE
  5
CA
100
AcDbEntity
  8
0
 62
256
370
-1
 48
1.0
  6
BYLAYER
100
AcDbPolyline
 90
19
 70
129
 10
103.31506849315068
 20
12.258823529411764
 10
103.31506849315068
 20
10.88815471394037
 10
102.59178082191781
 20
10.88815471394037
 10
102.59178082191781
 20
11.111039484286866
 10
102.59178082191781
 20
11.937308622078969
 42
0.0247848332854228
 10
102.57872683319903
 20
12.338839645447223
 42
0.103863037875264
 10
102.53327961321516
 20
12.501531023368251
 42
0.1375379517396202
 10
102.41893634165996
 20
12.611281224818693
 42
0.1263805524732743
 10
102.25382755842062
 20
12.650443190975018
 42
0.2519449839985222
 10
101.90040290088638
 20
12.476631748589845
 42
0.1607868699696154
 10
101.77179693795325
 20
11.995326349717971
 10
101.77179693795325
 20
10.88815471394037
 10
101.05237711522965
 20
10.88815471394037
 10
101.05237711522965
 20
13.138759065269944
 10
101.77179693795325
 20
13.138759065269944
 10
101.77179693795325
 20
12.809024979854954
 42
-0.1030913173589987
 10
102.11724415793715
 20
13.099597099113616
 42
-0.1199948138755434
 10
102.5211925866237
 20
13.192908944399676
 42
-0.2296591057468861
 10
103.11297340854151
 20
12.953827558420627
 42
-0.1777771703473282
  0
LWPOLYLINE
  5
CB
100
AcDbEntity
  8
0
 62
256
370
-1
 48
1.0
  6
BYLAYER
100
AcDbPolyline
 90
21
 70
129
 10
105.51297340854151
 20
11.270104754230452
 42
-0.1127324724929676
 10
105.18541498791298
 20
10.980499597099111
 42
-0.1209967489770259
 10
104.7713134568896
 20
10.88815471394037
 42
-0.2347420051123639
 10
104.090088638195
 20
11.212570507655116
 42
-0.179340549842359
 10
103.82078968573731
 20
12.03980660757454
 42
-0.1800806131102498
 10
104.090088638195
 20
12.866559226430297
 42
-0.2338533904953748
 10
104.7713134568896
 20
13.18904109589041
 42
-0.1209967489770392
 10
105.18541498791298
 20
13.096696212731668
 42
-0.1138961412761805
 10
105.5129734085415
 20
12.805157131345688
 10
105.5129734085415
 20
13.138759065269944
 10
106.23626107977438
 20
13.138759065269944
 10
106.23626107977438
 20
11.11539081385979
 42
-0.2318526227356357
 10
105.89371474617244
 20
10.286220789685736
 42
-0.1761683456016838
 10
104.89991941982272
 20
10.0
 42
-0.0405068409549044
 10
104.49210314262692
 20
10.03215149073328
 42
-0.040064643487887
 10
104.09637389202257
 20
10.130539887187751
 10
104.09637389202257
 20
10.691377921031425
 42
0.0594478539924859
 10
104.46599516518937
 20
10.52941176470588
 42
0.0718981953348578
 10
104.82981466559227
 20
10.476228847703464
 42
0.1898145981906316
 10
105.34810636583401
 20
10.630942788074133
 42
0.210026578448169
 10
105.5129734085415
 20
11.11539081385979
  0
LWPOLYLINE
  5
CC
100
AcDbEntity
  8
0
 62
256
370
-1
 48
1.0
  6
BYLAYER
100
AcDbPolyline
 90
8
 70
129
 10
105.03867848509267
 20
12.670749395648656
 42
0.2483763559468526
 10
104.69105560032233
 20
12.505882352941175
 42
0.1630903031298141
 10
104.56631748589847
 20
12.039806607574537
 42
0.1613568374392318
 10
104.68694601128122
 20
11.570346494762287
 42
0.2476517607011655
 10
105.03867848509267
 20
11.410797743755037
 42
0.2483364479368167
 10
105.38847703464947
 20
11.575423045930702
 42
0.1631078792237183
 10
105.5129734085415
 20
12.039806607574537
 42
0.162821685780837
 10
105.38847703464947
 20
12.505882352941175
 42
0.2485650503720441
  0
LWPOLYLINE
  5
CD
100
AcDbEntity
  8
0
 62
256
370
-1
 48
1.0
  6
BYLAYER
100
AcDbPolyline
 90
28
 70
129
 10
110.11861402095084
 20
13.068654311039484
 10
110.11861402095084
 20
12.5218372280419
 42
0.0440532306305954
 10
109.6723609991942
 20
12.666639806607574
 42
0.0550022318577461
 10
109.2662369057212
 20
12.714746172441579
 42
0.1129703149710346
 10
108.96188557614826
 20
12.663497179693795
 42
0.3045127141322745
 10
108.86253021756647
 20
12.505882352941175
 42
0.2801319614769269
 10
108.93795326349718
 20
12.373166800966963
 42
0.0979356423897324
 10
109.2082191780822
 20
12.304754230459306
 10
109.33489121676068
 20
12.286865431103948
 42
-0.1297099526511155
 10
110.07824335213537
 20
12.055519742143431
 42
-0.2274232183229614
 10
110.26897663174859
 20
11.551490733279614
 42
-0.2632817107136512
 10
110.00378726833199
 20
11.010717163577759
 42
-0.147043951658689
 10
109.21208702659146
 20
10.829653505237712
 42
-0.0368134404841615
 10
108.75108783239324
 20
10.86494762288477
 42
-0.0311987385879434
 10
108.26156325543917
 20
10.970346494762289
 10
108.26156325543917
 20
11.51716357775987
 42
0.0564433839019424
 10
108.70273972602739
 20
11.360515713134568
 42
0.0570031280619206
 10
109.161804995971
 20
11.308299758259469
 42
0.120469488399141
 10
109.47945205479452
 20
11.366559226430297
 42
0.2960031227646982
 10
109.58581788879935
 20
11.539403706688155
 42
0.2722030583945947
 10
109.51257050765511
 20
11.682755842062853
 42
0.0971191795901079
 10
109.22030620467365
 20
11.756486704270749
 10
109.09363416599517
 20
11.772441579371474
 42
-0.1364719177232001
 10
108.42062852538277
 20
11.995326349717971
 42
-0.2284727981499555
 10
108.22771958098308
 20
12.48992747784045
 42
-0.2574749482835389
 10
108.47284448025785
 20
13.020064464141822
 42
-0.1500784610408476
 10
109.22417405318292
 20
13.192908944399676
 42
-0.0339881551375522
 10
109.64238517324738
 20
13.162933118452859
 42
-0.0270978517001071
  0
LWPOLYLINE
  5
CE
100
AcDbEntity
  8
0
 62
256
370
-1
 48
1.0
  6
BYLAYER
100
AcDbPolyline
 90
29
 70
129
 10
112.89524576954071
 20
12.765028203062037
 42
-0.1174274246265077
 10
113.21990330378728
 20
13.083400483481064
 42
-0.1350803030525326
 10
113.63255439161966
 20
13.192908944399676
 42
-0.2292413086400894
 10
114.22360999194197
 20
12.953827558420627
 42
-0.178302427843185
 10
114.42643029814666
 20
12.258823529411764
 10
114.42643029814666
 20
10.88815471394037
 10
113.70314262691377
 20
10.88815471394037
 10
113.70314262691377
 20
12.061563255439161
 42
0.0099310823741363
 10
113.70604351329573
 20
12.11595487510073
 42
0.00796624430582
 10
113.70701047542305
 20
12.196454472199864
 42
0.1380278061441404
 10
113.63666398066076
 20
12.542868654311039
 42
0.2680725622785113
 10
113.40966962127317
 20
12.650443190975018
 42
0.2689683897094156
 10
113.09323126510878
 20
12.48170829975826
 42
0.1405306837431594
 10
112.97743755036262
 20
11.993392425463334
 10
112.97743755036262
 20
10.88815471394037
 10
112.25414987912973
 20
10.88815471394037
 10
112.25414987912973
 20
12.061563255439161
 42
0.1093978669342011
 10
112.18984689766317
 20
12.542868654311039
 42
0.27879675477489
 10
111.96067687348912
 20
12.650443190975018
 42
0.2685296461443061
 10
111.64133763094279
 20
12.480741337630942
 42
0.1449024461687413
 10
111.52892828364223
 20
11.995326349717971
 10
111.52892828364223
 20
10.88815471394037
 10
110.80564061240935
 20
10.88815471394037
 10
110.80564061240935
 20
13.138759065269944
 10
111.52892828364223
 20
13.138759065269944
 10
111.52892828364223
 20
12.809024979854954
 42
-0.1146037461223753
 10
111.83327961321515
 20
13.096454472199838
 42
-0.1306467747245903
 10
112.21208702659146
 20
13.192908944399676
 42
-0.143779467548243
 10
112.62401289282836
 20
13.080499597099113
 42
-0.1499253311634679
  0
LWPOLYLINE
  5
CF
100
AcDbEntity
  8
0
 62
256
370
-1
 48
1.0
  6
BYLAYER
100
AcDbPolyline
 90
8
 70
129
 10
116.10604351329573
 20
11.901047542304589
 42
0.1451510853777924
 10
115.76760676873489
 20
11.824657534246576
 42
0.2659109527271808
 10
115.65398871877518
 20
11.599355358581789
 42
0.2309825932322835
 10
115.7453666398066
 20
11.3856567284448
 42
0.1796804069466053
 10
115.9996776792909
 20
11.308299758259469
 42
0.2143665064183516
 10
116.34125705076551
 20
11.453827558420627
 42
0.199604803831489
 10
116.47977437550362
 20
11.818372280419016
 10
116.47977437550362
 20
11.901047542304592
  0
LWPOLYLINE
  5
D0
100
AcDbEntity
  8
0
 62
256
370
-1
 48
1.0
  6
BYLAYER
100
AcDbPolyline
 90
20
 70
129
 10
117.2054794520548
 20
12.172280419016921
 10
117.2054794520548
 20
10.88815471394037
 10
116.47977437550362
 20
10.88815471394037
 10
116.47977437550362
 20
11.221756647864623
 42
-0.1210944946334627
 10
116.15439161966157
 20
10.923207091055598
 42
-0.120306453425426
 10
115.71442385173248
 20
10.829653505237712
 42
-0.1964276427889956
 10
115.14681708299759
 20
11.033682514101532
 42
-0.2165494766865178
 10
114.92876712328767
 20
11.563577759871073
 42
-0.2627820749486435
 10
115.20096696212731
 20
12.143996776792907
 42
-0.1440836651755909
 10
116.05576148267525
 20
12.328928283642224
 10
116.47977437550362
 20
12.328928283642224
 10
116.47977437550362
 20
12.385012087026592
 42
0.2852728508450676
 10
116.34512489927478
 20
12.635455278001611
 42
0.1269008383232623
 10
115.92522159548751
 20
12.714746172441579
 42
0.0570932845889181
 10
115.49516518936342
 20
12.668573730862207
 42
0.0673514154823623
 10
115.12554391619662
 20
12.530056406124093
 10
115.12554391619662
 20
13.078323932312649
 42
-0.0290832766119114
 10
115.58968573730863
 20
13.163900080580177
 42
-0.0310003554122004
 10
116.05576148267525
 20
13.192908944399676
 42
-0.1796044772763978
 10
116.93521353746978
 20
12.952860596293313
 42
-0.216999066348435
  0
LWPOLYLINE
  5
D1
100
AcDbEntity
  8
0
 62
256
370
-1
 48
1.0
  6
BYLAYER
100
AcDbPolyline
 90
4
 70
129
 10
117.87413376309428
 20
14.014826752618855
 10
118.59355358581789
 20
14.014826752618855
 10
118.59355358581789
 20
10.88815471394037
 10
117.87413376309428
 20
10.88815471394037
  0
LWPOLYLINE
  5
D2
100
AcDbEntity
  8
0
 62
256
370
-1
 48
1.0
  6
BYLAYER
100
AcDbPolyline
 90
4
 70
129
 10
119.28444802578565
 20
14.014826752618855
 10
120.00386784850927
 20
14.014826752618855
 10
120.00386784850927
 20
10.88815471394037
 10
119.28444802578565
 20
10.88815471394037
  0
LWPOLYLINE
  5
D3
100
AcDbEntity
  8
0
 62
256
370
-1
 48
1.0
  6
BYLAYER
100
AcDbPolyline
 90
15
 70
129
 10
122.94149879129733
 20
12.019500402900885
 10
122.94149879129733
 20
11.81450443190975
 10
121.25946817082996
 20
11.81450443190975
 42
0.2057646661349292
 10
121.44222401289284
 20
11.434730056406124
 42
0.172603210946204
 10
121.88025785656728
 20
11.308299758259469
 42
0.0691113965401934
 10
122.34560838033843
 20
11.375503626107978
 42
0.0560479244607978
 10
122.83464947622883
 20
11.579532634971798
 10
122.83464947622883
 20
11.024979854955681
 42
-0.0428546638464084
 10
122.32433521353747
 20
10.878968573730862
 42
-0.0478948782524594
 10
121.8140209508461
 20
10.829653505237712
 42
-0.1914102154877454
 10
120.86446414182112
 20
11.140290088638196
 42
-0.2179154268482663
 10
120.52602739726026
 20
12.011281224818696
 42
-0.2132643270722043
 10
120.85842062852538
 20
12.877437550362611
 42
-0.1970960050083338
 10
121.77389202256245
 20
13.192908944399676
 42
-0.2062977058834512
 10
122.6228847703465
 20
12.873569701853345
 42
-0.2055188954015409
  0
LWPOLYLINE
  5
D4
100
AcDbEntity
  8
0
 62
256
370
-1
 48
1.0
  6
BYLAYER
100
AcDbPolyline
 90
5
 70
129
 10
122.20177276390007
 20
12.258823529411764
 42
0.1990378483819668
 10
122.08211120064465
 20
12.589282836422239
 42
0.2135555669245265
 10
121.76954069298952
 20
12.714746172441579
 42
0.1906761079331612
 10
121.43013698630136
 20
12.597260273972601
 42
0.1782448469665204
 10
121.26720386784851
 20
12.258823529411764
  0
LWPOLYLINE
  5
D5
100
AcDbEntity
  8
0
 62
256
370
-1
 48
1.0
  6
BYLAYER
100
AcDbPolyline
 90
14
 70
129
 10
125.15777598710719
 20
12.525705076551159
 42
0.0550742085012097
 10
124.96994359387588
 20
12.591216760676872
 42
0.0555058594972805
 10
124.78211120064464
 20
12.612248186946012
 42
0.2312351226365889
 10
124.35495568090249
 20
12.434327155519743
 42
0.1776799302117383
 10
124.20531829170025
 20
11.92522159548751
 10
124.20531829170025
 20
10.88815471394037
 10
123.48589846897661
 20
10.88815471394037
 10
123.48589846897661
 20
13.138759065269944
 10
124.20531829170025
 20
13.138759065269944
 10
124.20531829170025
 20
12.768896051571314
 42
-0.1252871801876136
 10
124.52393231265108
 20
13.091377921031427
 42
-0.1304071855901259
 10
124.95471394037068
 20
13.192908944399676
 42
-0.0171476150823201
 10
125.03303787268331
 20
13.190008058017728
 42
-0.0129718099353133
 10
125.15584206285254
 20
13.176954069298951
  0
LWPOLYLINE
  5
D6
100
AcDbEntity
  8
0
 62
256
370
-1
 48
1.0
  6
BYLAYER
100
AcDbPolyline
 90
6
 70
129
 10
125.58952457695409
 20
11.66559226430298
 10
126.31281224818693
 20
11.66559226430298
 10
126.31281224818693
 20
11.053021756647865
 10
125.81627719580982
 20
10.303626107977436
 10
125.3883964544722
 20
10.303626107977436
 10
125.58952457695409
 20
11.053021756647865
  0
LWPOLYLINE
  5
D7
100
AcDbEntity
  8
0
 62
256
370
-1
 48
1.0
  6
BYLAYER
100
AcDbPolyline
 90
18
 70
129
 10
129.29637389202256
 20
13.777921031426267
 10
129.29637389202256
 20
13.138759065269944
 10
130.03803384367444
 20
13.138759065269944
 10
130.03803384367444
 20
12.624335213537471
 10
129.29637389202256
 20
12.624335213537471
 10
129.29637389202256
 20
11.669943593875907
 42
0.206481043362773
 10
129.35874294923451
 20
11.457937147461724
 42
0.1667858399497792
 10
129.6058017727639
 20
11.402578565672844
 10
129.97566478646254
 20
11.402578565672844
 10
129.97566478646254
 20
10.88815471394037
 10
129.35874294923451
 20
10.88815471394037
 42
-0.1954084677493166
 10
128.7548751007252
 20
11.066075745366639
 42
-0.1954084677493609
 10
128.57695406929895
 20
11.669943593875907
 10
128.57695406929895
 20
12.624335213537471
 10
128.21917808219177
 20
12.624335213537471
 10
128.21917808219177
 20
13.138759065269944
 10
128.57695406929895
 20
13.138759065269944
 10
128.57695406929895
 20
13.777921031426267
  0
LWPOLYLINE
  5
D8
100
AcDbEntity
  8
0
 62
256
370
-1
 48
1.0
  6
BYLAYER
100
AcDbPolyline
 90
8
 70
129
 10
131.5484286865431
 20
12.678485092667209
 42
0.2528106725506293
 10
131.18388396454472
 20
12.506849315068493
 42
0.1577890542291242
 10
131.05817888799356
 20
12.011281224818696
 42
0.1576749368722991
 10
131.18388396454472
 20
11.515954875100725
 42
0.2530325641939612
 10
131.5484286865431
 20
11.344077356970185
 42
0.2543509340061886
 10
131.90813859790492
 20
11.515954875100725
 42
0.1566279833247184
 10
132.03287671232874
 20
12.011281224818696
 42
0.1567413386402778
 10
131.90813859790492
 20
12.506849315068493
 42
0.254130245708459
  0
LWPOLYLINE
  5
D9
100
AcDbEntity
  8
0
 62
256
370
-1
 48
1.0
  6
BYLAYER
100
AcDbPolyline
 90
8
 70
129
 10
131.5484286865431
 20
13.19290894439969
 42
-0.1985700988402703
 10
132.45568090249799
 20
12.879371474617244
 42
-0.211254915521852
 10
132.7822723609992
 20
12.011281224818696
 42
-0.2112549155218534
 10
132.45568090249799
 20
11.143190975020143
 42
-0.1985700988402667
 10
131.5484286865431
 20
10.829653505237712
 42
-0.1977221508060227
 10
130.63730862207896
 20
11.143190975020143
 42
-0.2121732306438039
 10
130.30878323932313
 20
12.011281224818692
 42
-0.2121732306437928
 10
130.63730862207896
 20
12.879371474617244
 42
-0.1977221508060324
  0
LWPOLYLINE
  5
DA
100
AcDbEntity
  8
0
 62
256
370
-1
 48
1.0
  6
BYLAYER
100
AcDbPolyline
 90
18
 70
129
 10
136.55535858178888
 20
13.068654311039484
 10
136.55535858178888
 20
12.48170829975826
 42
0.0719287294773888
 10
136.26116035455277
 20
12.6303787268332
 42
0.0793655715632395
 10
135.95487510072525
 20
12.678485092667202
 42
0.2118256662430691
 10
135.48541498791297
 20
12.502739726027396
 42
0.1974864220820332
 10
135.31764705882352
 20
12.011281224818696
 42
0.1973390529581044
 10
135.48541498791297
 20
11.520064464141822
 42
0.2120402740829792
 10
135.95487510072525
 20
11.344077356970185
 42
0.0807235888708165
 10
136.27518130539886
 20
11.394359387590651
 42
0.084262474226661
 10
136.55535858178888
 20
11.543271555197421
 10
136.55535858178888
 20
10.954391619661564
 42
-0.0442433789948496
 10
136.21281224818694
 20
10.860838033843674
 42
-0.0444975518998455
 10
135.86446414182112
 20
10.829653505237712
 42
-0.1905012562730518
 10
134.91176470588235
 20
11.142224012892829
 42
-0.2195104813311436
 10
134.5682514101531
 20
12.011281224818696
 42
-0.2196038618349363
 10
134.91176470588235
 20
12.880580177276389
 42
-0.1903850582461754
 10
135.86446414182112
 20
13.192908944399676
 42
-0.0449905062155324
 10
136.21281224818694
 20
13.161724415793714
 42
-0.0421826187006519
  0
LWPOLYLINE
  5
DB
100
AcDbEntity
  8
0
 62
256
370
-1
 48
1.0
  6
BYLAYER
100
AcDbPolyline
 90
8
 70
129
 10
138.24705882352941
 20
12.678485092667188
 42
0.2528106725506183
 10
137.882514101531
 20
12.506849315068493
 42
0.1577890542292296
 10
137.75680902497984
 20
12.011281224818696
 42
0.1576749368724106
 10
137.882514101531
 20
11.515954875100725
 42
0.2530325641939781
 10
138.24705882352941
 20
11.344077356970185
 42
0.254350934006212
 10
138.60676873489123
 20
11.515954875100725
 42
0.1566279833247184
 10
138.73150684931505
 20
12.011281224818696
 42
0.1567413386402728
 10
138.60676873489123
 20
12.506849315068493
 42
0.2541302457084517
  0
LWPOLYLINE
  5
DC
100
AcDbEntity
  8
0
 62
256
370
-1
 48
1.0
  6
BYLAYER
100
AcDbPolyline
 90
8
 70
129
 10
138.24705882352941
 20
13.192908944399679
 42
-0.198570098840265
 10
139.1543110394843
 20
12.879371474617244
 42
-0.2112549155218421
 10
139.48090249798551
 20
12.011281224818696
 42
-0.2112549155218534
 10
139.1543110394843
 20
11.143190975020143
 42
-0.1985700988402667
 10
138.24705882352941
 20
10.829653505237712
 42
-0.1977221508060333
 10
137.33593875906527
 20
11.143190975020143
 42
-0.212173230643861
 10
137.00741337630944
 20
12.011281224818696
 42
-0.2121732306438545
 10
137.33593875906527
 20
12.879371474617244
 42
-0.1977221508060467
  0
LWPOLYLINE
  5
DD
100
AcDbEntity
  8
0
 62
256
370
-1
 48
1.0
  6
BYLAYER
100
AcDbPolyline
 90
20
 70
129
 10
139.97888799355357
 20
11.764222401289281
 10
139.97888799355357
 20
13.138759065269944
 10
140.70217566478647
 20
13.138759065269944
 10
140.70217566478647
 20
12.913940370668815
 42
-0.0016953687267244
 10
140.70024174053182
 20
12.454391619661937
 42
0.0014012582688248
 10
140.69830781627718
 20
12.085737308625763
 42
0.0258175615343158
 10
140.7123287671233
 20
11.694842868654309
 42
0.1055436883547155
 10
140.76067687348913
 20
11.521031426269136
 42
0.1326289315703879
 10
140.87598710717165
 20
11.41273166800967
 42
0.1250020919892299
 10
141.04012892828365
 20
11.37453666398066
 42
0.2510926372714349
 10
141.3935535858179
 20
11.547381144238518
 42
0.1614232261198705
 10
141.52215954875101
 20
12.027719580983078
 10
141.52215954875101
 20
13.138759065269944
 10
142.24157937147464
 20
13.138759065269944
 10
142.24157937147464
 20
10.88815471394037
 10
141.52215954875101
 20
10.88815471394037
 10
141.52215954875101
 20
11.213537469782434
 42
-0.1014001120057088
 10
141.17743755036261
 20
10.923207091055598
 42
-0.1209965211844101
 10
140.77663174858986
 20
10.829653505237712
 42
-0.2284982578231291
 10
140.18291700241741
 20
11.06897663174859
 42
-0.1790545242478198
  0
LWPOLYLINE
  5
DE
100
AcDbEntity
  8
0
 62
256
370
-1
 48
1.0
  6
BYLAYER
100
AcDbPolyline
 90
19
 70
129
 10
145.19516518936342
 20
12.258823529411764
 10
145.19516518936342
 20
10.88815471394037
 10
144.47187751813053
 20
10.88815471394037
 10
144.47187751813053
 20
11.111039484286866
 10
144.47187751813053
 20
11.937308622078969
 42
0.0247848332854039
 10
144.45882352941177
 20
12.338839645447226
 42
0.1038630378755207
 10
144.41337630942789
 20
12.501531023368251
 42
0.1375379517395369
 10
144.29903303787268
 20
12.611281224818693
 42
0.1263805524734128
 10
144.13392425463337
 20
12.650443190975018
 42
0.2519449839986455
 10
143.78049959709912
 20
12.476631748589845
 42
0.1607868699695807
 10
143.65189363416599
 20
11.995326349717971
 10
143.65189363416599
 20
10.88815471394037
 10
142.93247381144238
 20
10.88815471394037
 10
142.93247381144238
 20
13.138759065269944
 10
143.65189363416599
 20
13.138759065269944
 10
143.65189363416599
 20
12.809024979854954
 42
-0.1030913173589542
 10
143.99734085414988
 20
13.099597099113616
 42
-0.1199948138755492
 10
144.40128928283642
 20
13.192908944399676
 42
-0.2296591057469193
 10
144.99307010475422
 20
12.953827558420627
 42
-0.1777771703473284
  0
LWPOLYLINE
  5
DF
100
AcDbEntity
  8
0
 62
256
370
-1
 48
1.0
  6
BYLAYER
100
AcDbPolyline
 90
18
 70
129
 10
146.64754230459306
 20
13.777921031426267
 10
146.64754230459306
 20
13.138759065269944
 10
147.38920225624497
 20
13.138759065269944
 10
147.38920225624497
 20
12.624335213537471
 10
146.64754230459306
 20
12.624335213537471
 10
146.64754230459306
 20
11.669943593875907
 42
0.2064810433625316
 10
146.70991136180501
 20
11.457937147461724
 42
0.1667858399498331
 10
146.9569701853344
 20
11.402578565672844
 10
147.32683319903305
 20
11.402578565672844
 10
147.32683319903305
 20
10.88815471394037
 10
146.70991136180501
 20
10.88815471394037
 42
-0.1954084677493163
 10
146.10604351329573
 20
11.066075745366639
 42
-0.1954084677493226
 10
145.92812248186945
 20
11.669943593875907
 10
145.92812248186945
 20
12.624335213537471
 10
145.5703464947623
 20
12.624335213537471
 10
145.5703464947623
 20
13.138759065269944
 10
145.92812248186945
 20
13.138759065269944
 10
145.92812248186945
 20
13.777921031426267
  0
LWPOLYLINE
  5
E0
100
AcDbEntity
  8
0
 62
256
370
-1
 48
1.0
  6
BYLAYER
100
AcDbPolyline
 90
15
 70
129
 10
150.07542304593071
 20
12.019500402900885
 10
150.07542304593071
 20
11.81450443190975
 10
148.39339242546333
 20
11.81450443190975
 42
0.2057646661349408
 10
148.57614826752621
 20
11.434730056406124
 42
0.1726032109462241
 10
149.01418211120065
 20
11.308299758259469
 42
0.0691113965401749
 10
149.4795326349718
 20
11.375503626107978
 42
0.056047924460794
 10
149.9685737308622
 20
11.579532634971798
 10
149.9685737308622
 20
11.024979854955681
 42
-0.0428546638464155
 10
149.45825946817084
 20
10.878968573730862
 42
-0.0478948782524701
 10
148.94794520547947
 20
10.829653505237712
 42
-0.1914102154877606
 10
147.99838839645449
 20
11.140290088638196
 42
-0.217915426848253
 10
147.65995165189364
 20
12.011281224818696
 42
-0.2132643270721449
 10
147.99234488315875
 20
12.877437550362611
 42
-0.1970960050083541
 10
148.90781627719582
 20
13.192908944399676
 42
-0.2062977058834501
 10
149.75680902497984
 20
12.873569701853345
 42
-0.2055188954015661
  0
LWPOLYLINE
  5
E1
100
AcDbEntity
  8
0
 62
256
370
-1
 48
1.0
  6
BYLAYER
100
AcDbPolyline
 90
5
 70
129
 10
149.33569701853344
 20
12.258823529411764
 42
0.1990378483819908
 10
149.21603545527802
 20
12.589282836422239
 42
0.2135555669245513
 10
148.90346494762287
 20
12.714746172441579
 42
0.1906761079331873
 10
148.56406124093473
 20
12.597260273972601
 42
0.1782448469664825
 10
148.40112812248188
 20
12.258823529411764
  0
LWPOLYLINE
  5
E2
100
AcDbEntity
  8
0
 62
256
370
-1
 48
1.0
  6
BYLAYER
100
AcDbPolyline
 90
14
 70
129
 10
152.29170024174053
 20
12.525705076551162
 42
0.0550742085011741
 10
152.10386784850925
 20
12.591216760676872
 42
0.0555058594972373
 10
151.91603545527801
 20
12.612248186946012
 42
0.2312351226365759
 10
151.48887993553586
 20
12.434327155519743
 42
0.1776799302116992
 10
151.33924254633359
 20
11.92522159548751
 10
151.33924254633359
 20
10.88815471394037
 10
150.61982272360999
 20
10.88815471394037
 10
150.61982272360999
 20
13.138759065269944
 10
151.33924254633359
 20
13.138759065269944
 10
151.33924254633359
 20
12.768896051571314
 42
-0.1252871801875728
 10
151.65785656728445
 20
13.091377921031427
 42
-0.1304071855901431
 10
152.08863819500402
 20
13.192908944399676
 42
-0.0171476150823262
 10
152.16696212731668
 20
13.190008058017728
 42
-0.0129718099352979
 10
152.28976631748588
 20
13.176954069298951
  0
LWPOLYLINE
  5
E3
100
AcDbEntity
  8
0
 62
256
370
-1
 48
1.0
  6
BYLAYER
100
AcDbPolyline
 90
8
 70
129
 10
153.84657534246577
 20
11.352296535052389
 42
0.2553550601534096
 10
154.19927477840452
 20
11.521031426269136
 42
0.1553404256416162
 10
154.32087026591458
 20
12.011281224818696
 42
0.1551865646931564
 10
154.19927477840452
 20
12.501772763900078
 42
0.2555798560059129
 10
153.84657534246577
 20
12.67074939564867
 42
0.2541797758809425
 10
153.49194198227235
 20
12.500805801772763
 42
0.1568605189444225
 10
153.36841257050764
 20
12.011281224818696
 42
0.1569005089722917
 10
153.49194198227235
 20
11.522240128928281
 42
0.2541797758809326
  0
LWPOLYLINE
  5
E4
100
AcDbEntity
  8
0
 62
256
370
-1
 48
1.0
  6
BYLAYER
100
AcDbPolyline
 90
13
 70
129
 10
153.36841257050762
 20
12.809024979854968
 42
-0.1135843200853686
 10
153.69790491539084
 20
13.099597099113616
 42
-0.1207775821665346
 10
154.11394037066881
 20
13.192908944399676
 42
-0.2385946677863634
 10
154.79709911361806
 20
12.862449637389201
 42
-0.1754545092340036
 10
155.06446414182111
 20
12.011281224818696
 42
-0.175374786222675
 10
154.79709911361806
 20
11.160354552780017
 42
-0.2387033830842958
 10
154.11394037066881
 20
10.829653505237712
 42
-0.1210591816799215
 10
153.69790491539084
 20
10.923207091055598
 42
-0.1130190467334309
 10
153.36841257050764
 20
11.213537469782434
 10
153.36841257050764
 20
10.88815471394037
 10
152.64899274778406
 20
10.88815471394037
 10
152.64899274778406
 20
14.014826752618855
 10
153.36841257050764
 20
14.014826752618855
  0
LWPOLYLINE
  5
E5
100
AcDbEntity
  8
0
 62
256
370
-1
 48
1.0
  6
BYLAYER
100
AcDbPolyline
 90
8
 70
129
 10
156.66575342465754
 20
12.678485092667206
 42
0.2528106725506235
 10
156.30120870265915
 20
12.506849315068493
 42
0.1577890542291877
 10
156.17550362610797
 20
12.011281224818696
 42
0.1576749368723634
 10
156.30120870265915
 20
11.515954875100725
 42
0.2530325641940087
 10
156.66575342465754
 20
11.344077356970185
 42
0.2543509340061448
 10
157.02546333601936
 20
11.515954875100725
 42
0.1566279833247184
 10
157.15020145044318
 20
12.011281224818696
 42
0.1567413386402828
 10
157.02546333601936
 20
12.506849315068493
 42
0.2541302457084416
  0
LWPOLYLINE
  5
E6
100
AcDbEntity
  8
0
 62
256
370
-1
 48
1.0
  6
BYLAYER
100
AcDbPolyline
 90
8
 70
129
 10
156.66575342465754
 20
13.192908944399676
 42
-0.1985700988402828
 10
157.57300564061239
 20
12.879371474617244
 42
-0.2112549155218787
 10
157.89959709911363
 20
12.011281224818696
 42
-0.2112549155218935
 10
157.57300564061239
 20
11.143190975020143
 42
-0.198570098840278
 10
156.66575342465754
 20
10.829653505237712
 42
-0.1977221508060333
 10
155.7546333601934
 20
11.143190975020143
 42
-0.2121732306438296
 10
155.42610797743754
 20
12.011281224818696
 42
-0.2121732306438236
 10
155.7546333601934
 20
12.879371474617244
 42
-0.1977221508060329
  0
LWPOLYLINE
  5
E7
100
AcDbEntity
  8
0
 62
256
370
-1
 48
1.0
  6
BYLAYER
100
AcDbPolyline
 90
14
 70
129
 10
160.09363416599518
 20
12.525705076551166
 42
0.0550742085011913
 10
159.90580177276391
 20
12.591216760676872
 42
0.0555058594972641
 10
159.71796937953263
 20
12.612248186946012
 42
0.2312351226365712
 10
159.29081385979049
 20
12.434327155519743
 42
0.1776799302117003
 10
159.14117647058822
 20
11.92522159548751
 10
159.14117647058822
 20
10.88815471394037
 10
158.42175664786464
 20
10.88815471394037
 10
158.42175664786464
 20
13.138759065269944
 10
159.14117647058822
 20
13.138759065269944
 10
159.14117647058822
 20
12.768896051571314
 42
-0.1252871801875617
 10
159.45979049153908
 20
13.091377921031427
 42
-0.1304071855901431
 10
159.89057211925865
 20
13.192908944399676
 42
-0.0171476150823213
 10
159.96889605157133
 20
13.190008058017728
 42
-0.0129718099352919
 10
160.09170024174054
 20
13.176954069298951
  0
LWPOLYLINE
  5
E8
100
AcDbEntity
  8
0
 62
256
370
-1
 48
1.0
  6
BYLAYER
100
AcDbPolyline
 90
15
 70
129
 10
162.697663174859
 20
12.019500402900885
 10
162.697663174859
 20
11.81450443190975
 10
161.01563255439163
 20
11.81450443190975
 42
0.2057646661348878
 10
161.19838839645448
 20
11.434730056406124
 42
0.1726032109462108
 10
161.63642224012892
 20
11.308299758259469
 42
0.0691113965401736
 10
162.1017727639001
 20
11.375503626107978
 42
0.0560479244608004
 10
162.5908138597905
 20
11.579532634971798
 10
162.5908138597905
 20
11.024979854955681
 42
-0.0428546638464256
 10
162.08049959709911
 20
10.878968573730862
 42
-0.0478948782524594
 10
161.57018533440774
 20
10.829653505237712
 42
-0.1914102154877723
 10
160.62062852538276
 20
11.140290088638196
 42
-0.2179154268483221
 10
160.2821917808219
 20
12.011281224818696
 42
-0.2132643270722015
 10
160.61458501208702
 20
12.877437550362611
 42
-0.197096005008337
 10
161.53005640612412
 20
13.192908944399676
 42
-0.2062977058834483
 10
162.37904915390814
 20
12.873569701853345
 42
-0.2055188954015605
  0
LWPOLYLINE
  5
E9
100
AcDbEntity
  8
0
 62
256
370
-1
 48
1.0
  6
BYLAYER
100
AcDbPolyline
 90
5
 70
129
 10
161.95793714746173
 20
12.258823529411764
 42
0.1990378483820633
 10
161.83827558420629
 20
12.589282836422239
 42
0.213555566924561
 10
161.52570507655116
 20
12.714746172441579
 42
0.1906761079332125
 10
161.18630136986303
 20
12.597260273972601
 42
0.1782448469664181
 10
161.02336825141015
 20
12.258823529411764
  0
LWPOLYLINE
  5
EA
100
AcDbEntity
  8
0
 62
256
370
-1
 48
1.0
  6
BYLAYER
100
AcDbPolyline
 90
18
 70
129
 10
166.15551974214344
 20
14.014826752618855
 10
166.15551974214344
 20
13.542465753424658
 10
165.75761482675262
 20
13.542465753424658
 42
0.179158636355384
 10
165.54464141821111
 20
13.487348912167604
 42
0.2079638973058349
 10
165.48444802578567
 20
13.295406929895243
 10
165.48444802578567
 20
13.138759065269944
 10
166.09943593875906
 20
13.138759065269944
 10
166.09943593875906
 20
12.624335213537471
 10
165.48444802578567
 20
12.624335213537471
 10
165.48444802578567
 20
10.88815471394037
 10
164.76502820306206
 20
10.88815471394037
 10
164.76502820306206
 20
12.624335213537471
 10
164.40725221595488
 20
12.624335213537471
 10
164.40725221595488
 20
13.138759065269944
 10
164.76502820306206
 20
13.138759065269944
 10
164.76502820306206
 20
13.295406929895243
 42
-0.2252439893086437
 10
164.97002417405318
 20
13.83908138597905
 42
-0.1769534742336225
 10
165.60483481063659
 20
14.014826752618855
  0
LWPOLYLINE
  5
EB
100
AcDbEntity
  8
0
 62
256
370
-1
 48
1.0
  6
BYLAYER
100
AcDbPolyline
 90
8
 70
129
 10
167.53585817888799
 20
12.678485092667241
 42
0.2528106725506715
 10
167.17131345688961
 20
12.506849315068493
 42
0.1577890542292359
 10
167.04560838033845
 20
12.011281224818696
 42
0.1576749368724103
 10
167.17131345688961
 20
11.515954875100725
 42
0.2530325641939781
 10
167.53585817888799
 20
11.344077356970185
 42
0.2543509340060959
 10
167.89556809024981
 20
11.515954875100725
 42
0.156627983324666
 10
168.02030620467366
 20
12.011281224818696
 42
0.1567413386402307
 10
167.89556809024981
 20
12.506849315068493
 42
0.2541302457084165
  0
LWPOLYLINE
  5
EC
100
AcDbEntity
  8
0
 62
256
370
-1
 48
1.0
  6
BYLAYER
100
AcDbPolyline
 90
8
 70
129
 10
167.53585817888799
 20
13.19290894439969
 42
-0.1985700988402855
 10
168.44311039484288
 20
12.879371474617244
 42
-0.2112549155218469
 10
168.76970185334409
 20
12.011281224818696
 42
-0.2112549155218643
 10
168.44311039484288
 20
11.143190975020143
 42
-0.1985700988402752
 10
167.53585817888799
 20
10.829653505237712
 42
-0.1977221508060213
 10
166.62473811442385
 20
11.143190975020143
 42
-0.2121732306438039
 10
166.29621273166802
 20
12.011281224818692
 42
-0.2121732306437928
 10
166.62473811442385
 20
12.879371474617244
 42
-0.197722150806003
  0
LWPOLYLINE
  5
ED
100
AcDbEntity
  8
0
 62
256
370
-1
 48
1.0
  6
BYLAYER
100
AcDbPolyline
 90
14
 70
129
 10
170.96373892022564
 20
12.525705076551166
 42
0.0550742085011913
 10
170.77590652699436
 20
12.591216760676872
 42
0.0555058594972808
 10
170.58807413376309
 20
12.612248186946012
 42
0.2312351226365454
 10
170.16091861402094
 20
12.434327155519743
 42
0.177679930211745
 10
170.0112812248187
 20
11.92522159548751
 10
170.0112812248187
 20
10.88815471394037
 10
169.29186140209509
 20
10.88815471394037
 10
169.29186140209509
 20
13.138759065269944
 10
170.0112812248187
 20
13.138759065269944
 10
170.0112812248187
 20
12.768896051571314
 42
-0.1252871801876218
 10
170.32989524576953
 20
13.091377921031427
 42
-0.1304071855901343
 10
170.76067687348913
 20
13.192908944399676
 42
-0.0171476150823325
 10
170.83900080580176
 20
13.190008058017728
 42
-0.0129718099353697
 10
170.96180499597099
 20
13.176954069298951
  0
LWPOLYLINE
  5
EE
100
AcDbEntity
  8
0
 62
256
370
-1
 48
1.0
  6
BYLAYER
100
AcDbPolyline
 90
19
 70
129
 10
175.01627719580983
 20
12.258823529411764
 10
175.01627719580983
 20
10.88815471394037
 10
174.29298952457697
 20
10.88815471394037
 10
174.29298952457697
 20
11.111039484286866
 10
174.29298952457697
 20
11.937308622078969
 42
0.0247848332853486
 10
174.27993553585819
 20
12.338839645447219
 42
0.1038630378755126
 10
174.2344883158743
 20
12.501531023368251
 42
0.1375379517397616
 10
174.12014504431909
 20
12.611281224818693
 42
0.1263805524733271
 10
173.95503626107978
 20
12.650443190975018
 42
0.2519449839986552
 10
173.60161160354554
 20
12.476631748589845
 42
0.1607868699696263
 10
173.47300564061243
 20
11.995326349717971
 10
173.47300564061243
 20
10.88815471394037
 10
172.75358581788879
 20
10.88815471394037
 10
172.75358581788879
 20
13.138759065269944
 10
173.47300564061243
 20
13.138759065269944
 10
173.47300564061243
 20
12.809024979854954
 42
-0.103091317358996
 10
173.8184528605963
 20
13.099597099113616
 42
-0.1199948138755258
 10
174.22240128928286
 20
13.192908944399676
 42
-0.2296591057469351
 10
174.81418211120064
 20
12.953827558420627
 42
-0.1777771703473328
  0
LWPOLYLINE
  5
EF
100
AcDbEntity
  8
0
 62
256
370
-1
 48
1.0
  6
BYLAYER
100
AcDbPolyline
 90
20
 70
129
 10
175.65882352941176
 20
11.764222401289281
 10
175.65882352941176
 20
13.138759065269944
 10
176.38211120064466
 20
13.138759065269944
 10
176.38211120064466
 20
12.913940370668815
 42
-0.0016953687267244
 10
176.38017727639001
 20
12.454391619661926
 42
0.0014012582690098
 10
176.37824335213537
 20
12.085737308620573
 42
0.0258175615342265
 10
176.39226430298146
 20
11.694842868654309
 42
0.1055436883543778
 10
176.4406124093473
 20
11.521031426269136
 42
0.1326289315701167
 10
176.55592264302982
 20
11.41273166800967
 42
0.1250020919891859
 10
176.72006446414181
 20
11.37453666398066
 42
0.2510926372715407
 10
177.07348912167606
 20
11.547381144238518
 42
0.1614232261199338
 10
177.2020950846092
 20
12.027719580983078
 10
177.2020950846092
 20
13.138759065269944
 10
177.92151490733281
 20
13.138759065269944
 10
177.92151490733281
 20
10.88815471394037
 10
177.2020950846092
 20
10.88815471394037
 10
177.2020950846092
 20
11.213537469782434
 42
-0.1014001120056599
 10
176.85737308622078
 20
10.923207091055598
 42
-0.1209965211844281
 10
176.45656728444803
 20
10.829653505237712
 42
-0.228498257823144
 10
175.8628525382756
 20
11.06897663174859
 42
-0.1790545242478198
  0
LWPOLYLINE
  5
F0
100
AcDbEntity
  8
0
 62
256
370
-1
 48
1.0
  6
BYLAYER
100
AcDbPolyline
 90
18
 70
129
 10
179.39806607574536
 20
13.777921031426267
 10
179.39806607574536
 20
13.138759065269944
 10
180.13972602739724
 20
13.138759065269944
 10
180.13972602739724
 20
12.624335213537471
 10
179.39806607574536
 20
12.624335213537471
 10
179.39806607574536
 20
11.669943593875907
 42
0.2064810433624095
 10
179.46043513295729
 20
11.457937147461724
 42
0.1667858399498005
 10
179.7074939564867
 20
11.402578565672844
 10
180.07735697018535
 20
11.402578565672844
 10
180.07735697018535
 20
10.88815471394037
 10
179.46043513295729
 20
10.88815471394037
 42
-0.1954084677493299
 10
178.85656728444803
 20
11.066075745366639
 42
-0.1954084677493736
 10
178.67864625302178
 20
11.669943593875907
 10
178.67864625302178
 20
12.624335213537471
 10
178.32087026591458
 20
12.624335213537471
 10
178.32087026591458
 20
13.138759065269944
 10
178.67864625302178
 20
13.138759065269944
 10
178.67864625302178
 20
13.777921031426267
  0
CIRCLE
  5
F1
100
AcDbEntity
  8
0
 62
256
370
-1
 48
1.0
  6
BYLAYER
100
AcDbCircle
 10
50.0
 20
100.0
 30
0.0
 40
6.0
  0
MTEXT
  5
F2
100
AcDbEntity
  8
0
 62
256
370
-1
 48
1.0
  6
BYLAYER
100
AcDbMText
 10
70.0
 20
110.0
 30
0.0
 40
5.0
 41
0.0
 71
5
 72
1
  1
\fArial|b1|i0|c0|p0;\H3;Knob diameter 12mm (for clearance testing)
  7
textstyle0
 50
0.0
 73
2
 44
1.0
  0
ENDSEC
  0
SECTION
  2
OBJECTS
  0
DICTIONARY
  5
C
100
AcDbDictionary
280
0
281
1
  3
ACAD_GROUP
350
D
  3
ACAD_LAYOUT
350
1A
  3
ACAD_MLINESTYLE
350
17
  3
ACAD_PLOTSETTINGS
350
19
  3
ACAD_PLOTSTYLENAME
350
E
  3
AcDbVariableDictionary
350
F3
  3
QCAD_OBJECTS
350
F4
  0
DICTIONARY
  5
D
100
AcDbDictionary
280
0
281
1
  0
ACDBDICTIONARYWDFLT
  5
E
100
AcDbDictionary
281
1
  3
Normal
350
F
100
AcDbDictionaryWithDefault
340
F
  0
ACDBPLACEHOLDER
  5
F
  0
DICTIONARY
  5
17
100
AcDbDictionary
280
0
281
1
  3
Standard
350
18
  0
MLINESTYLE
  5
18
100
AcDbMlineStyle
  2
STANDARD
 70
0
  3

 62
256
 51
90.0
 52
90.0
 71
2
 49
0.5
 62
256
  6
BYLAYER
 49
-0.5
 62
256
  6
BYLAYER
  0
DICTIONARY
  5
19
100
AcDbDictionary
280
0
281
1
  0
DICTIONARY
  5
1A
100
AcDbDictionary
281
1
  3
Layout1
350
1E
  3
Layout2
350
26
  3
Model
350
22
  0
LAYOUT
  5
1E
100
AcDbPlotSettings
  1

  2
none_device
  4

  6

 40
0.0
 41
0.0
 42
0.0
 43
0.0
 44
0.0
 45
0.0
 46
0.0
 47
0.0
 48
0.0
 49
0.0
140
0.0
141
0.0
142
1.0
143
1.0
 70
688
 72
0
 73
0
 74
5
  7

 75
16
147
1.0
148
0.0
149
0.0
100
AcDbLayout
  1
Layout1
 70
1
 71
1
 10
0.0
 20
0.0
 11
420.0
 21
297.0
 12
0.0
 22
0.0
 32
0.0
 14
100000000000000000000.0
 24
100000000000000000000.0
 34
100000000000000000000.0
 15
-100000000000000000000.0
 25
-100000000000000000000.0
 35
-100000000000000000000.0
146
0.0
 13
0.0
 23
0.0
 33
0.0
 16
1.0
 26
0.0
 36
0.0
 17
0.0
 27
1.0
 37
0.0
 76
0
330
1B
  0
LAYOUT
  5
22
100
AcDbPlotSettings
  1

  2
none_device
  4

  6

 40
0.0
 41
0.0
 42
0.0
 43
0.0
 44
0.0
 45
0.0
 46
0.0
 47
0.0
 48
0.0
 49
0.0
140
0.0
141
0.0
142
1.0
143
1.0
 70
1712
 72
0
 73
0
 74
0
  7

 75
0
147
1.0
148
0.0
149
0.0
100
AcDbLayout
  1
Model
 70
1
 71
0
 10
0.0
 20
0.0
 11
12.0
 21
9.0
 12
0.0
 22
0.0
 32
0.0
 14
0.0
 24
0.0
 34
0.0
 15
0.0
 25
0.0
 35
0.0
146
0.0
 13
0.0
 23
0.0
 33
0.0
 16
1.0
 26
0.0
 36
0.0
 17
0.0
 27
1.0
 37
0.0
 76
0
330
1F
  0
LAYOUT
  5
26
100
AcDbPlotSettings
  1

  2
none_device
  4

  6

 40
0.0
 41
0.0
 42
0.0
 43
0.0
 44
0.0
 45
0.0
 46
0.0
 47
0.0
 48
0.0
 49
0.0
140
0.0
141
0.0
142
1.0
143
1.0
 70
688
 72
0
 73
0
 74
5
  7

 75
16
147
1.0
148
0.0
149
0.0
100
AcDbLayout
  1
Layout2
 70
1
 71
2
 10
0.0
 20
0.0
 11
12.0
 21
9.0
 12
0.0
 22
0.0
 32
0.0
 14
0.0
 24
0.0
 34
0.0
 15
0.0
 25
0.0
 35
0.0
146
0.0
 13
0.0
 23
0.0
 33
0.0
 16
1.0
 26
0.0
 36
0.0
 17
0.0
 27
1.0
 37
0.0
 76
0
330
23
  0
DICTIONARY
  5
F3
100
AcDbDictionary
281
1
  3
DIMASSOC
350
F6
  3
HIDETEXT
350
F5
  0
DICTIONARYVAR
  5
F5
100
DictionaryVariables
280
0
  1
2
  0
DICTIONARYVAR
  5
F6
100
DictionaryVariables
280
0
  1
1
  0
DICTIONARY
  5
F4
100
AcDbDictionary
281
1
  3
ColorSettings/BackgroundColor
350
F7
  3
ColorSettings/ColorMode
350
F8
  3
Grid/DisplayGrid00
350
F9
  3
Grid/DisplayGrid01
350
FA
  3
Grid/DisplayGrid02
350
FB
  3
Grid/DisplayGrid03
350
FC
  3
Grid/GridSpacingX00
350
FD
  3
Grid/GridSpacingX01
350
FE
  3
Grid/GridSpacingX02
350
FF
  3
Grid/GridSpacingX03
350
100
  3
Grid/GridSpacingY00
350
101
  3
Grid/GridSpacingY01
350
102
  3
Grid/GridSpacingY02
350
103
  3
Grid/GridSpacingY03
350
104
  3
Grid/IsometricGrid00
350
105
  3
Grid/IsometricGrid01
350
106
  3
Grid/IsometricGrid02
350
107
  3
Grid/IsometricGrid03
350
108
  3
Grid/IsometricProjection00
350
109
  3
Grid/IsometricProjection01
350
10A
  3
Grid/IsometricProjection02
350
10B
  3
Grid/IsometricProjection03
350
10C
  3
Grid/MetaGridSpacingX00
350
10D
  3
Grid/MetaGridSpacingX01
350
10E
  3
Grid/MetaGridSpacingX02
350
10F
  3
Grid/MetaGridSpacingX03
350
110
  3
Grid/MetaGridSpacingY00
350
111
  3
Grid/MetaGridSpacingY01
350
112
  3
Grid/MetaGridSpacingY02
350
113
  3
Grid/MetaGridSpacingY03
350
114
  3
MultiPageSettings/Columns
350
115
  3
MultiPageSettings/GlueMarginsBottom
350
116
  3
MultiPageSettings/GlueMarginsLeft
350
117
  3
MultiPageSettings/GlueMarginsRight
350
118
  3
MultiPageSettings/GlueMarginsTop
350
119
  3
MultiPageSettings/PrintCropMarks
350
11A
  3
MultiPageSettings/Rows
350
11B
  3
PageSettings/OffsetX
350
11C
  3
PageSettings/OffsetY
350
11D
  3
PageSettings/PageOrientation
350
11E
  3
PageSettings/PaperHeight
350
11F
  3
PageSettings/PaperWidth
350
120
  3
PageSettings/Scale
350
121
  3
PageSettings/ShowPaperBorders
350
122
  3
QCADVersion
350
123
  3
UnitSettings/PaperUnit
350
124
  3
ViewportCenter
350
125
  3
ViewportHeight
350
126
  3
ViewportWidth
350
127
  0
XRECORD
  5
F7
330
F4
100
AcDbXrecord
280
1
1000
White
  0
XRECORD
  5
F8
330
F4
100
AcDbXrecord
280
1
1000
FullColor
  0
XRECORD
  5
F9
330
F4
100
AcDbXrecord
280
1
290
1
  0
XRECORD
  5
FA
330
F4
100
AcDbXrecord
280
1
290
1
  0
XRECORD
  5
FB
330
F4
100
AcDbXrecord
280
1
290
1
  0
XRECORD
  5
FC
330
F4
100
AcDbXrecord
280
1
290
1
  0
XRECORD
  5
FD
330
F4
100
AcDbXrecord
280
1
1000
auto
  0
XRECORD
  5
FE
330
F4
100
AcDbXrecord
280
1
1000
auto
  0
XRECORD
  5
FF
330
F4
100
AcDbXrecord
280
1
1000
auto
  0
XRECORD
  5
100
330
F4
100
AcDbXrecord
280
1
1000
auto
  0
XRECORD
  5
101
330
F4
100
AcDbXrecord
280
1
1000
auto
  0
XRECORD
  5
102
330
F4
100
AcDbXrecord
280
1
1000
auto
  0
XRECORD
  5
103
330
F4
100
AcDbXrecord
280
1
1000
auto
  0
XRECORD
  5
104
330
F4
100
AcDbXrecord
280
1
1000
auto
  0
XRECORD
  5
105
330
F4
100
AcDbXrecord
280
1
290
0
  0
XRECORD
  5
106
330
F4
100
AcDbXrecord
280
1
290
0
  0
XRECORD
  5
107
330
F4
100
AcDbXrecord
280
1
290
0
  0
XRECORD
  5
108
330
F4
100
AcDbXrecord
280
1
290
0
  0
XRECORD
  5
109
330
F4
100
AcDbXrecord
280
1
 90
65537
  0
XRECORD
  5
10A
330
F4
100
AcDbXrecord
280
1
 90
65537
  0
XRECORD
  5
10B
330
F4
100
AcDbXrecord
280
1
 90
65537
  0
XRECORD
  5
10C
330
F4
100
AcDbXrecord
280
1
 90
65537
  0
XRECORD
  5
10D
330
F4
100
AcDbXrecord
280
1
1000
auto
  0
XRECORD
  5
10E
330
F4
100
AcDbXrecord
280
1
1000
auto
  0
XRECORD
  5
10F
330
F4
100
AcDbXrecord
280
1
1000
auto
  0
XRECORD
  5
110
330
F4
100
AcDbXrecord
280
1
1000
auto
  0
XRECORD
  5
111
330
F4
100
AcDbXrecord
280
1
1000
auto
  0
XRECORD
  5
112
330
F4
100
AcDbXrecord
280
1
1000
auto
  0
XRECORD
  5
113
330
F4
100
AcDbXrecord
280
1
1000
auto
  0
XRECORD
  5
114
330
F4
100
AcDbXrecord
280
1
1000
auto
  0
XRECORD
  5
115
330
F4
100
AcDbXrecord
280
1
 90
1
  0
XRECORD
  5
116
330
F4
100
AcDbXrecord
280
1
 40
10.0
  0
XRECORD
  5
117
330
F4
100
AcDbXrecord
280
1
 40
10.0
  0
XRECORD
  5
118
330
F4
100
AcDbXrecord
280
1
 40
10.0
  0
XRECORD
  5
119
330
F4
100
AcDbXrecord
280
1
 40
10.0
  0
XRECORD
  5
11A
330
F4
100
AcDbXrecord
280
1
290
0
  0
XRECORD
  5
11B
330
F4
100
AcDbXrecord
280
1
 90
1
  0
XRECORD
  5
11C
330
F4
100
AcDbXrecord
280
1
 40
0.0
  0
XRECORD
  5
11D
330
F4
100
AcDbXrecord
280
1
 40
0.0
  0
XRECORD
  5
11E
330
F4
100
AcDbXrecord
280
1
1000
Portrait
  0
XRECORD
  5
11F
330
F4
100
AcDbXrecord
280
1
 40
297.0
  0
XRECORD
  5
120
330
F4
100
AcDbXrecord
280
1
 40
210.0
  0
XRECORD
  5
121
330
F4
100
AcDbXrecord
280
1
1000
1:1
  0
XRECORD
  5
122
330
F4
100
AcDbXrecord
280
1
290
1
  0
XRECORD
  5
123
330
F4
100
AcDbXrecord
280
1
1000
3.20.1
  0
XRECORD
  5
124
330
F4
100
AcDbXrecord
280
1
 90
4
  0
XRECORD
  5
126
330
F4
100
AcDbXrecord
280
1
 40
94.835069444444443
  0
XRECORD
  5
127
330
F4
100
AcDbXrecord
280
1
 40
163.84548611111111
  0
ENDSEC
  0
EOF
