999
dxflib 3.17.0.0
  0
SECTION
  2
HEADER
  9
$ACADVER
  1
AC1015
  9
$HANDSEED
  5
FFFF
  9
$DIMADEC
 70
0
  9
$DIMASZ
 40
2.5
  9
$DIMAUNIT
 70
0
  9
$DIMAZIN
 70
2
  9
$DIMDEC
 70
4
  9
$DIMDSEP
 70
46
  9
$DIMEXE
 40
1.25
  9
$DIMEXO
 40
0.625
  9
$DIMGAP
 40
0.625
  9
$DIMLUNIT
 70
2
  9
$DIMSCALE
 40
1.0
  9
$DIMTSZ
 40
0.0
  9
$DIMTXT
 40
2.5
  9
$DIMZIN
 70
8
  9
$DWGCODEPAGE
  3
ANSI_1252
  9
$INSUNITS
 70
4
  9
$LTSCALE
 40
1.0
  9
$MAXACTVP
 70
64
  9
$MEASUREMENT
 70
1
  9
$PDMODE
 70
0
  9
$PDSIZE
 40
0.0
  0
ENDSEC
  0
SECTION
  2
TABLES
  0
TABLE
  2
VPORT
  5
8
100
AcDbSymbolTable
 70
1
  0
VPORT
  5
30
100
AcDbSymbolTableRecord
100
AcDbViewportTableRecord
  2
*Active
 70
0
 10
0.0
 20
0.0
 11
1.0
 21
1.0
 12
286.3055555555554861
 22
148.5
 13
0.0
 23
0.0
 14
10.0
 24
10.0
 15
10.0
 25
10.0
 16
0.0
 26
0.0
 36
1.0
 17
0.0
 27
0.0
 37
0.0
 40
297.0
 41
1.92798353909465
 42
50.0
 43
0.0
 44
0.0
 50
0.0
 51
0.0
 71
0
 72
100
 73
1
 74
3
 75
1
 76
1
 77
0
 78
0
281
0
 65
1
110
0.0
120
0.0
130
0.0
111
1.0
121
0.0
131
0.0
112
0.0
122
1.0
132
0.0
 79
0
146
0.0
  0
ENDTAB
  0
TABLE
  2
LTYPE
  5
5
100
AcDbSymbolTable
 70
41
  0
LTYPE
  5
16
100
AcDbSymbolTableRecord
100
AcDbLinetypeTableRecord
  2
Continuous
 70
0
  3
Solid line
 72
65
 73
0
 40
0.0
  0
LTYPE
  5
31
100
AcDbSymbolTableRecord
100
AcDbLinetypeTableRecord
  2
DOT2
 70
0
  3
Dot (.5x) ........................................
 72
65
 73
2
 40
3.1749999999999998
 49
0.1
 74
0
 49
-3.0749999999999997
 74
0
  0
LTYPE
  5
32
100
AcDbSymbolTableRecord
100
AcDbLinetypeTableRecord
  2
ACAD_ISO11W100
 70
0
  3
ISO double-dash dot __ __ . __ __ . __ __ . __ _
 72
65
 73
6
 40
33.0
 49
12.0
 74
0
 49
-3.0
 74
0
 49
12.0
 74
0
 49
-2.9500000000000002
 74
0
 49
0.1
 74
0
 49
-2.9500000000000002
 74
0
  0
LTYPE
  5
33
100
AcDbSymbolTableRecord
100
AcDbLinetypeTableRecord
  2
DASHED2
 70
0
  3
Dashed (.5x) _ _ _ _ _ _ _ _ _ _ _ _ _ _ _ _ _ 
 72
65
 73
2
 40
9.5249999999999986
 49
6.3499999999999996
 74
0
 49
-3.1749999999999998
 74
0
  0
LTYPE
  5
34
100
AcDbSymbolTableRecord
100
AcDbLinetypeTableRecord
  2
ACAD_ISO10W100
 70
0
  3
ISO dash dot __ . __ . __ . __ . __ . __ . __ . 
 72
65
 73
4
 40
18.0
 49
12.0
 74
0
 49
-2.9500000000000002
 74
0
 49
0.1
 74
0
 49
-2.9500000000000002
 74
0
  0
LTYPE
  5
15
100
AcDbSymbolTableRecord
100
AcDbLinetypeTableRecord
  2
BYLAYER
 70
0
  3

 72
65
 73
0
 40
0.0
  0
LTYPE
  5
35
100
AcDbSymbolTableRecord
100
AcDbLinetypeTableRecord
  2
HIDDENX2
 70
0
  3
Hidden (2x) ____ ____ ____ ____ ____ ____ ____ 
 72
65
 73
2
 40
19.0499999999999972
 49
12.6999999999999993
 74
0
 49
-6.3499999999999996
 74
0
  0
LTYPE
  5
36
100
AcDbSymbolTableRecord
100
AcDbLinetypeTableRecord
  2
DASHED
 70
0
  3
Dashed __ __ __ __ __ __ __ __ __ __ __ __ __ _
 72
65
 73
2
 40
19.0499999999999972
 49
12.6999999999999993
 74
0
 49
-6.3499999999999996
 74
0
  0
LTYPE
  5
37
100
AcDbSymbolTableRecord
100
AcDbLinetypeTableRecord
  2
DIVIDEX2
 70
0
  3
Divide (2x) ________  .  .  ________  .  .  _
 72
65
 73
6
 40
63.5
 49
25.3999999999999986
 74
0
 49
-12.6499999999999986
 74
0
 49
0.1
 74
0
 49
-12.5999999999999979
 74
0
 49
0.1
 74
0
 49
-12.6499999999999986
 74
0
  0
LTYPE
  5
38
100
AcDbSymbolTableRecord
100
AcDbLinetypeTableRecord
  2
BORDERX2
 70
0
  3
Border (2x) ____  ____  .  ____  ____  .  ___
 72
65
 73
6
 40
88.8999999999999773
 49
25.3999999999999986
 74
0
 49
-12.6999999999999993
 74
0
 49
25.3999999999999986
 74
0
 49
-12.6499999999999986
 74
0
 49
0.1
 74
0
 49
-12.6499999999999986
 74
0
  0
LTYPE
  5
39
100
AcDbSymbolTableRecord
100
AcDbLinetypeTableRecord
  2
ACAD_ISO13W100
 70
0
  3
ISO double-dash double-dot __ __ . . __ __ . . _
 72
65
 73
8
 40
36.0000000000000071
 49
12.0
 74
0
 49
-3.0
 74
0
 49
12.0
 74
0
 49
-2.9500000000000002
 74
0
 49
0.1
 74
0
 49
-2.9000000000000004
 74
0
 49
0.1
 74
0
 49
-2.9500000000000002
 74
0
  0
LTYPE
  5
3A
100
AcDbSymbolTableRecord
100
AcDbLinetypeTableRecord
  2
ACAD_ISO14W100
 70
0
  3
ISO dash triple-dot __ . . . __ . . . __ . . . _
 72
65
 73
8
 40
24.0000000000000036
 49
12.0
 74
0
 49
-2.9500000000000002
 74
0
 49
0.1
 74
0
 49
-2.9000000000000004
 74
0
 49
0.1
 74
0
 49
-2.9000000000000004
 74
0
 49
0.1
 74
0
 49
-2.9500000000000002
 74
0
  0
LTYPE
  5
3B
100
AcDbSymbolTableRecord
100
AcDbLinetypeTableRecord
  2
DASHDOT
 70
0
  3
Dash dot __ . __ . __ . __ . __ . __ . __ . __
 72
65
 73
4
 40
25.4000000000000021
 49
12.6999999999999993
 74
0
 49
-6.2999999999999998
 74
0
 49
0.1
 74
0
 49
-6.2999999999999998
 74
0
  0
LTYPE
  5
3C
100
AcDbSymbolTableRecord
100
AcDbLinetypeTableRecord
  2
ACAD_ISO06W100
 70
0
  3
ISO long-dash triple-dot ____ ... ____ ... ____
 72
65
 73
8
 40
36.0000000000000071
 49
24.0
 74
0
 49
-2.9500000000000002
 74
0
 49
0.1
 74
0
 49
-2.9000000000000004
 74
0
 49
0.1
 74
0
 49
-2.9000000000000004
 74
0
 49
0.1
 74
0
 49
-2.9500000000000002
 74
0
  0
LTYPE
  5
3D
100
AcDbSymbolTableRecord
100
AcDbLinetypeTableRecord
  2
PHANTOM
 70
0
  3
Phantom ______  __  __  ______  __  __  ______ 
 72
65
 73
6
 40
63.5000000000000071
 49
31.75
 74
0
 49
-6.3499999999999996
 74
0
 49
6.3499999999999996
 74
0
 49
-6.3499999999999996
 74
0
 49
6.3499999999999996
 74
0
 49
-6.3499999999999996
 74
0
  0
LTYPE
  5
3E
100
AcDbSymbolTableRecord
100
AcDbLinetypeTableRecord
  2
ACAD_ISO04W100
 70
0
  3
ISO long-dash dot ____ . ____ . ____ . ____ . _
 72
65
 73
4
 40
30.0
 49
24.0
 74
0
 49
-2.9500000000000002
 74
0
 49
0.1
 74
0
 49
-2.9500000000000002
 74
0
  0
LTYPE
  5
3F
100
AcDbSymbolTableRecord
100
AcDbLinetypeTableRecord
  2
DIVIDE2
 70
0
  3
Divide (.5x) __..__..__..__..__..__..__..__.._
 72
65
 73
6
 40
15.8749999999999982
 49
6.3499999999999996
 74
0
 49
-3.125
 74
0
 49
0.1
 74
0
 49
-3.0750000000000002
 74
0
 49
0.1
 74
0
 49
-3.125
 74
0
  0
LTYPE
  5
40
100
AcDbSymbolTableRecord
100
AcDbLinetypeTableRecord
  2
ACAD_ISO12W100
 70
0
  3
ISO dash double-dot __ . . __ . . __ . . __ . . 
 72
65
 73
6
 40
21.0
 49
12.0
 74
0
 49
-2.9500000000000002
 74
0
 49
0.1
 74
0
 49
-2.9000000000000004
 74
0
 49
0.1
 74
0
 49
-2.9500000000000002
 74
0
  0
LTYPE
  5
14
100
AcDbSymbolTableRecord
100
AcDbLinetypeTableRecord
  2
BYBLOCK
 70
0
  3

 72
65
 73
0
 40
0.0
  0
LTYPE
  5
41
100
AcDbSymbolTableRecord
100
AcDbLinetypeTableRecord
  2
DASHDOTX2
 70
0
  3
Dash dot (2x) ____  .  ____  .  ____  .  ___
 72
65
 73
4
 40
50.7999999999999972
 49
25.3999999999999986
 74
0
 49
-12.6499999999999986
 74
0
 49
0.1
 74
0
 49
-12.6499999999999986
 74
0
  0
LTYPE
  5
42
100
AcDbSymbolTableRecord
100
AcDbLinetypeTableRecord
  2
PHANTOMX2
 70
0
  3
Phantom (2x) ____________    ____    ____   _
 72
65
 73
6
 40
127.0000000000000142
 49
63.5
 74
0
 49
-12.6999999999999993
 74
0
 49
12.6999999999999993
 74
0
 49
-12.6999999999999993
 74
0
 49
12.6999999999999993
 74
0
 49
-12.6999999999999993
 74
0
  0
LTYPE
  5
43
100
AcDbSymbolTableRecord
100
AcDbLinetypeTableRecord
  2
ACAD_ISO15W100
 70
0
  3
ISO double-dash triple-dot __ __ . . . __ __ . .
 72
65
 73
10
 40
39.0000000000000071
 49
12.0
 74
0
 49
-3.0
 74
0
 49
12.0
 74
0
 49
-2.9500000000000002
 74
0
 49
0.1
 74
0
 49
-2.9000000000000004
 74
0
 49
0.1
 74
0
 49
-2.9000000000000004
 74
0
 49
0.1
 74
0
 49
-2.9500000000000002
 74
0
  0
LTYPE
  5
44
100
AcDbSymbolTableRecord
100
AcDbLinetypeTableRecord
  2
HIDDEN
 70
0
  3
Hidden __ __ __ __ __ __ __ __ __ __ __ __ __ __
 72
65
 73
2
 40
9.5249999999999986
 49
6.3499999999999996
 74
0
 49
-3.1749999999999998
 74
0
  0
LTYPE
  5
45
100
AcDbSymbolTableRecord
100
AcDbLinetypeTableRecord
  2
HIDDEN2
 70
0
  3
Hidden (.5x) _ _ _ _ _ _ _ _ _ _ _ _ _ _ _ _ _ 
 72
65
 73
2
 40
4.7624999999999993
 49
3.1749999999999998
 74
0
 49
-1.5874999999999999
 74
0
  0
LTYPE
  5
46
100
AcDbSymbolTableRecord
100
AcDbLinetypeTableRecord
  2
CENTER2
 70
0
  3
Center (.5x) ___ _ ___ _ ___ _ ___ _ ___ _ ___
 72
65
 73
4
 40
28.5750000000000028
 49
19.0500000000000007
 74
0
 49
-3.1749999999999998
 74
0
 49
3.1749999999999998
 74
0
 49
-3.1749999999999998
 74
0
  0
LTYPE
  5
47
100
AcDbSymbolTableRecord
100
AcDbLinetypeTableRecord
  2
CENTER
 70
0
  3
Center ____ _ ____ _ ____ _ ____ _ ____ _ ____
 72
65
 73
4
 40
50.8000000000000043
 49
31.75
 74
0
 49
-6.3499999999999996
 74
0
 49
6.3499999999999996
 74
0
 49
-6.3499999999999996
 74
0
  0
LTYPE
  5
48
100
AcDbSymbolTableRecord
100
AcDbLinetypeTableRecord
  2
ACAD_ISO02W100
 70
0
  3
ISO dash __ __ __ __ __ __ __ __ __ __ __ __ __
 72
65
 73
2
 40
15.0
 49
12.0
 74
0
 49
-3.0
 74
0
  0
LTYPE
  5
49
100
AcDbSymbolTableRecord
100
AcDbLinetypeTableRecord
  2
DIVIDE
 70
0
  3
Divide ____ . . ____ . . ____ . . ____ . . ____
 72
65
 73
6
 40
31.7500000000000036
 49
12.6999999999999993
 74
0
 49
-6.2999999999999998
 74
0
 49
0.1
 74
0
 49
-6.25
 74
0
 49
0.1
 74
0
 49
-6.2999999999999998
 74
0
  0
LTYPE
  5
4A
100
AcDbSymbolTableRecord
100
AcDbLinetypeTableRecord
  2
ACAD_ISO05W100
 70
0
  3
ISO long-dash double-dot ____ .. ____ .. ____ . 
 72
65
 73
6
 40
33.0000000000000071
 49
24.0
 74
0
 49
-2.9500000000000002
 74
0
 49
0.1
 74
0
 49
-2.9000000000000004
 74
0
 49
0.1
 74
0
 49
-2.9500000000000002
 74
0
  0
LTYPE
  5
4B
100
AcDbSymbolTableRecord
100
AcDbLinetypeTableRecord
  2
ACAD_ISO07W100
 70
0
  3
ISO dot . . . . . . . . . . . . . . . . . . . . 
 72
65
 73
2
 40
3.0
 49
0.1
 74
0
 49
-2.8999999999999999
 74
0
  0
LTYPE
  5
4C
100
AcDbSymbolTableRecord
100
AcDbLinetypeTableRecord
  2
ACAD_ISO09W100
 70
0
  3
ISO long-dash double-short-dash ____ __ __ ____
 72
65
 73
6
 40
45.0
 49
24.0
 74
0
 49
-3.0
 74
0
 49
6.0
 74
0
 49
-3.0
 74
0
 49
6.0
 74
0
 49
-3.0
 74
0
  0
LTYPE
  5
4D
100
AcDbSymbolTableRecord
100
AcDbLinetypeTableRecord
  2
BORDER
 70
0
  3
Border __ __ . __ __ . __ __ . __ __ . __ __ .
 72
65
 73
6
 40
44.4499999999999957
 49
12.6999999999999993
 74
0
 49
-6.3499999999999996
 74
0
 49
12.6999999999999993
 74
0
 49
-6.2999999999999998
 74
0
 49
0.1
 74
0
 49
-6.2999999999999998
 74
0
  0
LTYPE
  5
4E
100
AcDbSymbolTableRecord
100
AcDbLinetypeTableRecord
  2
DASHEDX2
 70
0
  3
Dashed (2x) ____  ____  ____  ____  ____  ___
 72
65
 73
2
 40
38.0999999999999943
 49
25.3999999999999986
 74
0
 49
-12.6999999999999993
 74
0
  0
LTYPE
  5
4F
100
AcDbSymbolTableRecord
100
AcDbLinetypeTableRecord
  2
DOTX2
 70
0
  3
Dot (2x) .  .  .  .  .  .  .  .  .  .  .  .  .  .
 72
65
 73
2
 40
12.6999999999999993
 49
0.1
 74
0
 49
-12.5999999999999996
 74
0
  0
LTYPE
  5
50
100
AcDbSymbolTableRecord
100
AcDbLinetypeTableRecord
  2
DASHDOT2
 70
0
  3
Dash dot (.5x) _._._._._._._._._._._._._._._.
 72
65
 73
4
 40
12.6999999999999993
 49
6.3499999999999996
 74
0
 49
-3.125
 74
0
 49
0.1
 74
0
 49
-3.125
 74
0
  0
LTYPE
  5
51
100
AcDbSymbolTableRecord
100
AcDbLinetypeTableRecord
  2
ACAD_ISO03W100
 70
0
  3
ISO dash space __    __    __    __    __    __
 72
65
 73
2
 40
30.0
 49
12.0
 74
0
 49
-18.0
 74
0
  0
LTYPE
  5
52
100
AcDbSymbolTableRecord
100
AcDbLinetypeTableRecord
  2
ACAD_ISO08W100
 70
0
  3
ISO long-dash short-dash ____ __ ____ __ ____ _
 72
65
 73
4
 40
36.0
 49
24.0
 74
0
 49
-3.0
 74
0
 49
6.0
 74
0
 49
-3.0
 74
0
  0
LTYPE
  5
53
100
AcDbSymbolTableRecord
100
AcDbLinetypeTableRecord
  2
DOT
 70
0
  3
Dot . . . . . . . . . . . . . . . . . . . . . . . .
 72
65
 73
2
 40
6.3499999999999996
 49
0.1
 74
0
 49
-6.25
 74
0
  0
LTYPE
  5
54
100
AcDbSymbolTableRecord
100
AcDbLinetypeTableRecord
  2
BORDER2
 70
0
  3
Border (.5x) __.__.__.__.__.__.__.__.__.__.__.
 72
65
 73
6
 40
22.2250000000000014
 49
6.3499999999999996
 74
0
 49
-3.1749999999999998
 74
0
 49
6.3499999999999996
 74
0
 49
-3.125
 74
0
 49
0.1
 74
0
 49
-3.125
 74
0
  0
LTYPE
  5
55
100
AcDbSymbolTableRecord
100
AcDbLinetypeTableRecord
  2
PHANTOM2
 70
0
  3
Phantom (.5x) ___ _ _ ___ _ _ ___ _ _ ___ _ _
 72
65
 73
6
 40
31.7500000000000036
 49
15.875
 74
0
 49
-3.1749999999999998
 74
0
 49
3.1749999999999998
 74
0
 49
-3.1749999999999998
 74
0
 49
3.1749999999999998
 74
0
 49
-3.1749999999999998
 74
0
  0
LTYPE
  5
56
100
AcDbSymbolTableRecord
100
AcDbLinetypeTableRecord
  2
CENTERX2
 70
0
  3
Center (2x) ________  __  ________  __  _____
 72
65
 73
4
 40
101.6000000000000085
 49
63.5
 74
0
 49
-12.6999999999999993
 74
0
 49
12.6999999999999993
 74
0
 49
-12.6999999999999993
 74
0
  0
ENDTAB
  0
TABLE
  2
LAYER
  5
2
100
AcDbSymbolTable
 70
1
  0
LAYER
  5
10
100
AcDbSymbolTableRecord
100
AcDbLayerTableRecord
  2
0
 70
0
 62
7
420
16777215
  6
Continuous
370
25
390
F
  0
ENDTAB
  0
TABLE
  2
STYLE
  5
3
100
AcDbSymbolTable
 70
1
  0
STYLE
  5
57
100
AcDbSymbolTableRecord
100
AcDbTextStyleTableRecord
  2
Standard
 70
0
 40
0.0
 41
1.0
 50
0.0
 71
0
 42
2.5
  3

  4

1001
ACAD
1000
txt
1071
0
  0
ENDTAB
  0
TABLE
  2
VIEW
  5
6
100
AcDbSymbolTable
 70
0
  0
ENDTAB
  0
TABLE
  2
UCS
  5
7
100
AcDbSymbolTable
 70
0
  0
ENDTAB
  0
TABLE
  2
APPID
  5
9
100
AcDbSymbolTable
 70
1
  0
APPID
  5
12
100
AcDbSymbolTableRecord
100
AcDbRegAppTableRecord
  2
ACAD
 70
0
  0
APPID
  5
58
100
AcDbSymbolTableRecord
100
AcDbRegAppTableRecord
  2
QCAD
 70
0
  0
ENDTAB
  0
TABLE
  2
DIMSTYLE
  5
A
100
AcDbSymbolTable
 70
1
100
AcDbDimStyleTable
 71
0
  0
DIMSTYLE
105
27
100
AcDbSymbolTableRecord
100
AcDbDimStyleTableRecord
  2
Standard
 41
2.5
 42
0.625
 43
3.75
 44
1.25
 70
0
 73
0
 74
0
 77
1
 78
8
140
2.5
141
2.5
143
0.03937007874016
147
0.625
171
3
172
1
271
2
272
2
274
3
278
44
283
0
284
8
340
57
  0
ENDTAB
  0
TABLE
  2
BLOCK_RECORD
  5
1
100
AcDbSymbolTable
 70
1
  0
BLOCK_RECORD
  5
1F
100
AcDbSymbolTableRecord
100
AcDbBlockTableRecord
  2
*Model_Space
340
22
  0
BLOCK_RECORD
  5
1B
100
AcDbSymbolTableRecord
100
AcDbBlockTableRecord
  2
*Paper_Space
340
1E
  0
BLOCK_RECORD
  5
23
100
AcDbSymbolTableRecord
100
AcDbBlockTableRecord
  2
*Paper_Space0
340
26
  0
ENDTAB
  0
ENDSEC
  0
SECTION
  2
BLOCKS
  0
BLOCK
  5
20
100
AcDbEntity
  8
0
100
AcDbBlockBegin
  2
*Model_Space
 70
0
 10
0.0
 20
0.0
 30
0.0
  3
*Model_Space
  1

  0
ENDBLK
  5
21
100
AcDbEntity
  8
0
100
AcDbBlockEnd
  0
BLOCK
  5
1C
100
AcDbEntity
 67
1
  8
0
100
AcDbBlockBegin
  2
*Paper_Space
 70
0
 10
0.0
 20
0.0
 30
0.0
  3
*Paper_Space
  1

  0
ENDBLK
  5
1D
100
AcDbEntity
 67
1
  8
0
100
AcDbBlockEnd
  0
BLOCK
  5
24
100
AcDbEntity
  8
0
100
AcDbBlockBegin
  2
*Paper_Space0
 70
0
 10
0.0
 20
0.0
 30
0.0
  3
*Paper_Space0
  1

  0
ENDBLK
  5
25
100
AcDbEntity
  8
0
100
AcDbBlockEnd
  0
ENDSEC
  0
SECTION
  2
ENTITIES
  0
LINE
  5
59
100
AcDbEntity
  8
0
 62
256
370
-1
 48
1.0
  6
BYLAYER
100
AcDbLine
 10
0.0
 20
0.0
 30
0.0
 11
0.0
 21
128.5
 31
0.0
  0
LINE
  5
5A
100
AcDbEntity
  8
0
 62
256
370
-1
 48
1.0
  6
BYLAYER
100
AcDbLine
 10
0.0
 20
0.0
 30
0.0
 11
20.0
 21
0.0
 31
0.0
  0
LINE
  5
5B
100
AcDbEntity
  8
0
 62
256
370
-1
 48
1.0
  6
BYLAYER
100
AcDbLine
 10
20.0
 20
0.0
 30
0.0
 11
20.0
 21
128.5
 31
0.0
  0
LINE
  5
5C
100
AcDbEntity
  8
0
 62
256
370
-1
 48
1.0
  6
BYLAYER
100
AcDbLine
 10
0.0
 20
128.5
 30
0.0
 11
20.0
 21
128.5
 31
0.0
  0
CIRCLE
  5
5D
100
AcDbEntity
  8
0
 62
256
370
-1
 48
1.0
  6
BYLAYER
100
AcDbCircle
 10
7.0
 20
104.75
 30
0.0
 40
2.5
  0
CIRCLE
  5
5E
100
AcDbEntity
  8
0
 62
256
370
-1
 48
1.0
  6
BYLAYER
100
AcDbCircle
 10
6.9999999999999982
 20
83.25
 30
0.0
 40
2.5
  0
CIRCLE
  5
5F
100
AcDbEntity
  8
0
 62
256
370
-1
 48
1.0
  6
BYLAYER
100
AcDbCircle
 10
6.9999999999999964
 20
61.9979999999999905
 30
0.0
 40
2.5
  0
CIRCLE
  5
60
100
AcDbEntity
  8
0
 62
256
370
-1
 48
1.0
  6
BYLAYER
100
AcDbCircle
 10
6.9999999999999991
 20
40.0
 30
0.0
 40
2.5
  0
CIRCLE
  5
61
100
AcDbEntity
  8
0
 62
256
370
-1
 48
1.0
  6
BYLAYER
100
AcDbCircle
 10
12.4999999999999982
 20
125.4999999999999858
 30
0.0
 40
1.6000000000000085
  0
CIRCLE
  5
62
100
AcDbEntity
  8
0
 62
256
370
-1
 48
1.0
  6
BYLAYER
100
AcDbCircle
 10
7.4999999999999991
 20
2.9999999999999996
 30
0.0
 40
1.6000000000000085
  0
CIRCLE
  5
63
100
AcDbEntity
  8
0
 62
256
370
-1
 48
1.0
  6
BYLAYER
100
AcDbCircle
 10
10.0
 20
113.0
 30
0.0
 40
3.5
  0
CIRCLE
  5
64
100
AcDbEntity
  8
0
 62
256
370
-1
 48
1.0
  6
BYLAYER
100
AcDbCircle
 10
9.9999999999999982
 20
91.5
 30
0.0
 40
3.5
  0
CIRCLE
  5
65
100
AcDbEntity
  8
0
 62
256
370
-1
 48
1.0
  6
BYLAYER
100
AcDbCircle
 10
9.9999999999999964
 20
70.2479999999999905
 30
0.0
 40
3.5
  0
CIRCLE
  5
66
100
AcDbEntity
  8
0
 62
256
370
-1
 48
1.0
  6
BYLAYER
100
AcDbCircle
 10
9.9999999999999947
 20
48.7479999999999905
 30
0.0
 40
3.5
  0
CIRCLE
  5
67
100
AcDbEntity
  8
0
 62
256
370
-1
 48
1.0
  6
BYLAYER
100
AcDbCircle
 10
9.9999999999999929
 20
27.2479999999999905
 30
0.0
 40
3.5
  0
LWPOLYLINE
  5
68
100
AcDbEntity
  8
0
 62
256
370
-1
 48
1.0
  6
BYLAYER
100
AcDbPolyline
 90
13
 70
129
 10
16.9294679399727066
 20
117.4624829467939833
 42
0.0694677356207328
 10
16.6757162346521142
 20
116.9774897680763814
 10
16.2480218281036812
 20
117.2005457025920663
 42
-0.0527653630373376
 10
16.3605729877216888
 20
117.4686221009549598
 42
-0.0097546836814977
 10
16.6266030013642556
 20
117.8717598908594653
 42
-0.1043559505006074
 10
16.4976807639836274
 20
118.5245566166439204
 42
-0.2109236866729664
 10
16.9049113233287827
 20
119.6081173260572825
 42
-0.198563397492523
 10
18.0488403819918126
 20
119.9999999999999858
 42
-0.1986937377325018
 10
19.1917462482946775
 20
119.6070941336971174
 42
-0.2114038129902632
 10
19.5999999999999979
 20
118.540927694406534
 42
-0.212269833700431
 10
19.1917462482946775
 20
117.4829467939972574
 42
-0.1978946849165781
 10
18.0488403819918126
 20
117.0920873124147192
 42
-0.0883154482435686
 10
17.3653478854024534
 20
117.2005457025920663
 42
-0.0901630541702692
  0
LWPOLYLINE
  5
69
100
AcDbEntity
  8
0
 62
256
370
-1
 48
1.0
  6
BYLAYER
100
AcDbPolyline
 90
12
 70
129
 10
17.2712141882673933
 20
117.9495225102319154
 42
0.1045738303470736
 10
17.6027285129604358
 20
117.7745566166439204
 42
0.0727400207144972
 10
18.0488403819918126
 20
117.7162346521145793
 42
0.1840853094190252
 10
18.8254433833560704
 20
117.9454297407912549
 42
0.2236823454169547
 10
19.0822646657571617
 20
118.5450204638471945
 42
0.2236397269953562
 10
18.8244201909959052
 20
119.145634379263285
 42
0.1844029229127403
 10
18.0488403819918126
 20
119.3758526603001258
 42
0.1825091992785405
 10
17.2620054570259178
 20
119.145634379263285
 42
0.2256279702051948
 10
17.0010914051841731
 20
118.5634379263301383
 42
0.0891288695451307
 10
17.044065484311048
 20
118.3158253751705189
 42
0.060024565241893
 10
17.2323328785811718
 20
118.6903137789904292
 10
17.5781718963165048
 20
118.5204638472032599
 42
-0.0792591628347377
  0
LWPOLYLINE
  5
6A
100
AcDbEntity
  8
0
 62
256
370
-1
 48
1.0
  6
BYLAYER
100
AcDbPolyline
 90
20
 70
129
 10
19.5488403819918126
 20
116.6188577823888295
 10
19.5488403819918126
 20
116.0131279051718991
 10
17.9240109140518413
 20
116.0131279051718991
 42
0.037277438232666
 10
17.4226466575716223
 20
115.990617673248309
 42
0.1857457288812732
 10
17.1269440654843095
 20
115.8054198560586769
 42
0.1653286179779375
 10
17.0154160982264635
 20
115.4053516432346669
 42
0.1697375221284781
 10
17.1208049113233258
 20
115.016538546372459
 42
0.18842468323509
 10
17.3796725784447474
 20
114.8589669229072427
 42
0.0378494324508948
 10
17.8892223738062732
 20
114.8323639215429779
 10
19.5488403819918126
 20
114.8323639215429779
 10
19.5488403819918126
 20
114.2266340443260617
 10
17.9731241473396963
 20
114.2266340443260617
 42
-0.0473349213820988
 10
17.2098226466575674
 20
114.2757472776139309
 42
-0.1255939727647623
 10
16.8332878581173233
 20
114.4568523253629024
 42
-0.1189846863158935
 10
16.5887448840381957
 20
114.8098536896193878
 42
-0.095991432064684
 10
16.4976807639836274
 20
115.3869341807517088
 42
-0.1001954078731559
 10
16.596930422919506
 20
116.0387077141759988
 42
-0.1184490819260591
 10
16.8547748976807625
 20
116.3896626937121539
 42
-0.1144212571579866
 10
17.1873124147339666
 20
116.5595126254993232
 42
-0.0525371796828326
 10
17.9485675306957688
 20
116.6188577823888295
  0
LWPOLYLINE
  5
6B
100
AcDbEntity
  8
0
 62
256
370
-1
 48
1.0
  6
BYLAYER
100
AcDbPolyline
 90
8
 70
129
 10
16.5488403819918126
 20
110.8728545637238341
 10
16.5488403819918126
 20
111.5317904436692658
 10
17.2302864938608451
 20
111.7937276878711685
 10
17.2302864938608451
 20
112.9929091339830336
 10
16.5488403819918126
 20
113.240521685142653
 10
16.5488403819918126
 20
113.8830864873254711
 10
19.5488403819918126
 20
112.7146008120185172
 10
19.5488403819918126
 20
112.0740823945560294
  0
LWPOLYLINE
  5
6C
100
AcDbEntity
  8
0
 62
256
370
-1
 48
1.0
  6
BYLAYER
100
AcDbPolyline
 90
3
 70
129
 10
17.7357435197817175
 20
111.9881342363022725
 10
18.8489768076398363
 20
112.401503949808415
 10
17.7357435197817175
 20
112.8066881244332507
  0
LWPOLYLINE
  5
6D
100
AcDbEntity
  8
0
 62
256
370
-1
 48
1.0
  6
BYLAYER
100
AcDbPolyline
 90
11
 70
129
 10
19.5488403819918126
 20
110.5436316997655268
 10
19.5488403819918126
 20
109.4365375660683952
 42
-0.0666508244572539
 10
19.4915416098226473
 20
108.8655962290970365
 42
-0.1344499765203865
 10
19.2152796725784434
 20
108.413345205904676
 42
-0.1088878701120064
 10
18.72926330150068
 20
108.1268513450588387
 42
-0.0813678137237312
 10
18.0201909959072282
 20
108.0286248784831287
 42
-0.0823488530412371
 10
17.3817189631650741
 20
108.1207121908978621
 42
-0.1188012209229356
 10
16.8517053206002707
 20
108.4419945919892712
 42
-0.1162071684506754
 10
16.6122783083219616
 20
108.8676426138173667
 42
-0.0740543908422706
 10
16.5488403819918126
 20
109.4037954105431538
 10
16.5488403819918126
 20
110.5436316997655268
  0
LWPOLYLINE
  5
6E
100
AcDbEntity
  8
0
 62
256
370
-1
 48
1.0
  6
BYLAYER
100
AcDbPolyline
 90
11
 70
129
 10
19.0413369713506135
 20
109.9379018225486107
 10
17.054297407912685
 20
109.9379018225486107
 10
17.054297407912685
 20
109.4856507993562502
 42
0.0558295038653026
 10
17.0829467939972695
 20
109.1193479344176467
 42
0.1246777329599363
 10
17.2077762619372407
 20
108.8748049603385084
 42
0.1322184632590526
 10
17.4973396998635735
 20
108.7162101445131412
 42
0.070980039510903
 10
18.0467939972714859
 20
108.6548186029033189
 42
0.0754210298554191
 10
18.5809004092769428
 20
108.7162101445131412
 42
0.124877368981543
 10
18.8714870395634371
 20
108.8881064610206408
 42
0.1387658659854735
 10
19.0126875852660291
 20
109.1684611677055017
 42
0.0454358940188756
 10
19.0413369713506135
 20
109.6657326547450424
  0
LWPOLYLINE
  5
6F
100
AcDbEntity
  8
0
 62
256
370
-1
 48
1.0
  6
BYLAYER
100
AcDbPolyline
 90
18
 70
129
 10
16.5488403819918126
 20
106.3485430230943081
 10
19.5488403819918126
 20
106.3485430230943081
 10
19.5488403819918126
 20
105.0736453423303374
 42
-0.08112836006173
 10
19.4680081855388778
 20
104.3748049603385084
 42
-0.1686139866338036
 10
19.1804911323328753
 20
104.0258963655226978
 42
-0.1448767492350653
 10
18.7077762619372407
 20
103.8949277434217322
 42
-0.191556661426821
 10
18.1501364256480215
 20
104.0934270612934966
 42
-0.1771772627636573
 10
17.8728512960436561
 20
104.6868786301884455
 42
-0.073017920739902
 10
17.6211459754433832
 20
104.3625266520165553
 42
-0.0437171141279232
 10
17.1341064120054547
 20
104.0177108266413768
 10
16.5488403819918126
 20
103.6514079617027733
 10
16.5488403819918126
 20
104.3758281526986735
 10
17.2016371077762606
 20
104.8137544828487506
 42
0.0321751181627939
 10
17.6426330150068189
 20
105.1329904992198294
 42
0.1204748279837653
 10
17.7674624829467902
 20
105.3151187393289661
 42
0.0772762983385701
 10
17.8012278308321932
 20
105.6200300626577473
 10
17.8012278308321932
 20
105.7428131458773919
 10
16.5488403819918126
 20
105.7428131458773919
  0
LWPOLYLINE
  5
70
100
AcDbEntity
  8
0
 62
256
370
-1
 48
1.0
  6
BYLAYER
100
AcDbPolyline
 90
9
 70
129
 10
18.2800818553888114
 20
105.7428131458773919
 10
18.2800818553888114
 20
105.294654892125692
 42
0.0591431601119219
 10
18.3169167803547062
 20
104.7503165565185981
 42
0.1669928072445006
 10
18.4437926330150042
 20
104.5804666247314287
 42
0.1528181065357989
 10
18.6688949522510228
 20
104.5190750831216064
 42
0.1851344793069915
 10
18.9134379263301469
 20
104.5999072795745235
 42
0.1785379941196191
 10
19.0311050477489765
 20
104.828079175891034
 42
0.0216813850265143
 10
19.0413369713506135
 20
105.2700982754817574
 10
19.0413369713506135
 20
105.7428131458773919
  0
LWPOLYLINE
  5
71
100
AcDbEntity
  8
0
 62
256
370
-1
 48
1.0
  6
BYLAYER
100
AcDbPolyline
 90
12
 70
129
 10
16.5488403819918126
 20
103.3139995588631592
 10
19.5488403819918126
 20
103.3139995588631592
 10
19.5488403819918126
 20
101.089579367867259
 10
19.0413369713506135
 20
101.089579367867259
 10
19.0413369713506135
 20
102.708269681646243
 10
18.3762619372442018
 20
102.708269681646243
 10
18.3762619372442018
 20
101.2021305274852523
 10
17.8708049113233258
 20
101.2021305274852523
 10
17.8708049113233258
 20
102.708269681646243
 10
17.054297407912685
 20
102.708269681646243
 10
17.054297407912685
 20
101.0322805956980829
 10
16.5488403819918126
 20
101.0322805956980829
  0
LWPOLYLINE
  5
72
100
AcDbEntity
  8
0
 62
256
370
-1
 48
1.0
  6
BYLAYER
100
AcDbPolyline
 90
7
 70
129
 10
16.5488403819918126
 20
99.7630196632655384
 10
19.5488403819918126
 20
100.8353252567171126
 10
19.5488403819918126
 20
100.1784357614920111
 10
17.3285129604365586
 20
99.4192270302505392
 10
19.5488403819918126
 20
98.6845749156529877
 10
19.5488403819918126
 20
98.0420101134701838
 10
16.5488403819918126
 20
99.116362091642074
  0
LWPOLYLINE
  5
73
100
AcDbEntity
  8
0
 62
256
370
-1
 48
1.0
  6
BYLAYER
100
AcDbPolyline
 90
12
 70
129
 10
16.5488403819918126
 20
97.7427355384728287
 10
19.5488403819918126
 20
97.7427355384728287
 10
19.5488403819918126
 20
95.5183153474769284
 10
19.0413369713506135
 20
95.5183153474769284
 10
19.0413369713506135
 20
97.1370056612559125
 10
18.3762619372442018
 20
97.1370056612559125
 10
18.3762619372442018
 20
95.630866507094936
 10
17.8708049113233258
 20
95.630866507094936
 10
17.8708049113233258
 20
97.1370056612559125
 10
17.054297407912685
 20
97.1370056612559125
 10
17.054297407912685
 20
95.4610165753077524
 10
16.5488403819918126
 20
95.4610165753077524
  0
LWPOLYLINE
  5
74
100
AcDbEntity
  8
0
 62
256
370
-1
 48
1.0
  6
BYLAYER
100
AcDbPolyline
 90
18
 70
129
 10
16.5488403819918126
 20
94.9550571435573403
 10
19.5488403819918126
 20
94.9550571435573403
 10
19.5488403819918126
 20
93.6801594627933554
 42
-0.0811283600617278
 10
19.4680081855388778
 20
92.9813190808015406
 42
-0.1686139866337965
 10
19.1804911323328753
 20
92.6324104859857158
 42
-0.1448767492350962
 10
18.7077762619372407
 20
92.5014418638847644
 42
-0.191556661426821
 10
18.1501364256480215
 20
92.6999411817565289
 42
-0.1771772627636489
 10
17.8728512960436561
 20
93.2933927506514777
 42
-0.0730179207399071
 10
17.6211459754433832
 20
92.9690407724795875
 42
-0.0437171141279252
 10
17.1341064120054547
 20
92.624224947104409
 10
16.5488403819918126
 20
92.2579220821658055
 10
16.5488403819918126
 20
92.9823422731617057
 10
17.2016371077762606
 20
93.4202686033117686
 42
0.0321751181628237
 10
17.6426330150068189
 20
93.7395046196828616
 42
0.1204748279837448
 10
17.7674624829467902
 20
93.9216328597919983
 42
0.0772762983385777
 10
17.8012278308321932
 20
94.2265441831207795
 10
17.8012278308321932
 20
94.3493272663404241
 10
16.5488403819918126
 20
94.3493272663404241
  0
LWPOLYLINE
  5
75
100
AcDbEntity
  8
0
 62
256
370
-1
 48
1.0
  6
BYLAYER
100
AcDbPolyline
 90
9
 70
129
 10
18.2800818553888114
 20
94.3493272663404241
 10
18.2800818553888114
 20
93.9011690125887242
 42
0.0591431601119219
 10
18.3169167803547062
 20
93.3568306769816303
 42
0.1669928072445416
 10
18.4437926330150042
 20
93.1869807451944467
 42
0.1528181065356835
 10
18.6688949522510228
 20
93.1255892035846244
 42
0.1851344793069546
 10
18.9134379263301469
 20
93.2064214000375557
 42
0.1785379941196191
 10
19.0311050477489765
 20
93.4345932963540662
 42
0.0216813850265151
 10
19.0413369713506135
 20
93.8766123959448038
 10
19.0413369713506135
 20
94.3493272663404241
  0
LWPOLYLINE
  5
76
100
AcDbEntity
  8
0
 62
256
370
-1
 48
1.0
  6
BYLAYER
100
AcDbPolyline
 90
30
 70
129
 10
17.5249658935879928
 20
92.0739925333507472
 10
17.5822646657571617
 20
91.4846337338964446
 42
0.1742698639722124
 10
17.1463847203274184
 20
91.2687401459019014
 42
0.1822119347677094
 10
17.0072305593451532
 20
90.8297906233916734
 42
0.1749322093143676
 10
17.1310368349249629
 20
90.3887947161611152
 42
0.232791442650234
 10
17.4206002728512956
 20
90.2404318239373708
 42
0.1811098694256335
 10
17.6017053206002707
 20
90.3028465579073583
 42
0.1292873456278717
 10
17.7316507503410605
 20
90.5207865306222317
 42
0.0168515435654326
 10
17.862619372442019
 20
91.0057797093398335
 42
-0.1147099677201865
 10
18.1593451568894935
 20
91.6892722059291856
 42
-0.2232150866739611
 10
18.7630286493860829
 20
91.9655341431733859
 42
-0.1484219162819592
 10
19.1917462482946775
 20
91.8355887134325997
 42
-0.1516027065394839
 10
19.4956343792633007
 20
91.4611003096126751
 42
-0.1008779219693758
 10
19.5999999999999979
 20
90.8707183177982216
 42
-0.1805269069094589
 10
19.352387448840382
 20
90.0204454665021814
 42
-0.2174301491091306
 10
18.6914051841746236
 20
89.7206501049742116
 10
18.6648021828103658
 20
90.3263799821911277
 42
0.1871423791969296
 10
18.9973396998635735
 20
90.4931603368978159
 42
0.1670009239443079
 10
19.0986357435197789
 20
90.8768574719591982
 42
0.1582324430724084
 10
18.9901773533424247
 20
91.2902271854653407
 42
0.2553934114734247
 10
18.8039563437926311
 20
91.3864072673207346
 42
0.2323241784268582
 10
18.621828103683491
 20
91.2963663396263314
 42
0.0936974867588214
 10
18.4212824010914034
 20
90.7397496956972702
 42
-0.0588045002859137
 10
18.2053888130968602
 20
90.08592977755265
 42
-0.1361073350707211
 10
17.9004774897680754
 20
89.7544154528596039
 42
-0.1408318990042077
 10
17.4226466575716223
 20
89.6347019467204547
 42
-0.14556642339795
 10
16.9396998635743508
 20
89.7779488771433734
 42
-0.1567867069059083
 10
16.6051159618008164
 20
90.183133051768209
 42
-0.0983302336073182
 10
16.4956343792633007
 20
90.83592977755265
 42
-0.1813076090757538
 10
16.7585948158253721
 20
91.7097360531324597
 42
-0.1923164667376534
  0
LWPOLYLINE
  5
77
100
AcDbEntity
  8
0
 62
256
370
-1
 48
1.0
  6
BYLAYER
100
AcDbPolyline
 90
12
 70
129
 10
16.5488403819918126
 20
89.1348816691310333
 10
19.5488403819918126
 20
89.1348816691310333
 10
19.5488403819918126
 20
86.9104614781351188
 10
19.0413369713506135
 20
86.9104614781351188
 10
19.0413369713506135
 20
88.5291517919141029
 10
18.3762619372442018
 20
88.5291517919141029
 10
18.3762619372442018
 20
87.0230126377531406
 10
17.8708049113233258
 20
87.0230126377531406
 10
17.8708049113233258
 20
88.5291517919141029
 10
17.054297407912685
 20
88.5291517919141029
 10
17.054297407912685
 20
86.853162705965957
 10
16.5488403819918126
 20
86.853162705965957
  0
LWPOLYLINE
  5
78
100
AcDbEntity
  8
0
 62
256
370
-1
 48
1.0
  6
BYLAYER
100
AcDbPolyline
 90
8
 70
129
 10
16.5488403819918126
 20
82.6448031631144033
 10
16.5488403819918126
 20
83.303739043059835
 10
17.2302864938608451
 20
83.565676287261752
 10
17.2302864938608451
 20
84.7648577333736171
 10
16.5488403819918126
 20
85.0124702845332365
 10
16.5488403819918126
 20
85.6550350867160546
 10
19.5488403819918126
 20
84.4865494114091007
 10
19.5488403819918126
 20
83.8460309939466129
  0
LWPOLYLINE
  5
79
100
AcDbEntity
  8
0
 62
256
370
-1
 48
1.0
  6
BYLAYER
100
AcDbPolyline
 90
3
 70
129
 10
17.7357435197817175
 20
83.760082835692856
 10
18.8489768076398363
 20
84.1734525491989984
 10
17.7357435197817175
 20
84.5786367238238199
  0
LWPOLYLINE
  5
7A
100
AcDbEntity
  8
0
 62
256
370
-1
 48
1.0
  6
BYLAYER
100
AcDbPolyline
 90
7
 70
129
 10
16.5488403819918126
 20
81.8591384761173231
 10
19.5488403819918126
 20
82.9314440695688972
 10
19.5488403819918126
 20
82.2745545743437958
 10
17.3285129604365586
 20
81.5153458431023239
 10
19.5488403819918126
 20
80.7806937285047724
 10
19.5488403819918126
 20
80.1381289263219685
 10
16.5488403819918126
 20
81.2124809044938729
  0
LWPOLYLINE
  5
7B
100
AcDbEntity
  8
0
 62
256
370
-1
 48
1.0
  6
BYLAYER
100
AcDbPolyline
 90
8
 70
129
 10
16.5488403819918126
 20
77.4444861981357633
 10
16.5488403819918126
 20
78.103422078081195
 10
17.2302864938608451
 20
78.365359322283112
 10
17.2302864938608451
 20
79.564540768394977
 10
16.5488403819918126
 20
79.8121533195545965
 10
16.5488403819918126
 20
80.4547181217374145
 10
19.5488403819918126
 20
79.2862324464304606
 10
19.5488403819918126
 20
78.6457140289679728
  0
LWPOLYLINE
  5
7C
100
AcDbEntity
  8
0
 62
256
370
-1
 48
1.0
  6
BYLAYER
100
AcDbPolyline
 90
3
 70
129
 10
17.7357435197817175
 20
78.5597658707142159
 10
18.8489768076398363
 20
78.9731355842203584
 10
17.7357435197817175
 20
79.3783197588451799
  0
LWPOLYLINE
  5
7D
100
AcDbEntity
  8
0
 62
256
370
-1
 48
1.0
  6
BYLAYER
100
AcDbPolyline
 90
6
 70
129
 10
16.5488403819918126
 20
77.0968458716945122
 10
19.5242837653478851
 20
77.0968458716945122
 10
19.5242837653478851
 20
76.4911159944776102
 10
17.054297407912685
 20
76.4911159944776102
 10
17.054297407912685
 20
74.9849768403166195
 10
16.5488403819918126
 20
74.9849768403166195
  0
LWPOLYLINE
  5
7E
100
AcDbEntity
  8
0
 62
256
370
-1
 48
1.0
  6
BYLAYER
100
AcDbPolyline
 90
8
 70
129
 10
16.5488403819918126
 20
71.8481263938698191
 10
16.5488403819918126
 20
72.5070622738152508
 10
17.2302864938608451
 20
72.7689995180171536
 10
17.2302864938608451
 20
73.9681809641290329
 10
16.5488403819918126
 20
74.2157935152886523
 10
16.5488403819918126
 20
74.858358317471442
 10
19.5488403819918126
 20
73.6898726421644881
 10
19.5488403819918126
 20
73.0493542247020144
  0
LWPOLYLINE
  5
7F
100
AcDbEntity
  8
0
 62
256
370
-1
 48
1.0
  6
BYLAYER
100
AcDbPolyline
 90
3
 70
129
 10
17.7357435197817175
 20
72.9634060664482575
 10
18.8489768076398363
 20
73.3767757799544
 10
17.7357435197817175
 20
73.7819599545792357
  0
LWPOLYLINE
  5
80
100
AcDbEntity
  8
0
 62
256
370
-1
 48
1.0
  6
BYLAYER
100
AcDbPolyline
 90
10
 70
129
 10
16.5488403819918126
 20
71.5107179910301909
 10
19.5488403819918126
 20
71.5107179910301909
 10
19.5488403819918126
 20
70.9213591915759025
 10
17.5454297407912669
 20
69.6935283593794566
 10
19.5488403819918126
 20
69.6935283593794566
 10
19.5488403819918126
 20
69.1307725612894046
 10
16.5488403819918126
 20
69.1307725612894046
 10
16.5488403819918126
 20
69.7385488232266653
 10
18.5051841746248265
 20
70.9479621929401674
 10
16.5488403819918126
 20
70.9479621929401674
  0
LWPOLYLINE
  5
81
100
AcDbEntity
  8
0
 62
256
370
-1
 48
1.0
  6
BYLAYER
100
AcDbPolyline
 90
18
 70
129
 10
17.6518417462482944
 20
66.5607584285725835
 10
17.4656207366984972
 20
65.9734460138386112
 42
-0.1671334748728582
 10
16.7360845839017713
 20
66.422627459950462
 42
-0.1668573789571467
 10
16.4976807639836274
 20
67.219694308518001
 42
-0.2156679250405146
 10
16.9059345156889478
 20
68.2019589742751577
 42
-0.1962365570038968
 10
18.0222373806275549
 20
68.5866793016967335
 42
-0.1939199734531183
 10
19.1856070941336938
 20
68.1999125895548559
 42
-0.2167562810564208
 10
19.5999999999999979
 20
67.1828593835521133
 42
-0.1981473977178539
 10
19.274624829467939
 20
66.2885892607690295
 42
-0.1360063931839887
 10
18.7221009549795347
 20
65.981631552719918
 10
18.5788540245566161
 20
66.5812222757758576
 42
0.1742050159678637
 10
18.9472032742155498
 20
66.8032550179313773
 42
0.1749533473553122
 10
19.0822646657571617
 20
67.2135551543570386
 42
0.2280391616546609
 10
18.8428376534788526
 20
67.7548239128836371
 42
0.1763450075047171
 10
18.06725784447476
 20
67.9625319619968593
 42
0.170901232136977
 10
17.2568894952250993
 20
67.7578934899641183
 42
0.2316114705458022
 10
17.0154160982264635
 20
67.2258334626789917
 42
0.1889892712899923
 10
17.1688949522510228
 20
66.810417364452519
 42
0.1561720808102986
  0
LWPOLYLINE
  5
82
100
AcDbEntity
  8
0
 62
256
370
-1
 48
1.0
  6
BYLAYER
100
AcDbPolyline
 90
12
 70
129
 10
16.5488403819918126
 20
65.4416310625678932
 10
19.5488403819918126
 20
65.4416310625678932
 10
19.5488403819918126
 20
64.8359011853509628
 10
18.3680763983628914
 20
64.8359011853509628
 10
18.3680763983628914
 20
63.6489980475610651
 10
19.5488403819918126
 20
63.6489980475610651
 10
19.5488403819918126
 20
63.043268170344156
 10
16.5488403819918126
 20
63.043268170344156
 10
16.5488403819918126
 20
63.6489980475610651
 10
17.8605729877216888
 20
63.6489980475610651
 10
17.8605729877216888
 20
64.8359011853509628
 10
16.5488403819918126
 20
64.8359011853509628
  0
LWPOLYLINE
  5
83
100
AcDbEntity
  8
0
 62
256
370
-1
 48
1.0
  6
BYLAYER
100
AcDbPolyline
 90
12
 70
129
 10
16.5488403819918126
 20
62.4070875983367301
 10
19.5488403819918126
 20
62.4070875983367301
 10
19.5488403819918126
 20
60.1826674073408228
 10
19.0413369713506135
 20
60.1826674073408228
 10
19.0413369713506135
 20
61.8013577211198211
 10
18.3762619372442018
 20
61.8013577211198211
 10
18.3762619372442018
 20
60.2952185669588303
 10
17.8708049113233258
 20
60.2952185669588303
 10
17.8708049113233258
 20
61.8013577211198211
 10
17.054297407912685
 20
61.8013577211198211
 10
17.054297407912685
 20
60.125368635171661
 10
16.5488403819918126
 20
60.125368635171661
  0
LWPOLYLINE
  5
84
100
AcDbEntity
  8
0
 62
256
370
-1
 48
1.0
  6
BYLAYER
100
AcDbPolyline
 90
10
 70
129
 10
18.0304229195088652
 20
58.5898326130821374
 42
-0.1035033566386815
 10
18.7998635743519777
 20
58.4527248368202024
 42
-0.0887304716847961
 10
19.2111869031377864
 20
58.1733933224955138
 42
-0.1022159918237273
 10
19.4813096862210067
 20
57.7856034179934639
 42
-0.1008111681527579
 10
19.5999999999999979
 20
57.1389458463700066
 42
-0.2109692091520954
 10
19.1886766712141856
 20
56.0778953688802275
 42
-0.199744770076468
 10
18.0447476125511592
 20
55.6798735407765406
 42
-0.199062599222238
 10
16.9079809004092745
 20
56.0748257917997321
 42
-0.2117135593124106
 10
16.4976807639836274
 20
57.1307603074886856
 42
-0.2107726254246683
 10
16.9059345156889478
 20
58.1948803620589459
 42
-0.2000088613351932
  0
LWPOLYLINE
  5
85
100
AcDbEntity
  8
0
 62
256
370
-1
 48
1.0
  6
BYLAYER
100
AcDbPolyline
 90
8
 70
129
 10
18.0508867667121393
 20
57.9656852733822774
 42
0.1858023423294547
 10
17.2783765347885385
 20
57.7303510305446252
 42
0.2234885323936789
 10
17.0154160982264635
 20
57.132806692209023
 42
0.2242506675355647
 10
17.2763301500682118
 20
56.5383319309538948
 42
0.1840757256043328
 10
18.0590723055934497
 20
56.306067265196738
 42
0.1837364737804558
 10
18.8285129604365622
 20
56.5321927767929182
 42
0.2237063844645732
 10
19.0822646657571617
 20
57.132806692209023
 42
0.2235993490207207
 10
18.8254433833560704
 20
57.7364901847056089
 42
0.1842082365376963
  0
LWPOLYLINE
  5
86
100
AcDbEntity
  8
0
 62
256
370
-1
 48
1.0
  6
BYLAYER
100
AcDbPolyline
 90
30
 70
129
 10
17.5249658935879928
 20
55.3580764800548764
 10
17.5822646657571617
 20
54.7687176806005738
 42
0.1742698639721916
 10
17.1463847203274184
 20
54.5528240926060306
 42
0.1822119347677209
 10
17.0072305593451532
 20
54.1138745700958026
 42
0.1749322093143647
 10
17.1310368349249629
 20
53.6728786628652443
 42
0.2327914426502892
 10
17.4206002728512956
 20
53.5245157706415142
 42
0.1811098694256385
 10
17.6017053206002707
 20
53.5869305046114874
 42
0.1292873456278708
 10
17.7316507503410605
 20
53.8048704773263609
 42
0.016851543565451
 10
17.862619372442019
 20
54.2898636560439627
 42
-0.1147099677201834
 10
18.1593451568894935
 20
54.9733561526333148
 42
-0.223215086673945
 10
18.7630286493860829
 20
55.2496180898775293
 42
-0.1484219162819289
 10
19.1917462482946775
 20
55.1196726601367288
 42
-0.1516027065394301
 10
19.4956343792633007
 20
54.7451842563168185
 42
-0.1008779219693635
 10
19.5999999999999979
 20
54.1548022645023508
 42
-0.1805269069094504
 10
19.352387448840382
 20
53.3045294132062963
 42
-0.2174301491091118
 10
18.6914051841746236
 20
53.0047340516783407
 10
18.6648021828103658
 20
53.6104639288952427
 42
0.1871423791969048
 10
18.9973396998635735
 20
53.7772442836019451
 42
0.167000923944307
 10
19.0986357435197789
 20
54.1609414186633273
 42
0.1582324430723882
 10
18.9901773533424247
 20
54.5743111321694698
 42
0.2553934114734339
 10
18.8039563437926311
 20
54.6704912140248638
 42
0.2323241784268806
 10
18.621828103683491
 20
54.5804502863304464
 42
0.0936974867588392
 10
18.4212824010914034
 20
54.0238336424013852
 42
-0.0588045002858925
 10
18.2053888130968602
 20
53.3700137242567791
 42
-0.1361073350707293
 10
17.9004774897680754
 20
53.038499399563733
 42
-0.1408318990041842
 10
17.4226466575716223
 20
52.9187858934245838
 42
-0.1455664233979768
 10
16.9396998635743508
 20
53.0620328238475025
 42
-0.1567867069059035
 10
16.6051159618008164
 20
53.467216998472324
 42
-0.0983302336073126
 10
16.4956343792633007
 20
54.1200137242567791
 42
-0.1813076090757609
 10
16.7585948158253721
 20
54.9938199998365889
 42
-0.1923164667376351
  0
LWPOLYLINE
  5
87
100
AcDbEntity
  8
0
 62
256
370
-1
 48
1.0
  6
BYLAYER
100
AcDbPolyline
 90
18
 70
129
 10
17.6518417462482944
 20
50.4994567481680292
 10
17.4656207366984972
 20
49.9121443334340569
 42
-0.1671334748728276
 10
16.7360845839017713
 20
50.3613257795459361
 42
-0.1668573789571684
 10
16.4976807639836274
 20
51.1583926281134609
 42
-0.2156679250404982
 10
16.9059345156889478
 20
52.1406572938706319
 42
-0.1962365570038669
 10
18.0222373806275549
 20
52.5253776212921792
 42
-0.1939199734531313
 10
19.1856070941336938
 20
52.1386109091502874
 42
-0.2167562810564387
 10
19.5999999999999979
 20
51.121557703147559
 42
-0.198147397717855
 10
19.274624829467939
 20
50.2272875803644894
 42
-0.1360063931839733
 10
18.7221009549795347
 20
49.9203298723153779
 10
18.5788540245566161
 20
50.5199205953713033
 42
0.1742050159678656
 10
18.9472032742155498
 20
50.7419533375268372
 42
0.1749533473553136
 10
19.0822646657571617
 20
51.1522534739524843
 42
0.2280391616546773
 10
18.8428376534788526
 20
51.6935222324790828
 42
0.1763450075046983
 10
18.06725784447476
 20
51.9012302815923192
 42
0.1709012321369742
 10
17.2568894952250993
 20
51.6965918095595782
 42
0.2316114705458046
 10
17.0154160982264635
 20
51.1645317822744516
 42
0.1889892712899928
 10
17.1688949522510228
 20
50.7491156840479789
 42
0.1561720808102814
  0
LWPOLYLINE
  5
88
100
AcDbEntity
  8
0
 62
256
370
-1
 48
1.0
  6
BYLAYER
100
AcDbPolyline
 90
4
 70
129
 10
16.5488403819918126
 20
49.400793229366613
 10
19.5488403819918126
 20
49.400793229366613
 10
19.5488403819918126
 20
48.795063352149711
 10
16.5488403819918126
 20
48.795063352149711
  0
LWPOLYLINE
  5
89
100
AcDbEntity
  8
0
 62
256
370
-1
 48
1.0
  6
BYLAYER
100
AcDbPolyline
 90
6
 70
129
 10
16.5488403819918126
 20
48.2115986308419764
 10
19.5242837653478851
 20
48.2115986308419764
 10
19.5242837653478851
 20
47.6058687536250602
 10
17.054297407912685
 20
47.6058687536250602
 10
17.054297407912685
 20
46.0997295994640837
 10
16.5488403819918126
 20
46.0997295994640837
  0
LWPOLYLINE
  5
8A
100
AcDbEntity
  8
0
 62
256
370
-1
 48
1.0
  6
BYLAYER
100
AcDbPolyline
 90
6
 70
129
 10
16.5488403819918126
 20
45.6518286755274971
 10
19.5242837653478851
 20
45.6518286755274971
 10
19.5242837653478851
 20
45.0460987983105809
 10
17.054297407912685
 20
45.0460987983105809
 10
17.054297407912685
 20
43.5399596441496044
 10
16.5488403819918126
 20
43.5399596441496044
  0
LWPOLYLINE
  5
8B
100
AcDbEntity
  8
0
 62
256
370
-1
 48
1.0
  6
BYLAYER
100
AcDbPolyline
 90
8
 70
129
 10
16.5488403819918126
 20
40.4031091977027899
 10
16.5488403819918126
 20
41.0620450776482215
 10
17.2302864938608451
 20
41.3239823218501385
 10
17.2302864938608451
 20
42.5231637679620036
 10
16.5488403819918126
 20
42.770776319121623
 10
16.5488403819918126
 20
43.4133411213044269
 10
19.5488403819918126
 20
42.244855445997473
 10
19.5488403819918126
 20
41.6043370285349994
  0
LWPOLYLINE
  5
8C
100
AcDbEntity
  8
0
 62
256
370
-1
 48
1.0
  6
BYLAYER
100
AcDbPolyline
 90
3
 70
129
 10
17.7357435197817175
 20
41.5183888702812425
 10
18.8489768076398363
 20
41.931758583787385
 10
17.7357435197817175
 20
42.3369427584122064
  0
LWPOLYLINE
  5
8D
100
AcDbEntity
  8
0
 62
256
370
-1
 48
1.0
  6
BYLAYER
100
AcDbPolyline
 90
8
 70
129
 10
16.5488403819918126
 20
39.7074854384001128
 10
19.0413369713506135
 20
39.7074854384001128
 10
19.0413369713506135
 20
40.5976627917425503
 10
19.5488403819918126
 20
40.5976627917425503
 10
19.5488403819918126
 20
38.2136245925611036
 10
19.0413369713506135
 20
38.2136245925611036
 10
19.0413369713506135
 20
39.1017555611831966
 10
16.5488403819918126
 20
39.1017555611831966
  0
LWPOLYLINE
  5
8E
100
AcDbEntity
  8
0
 62
256
370
-1
 48
1.0
  6
BYLAYER
100
AcDbPolyline
 90
10
 70
129
 10
18.0304229195088652
 20
38.0214849972632862
 42
-0.1035033566386723
 10
18.7998635743519777
 20
37.8843772210013583
 42
-0.088730471684781
 10
19.2111869031377864
 20
37.6050457066766626
 42
-0.1022159918237394
 10
19.4813096862210067
 20
37.2172558021746198
 42
-0.1008111681527557
 10
19.5999999999999979
 20
36.5705982305511483
 42
-0.2109692091520982
 10
19.1886766712141856
 20
35.5095477530613834
 42
-0.1997447700764609
 10
18.0447476125511592
 20
35.1115259249576894
 42
-0.1990625992222432
 10
16.9079809004092745
 20
35.5064781759808881
 42
-0.2117135593124143
 10
16.4976807639836274
 20
36.5624126916698344
 42
-0.2107726254246694
 10
16.9059345156889478
 20
37.6265327462401018
 42
-0.2000088613351957
  0
LWPOLYLINE
  5
8F
100
AcDbEntity
  8
0
 62
256
370
-1
 48
1.0
  6
BYLAYER
100
AcDbPolyline
 90
8
 70
129
 10
18.0508867667121393
 20
37.3973376575634262
 42
0.1858023423294538
 10
17.2783765347885385
 20
37.1620034147257741
 42
0.2234885323936823
 10
17.0154160982264635
 20
36.5644590763901647
 42
0.2242506675355618
 10
17.2763301500682118
 20
35.9699843151350507
 42
0.1840757256043479
 10
18.0590723055934497
 20
35.7377196493778939
 42
0.1837364737804393
 10
18.8285129604365622
 20
35.9638451609740599
 42
0.2237063844645576
 10
19.0822646657571617
 20
36.5644590763901647
 42
0.223599349020727
 10
18.8254433833560704
 20
37.1681425688867506
 42
0.1842082365376876
  0
LWPOLYLINE
  5
90
100
AcDbEntity
  8
0
 62
256
370
-1
 48
1.0
  6
BYLAYER
100
AcDbPolyline
 90
18
 70
129
 10
16.5488403819918126
 20
34.6342036254911534
 10
19.5488403819918126
 20
34.6342036254911534
 10
19.5488403819918126
 20
33.3593059447271685
 42
-0.0811283600617258
 10
19.4680081855388778
 20
32.6604655627353537
 42
-0.1686139866338073
 10
19.1804911323328753
 20
32.3115569679195147
 42
-0.144876749235095
 10
18.7077762619372407
 20
32.1805883458185775
 42
-0.1915566614267777
 10
18.1501364256480215
 20
32.3790876636903278
 42
-0.1771772627636584
 10
17.8728512960436561
 20
32.9725392325852766
 42
-0.0730179207398491
 10
17.6211459754433832
 20
32.6481872544133722
 42
-0.0437171141278983
 10
17.1341064120054547
 20
32.3033714290382221
 10
16.5488403819918126
 20
31.9370685640996044
 10
16.5488403819918126
 20
32.6614887550955046
 10
17.2016371077762606
 20
33.0994150852455817
 42
0.0321751181628124
 10
17.6426330150068154
 20
33.4186511016166463
 42
0.1204748279837486
 10
17.7674624829467902
 20
33.6007793417257972
 42
0.0772762983385556
 10
17.8012278308321932
 20
33.9056906650545926
 10
17.8012278308321932
 20
34.0284737482742372
 10
16.5488403819918126
 20
34.0284737482742372
  0
LWPOLYLINE
  5
91
100
AcDbEntity
  8
0
 62
256
370
-1
 48
1.0
  6
BYLAYER
100
AcDbPolyline
 90
9
 70
129
 10
18.2800818553888114
 20
34.0284737482742372
 10
18.2800818553888114
 20
33.5803154945225231
 42
0.0591431601119224
 10
18.3169167803547062
 20
33.0359771589154292
 42
0.1669928072444986
 10
18.4437926330150042
 20
32.8661272271282456
 42
0.1528181065357414
 10
18.6688949522510228
 20
32.8047356855184233
 42
0.1851344793069984
 10
18.9134379263301469
 20
32.8855678819713688
 42
0.1785379941196987
 10
19.0311050477489765
 20
33.1137397782878793
 42
0.0216813850265196
 10
19.0413369713506135
 20
33.5557588778785671
 10
19.0413369713506135
 20
34.0284737482742372
  0
LWPOLYLINE
  5
92
100
AcDbEntity
  8
0
 62
256
370
-1
 48
1.0
  6
BYLAYER
100
AcDbPolyline
 90
8
 70
129
 10
1.0
 20
20.0585012087026584
 10
3.7650282030620468
 20
20.0585012087026584
 10
3.7650282030620468
 20
19.4739726027397282
 10
2.7700241740531828
 20
19.4739726027397282
 10
2.7700241740531828
 20
17.0585012087026584
 10
1.9964544721998387
 20
17.0585012087026584
 10
1.9964544721998387
 20
19.4739726027397282
 10
1.0
 20
19.4739726027397282
  0
LWPOLYLINE
  5
93
100
AcDbEntity
  8
0
 62
256
370
-1
 48
1.0
  6
BYLAYER
100
AcDbPolyline
 90
8
 70
129
 10
5.2033843674456088
 20
18.848831587429494
 42
0.2528106725506646
 10
4.8388396454472202
 20
18.6771958098307778
 42
0.1577890542291711
 10
4.7131345688960513
 20
18.1816277195809803
 42
0.1576749368723376
 10
4.8388396454472202
 20
17.6863013698630098
 42
0.2530325641940021
 10
5.2033843674456088
 20
17.5144238517324737
 42
0.2543509340062357
 10
5.563094278807414
 20
17.6863013698630098
 42
0.1566279833247684
 10
5.6878323932312647
 20
18.1816277195809803
 42
0.1567413386403483
 10
5.563094278807414
 20
18.6771958098307778
 42
0.2541302457085079
  0
LWPOLYLINE
  5
94
100
AcDbEntity
  8
0
 62
256
370
-1
 48
1.0
  6
BYLAYER
100
AcDbPolyline
 90
8
 70
129
 10
5.2033843674456088
 20
19.3632554391619678
 42
-0.1985700988402823
 10
6.110636583400483
 20
19.0497179693795289
 42
-0.2112549155218379
 10
6.4372280419016921
 20
18.1816277195809803
 42
-0.2112549155218367
 10
6.110636583400483
 20
17.3135374697824318
 42
-0.1985700988402757
 10
5.2033843674456088
 20
17.0
 42
-0.1977221508060223
 10
4.2922643029814669
 20
17.3135374697824318
 42
-0.2121732306438218
 10
3.9637389202256248
 20
18.1816277195809803
 42
-0.2121732306438215
 10
4.2922643029814669
 20
19.0497179693795289
 42
-0.1977221508060276
  0
LWPOLYLINE
  5
95
100
AcDbEntity
  8
0
 62
256
370
-1
 48
1.0
  6
BYLAYER
100
AcDbPolyline
 90
19
 70
129
 10
9.2220789685737312
 20
18.4291700241740557
 10
9.2220789685737312
 20
17.0585012087026584
 10
8.4987912973408548
 20
17.0585012087026584
 10
8.4987912973408548
 20
17.2813859790491549
 10
8.4987912973408548
 20
18.1076551168412578
 42
0.0247848332854448
 10
8.4857373086220793
 20
18.5091861402095077
 42
0.1038630378753875
 10
8.4402900886381946
 20
18.6718775181305361
 42
0.1375379517397435
 10
8.3259468170829969
 20
18.7816277195809818
 42
0.1263805524733511
 10
8.1608380338436746
 20
18.82078968573731
 42
0.2519449839985686
 10
7.8074133763094276
 20
18.6469782433521374
 42
0.1607868699696137
 10
7.6788074133763091
 20
18.1656728444802553
 10
7.6788074133763091
 20
17.0585012087026584
 10
6.9593875906526996
 20
17.0585012087026584
 10
6.9593875906526996
 20
19.3091055600322292
 10
7.6788074133763091
 20
19.3091055600322292
 10
7.6788074133763091
 20
18.9793714746172455
 42
-0.1030913173590038
 10
8.0242546333601936
 20
19.269943593875908
 42
-0.1199948138755563
 10
8.4282030620467374
 20
19.3632554391619678
 42
-0.2296591057469126
 10
9.0199838839645441
 20
19.1241740531829194
 42
-0.1777771703473499
  0
LWPOLYLINE
  5
96
100
AcDbEntity
  8
0
 62
256
370
-1
 48
1.0
  6
BYLAYER
100
AcDbPolyline
 90
15
 70
129
 10
12.1355358581788888
 20
18.1898468976631733
 10
12.1355358581788888
 20
17.9848509266720384
 10
10.4535052377115232
 20
17.9848509266720384
 42
0.2057646661349429
 10
10.6362610797743748
 20
17.6050765511684091
 42
0.1726032109462076
 10
11.0742949234488322
 20
17.4786462530217577
 42
0.0691113965401637
 10
11.5396454472199821
 20
17.5458501208702629
 42
0.0560479244608345
 10
12.0286865431103944
 20
17.749879129734083
 10
12.0286865431103944
 20
17.1953263497179663
 42
-0.0428546638464196
 10
11.5183722804190172
 20
17.0493150684931507
 42
-0.0478948782524692
 10
11.0080580177276399
 20
17.0
 42
-0.191410215487744
 10
10.0585012087026602
 20
17.3106365834004805
 42
-0.2179154268482878
 10
9.7200644641418208
 20
18.1816277195809803
 42
-0.2132643270721901
 10
10.0524576954069307
 20
19.0477840451248994
 42
-0.1970960050083456
 10
10.9679290894439969
 20
19.3632554391619678
 42
-0.2062977058834573
 10
11.8169218372280422
 20
19.0439161966156334
 42
-0.2055188954015369
  0
LWPOLYLINE
  5
97
100
AcDbEntity
  8
0
 62
256
370
-1
 48
1.0
  6
BYLAYER
100
AcDbPolyline
 90
5
 70
129
 10
11.3958098307816336
 20
18.4291700241740557
 42
0.1990378483820721
 10
11.2761482675261888
 20
18.7596293311845272
 42
0.2135555669245612
 10
10.9635777598710717
 20
18.8850926672038639
 42
0.19067610793316
 10
10.6241740531829176
 20
18.7676067687348933
 42
0.1782448469664623
 10
10.461240934730057
 20
18.4291700241740557
  0
LWPOLYLINE
  5
98
100
AcDbEntity
  8
0
 62
256
370
-1
 48
1.0
  6
BYLAYER
100
AcDbPolyline
 90
8
 70
129
 10
2.5432715551974217
 20
14.0522965350523776
 42
0.2505068485578657
 10
1.9945205479452055
 20
13.7909750201450443
 42
0.161232792649916
 10
1.7996776792908946
 20
13.0553585817888802
 42
0.1613567239980854
 10
1.9945205479452053
 20
12.3221595487510065
 42
0.2505068485578643
 10
2.5432715551974212
 20
12.0608380338436731
 42
0.2504556348792377
 10
3.093956486704271
 20
12.3221595487510065
 42
0.1613567239980874
 10
3.2887993553585817
 20
13.0553585817888838
 42
0.1612327926499185
 10
3.093956486704271
 20
13.7909750201450443
 42
0.2504556348792388
  0
LWPOLYLINE
  5
99
100
AcDbEntity
  8
0
 62
256
370
-1
 48
1.0
  6
BYLAYER
100
AcDbPolyline
 90
8
 70
129
 10
2.5432715551974217
 20
14.6131345688960508
 42
-0.2065258970150332
 10
3.6765511684125705
 20
14.199033037872681
 42
-0.2034761873901052
 10
4.0865431103948424
 20
13.0553585817888802
 42
-0.2035394829797907
 10
3.6765511684125705
 20
11.9141015310233662
 42
-0.2065258970150307
 10
2.5432715551974208
 20
11.5
 42
-0.2062559212976729
 10
1.4109589041095885
 20
11.9141015310233662
 42
-0.2039016586242288
 10
1.0
 20
13.0553585817888838
 42
-0.2038385593534723
 10
1.4109589041095889
 20
14.199033037872681
 42
-0.2062559212976767
  0
LWPOLYLINE
  5
9A
100
AcDbEntity
  8
0
 62
256
370
-1
 48
1.0
  6
BYLAYER
100
AcDbPolyline
 90
14
 70
129
 10
4.6710717163577762
 20
14.5585012087026584
 10
5.4451248992747789
 20
14.5585012087026584
 10
5.4451248992747789
 20
12.7599516518936333
 42
0.1559407484557945
 10
5.5664786462530227
 20
12.2288477034649468
 42
0.2426884002515189
 10
5.9634165995165187
 20
12.0690572119258661
 42
0.2422444696798971
 10
6.3620467365028208
 20
12.2288477034649468
 42
0.1562133535446031
 10
6.4836422240128933
 20
12.7599516518936333
 10
6.4836422240128933
 20
14.5585012087026584
 10
7.2572119258662369
 20
14.5585012087026584
 10
7.2572119258662369
 20
12.7599516518936333
 42
-0.2051564173052024
 10
6.9378726833199025
 20
11.8116035455277988
 42
-0.1973320675000549
 10
5.9634165995165187
 20
11.5
 42
-0.1973313416100766
 10
4.9906526994359393
 20
11.8116035455277988
 42
-0.2052761430112905
 10
4.6710717163577762
 20
12.7599516518936333
  0
LWPOLYLINE
  5
9B
100
AcDbEntity
  8
0
 62
256
370
-1
 48
1.0
  6
BYLAYER
100
AcDbPolyline
 90
8
 70
129
 10
7.6551168412570512
 20
14.5585012087026584
 10
10.4201450443190975
 20
14.5585012087026584
 10
10.4201450443190975
 20
13.9739726027397246
 10
9.4251410153102331
 20
13.9739726027397246
 10
9.4251410153102331
 20
11.5585012087026584
 10
8.6515713134568895
 20
11.5585012087026584
 10
8.6515713134568895
 20
13.9739726027397246
 10
7.6551168412570512
 20
13.9739726027397246
  0
CIRCLE
  5
9C
100
AcDbEntity
  8
0
 62
256
370
-1
 48
1.0
  6
BYLAYER
100
AcDbCircle
 10
14.9999999999999982
 20
12.9999999999999982
 30
0.0
 40
3.0
  0
CIRCLE
  5
9D
100
AcDbEntity
  8
0
 62
256
370
-1
 48
1.0
  6
BYLAYER
100
AcDbCircle
 10
14.9999999999999982
 20
12.9999999999999982
 30
0.0
 40
4.0
  0
LWPOLYLINE
  5
9E
100
AcDbEntity
  8
0
 62
256
370
-1
 48
1.0
  6
BYLAYER
100
AcDbPolyline
 90
12
 70
129
 10
24.0
 20
13.88815471394037
 10
26.0881547139403693
 20
13.88815471394037
 10
26.0881547139403693
 20
13.3036261079774363
 10
24.774053182917001
 20
13.3036261079774363
 10
24.774053182917001
 20
12.7447219983883961
 10
26.0098307816277199
 20
12.7447219983883961
 10
26.0098307816277199
 20
12.1601933924254624
 10
24.774053182917001
 20
12.1601933924254624
 10
24.774053182917001
 20
11.4726833199033038
 10
26.1321514907332784
 20
11.4726833199033038
 10
26.1321514907332784
 20
10.88815471394037
 10
24.0
 20
10.88815471394037
  0
LWPOLYLINE
  5
9F
100
AcDbEntity
  8
0
 62
256
370
-1
 48
1.0
  6
BYLAYER
100
AcDbPolyline
 90
19
 70
129
 10
29.0417405318291699
 20
12.2588235294117638
 10
29.0417405318291699
 20
10.88815471394037
 10
28.3184528605962953
 20
10.88815471394037
 10
28.3184528605962953
 20
11.1110394842868665
 10
28.3184528605962953
 20
11.9373086220789695
 42
0.0247848332854366
 10
28.3053988718775216
 20
12.3388396454472158
 42
0.1038630378753483
 10
28.2599516518936369
 20
12.5015310233682513
 42
0.1375379517397097
 10
28.1456083803384374
 20
12.6112812248186934
 42
0.1263805524732766
 10
27.9804995970991115
 20
12.6504431909750181
 42
0.25194498399856
 10
27.6270749395648707
 20
12.4766317485898455
 42
0.1607868699696375
 10
27.4984689766317487
 20
11.9953263497179705
 10
27.4984689766317487
 20
10.88815471394037
 10
26.7790491539081401
 20
10.88815471394037
 10
26.7790491539081401
 20
13.1387590652699444
 10
27.4984689766317487
 20
13.1387590652699444
 10
27.4984689766317487
 20
12.8090249798549536
 42
-0.1030913173589995
 10
27.8439161966156306
 20
13.0995970991136161
 42
-0.1199948138755326
 10
28.2478646253021779
 20
13.1929089443996759
 42
-0.2296591057468865
 10
28.8396454472199864
 20
12.9538275584206275
 42
-0.1777771703473664
  0
LWPOLYLINE
  5
A0
100
AcDbEntity
  8
0
 62
256
370
-1
 48
1.0
  6
BYLAYER
100
AcDbPolyline
 90
21
 70
129
 10
31.2396454472199849
 20
11.2701047542304593
 42
-0.1127324724929662
 10
30.9120870265914576
 20
10.9804995970991115
 42
-0.1209967489770076
 10
30.4979854955680878
 20
10.88815471394037
 42
-0.2347420051123806
 10
29.8167606768734856
 20
11.2125705076551156
 42
-0.1793405498423599
 10
29.5474617244157969
 20
12.0398066075745405
 42
-0.1800806131102563
 10
29.8167606768734856
 20
12.8665592264302973
 42
-0.2338533904953957
 10
30.4979854955680878
 20
13.1890410958904098
 42
-0.120996748977009
 10
30.9120870265914576
 20
13.0966962127316684
 42
-0.1138961412761866
 10
31.2396454472199849
 20
12.8051571313456876
 10
31.2396454472199849
 20
13.1387590652699444
 10
31.9629331184528596
 20
13.1387590652699444
 10
31.9629331184528596
 20
11.1153908138597899
 42
-0.2318526227356313
 10
31.620386784850929
 20
10.2862207896857356
 42
-0.1761683456016694
 10
30.6265914585012098
 20
10.0
 42
-0.0405068409548973
 10
30.2187751813053964
 20
10.0321514907332805
 42
-0.0400646434878723
 10
29.8230459307010491
 20
10.1305398871877514
 10
29.8230459307010491
 20
10.6913779210314246
 42
0.0594478539924725
 10
30.192667203867849
 20
10.5294117647058805
 42
0.0718981953348652
 10
30.5564867042707533
 20
10.4762288477034637
 42
0.1898145981906256
 10
31.0747784045124931
 20
10.6309427880741332
 42
0.210026578448203
 10
31.2396454472199849
 20
11.1153908138597899
  0
LWPOLYLINE
  5
A1
100
AcDbEntity
  8
0
 62
256
370
-1
 48
1.0
  6
BYLAYER
100
AcDbPolyline
 90
8
 70
129
 10
30.7653505237711542
 20
12.6707493956486736
 42
0.2483763559468528
 10
30.4177276390008089
 20
12.5058823529411747
 42
0.1630903031298048
 10
30.2929895245769529
 20
12.0398066075745369
 42
0.1613568374392318
 10
30.4136180499597089
 20
11.5703464947622869
 42
0.247651760701188
 10
30.7653505237711542
 20
11.4107977437550367
 42
0.2483364479367743
 10
31.115149073327963
 20
11.5754230459307017
 42
0.1631078792237347
 10
31.2396454472199849
 20
12.0398066075745369
 42
0.1628216857808582
 10
31.115149073327963
 20
12.5058823529411747
 42
0.2485650503719941
  0
LWPOLYLINE
  5
A2
100
AcDbEntity
  8
0
 62
256
370
-1
 48
1.0
  6
BYLAYER
100
AcDbPolyline
 90
14
 70
129
 10
34.3261885576148273
 20
12.5257050765511693
 42
0.0550742085011626
 10
34.1383561643835591
 20
12.5912167606768719
 42
0.055505859497249
 10
33.950523771152298
 20
12.6122481869460117
 42
0.2312351226365814
 10
33.5233682514101545
 20
12.4343271555197425
 42
0.1776799302117543
 10
33.3737308622078999
 20
11.9252215954875105
 10
33.3737308622078999
 20
10.88815471394037
 10
32.6543110394842842
 20
10.88815471394037
 10
32.6543110394842842
 20
13.1387590652699444
 10
33.3737308622078999
 20
13.1387590652699444
 10
33.3737308622078999
 20
12.7688960515713141
 42
-0.125287180187598
 10
33.6923448831587393
 20
13.0913779210314267
 42
-0.1304071855901145
 10
34.1231265108783219
 20
13.1929089443996759
 42
-0.0171476150823296
 10
34.2014504431909785
 20
13.1900080580177281
 42
-0.0129718099352998
 10
34.3242546333601908
 20
13.1769540692989509
  0
LWPOLYLINE
  5
A3
100
AcDbEntity
  8
0
 62
256
370
-1
 48
1.0
  6
BYLAYER
100
AcDbPolyline
 90
8
 70
129
 10
35.6920225624496368
 20
11.901047542304596
 42
0.1451510853777971
 10
35.3535858178887992
 20
11.8246575342465761
 42
0.2659109527271772
 10
35.2399677679290875
 20
11.5993553585817892
 42
0.2309825932323668
 10
35.3313456889605177
 20
11.3856567284448005
 42
0.1796804069466397
 10
35.5856567284448033
 20
11.3082997582594693
 42
0.2143665064183676
 10
35.9272360999194191
 20
11.4538275584206275
 42
0.199604803831499
 10
36.0657534246575295
 20
11.8183722804190161
 10
36.0657534246575295
 20
11.9010475423045925
  0
LWPOLYLINE
  5
A4
100
AcDbEntity
  8
0
 62
256
370
-1
 48
1.0
  6
BYLAYER
100
AcDbPolyline
 90
20
 70
129
 10
36.7914585012087016
 20
12.1722804190169214
 10
36.7914585012087016
 20
10.88815471394037
 10
36.0657534246575295
 20
10.88815471394037
 10
36.0657534246575295
 20
11.2217566478646233
 42
-0.1210944946334621
 10
35.7403706688154728
 20
10.9232070910555983
 42
-0.1203064534254363
 10
35.3004029008863824
 20
10.8296535052377116
 42
-0.1964276427889955
 10
34.732796132151492
 20
11.0336825141015318
 42
-0.2165494766864851
 10
34.5147461724415763
 20
11.5635777598710767
 42
-0.2627820749486207
 10
34.7869460112812234
 20
12.1439967767929069
 42
-0.1440836651755839
 10
35.6417405318291713
 20
12.3289282836422238
 10
36.0657534246575295
 20
12.3289282836422238
 10
36.0657534246575295
 20
12.3850120870265918
 42
0.2852728508450643
 10
35.9311039484286852
 20
12.6354552780016114
 42
0.1269008383232555
 10
35.5112006446414199
 20
12.7147461724415791
 42
0.0570932845889193
 10
35.0811442385173251
 20
12.6685737308622066
 42
0.0673514154823674
 10
34.7115229653505253
 20
12.5300564061240927
 10
34.7115229653505253
 20
13.0783239323126494
 42
-0.029083276611909
 10
35.1756647864625336
 20
13.1639000805801771
 42
-0.0310003554121947
 10
35.6417405318291713
 20
13.1929089443996759
 42
-0.1796044772764034
 10
36.5211925866236911
 20
12.9528605962933128
 42
-0.2169990663484303
  0
LWPOLYLINE
  5
A5
100
AcDbEntity
  8
0
 62
256
370
-1
 48
1.0
  6
BYLAYER
100
AcDbPolyline
 90
7
 70
129
 10
37.1767929089443996
 20
13.1387590652699444
 10
37.8962127316680082
 20
13.1387590652699444
 10
38.4565672844480275
 20
11.5834004834810642
 10
39.0154713940370641
 20
13.1387590652699444
 10
39.7368251410153093
 20
13.1387590652699444
 10
38.8506043513295722
 20
10.88815471394037
 10
38.0610797743755001
 20
10.88815471394037
  0
LWPOLYLINE
  5
A6
100
AcDbEntity
  8
0
 62
256
370
-1
 48
1.0
  6
BYLAYER
100
AcDbPolyline
 90
15
 70
129
 10
42.389202256244964
 20
12.0195004029008849
 10
42.389202256244964
 20
11.8145044319097501
 10
40.7071716357775983
 20
11.8145044319097501
 42
0.2057646661349028
 10
40.8899274778404589
 20
11.4347300564061243
 42
0.1726032109462243
 10
41.3279613215149055
 20
11.3082997582594693
 42
0.0691113965401845
 10
41.7933118452860626
 20
11.3755036261079781
 42
0.0560479244608263
 10
42.2823529411764696
 20
11.5795326349717982
 10
42.2823529411764696
 20
11.0249798549556814
 42
-0.0428546638464149
 10
41.7720386784850888
 20
10.8789685737308623
 42
-0.0478948782524563
 10
41.2617244157937222
 20
10.8296535052377116
 42
-0.1914102154877484
 10
40.3121676067687389
 20
11.1402900886381957
 42
-0.2179154268482881
 10
39.9737308622078942
 20
12.0112812248186955
 42
-0.2132643270721841
 10
40.3061240934730023
 20
12.8774375503626111
 42
-0.1970960050083361
 10
41.2215954875100721
 20
13.1929089443996759
 42
-0.2062977058834701
 10
42.0705882352941174
 20
12.873569701853345
 42
-0.2055188954015413
  0
LWPOLYLINE
  5
A7
100
AcDbEntity
  8
0
 62
256
370
-1
 48
1.0
  6
BYLAYER
100
AcDbPolyline
 90
5
 70
129
 10
41.6494762288477034
 20
12.2588235294117638
 42
0.1990378483820844
 10
41.5298146655922693
 20
12.5892828364222389
 42
0.2135555669245721
 10
41.2172441579371451
 20
12.7147461724415791
 42
0.190676107933145
 10
40.8778404512489928
 20
12.5972602739726014
 42
0.1782448469664817
 10
40.7149073327961304
 20
12.2588235294117638
  0
LWPOLYLINE
  5
A8
100
AcDbEntity
  8
0
 62
256
370
-1
 48
1.0
  6
BYLAYER
100
AcDbPolyline
 90
4
 70
129
 10
44.3661563255439191
 20
14.0148267526188555
 10
45.0855761482675277
 20
14.0148267526188555
 10
45.0855761482675277
 20
10.88815471394037
 10
44.3661563255439191
 20
10.88815471394037
  0
LWPOLYLINE
  5
A9
100
AcDbEntity
  8
0
 62
256
370
-1
 48
1.0
  6
BYLAYER
100
AcDbPolyline
 90
8
 70
129
 10
46.785012087026594
 20
11.9010475423045925
 42
0.1451510853778138
 10
46.4465753424657564
 20
11.8246575342465761
 42
0.265910952727158
 10
46.3329572925060447
 20
11.5993553585817892
 42
0.2309825932322925
 10
46.4243352135374749
 20
11.3856567284448005
 42
0.1796804069466204
 10
46.6786462530217534
 20
11.3082997582594693
 42
0.214366506418363
 10
47.0202256244963763
 20
11.4538275584206275
 42
0.1996048038315126
 10
47.1587429492344938
 20
11.8183722804190161
 10
47.1587429492344938
 20
11.9010475423045925
  0
LWPOLYLINE
  5
AA
100
AcDbEntity
  8
0
 62
256
370
-1
 48
1.0
  6
BYLAYER
100
AcDbPolyline
 90
20
 70
129
 10
47.8844480257856588
 20
12.1722804190169214
 10
47.8844480257856588
 20
10.88815471394037
 10
47.1587429492344938
 20
10.88815471394037
 10
47.1587429492344938
 20
11.2217566478646233
 42
-0.1210944946334413
 10
46.8333601933924228
 20
10.9232070910555983
 42
-0.1203064534254397
 10
46.3933924254633396
 20
10.8296535052377116
 42
-0.1964276427889888
 10
45.8257856567284421
 20
11.0336825141015318
 42
-0.2165494766864935
 10
45.6077356970185335
 20
11.5635777598710732
 42
-0.2627820749486432
 10
45.8799355358581806
 20
12.1439967767929069
 42
-0.1440836651755851
 10
46.7347300564061214
 20
12.3289282836422238
 10
47.1587429492344938
 20
12.3289282836422238
 10
47.1587429492344938
 20
12.3850120870265918
 42
0.2852728508450768
 10
47.0240934730056424
 20
12.6354552780016114
 42
0.1269008383232535
 10
46.60419016921837
 20
12.7147461724415791
 42
0.0570932845889133
 10
46.1741337630942752
 20
12.6685737308622066
 42
0.0673514154823671
 10
45.8045124899274754
 20
12.5300564061240927
 10
45.8045124899274754
 20
13.0783239323126494
 42
-0.029083276611909
 10
46.2686543110394837
 20
13.1639000805801771
 42
-0.0310003554121923
 10
46.7347300564061214
 20
13.1929089443996759
 42
-0.1796044772763983
 10
47.6141821112006483
 20
12.9528605962933128
 42
-0.2169990663484173
  0
LWPOLYLINE
  5
AB
100
AcDbEntity
  8
0
 62
256
370
-1
 48
1.0
  6
BYLAYER
100
AcDbPolyline
 90
14
 70
129
 10
50.2249798549556843
 20
12.5257050765511657
 42
0.0550742085011664
 10
50.0371474617244161
 20
12.5912167606768719
 42
0.0555058594972597
 10
49.849315068493155
 20
12.6122481869460117
 42
0.2312351226365814
 10
49.4221595487510115
 20
12.4343271555197425
 42
0.1776799302117246
 10
49.2725221595487568
 20
11.9252215954875105
 10
49.2725221595487568
 20
10.88815471394037
 10
48.5531023368251482
 20
10.88815471394037
 10
48.5531023368251482
 20
13.1387590652699444
 10
49.2725221595487568
 20
13.1387590652699444
 10
49.2725221595487568
 20
12.7688960515713141
 42
-0.1252871801875912
 10
49.5911361804996034
 20
13.0913779210314267
 42
-0.1304071855901315
 10
50.021917808219186
 20
13.1929089443996759
 42
-0.0171476150823357
 10
50.1002417405318283
 20
13.1900080580177281
 42
-0.0129718099353075
 10
50.2230459307010477
 20
13.1769540692989509
  0
LWPOLYLINE
  5
AC
100
AcDbEntity
  8
0
 62
256
370
-1
 48
1.0
  6
BYLAYER
100
AcDbPolyline
 90
21
 70
129
 10
52.1134568896051675
 20
11.2701047542304558
 42
-0.1127324724929361
 10
51.7858984689766402
 20
10.9804995970991115
 42
-0.1209967489770027
 10
51.3717969379532633
 20
10.88815471394037
 42
-0.2347420051123815
 10
50.6905721192586611
 20
11.2125705076551156
 42
-0.1793405498423608
 10
50.4212731668009724
 20
12.0398066075745405
 42
-0.1800806131102572
 10
50.6905721192586611
 20
12.8665592264302973
 42
-0.2338533904953905
 10
51.3717969379532633
 20
13.1890410958904098
 42
-0.1209967489770057
 10
51.7858984689766402
 20
13.0966962127316684
 42
-0.1138961412761582
 10
52.1134568896051604
 20
12.8051571313456876
 10
52.1134568896051604
 20
13.1387590652699444
 10
52.836744560838028
 20
13.1387590652699444
 10
52.836744560838028
 20
11.1153908138597899
 42
-0.2318526227356313
 10
52.4941982272361045
 20
10.2862207896857356
 42
-0.1761683456016721
 10
51.5004029008863853
 20
10.0
 42
-0.0405068409548975
 10
51.0925866236905719
 20
10.0321514907332805
 42
-0.0400646434878705
 10
50.6968573730862175
 20
10.1305398871877514
 10
50.6968573730862175
 20
10.6913779210314246
 42
0.0594478539924707
 10
51.0664786462530316
 20
10.5294117647058805
 42
0.0718981953348649
 10
51.4302981466559288
 20
10.4762288477034637
 42
0.1898145981906373
 10
51.9485898468976615
 20
10.6309427880741332
 42
0.2100265784481945
 10
52.1134568896051604
 20
11.1153908138597899
  0
LWPOLYLINE
  5
AD
100
AcDbEntity
  8
0
 62
256
370
-1
 48
1.0
  6
BYLAYER
100
AcDbPolyline
 90
8
 70
129
 10
51.6391619661563226
 20
12.6707493956486701
 42
0.2483763559468604
 10
51.2915390813859773
 20
12.5058823529411747
 42
0.163090303129781
 10
51.1668009669621284
 20
12.0398066075745369
 42
0.161356837439233
 10
51.2874294923448844
 20
11.5703464947622869
 42
0.2476517607011775
 10
51.6391619661563226
 20
11.4107977437550367
 42
0.248336447936779
 10
51.9889605157131385
 20
11.5754230459307017
 42
0.1631078792237299
 10
52.1134568896051604
 20
12.0398066075745369
 42
0.1628216857808548
 10
51.9889605157131385
 20
12.5058823529411747
 42
0.2485650503719967
  0
LWPOLYLINE
  5
AE
100
AcDbEntity
  8
0
 62
256
370
-1
 48
1.0
  6
BYLAYER
100
AcDbPolyline
 90
15
 70
129
 10
55.7748589846897715
 20
12.0195004029008849
 10
55.7748589846897715
 20
11.8145044319097501
 10
54.0928283642223988
 20
11.8145044319097501
 42
0.2057646661349014
 10
54.2755842062852594
 20
11.4347300564061243
 42
0.1726032109462213
 10
54.7136180499597131
 20
11.3082997582594693
 42
0.0691113965401867
 10
55.1789685737308702
 20
11.3755036261079781
 42
0.0560479244608334
 10
55.6680096696212701
 20
11.5795326349717982
 10
55.6680096696212701
 20
11.0249798549556814
 42
-0.0428546638464171
 10
55.1576954069298964
 20
10.8789685737308623
 42
-0.0478948782524554
 10
54.6473811442385227
 20
10.8296535052377116
 42
-0.1914102154877473
 10
53.6978243352135394
 20
11.1402900886381957
 42
-0.2179154268482814
 10
53.3593875906527018
 20
12.0112812248186955
 42
-0.2132643270721987
 10
53.6917808219178099
 20
12.8774375503626111
 42
-0.1970960050083367
 10
54.6072522159548726
 20
13.1929089443996759
 42
-0.2062977058834681
 10
55.456244963738925
 20
12.873569701853345
 42
-0.2055188954015374
  0
LWPOLYLINE
  5
AF
100
AcDbEntity
  8
0
 62
256
370
-1
 48
1.0
  6
BYLAYER
100
AcDbPolyline
 90
5
 70
129
 10
55.0351329572925039
 20
12.2588235294117638
 42
0.1990378483820781
 10
54.9154713940370698
 20
12.5892828364222389
 42
0.2135555669245785
 10
54.6029008863819456
 20
12.7147461724415791
 42
0.1906761079331474
 10
54.2634971796938004
 20
12.5972602739726014
 42
0.1782448469664717
 10
54.1005640612409309
 20
12.2588235294117638
  0
LWPOLYLINE
  5
B0
100
AcDbEntity
  8
0
 62
256
370
-1
 48
1.0
  6
BYLAYER
100
AcDbPolyline
 90
14
 70
129
 10
57.9911361804995948
 20
12.5257050765511657
 42
0.0550742085011624
 10
57.8033037872683266
 20
12.5912167606768719
 42
0.0555058594972555
 10
57.6154713940370655
 20
12.6122481869460117
 42
0.2312351226365734
 10
57.188315874294922
 20
12.4343271555197425
 42
0.1776799302117514
 10
57.0386784850926674
 20
11.9252215954875069
 10
57.0386784850926674
 20
10.88815471394037
 10
56.3192586623690516
 20
10.88815471394037
 10
56.3192586623690516
 20
13.1387590652699444
 10
57.0386784850926674
 20
13.1387590652699444
 10
57.0386784850926674
 20
12.7688960515713141
 42
-0.1252871801875885
 10
57.3572925060435139
 20
13.0913779210314267
 42
-0.1304071855901257
 10
57.7880741337630965
 20
13.1929089443996759
 42
-0.0171476150823343
 10
57.866398066075746
 20
13.1900080580177281
 42
-0.0129718099353026
 10
57.9892022562449654
 20
13.1769540692989509
  0
LWPOLYLINE
  5
B1
100
AcDbEntity
  8
0
 62
256
370
-1
 48
1.0
  6
BYLAYER
100
AcDbPolyline
 90
18
 70
129
 10
61.5993553585817892
 20
13.0686543110394844
 10
61.5993553585817892
 20
12.4817082997582602
 42
0.0719287294775028
 10
61.3051571313456805
 20
12.6303787268332002
 42
0.0793655715632827
 10
60.9988718775181269
 20
12.6784850926672021
 42
0.2118256662430088
 10
60.529411764705884
 20
12.5027397260273965
 42
0.1974864220820216
 10
60.3616438356164338
 20
12.0112812248186955
 42
0.1973390529581001
 10
60.529411764705884
 20
11.5200644641418215
 42
0.2120402740829409
 10
60.9988718775181269
 20
11.3440773569701854
 42
0.0807235888708232
 10
61.3191780821917831
 20
11.3943593875906508
 42
0.08426247422664
 10
61.5993553585817892
 20
11.5432715551974212
 10
61.5993553585817892
 20
10.9543916196615641
 42
-0.0442433789948146
 10
61.2568090249798445
 20
10.8608380338436739
 42
-0.0444975518998461
 10
60.9084609186140256
 20
10.8296535052377116
 42
-0.190501256273066
 10
59.955761482675257
 20
11.1422240128928287
 42
-0.2195104813311766
 10
59.6122481869460046
 20
12.0112812248186955
 42
-0.2196038618349711
 10
59.955761482675257
 20
12.8805801772763893
 42
-0.1903850582461772
 10
60.9084609186140256
 20
13.1929089443996759
 42
-0.0449905062155352
 10
61.2568090249798445
 20
13.1617244157937137
 42
-0.0421826187006543
  0
LWPOLYLINE
  5
B2
100
AcDbEntity
  8
0
 62
256
370
-1
 48
1.0
  6
BYLAYER
100
AcDbPolyline
 90
4
 70
129
 10
62.2201450443190964
 20
13.1387590652699444
 10
62.939564867042705
 20
13.1387590652699444
 10
62.939564867042705
 20
10.88815471394037
 10
62.2201450443190964
 20
10.88815471394037
  0
LWPOLYLINE
  5
B3
100
AcDbEntity
  8
0
 62
256
370
-1
 48
1.0
  6
BYLAYER
100
AcDbPolyline
 90
4
 70
129
 10
62.2201450443190964
 20
14.0148267526188555
 10
62.939564867042705
 20
14.0148267526188555
 10
62.939564867042705
 20
13.4283642224012887
 10
62.2201450443190964
 20
13.4283642224012887
  0
LWPOLYLINE
  5
B4
100
AcDbEntity
  8
0
 62
256
370
-1
 48
1.0
  6
BYLAYER
100
AcDbPolyline
 90
14
 70
129
 10
65.3023368251410119
 20
12.5257050765511657
 42
0.0550742085011498
 10
65.1145044319097508
 20
12.5912167606768719
 42
0.0555058594972599
 10
64.9266720386784897
 20
12.6122481869460117
 42
0.2312351226365592
 10
64.499516518936332
 20
12.4343271555197425
 42
0.1776799302116969
 10
64.3498791297340915
 20
11.9252215954875105
 10
64.3498791297340915
 20
10.88815471394037
 10
63.6304593070104829
 20
10.88815471394037
 10
63.6304593070104829
 20
13.1387590652699444
 10
64.3498791297340915
 20
13.1387590652699444
 10
64.3498791297340915
 20
12.7688960515713141
 42
-0.1252871801876072
 10
64.6684931506849239
 20
13.0913779210314267
 42
-0.130407185590114
 10
65.0992747784045207
 20
13.1929089443996759
 42
-0.0171476150823232
 10
65.177598710717163
 20
13.1900080580177281
 42
-0.0129718099353026
 10
65.3004029008863824
 20
13.1769540692989509
  0
LWPOLYLINE
  5
B5
100
AcDbEntity
  8
0
 62
256
370
-1
 48
1.0
  6
BYLAYER
100
AcDbPolyline
 90
18
 70
129
 10
67.4780016116035455
 20
13.0686543110394844
 10
67.4780016116035455
 20
12.4817082997582602
 42
0.0719287294774903
 10
67.1838033843674509
 20
12.6303787268332002
 42
0.0793655715632937
 10
66.8775181305398831
 20
12.6784850926672021
 42
0.2118256662430424
 10
66.4080580177276403
 20
12.5027397260273965
 42
0.1974864220820216
 10
66.24029008863819
 20
12.0112812248186955
 42
0.1973390529581008
 10
66.4080580177276403
 20
11.5200644641418215
 42
0.2120402740829739
 10
66.8775181305398831
 20
11.3440773569701854
 42
0.0807235888708297
 10
67.1978243352135394
 20
11.3943593875906508
 42
0.0842624742266552
 10
67.4780016116035455
 20
11.5432715551974212
 10
67.4780016116035455
 20
10.9543916196615641
 42
-0.0442433789948082
 10
67.1354552780016149
 20
10.8608380338436739
 42
-0.0444975518998426
 10
66.7871071716357676
 20
10.8296535052377116
 42
-0.190501256273081
 10
65.8344077356970274
 20
11.1422240128928287
 42
-0.2195104813311766
 10
65.490894439967775
 20
12.0112812248186955
 42
-0.219603861834974
 10
65.8344077356970274
 20
12.8805801772763893
 42
-0.1903850582461936
 10
66.7871071716357676
 20
13.1929089443996759
 42
-0.0449905062155185
 10
67.1354552780016149
 20
13.1617244157937137
 42
-0.0421826187006705
  0
LWPOLYLINE
  5
B6
100
AcDbEntity
  8
0
 62
256
370
-1
 48
1.0
  6
BYLAYER
100
AcDbPolyline
 90
4
 70
129
 10
68.0987912973408527
 20
14.0148267526188555
 10
68.8182111200644613
 20
14.0148267526188555
 10
68.8182111200644613
 20
10.88815471394037
 10
68.0987912973408527
 20
10.88815471394037
  0
LWPOLYLINE
  5
B7
100
AcDbEntity
  8
0
 62
256
370
-1
 48
1.0
  6
BYLAYER
100
AcDbPolyline
 90
15
 70
129
 10
71.7558420628525369
 20
12.0195004029008849
 10
71.7558420628525369
 20
11.8145044319097501
 10
70.0738114423851641
 20
11.8145044319097501
 42
0.2057646661349643
 10
70.2565672844480247
 20
11.4347300564061243
 42
0.1726032109461923
 10
70.6946011281224855
 20
11.3082997582594693
 42
0.0691113965401816
 10
71.1599516518936355
 20
11.3755036261079781
 42
0.0560479244608292
 10
71.6489927477840354
 20
11.5795326349717982
 10
71.6489927477840354
 20
11.0249798549556814
 42
-0.0428546638464082
 10
71.1386784850926688
 20
10.8789685737308623
 42
-0.0478948782524501
 10
70.628364222401288
 20
10.8296535052377116
 42
-0.1914102154877436
 10
69.6788074133763189
 20
11.1402900886381957
 42
-0.2179154268483014
 10
69.3403706688154671
 20
12.0112812248186955
 42
-0.2132643270722065
 10
69.6727639000805823
 20
12.8774375503626111
 42
-0.1970960050083346
 10
70.5882352941176521
 20
13.1929089443996759
 42
-0.2062977058834626
 10
71.4372280419016903
 20
12.873569701853345
 42
-0.2055188954015531
  0
LWPOLYLINE
  5
B8
100
AcDbEntity
  8
0
 62
256
370
-1
 48
1.0
  6
BYLAYER
100
AcDbPolyline
 90
5
 70
129
 10
71.0161160354552692
 20
12.2588235294117638
 42
0.1990378483821176
 10
70.8964544721998493
 20
12.5892828364222389
 42
0.2135555669245689
 10
70.5838839645447251
 20
12.7147461724415791
 42
0.1906761079331576
 10
70.2444802578565657
 20
12.5972602739726014
 42
0.1782448469665063
 10
70.0815471394037104
 20
12.2588235294117638
  0
LWPOLYLINE
  5
B9
100
AcDbEntity
  8
0
 62
256
370
-1
 48
1.0
  6
BYLAYER
100
AcDbPolyline
 90
8
 70
129
 10
74.9303787268331973
 20
11.3522965350523677
 42
0.2553550601534051
 10
75.2830781627719574
 20
11.5210314262691362
 42
0.1553404256416276
 10
75.404673650282021
 20
12.0112812248186955
 42
0.1551865646931646
 10
75.2830781627719574
 20
12.5017727639000782
 42
0.2555798560058803
 10
74.9303787268331973
 20
12.6707493956486701
 42
0.2541797758809611
 10
74.5757453666398078
 20
12.5008058017727635
 42
0.1568605189444197
 10
74.4522159548751006
 20
12.0112812248186955
 42
0.1569005089722861
 10
74.5757453666398078
 20
11.5222401289282814
 42
0.254179775880969
  0
LWPOLYLINE
  5
BA
100
AcDbEntity
  8
0
 62
256
370
-1
 48
1.0
  6
BYLAYER
100
AcDbPolyline
 90
13
 70
129
 10
74.4522159548751006
 20
12.8090249798549536
 42
-0.1135843200852712
 10
74.7817082997582645
 20
13.0995970991136161
 42
-0.1207775821665137
 10
75.1977437550362708
 20
13.1929089443996759
 42
-0.2385946677863434
 10
75.8809024979854883
 20
12.8624496373892008
 42
-0.1754545092340034
 10
76.1482675261885618
 20
12.0112812248186955
 42
-0.1753747862226731
 10
75.8809024979854883
 20
11.1603545527800172
 42
-0.2387033830843209
 10
75.1977437550362708
 20
10.8296535052377116
 42
-0.1210591816799141
 10
74.7817082997582645
 20
10.9232070910555983
 42
-0.1130190467333422
 10
74.4522159548751006
 20
11.2135374697824339
 10
74.4522159548751006
 20
10.88815471394037
 10
73.732796132151492
 20
10.88815471394037
 10
73.732796132151492
 20
14.0148267526188555
 10
74.4522159548751006
 20
14.0148267526188555
  0
LWPOLYLINE
  5
BB
100
AcDbEntity
  8
0
 62
256
370
-1
 48
1.0
  6
BYLAYER
100
AcDbPolyline
 90
15
 70
129
 10
78.9253827558420653
 20
12.0195004029008849
 10
78.9253827558420653
 20
11.8145044319097501
 10
77.2433521353746926
 20
11.8145044319097501
 42
0.2057646661349689
 10
77.4261079774375531
 20
11.4347300564061243
 42
0.1726032109462092
 10
77.864141821112014
 20
11.3082997582594693
 42
0.0691113965401918
 10
78.3294923448831497
 20
11.3755036261079781
 42
0.0560479244608385
 10
78.8185334407735638
 20
11.5795326349717982
 10
78.8185334407735638
 20
11.0249798549556814
 42
-0.0428546638464084
 10
78.3082191780821972
 20
10.8789685737308623
 42
-0.047894878252455
 10
77.7979049153908022
 20
10.8296535052377116
 42
-0.1914102154877438
 10
76.8483481063658331
 20
11.1402900886381957
 42
-0.2179154268482769
 10
76.5099113618049955
 20
12.0112812248186955
 42
-0.2132643270722071
 10
76.8423045930701107
 20
12.8774375503626111
 42
-0.1970960050083324
 10
77.7577759871071663
 20
13.1929089443996759
 42
-0.2062977058834604
 10
78.6067687348912187
 20
12.873569701853345
 42
-0.2055188954015214
  0
LWPOLYLINE
  5
BC
100
AcDbEntity
  8
0
 62
256
370
-1
 48
1.0
  6
BYLAYER
100
AcDbPolyline
 90
5
 70
129
 10
78.1856567284447976
 20
12.2588235294117638
 42
0.1990378483820871
 10
78.0659951651893635
 20
12.5892828364222389
 42
0.2135555669246017
 10
77.7534246575342394
 20
12.7147461724415791
 42
0.1906761079331478
 10
77.4140209508460941
 20
12.5972602739726014
 42
0.1782448469665024
 10
77.2510878323932388
 20
12.2588235294117638
  0
LWPOLYLINE
  5
BD
100
AcDbEntity
  8
0
 62
256
370
-1
 48
1.0
  6
BYLAYER
100
AcDbPolyline
 90
18
 70
129
 10
80.9506849315068564
 20
14.0148267526188555
 10
80.9506849315068564
 20
13.5424657534246577
 10
80.5527800161160314
 20
13.5424657534246577
 42
0.179158636355386
 10
80.3398066075745305
 20
13.4873489121676045
 42
0.2079638973060442
 10
80.2796132151490696
 20
13.2954069298952433
 10
80.2796132151490696
 20
13.1387590652699444
 10
80.8946011281224742
 20
13.1387590652699444
 10
80.8946011281224742
 20
12.6243352135374707
 10
80.2796132151490696
 20
12.6243352135374707
 10
80.2796132151490696
 20
10.88815471394037
 10
79.560193392425461
 20
10.88815471394037
 10
79.560193392425461
 20
12.6243352135374707
 10
79.2024174053182861
 20
12.6243352135374707
 10
79.2024174053182861
 20
13.1387590652699444
 10
79.560193392425461
 20
13.1387590652699444
 10
79.560193392425461
 20
13.2954069298952433
 42
-0.2252439893085789
 10
79.7651893634165958
 20
13.8390813859790498
 42
-0.1769534742336135
 10
80.4000000000000057
 20
14.0148267526188555
  0
LWPOLYLINE
  5
BE
100
AcDbEntity
  8
0
 62
256
370
-1
 48
1.0
  6
BYLAYER
100
AcDbPolyline
 90
8
 70
129
 10
82.3310233682514081
 20
12.6784850926672163
 42
0.2528106725506369
 10
81.966478646253023
 20
12.506849315068493
 42
0.1577890542292087
 10
81.8407735697018524
 20
12.0112812248186955
 42
0.1576749368723837
 10
81.966478646253023
 20
11.515954875100725
 42
0.253032564193972
 10
82.3310233682514081
 20
11.3440773569701854
 42
0.2543509340062201
 10
82.6907332796132266
 20
11.515954875100725
 42
0.1566279833247365
 10
82.8154713940370613
 20
12.0112812248186955
 42
0.1567413386403119
 10
82.6907332796132266
 20
12.506849315068493
 42
0.2541302457084554
  0
LWPOLYLINE
  5
BF
100
AcDbEntity
  8
0
 62
256
370
-1
 48
1.0
  6
BYLAYER
100
AcDbPolyline
 90
8
 70
129
 10
82.3310233682514081
 20
13.1929089443996688
 42
-0.1985700988402728
 10
83.238275584206292
 20
12.8793714746172441
 42
-0.2112549155218546
 10
83.5648670427075047
 20
12.0112812248186955
 42
-0.2112549155218557
 10
83.238275584206292
 20
11.1431909750201434
 42
-0.1985700988402787
 10
82.3310233682514081
 20
10.8296535052377116
 42
-0.1977221508060076
 10
81.4199033037872653
 20
11.1431909750201434
 42
-0.2121732306438484
 10
81.0913779210314232
 20
12.0112812248186955
 42
-0.2121732306438494
 10
81.4199033037872653
 20
12.8793714746172441
 42
-0.1977221508060182
  0
LWPOLYLINE
  5
C0
100
AcDbEntity
  8
0
 62
256
370
-1
 48
1.0
  6
BYLAYER
100
AcDbPolyline
 90
14
 70
129
 10
85.7589041095890394
 20
12.5257050765511657
 42
0.0550742085011413
 10
85.5710717163577783
 20
12.5912167606768719
 42
0.0555058594972601
 10
85.383239323126503
 20
12.6122481869460117
 42
0.2312351226365544
 10
84.9560838033843595
 20
12.4343271555197425
 42
0.17767993021169
 10
84.806446414182119
 20
11.9252215954875105
 10
84.806446414182119
 20
10.88815471394037
 10
84.0870265914584962
 20
10.88815471394037
 10
84.0870265914584962
 20
13.1387590652699444
 10
84.806446414182119
 20
13.1387590652699444
 10
84.806446414182119
 20
12.7688960515713141
 42
-0.1252871801876043
 10
85.1250604351329514
 20
13.0913779210314267
 42
-0.1304071855901113
 10
85.555842062852534
 20
13.1929089443996759
 42
-0.0171476150823325
 10
85.6341659951651906
 20
13.1900080580177281
 42
-0.0129718099352996
 10
85.75697018533441
 20
13.1769540692989509
  0
LWPOLYLINE
  5
C1
100
AcDbEntity
  8
0
 62
256
370
-1
 48
1.0
  6
BYLAYER
100
AcDbPolyline
 90
15
 70
129
 10
88.3629331184528723
 20
12.0195004029008849
 10
88.3629331184528723
 20
11.8145044319097501
 10
86.6809024979854996
 20
11.8145044319097501
 42
0.2057646661349405
 10
86.863658340048346
 20
11.4347300564061243
 42
0.1726032109462197
 10
87.3016921837228068
 20
11.3082997582594693
 42
0.0691113965401939
 10
87.7670427074939568
 20
11.3755036261079781
 42
0.0560479244608385
 10
88.2560838033843709
 20
11.5795326349717982
 10
88.2560838033843709
 20
11.0249798549556814
 42
-0.0428546638464158
 10
87.7457695406929901
 20
10.8789685737308623
 42
-0.0478948782524567
 10
87.2354552780016093
 20
10.8296535052377116
 42
-0.1914102154877466
 10
86.285898468976626
 20
11.1402900886381957
 42
-0.2179154268482754
 10
85.9474617244157884
 20
12.0112812248186991
 42
-0.2132643270721729
 10
86.2798549556809036
 20
12.8774375503626111
 42
-0.1970960050083324
 10
87.1953263497179734
 20
13.1929089443996759
 42
-0.2062977058834743
 10
88.0443190975020116
 20
12.873569701853345
 42
-0.2055188954015337
  0
LWPOLYLINE
  5
C2
100
AcDbEntity
  8
0
 62
256
370
-1
 48
1.0
  6
BYLAYER
100
AcDbPolyline
 90
5
 70
129
 10
87.6232070910556047
 20
12.2588235294117638
 42
0.199037848382124
 10
87.5035455278001564
 20
12.5892828364222389
 42
0.2135555669245705
 10
87.1909750201450464
 20
12.7147461724415791
 42
0.190676107933146
 10
86.8515713134569012
 20
12.5972602739726014
 42
0.178244846966432
 10
86.6886381950040175
 20
12.2588235294117638
  0
LWPOLYLINE
  5
C3
100
AcDbEntity
  8
0
 62
256
370
-1
 48
1.0
  6
BYLAYER
100
AcDbPolyline
 90
18
 70
129
 10
92.1582594681708258
 20
13.0686543110394844
 10
92.1582594681708258
 20
12.4817082997582602
 42
0.0719287294774626
 10
91.8640612409347312
 20
12.6303787268332002
 42
0.079365571563266
 10
91.5577759871071777
 20
12.6784850926672021
 42
0.2118256662430176
 10
91.0883158742949206
 20
12.5027397260273965
 42
0.1974864220820368
 10
90.9205479452054846
 20
12.0112812248186955
 42
0.1973390529581291
 10
91.0883158742949206
 20
11.5200644641418215
 42
0.2120402740829429
 10
91.5577759871071777
 20
11.3440773569701854
 42
0.0807235888708339
 10
91.8780821917808197
 20
11.3943593875906508
 42
0.0842624742266601
 10
92.1582594681708258
 20
11.5432715551974212
 10
92.1582594681708258
 20
10.9543916196615641
 42
-0.0442433789948082
 10
91.8157131345688953
 20
10.8608380338436739
 42
-0.0444975518998515
 10
91.4673650282030621
 20
10.8296535052377116
 42
-0.190501256273066
 10
90.5146655922642935
 20
11.1422240128928287
 42
-0.2195104813311474
 10
90.1711522965350412
 20
12.0112812248186955
 42
-0.2196038618349368
 10
90.5146655922642935
 20
12.8805801772763893
 42
-0.190385058246176
 10
91.4673650282030621
 20
13.1929089443996759
 42
-0.0449905062155271
 10
91.8157131345688953
 20
13.1617244157937137
 42
-0.0421826187006688
  0
LWPOLYLINE
  5
C4
100
AcDbEntity
  8
0
 62
256
370
-1
 48
1.0
  6
BYLAYER
100
AcDbPolyline
 90
20
 70
129
 10
92.7548751007252292
 20
11.7642224012892811
 10
92.7548751007252292
 20
13.1387590652699444
 10
93.4781627719580968
 20
13.1387590652699444
 10
93.4781627719580968
 20
12.9139403706688149
 42
-0.0016953687267244
 10
93.4762288477034531
 20
12.4543916196619335
 42
0.0014012582688634
 10
93.4742949234488378
 20
12.0857373086216207
 42
0.0258175615342271
 10
93.4883158742949263
 20
11.6948428686543089
 42
0.1055436883545426
 10
93.5366639806607623
 20
11.5210314262691362
 42
0.1326289315703261
 10
93.6519742143432694
 20
11.4127316680096698
 42
0.1250020919892015
 10
93.8161160354552806
 20
11.3745366639806598
 42
0.2510926372715019
 10
94.1695406929895285
 20
11.5473811442385177
 42
0.1614232261198541
 10
94.2981466559226504
 20
12.0277195809830779
 10
94.2981466559226504
 20
13.1387590652699444
 10
95.017566478646259
 20
13.1387590652699444
 10
95.017566478646259
 20
10.88815471394037
 10
94.2981466559226504
 20
10.88815471394037
 10
94.2981466559226504
 20
11.2135374697824339
 42
-0.1014001120056994
 10
93.9534246575342422
 20
10.9232070910555983
 42
-0.1209965211844139
 10
93.5526188557614944
 20
10.8296535052377116
 42
-0.2284982578231494
 10
92.9589041095890423
 20
11.0689766317485905
 42
-0.1790545242477793
  0
LWPOLYLINE
  5
C5
100
AcDbEntity
  8
0
 62
256
370
-1
 48
1.0
  6
BYLAYER
100
AcDbPolyline
 90
18
 70
129
 10
96.4941176470588289
 20
13.777921031426267
 10
96.4941176470588289
 20
13.1387590652699444
 10
97.2357775987107118
 20
13.1387590652699444
 10
97.2357775987107118
 20
12.6243352135374707
 10
96.4941176470588289
 20
12.6243352135374707
 10
96.4941176470588289
 20
11.6699435938759066
 42
0.2064810433625101
 10
96.5564867042707533
 20
11.457937147461724
 42
0.1667858399497681
 10
96.8035455278001677
 20
11.4025785656728438
 10
97.1734085414987874
 20
11.4025785656728438
 10
97.1734085414987874
 20
10.88815471394037
 10
96.5564867042707533
 20
10.88815471394037
 42
-0.1954084677493242
 10
95.9526188557614717
 20
11.0660757453666392
 42
-0.1954084677493122
 10
95.7746978243352203
 20
11.6699435938759066
 10
95.7746978243352203
 20
12.6243352135374707
 10
95.4169218372280454
 20
12.6243352135374707
 10
95.4169218372280454
 20
13.1387590652699444
 10
95.7746978243352203
 20
13.1387590652699444
 10
95.7746978243352203
 20
13.777921031426267
  0
LWPOLYLINE
  5
C6
100
AcDbEntity
  8
0
 62
256
370
-1
 48
1.0
  6
BYLAYER
100
AcDbPolyline
 90
18
 70
129
 10
98.4609186140209545
 20
13.777921031426267
 10
98.4609186140209545
 20
13.1387590652699444
 10
99.2025785656728374
 20
13.1387590652699444
 10
99.2025785656728374
 20
12.6243352135374707
 10
98.4609186140209545
 20
12.6243352135374707
 10
98.4609186140209545
 20
11.6699435938759066
 42
0.2064810433623891
 10
98.5232876712328789
 20
11.457937147461724
 42
0.1667858399497477
 10
98.7703464947622933
 20
11.4025785656728438
 10
99.140209508460913
 20
11.4025785656728438
 10
99.140209508460913
 20
10.88815471394037
 10
98.5232876712328789
 20
10.88815471394037
 42
-0.1954084677493299
 10
97.9194198227236114
 20
11.0660757453666392
 42
-0.1954084677493453
 10
97.7414987912973459
 20
11.6699435938759066
 10
97.7414987912973459
 20
12.6243352135374707
 10
97.383722804190171
 20
12.6243352135374707
 10
97.383722804190171
 20
13.1387590652699444
 10
97.7414987912973459
 20
13.1387590652699444
 10
97.7414987912973459
 20
13.777921031426267
  0
LWPOLYLINE
  5
C7
100
AcDbEntity
  8
0
 62
256
370
-1
 48
1.0
  6
BYLAYER
100
AcDbPolyline
 90
4
 70
129
 10
99.6420628525382739
 20
13.1387590652699444
 10
100.3614826752618825
 20
13.1387590652699444
 10
100.3614826752618825
 20
10.88815471394037
 10
99.6420628525382739
 20
10.88815471394037
  0
LWPOLYLINE
  5
C8
100
AcDbEntity
  8
0
 62
256
370
-1
 48
1.0
  6
BYLAYER
100
AcDbPolyline
 90
4
 70
129
 10
99.6420628525382739
 20
14.0148267526188555
 10
100.3614826752618825
 20
14.0148267526188555
 10
100.3614826752618825
 20
13.4283642224012887
 10
99.6420628525382739
 20
13.4283642224012887
  0
LWPOLYLINE
  5
C9
100
AcDbEntity
  8
0
 62
256
370
-1
 48
1.0
  6
BYLAYER
100
AcDbPolyline
 90
19
 70
129
 10
103.315068493150676
 20
12.2588235294117638
 10
103.315068493150676
 20
10.88815471394037
 10
102.5917808219178085
 20
10.88815471394037
 10
102.5917808219178085
 20
11.1110394842868665
 10
102.5917808219178085
 20
11.9373086220789695
 42
0.0247848332854228
 10
102.5787268331990276
 20
12.3388396454472229
 42
0.103863037875264
 10
102.5332796132151572
 20
12.5015310233682513
 42
0.1375379517396202
 10
102.4189363416599576
 20
12.6112812248186934
 42
0.1263805524732743
 10
102.2538275584206247
 20
12.6504431909750181
 42
0.2519449839985222
 10
101.9004029008863768
 20
12.4766317485898455
 42
0.1607868699696154
 10
101.7717969379532548
 20
11.9953263497179705
 10
101.7717969379532548
 20
10.88815471394037
 10
101.0523771152296462
 20
10.88815471394037
 10
101.0523771152296462
 20
13.1387590652699444
 10
101.7717969379532548
 20
13.1387590652699444
 10
101.7717969379532548
 20
12.8090249798549536
 42
-0.1030913173589987
 10
102.1172441579371508
 20
13.0995970991136161
 42
-0.1199948138755434
 10
102.5211925866236982
 20
13.1929089443996759
 42
-0.2296591057468861
 10
103.1129734085415066
 20
12.9538275584206275
 42
-0.1777771703473282
  0
LWPOLYLINE
  5
CA
100
AcDbEntity
  8
0
 62
256
370
-1
 48
1.0
  6
BYLAYER
100
AcDbPolyline
 90
21
 70
129
 10
105.5129734085415123
 20
11.2701047542304522
 42
-0.1127324724929676
 10
105.1854149879129778
 20
10.9804995970991115
 42
-0.1209967489770259
 10
104.771313456889601
 20
10.88815471394037
 42
-0.2347420051123639
 10
104.0900886381949988
 20
11.2125705076551156
 42
-0.179340549842359
 10
103.82078968573731
 20
12.0398066075745405
 42
-0.1800806131102498
 10
104.0900886381949988
 20
12.8665592264302973
 42
-0.2338533904953748
 10
104.771313456889601
 20
13.1890410958904098
 42
-0.1209967489770392
 10
105.1854149879129778
 20
13.0966962127316684
 42
-0.1138961412761805
 10
105.5129734085414981
 20
12.8051571313456876
 10
105.5129734085414981
 20
13.1387590652699444
 10
106.2362610797743798
 20
13.1387590652699444
 10
106.2362610797743798
 20
11.1153908138597899
 42
-0.2318526227356357
 10
105.8937147461724351
 20
10.2862207896857356
 42
-0.1761683456016838
 10
104.8999194198227229
 20
10.0
 42
-0.0405068409549044
 10
104.4921031426269167
 20
10.0321514907332805
 42
-0.040064643487887
 10
104.0963738920225694
 20
10.1305398871877514
 10
104.0963738920225694
 20
10.6913779210314246
 42
0.0594478539924859
 10
104.4659951651893692
 20
10.5294117647058805
 42
0.0718981953348578
 10
104.8298146655922665
 20
10.4762288477034637
 42
0.1898145981906316
 10
105.3481063658340133
 20
10.6309427880741332
 42
0.210026578448169
 10
105.5129734085414981
 20
11.1153908138597899
  0
LWPOLYLINE
  5
CB
100
AcDbEntity
  8
0
 62
256
370
-1
 48
1.0
  6
BYLAYER
100
AcDbPolyline
 90
8
 70
129
 10
105.0386784850926745
 20
12.6707493956486559
 42
0.2483763559468526
 10
104.6910556003223292
 20
12.5058823529411747
 42
0.1630903031298141
 10
104.5663174858984661
 20
12.0398066075745369
 42
0.1613568374392318
 10
104.686946011281222
 20
11.5703464947622869
 42
0.2476517607011655
 10
105.0386784850926745
 20
11.4107977437550367
 42
0.2483364479368167
 10
105.388477034649469
 20
11.5754230459307017
 42
0.1631078792237183
 10
105.5129734085414981
 20
12.0398066075745369
 42
0.162821685780837
 10
105.388477034649469
 20
12.5058823529411747
 42
0.2485650503720441
  0
LWPOLYLINE
  5
CC
100
AcDbEntity
  8
0
 62
256
370
-1
 48
1.0
  6
BYLAYER
100
AcDbPolyline
 90
28
 70
129
 10
110.1186140209508437
 20
13.0686543110394844
 10
110.1186140209508437
 20
12.5218372280418997
 42
0.0440532306305954
 10
109.672360999194197
 20
12.6666398066075736
 42
0.0550022318577461
 10
109.2662369057212004
 20
12.7147461724415791
 42
0.1129703149710346
 10
108.9618855761482621
 20
12.6634971796937954
 42
0.3045127141322745
 10
108.8625302175664729
 20
12.5058823529411747
 42
0.2801319614769269
 10
108.9379532634971781
 20
12.3731668009669633
 42
0.0979356423897324
 10
109.2082191780822029
 20
12.3047542304593058
 10
109.3348912167606812
 20
12.2868654311039478
 42
-0.1297099526511155
 10
110.0782433521353738
 20
12.0555197421434315
 42
-0.2274232183229614
 10
110.2689766317485862
 20
11.5514907332796142
 42
-0.2632817107136512
 10
110.0037872683319904
 20
11.010717163577759
 42
-0.147043951658689
 10
109.2120870265914618
 20
10.8296535052377116
 42
-0.0368134404841615
 10
108.7510878323932388
 20
10.8649476228847703
 42
-0.0311987385879434
 10
108.2615632554391709
 20
10.9703464947622891
 10
108.2615632554391709
 20
11.5171635777598702
 42
0.0564433839019424
 10
108.7027397260273887
 20
11.3605157131345678
 42
0.0570031280619206
 10
109.1618049959709964
 20
11.3082997582594693
 42
0.120469488399141
 10
109.4794520547945211
 20
11.3665592264302973
 42
0.2960031227646982
 10
109.5858178887993546
 20
11.5394037066881552
 42
0.2722030583945947
 10
109.5125705076551128
 20
11.6827558420628534
 42
0.0971191795901079
 10
109.2203062046736477
 20
11.756486704270749
 10
109.0936341659951694
 20
11.7724415793714741
 42
-0.1364719177232001
 10
108.4206285253827673
 20
11.9953263497179705
 42
-0.2284727981499555
 10
108.2277195809830772
 20
12.4899274778404497
 42
-0.2574749482835389
 10
108.472844480257848
 20
13.0200644641418215
 42
-0.1500784610408476
 10
109.2241740531829208
 20
13.1929089443996759
 42
-0.0339881551375522
 10
109.6423851732473764
 20
13.1629331184528588
 42
-0.0270978517001071
  0
LWPOLYLINE
  5
CD
100
AcDbEntity
  8
0
 62
256
370
-1
 48
1.0
  6
BYLAYER
100
AcDbPolyline
 90
29
 70
129
 10
112.8952457695407077
 20
12.7650282030620374
 42
-0.1174274246265077
 10
113.2199033037872766
 20
13.0834004834810642
 42
-0.1350803030525326
 10
113.6325543916196636
 20
13.1929089443996759
 42
-0.2292413086400894
 10
114.2236099919419701
 20
12.9538275584206275
 42
-0.178302427843185
 10
114.4264302981466557
 20
12.2588235294117638
 10
114.4264302981466557
 20
10.88815471394037
 10
113.7031426269137739
 20
10.88815471394037
 10
113.7031426269137739
 20
12.061563255439161
 42
0.0099310823741363
 10
113.7060435132957252
 20
12.11595487510073
 42
0.00796624430582
 10
113.7070104754230471
 20
12.1964544721998642
 42
0.1380278061441404
 10
113.6366639806607566
 20
12.5428686543110395
 42
0.2680725622785113
 10
113.4096696212731672
 20
12.6504431909750181
 42
0.2689683897094156
 10
113.0932312651087841
 20
12.4817082997582602
 42
0.1405306837431594
 10
112.9774375503626231
 20
11.993392425463334
 10
112.9774375503626231
 20
10.88815471394037
 10
112.2541498791297272
 20
10.88815471394037
 10
112.2541498791297272
 20
12.061563255439161
 42
0.1093978669342011
 10
112.1898468976631733
 20
12.5428686543110395
 42
0.27879675477489
 10
111.9606768734891205
 20
12.6504431909750181
 42
0.2685296461443061
 10
111.6413376309427861
 20
12.480741337630942
 42
0.1449024461687413
 10
111.5289282836422302
 20
11.9953263497179705
 10
111.5289282836422302
 20
10.88815471394037
 10
110.8056406124093485
 20
10.88815471394037
 10
110.8056406124093485
 20
13.1387590652699444
 10
111.5289282836422302
 20
13.1387590652699444
 10
111.5289282836422302
 20
12.8090249798549536
 42
-0.1146037461223753
 10
111.8332796132151543
 20
13.0964544721998379
 42
-0.1306467747245903
 10
112.2120870265914618
 20
13.1929089443996759
 42
-0.143779467548243
 10
112.624012892828361
 20
13.0804995970991129
 42
-0.1499253311634679
  0
LWPOLYLINE
  5
CE
100
AcDbEntity
  8
0
 62
256
370
-1
 48
1.0
  6
BYLAYER
100
AcDbPolyline
 90
8
 70
129
 10
116.1060435132957309
 20
11.9010475423045889
 42
0.1451510853777924
 10
115.7676067687348933
 20
11.8246575342465761
 42
0.2659109527271808
 10
115.6539887187751816
 20
11.5993553585817892
 42
0.2309825932322835
 10
115.7453666398066048
 20
11.3856567284448005
 42
0.1796804069466053
 10
115.9996776792908975
 20
11.3082997582594693
 42
0.2143665064183516
 10
116.3412570507655062
 20
11.4538275584206275
 42
0.199604803831489
 10
116.4797743755036237
 20
11.8183722804190161
 10
116.4797743755036237
 20
11.9010475423045925
  0
LWPOLYLINE
  5
CF
100
AcDbEntity
  8
0
 62
256
370
-1
 48
1.0
  6
BYLAYER
100
AcDbPolyline
 90
20
 70
129
 10
117.2054794520548029
 20
12.1722804190169214
 10
117.2054794520548029
 20
10.88815471394037
 10
116.4797743755036237
 20
10.88815471394037
 10
116.4797743755036237
 20
11.2217566478646233
 42
-0.1210944946334627
 10
116.1543916196615669
 20
10.9232070910555983
 42
-0.120306453425426
 10
115.7144238517324766
 20
10.8296535052377116
 42
-0.1964276427889956
 10
115.1468170829975861
 20
11.0336825141015318
 42
-0.2165494766865178
 10
114.9287671232876704
 20
11.5635777598710732
 42
-0.2627820749486435
 10
115.2009669621273105
 20
12.1439967767929069
 42
-0.1440836651755909
 10
116.0557614826752513
 20
12.3289282836422238
 10
116.4797743755036237
 20
12.3289282836422238
 10
116.4797743755036237
 20
12.3850120870265918
 42
0.2852728508450676
 10
116.3451248992747793
 20
12.6354552780016114
 42
0.1269008383232623
 10
115.925221595487514
 20
12.7147461724415791
 42
0.0570932845889181
 10
115.4951651893634192
 20
12.6685737308622066
 42
0.0673514154823623
 10
115.1255439161966194
 20
12.5300564061240927
 10
115.1255439161966194
 20
13.0783239323126494
 42
-0.0290832766119114
 10
115.5896857373086277
 20
13.1639000805801771
 42
-0.0310003554122004
 10
116.0557614826752513
 20
13.1929089443996759
 42
-0.1796044772763978
 10
116.9352135374697781
 20
12.9528605962933128
 42
-0.216999066348435
  0
LWPOLYLINE
  5
D0
100
AcDbEntity
  8
0
 62
256
370
-1
 48
1.0
  6
BYLAYER
100
AcDbPolyline
 90
4
 70
129
 10
117.874133763094278
 20
14.0148267526188555
 10
118.5935535858178866
 20
14.0148267526188555
 10
118.5935535858178866
 20
10.88815471394037
 10
117.874133763094278
 20
10.88815471394037
  0
LWPOLYLINE
  5
D1
100
AcDbEntity
  8
0
 62
256
370
-1
 48
1.0
  6
BYLAYER
100
AcDbPolyline
 90
4
 70
129
 10
119.2844480257856503
 20
14.0148267526188555
 10
120.0038678485092731
 20
14.0148267526188555
 10
120.0038678485092731
 20
10.88815471394037
 10
119.2844480257856503
 20
10.88815471394037
  0
LWPOLYLINE
  5
D2
100
AcDbEntity
  8
0
 62
256
370
-1
 48
1.0
  6
BYLAYER
100
AcDbPolyline
 90
15
 70
129
 10
122.9414987912973345
 20
12.0195004029008849
 10
122.9414987912973345
 20
11.8145044319097501
 10
121.2594681708299618
 20
11.8145044319097501
 42
0.2057646661349292
 10
121.4422240128928365
 20
11.4347300564061243
 42
0.172603210946204
 10
121.8802578565672832
 20
11.3082997582594693
 42
0.0691113965401934
 10
122.3456083803384331
 20
11.3755036261079781
 42
0.0560479244607978
 10
122.834649476228833
 20
11.5795326349717982
 10
122.834649476228833
 20
11.0249798549556814
 42
-0.0428546638464084
 10
122.3243352135374664
 20
10.8789685737308623
 42
-0.0478948782524594
 10
121.8140209508460998
 20
10.8296535052377116
 42
-0.1914102154877454
 10
120.8644641418211165
 20
11.1402900886381957
 42
-0.2179154268482663
 10
120.5260273972602647
 20
12.0112812248186955
 42
-0.2132643270722043
 10
120.8584206285253799
 20
12.8774375503626111
 42
-0.1970960050083338
 10
121.7738920225624497
 20
13.1929089443996759
 42
-0.2062977058834512
 10
122.6228847703465021
 20
12.873569701853345
 42
-0.2055188954015409
  0
LWPOLYLINE
  5
D3
100
AcDbEntity
  8
0
 62
256
370
-1
 48
1.0
  6
BYLAYER
100
AcDbPolyline
 90
5
 70
129
 10
122.2017727639000668
 20
12.2588235294117638
 42
0.1990378483819668
 10
122.0821112006446469
 20
12.5892828364222389
 42
0.2135555669245265
 10
121.7695406929895228
 20
12.7147461724415791
 42
0.1906761079331612
 10
121.4301369863013633
 20
12.5972602739726014
 42
0.1782448469665204
 10
121.267203867848508
 20
12.2588235294117638
  0
LWPOLYLINE
  5
D4
100
AcDbEntity
  8
0
 62
256
370
-1
 48
1.0
  6
BYLAYER
100
AcDbPolyline
 90
14
 70
129
 10
125.1577759871071862
 20
12.5257050765511586
 42
0.0550742085012097
 10
124.9699435938758825
 20
12.5912167606768719
 42
0.0555058594972805
 10
124.7821112006446356
 20
12.6122481869460117
 42
0.2312351226365889
 10
124.3549556809024921
 20
12.4343271555197425
 42
0.1776799302117383
 10
124.2053182917002516
 20
11.9252215954875105
 10
124.2053182917002516
 20
10.88815471394037
 10
123.4858984689766146
 20
10.88815471394037
 10
123.4858984689766146
 20
13.1387590652699444
 10
124.2053182917002516
 20
13.1387590652699444
 10
124.2053182917002516
 20
12.7688960515713141
 42
-0.1252871801876136
 10
124.523932312651084
 20
13.0913779210314267
 42
-0.1304071855901259
 10
124.9547139403706808
 20
13.1929089443996759
 42
-0.0171476150823201
 10
125.0330378726833089
 20
13.1900080580177281
 42
-0.0129718099353133
 10
125.1558420628525425
 20
13.1769540692989509
  0
LWPOLYLINE
  5
D5
100
AcDbEntity
  8
0
 62
256
370
-1
 48
1.0
  6
BYLAYER
100
AcDbPolyline
 90
6
 70
129
 10
125.5895245769540907
 20
11.6655922643029797
 10
126.3128122481869298
 20
11.6655922643029797
 10
126.3128122481869298
 20
11.0530217566478655
 10
125.8162771958098176
 20
10.3036261079774363
 10
125.3883964544722005
 20
10.3036261079774363
 10
125.5895245769540907
 20
11.0530217566478655
  0
LWPOLYLINE
  5
D6
100
AcDbEntity
  8
0
 62
256
370
-1
 48
1.0
  6
BYLAYER
100
AcDbPolyline
 90
18
 70
129
 10
129.296373892022558
 20
13.777921031426267
 10
129.296373892022558
 20
13.1387590652699444
 10
130.038033843674441
 20
13.1387590652699444
 10
130.038033843674441
 20
12.6243352135374707
 10
129.296373892022558
 20
12.6243352135374707
 10
129.296373892022558
 20
11.6699435938759066
 42
0.206481043362773
 10
129.3587429492345109
 20
11.457937147461724
 42
0.1667858399497792
 10
129.6058017727638969
 20
11.4025785656728438
 10
129.975664786462545
 20
11.4025785656728438
 10
129.975664786462545
 20
10.88815471394037
 10
129.3587429492345109
 20
10.88815471394037
 42
-0.1954084677493166
 10
128.7548751007252008
 20
11.0660757453666392
 42
-0.1954084677493609
 10
128.5769540692989494
 20
11.6699435938759066
 10
128.5769540692989494
 20
12.6243352135374707
 10
128.2191780821917746
 20
12.6243352135374707
 10
128.2191780821917746
 20
13.1387590652699444
 10
128.5769540692989494
 20
13.1387590652699444
 10
128.5769540692989494
 20
13.777921031426267
  0
LWPOLYLINE
  5
D7
100
AcDbEntity
  8
0
 62
256
370
-1
 48
1.0
  6
BYLAYER
100
AcDbPolyline
 90
8
 70
129
 10
131.5484286865431045
 20
12.6784850926672092
 42
0.2528106725506293
 10
131.1838839645447194
 20
12.506849315068493
 42
0.1577890542291242
 10
131.058178887993563
 20
12.0112812248186955
 42
0.1576749368722991
 10
131.1838839645447194
 20
11.515954875100725
 42
0.2530325641939612
 10
131.5484286865431045
 20
11.3440773569701854
 42
0.2543509340061886
 10
131.908138597904923
 20
11.515954875100725
 42
0.1566279833247184
 10
132.0328767123287435
 20
12.0112812248186955
 42
0.1567413386402778
 10
131.908138597904923
 20
12.506849315068493
 42
0.254130245708459
  0
LWPOLYLINE
  5
D8
100
AcDbEntity
  8
0
 62
256
370
-1
 48
1.0
  6
BYLAYER
100
AcDbPolyline
 90
8
 70
129
 10
131.5484286865431045
 20
13.1929089443996901
 42
-0.1985700988402703
 10
132.4556809024979884
 20
12.8793714746172441
 42
-0.211254915521852
 10
132.7822723609992011
 20
12.0112812248186955
 42
-0.2112549155218534
 10
132.4556809024979884
 20
11.1431909750201434
 42
-0.1985700988402667
 10
131.5484286865431045
 20
10.8296535052377116
 42
-0.1977221508060227
 10
130.6373086220789617
 20
11.1431909750201434
 42
-0.2121732306438039
 10
130.3087832393231338
 20
12.011281224818692
 42
-0.2121732306437928
 10
130.6373086220789617
 20
12.8793714746172441
 42
-0.1977221508060324
  0
LWPOLYLINE
  5
D9
100
AcDbEntity
  8
0
 62
256
370
-1
 48
1.0
  6
BYLAYER
100
AcDbPolyline
 90
18
 70
129
 10
136.5553585817888802
 20
13.0686543110394844
 10
136.5553585817888802
 20
12.4817082997582602
 42
0.0719287294773888
 10
136.2611603545527714
 20
12.6303787268332002
 42
0.0793655715632395
 10
135.9548751007252463
 20
12.6784850926672021
 42
0.2118256662430691
 10
135.485414987912975
 20
12.5027397260273965
 42
0.1974864220820332
 10
135.3176470588235247
 20
12.0112812248186955
 42
0.1973390529581044
 10
135.485414987912975
 20
11.5200644641418215
 42
0.2120402740829792
 10
135.9548751007252463
 20
11.3440773569701854
 42
0.0807235888708165
 10
136.2751813053988599
 20
11.3943593875906508
 42
0.084262474226661
 10
136.5553585817888802
 20
11.5432715551974212
 10
136.5553585817888802
 20
10.9543916196615641
 42
-0.0442433789948496
 10
136.2128122481869354
 20
10.8608380338436739
 42
-0.0444975518998455
 10
135.8644641418211165
 20
10.8296535052377116
 42
-0.1905012562730518
 10
134.9117647058823479
 20
11.1422240128928287
 42
-0.2195104813311436
 10
134.5682514101530955
 20
12.0112812248186955
 42
-0.2196038618349363
 10
134.9117647058823479
 20
12.8805801772763893
 42
-0.1903850582461754
 10
135.8644641418211165
 20
13.1929089443996759
 42
-0.0449905062155324
 10
136.2128122481869354
 20
13.1617244157937137
 42
-0.0421826187006519
  0
LWPOLYLINE
  5
DA
100
AcDbEntity
  8
0
 62
256
370
-1
 48
1.0
  6
BYLAYER
100
AcDbPolyline
 90
8
 70
129
 10
138.2470588235294144
 20
12.6784850926671879
 42
0.2528106725506183
 10
137.882514101531001
 20
12.506849315068493
 42
0.1577890542292296
 10
137.7568090249798445
 20
12.0112812248186955
 42
0.1576749368724106
 10
137.882514101531001
 20
11.515954875100725
 42
0.2530325641939781
 10
138.2470588235294144
 20
11.3440773569701854
 42
0.254350934006212
 10
138.606768734891233
 20
11.515954875100725
 42
0.1566279833247184
 10
138.7315068493150534
 20
12.0112812248186955
 42
0.1567413386402728
 10
138.606768734891233
 20
12.506849315068493
 42
0.2541302457084517
  0
LWPOLYLINE
  5
DB
100
AcDbEntity
  8
0
 62
256
370
-1
 48
1.0
  6
BYLAYER
100
AcDbPolyline
 90
8
 70
129
 10
138.2470588235294144
 20
13.1929089443996794
 42
-0.198570098840265
 10
139.1543110394842984
 20
12.8793714746172441
 42
-0.2112549155218421
 10
139.480902497985511
 20
12.0112812248186955
 42
-0.2112549155218534
 10
139.1543110394842984
 20
11.1431909750201434
 42
-0.1985700988402667
 10
138.2470588235294144
 20
10.8296535052377116
 42
-0.1977221508060333
 10
137.3359387590652716
 20
11.1431909750201434
 42
-0.212173230643861
 10
137.0074133763094437
 20
12.0112812248186955
 42
-0.2121732306438545
 10
137.3359387590652716
 20
12.8793714746172441
 42
-0.1977221508060467
  0
LWPOLYLINE
  5
DC
100
AcDbEntity
  8
0
 62
256
370
-1
 48
1.0
  6
BYLAYER
100
AcDbPolyline
 90
20
 70
129
 10
139.9788879935535704
 20
11.7642224012892811
 10
139.9788879935535704
 20
13.1387590652699444
 10
140.7021756647864663
 20
13.1387590652699444
 10
140.7021756647864663
 20
12.9139403706688149
 42
-0.0016953687267244
 10
140.7002417405318226
 20
12.4543916196619371
 42
0.0014012582688248
 10
140.698307816277179
 20
12.0857373086257631
 42
0.0258175615343158
 10
140.7123287671232958
 20
11.6948428686543089
 42
0.1055436883547155
 10
140.7606768734891318
 20
11.5210314262691362
 42
0.1326289315703879
 10
140.8759871071716532
 20
11.4127316680096698
 42
0.1250020919892299
 10
141.0401289282836501
 20
11.3745366639806598
 42
0.2510926372714349
 10
141.393553585817898
 20
11.5473811442385177
 42
0.1614232261198705
 10
141.5221595487510058
 20
12.0277195809830779
 10
141.5221595487510058
 20
13.1387590652699444
 10
142.2415793714746428
 20
13.1387590652699444
 10
142.2415793714746428
 20
10.88815471394037
 10
141.5221595487510058
 20
10.88815471394037
 10
141.5221595487510058
 20
11.2135374697824339
 42
-0.1014001120057088
 10
141.1774375503626118
 20
10.9232070910555983
 42
-0.1209965211844101
 10
140.7766317485898639
 20
10.8296535052377116
 42
-0.2284982578231291
 10
140.1829170024174118
 20
11.0689766317485905
 42
-0.1790545242478198
  0
LWPOLYLINE
  5
DD
100
AcDbEntity
  8
0
 62
256
370
-1
 48
1.0
  6
BYLAYER
100
AcDbPolyline
 90
19
 70
129
 10
145.1951651893634221
 20
12.2588235294117638
 10
145.1951651893634221
 20
10.88815471394037
 10
144.4718775181305261
 20
10.88815471394037
 10
144.4718775181305261
 20
11.1110394842868665
 10
144.4718775181305261
 20
11.9373086220789695
 42
0.0247848332854039
 10
144.4588235294117737
 20
12.3388396454472264
 42
0.1038630378755207
 10
144.4133763094278891
 20
12.5015310233682513
 42
0.1375379517395369
 10
144.2990330378726753
 20
12.6112812248186934
 42
0.1263805524734128
 10
144.1339242546333708
 20
12.6504431909750181
 42
0.2519449839986455
 10
143.7804995970991229
 20
12.4766317485898455
 42
0.1607868699695807
 10
143.6518936341659867
 20
11.9953263497179705
 10
143.6518936341659867
 20
10.88815471394037
 10
142.9324738114423781
 20
10.88815471394037
 10
142.9324738114423781
 20
13.1387590652699444
 10
143.6518936341659867
 20
13.1387590652699444
 10
143.6518936341659867
 20
12.8090249798549536
 42
-0.1030913173589542
 10
143.9973408541498827
 20
13.0995970991136161
 42
-0.1199948138755492
 10
144.4012892828364159
 20
13.1929089443996759
 42
-0.2296591057469193
 10
144.9930701047542243
 20
12.9538275584206275
 42
-0.1777771703473284
  0
LWPOLYLINE
  5
DE
100
AcDbEntity
  8
0
 62
256
370
-1
 48
1.0
  6
BYLAYER
100
AcDbPolyline
 90
18
 70
129
 10
146.6475423045930597
 20
13.777921031426267
 10
146.6475423045930597
 20
13.1387590652699444
 10
147.3892022562449711
 20
13.1387590652699444
 10
147.3892022562449711
 20
12.6243352135374707
 10
146.6475423045930597
 20
12.6243352135374707
 10
146.6475423045930597
 20
11.6699435938759066
 42
0.2064810433625316
 10
146.7099113618050126
 20
11.457937147461724
 42
0.1667858399498331
 10
146.9569701853343986
 20
11.4025785656728438
 10
147.3268331990330466
 20
11.4025785656728438
 10
147.3268331990330466
 20
10.88815471394037
 10
146.7099113618050126
 20
10.88815471394037
 42
-0.1954084677493163
 10
146.1060435132957309
 20
11.0660757453666392
 42
-0.1954084677493226
 10
145.9281224818694511
 20
11.6699435938759066
 10
145.9281224818694511
 20
12.6243352135374707
 10
145.5703464947623047
 20
12.6243352135374707
 10
145.5703464947623047
 20
13.1387590652699444
 10
145.9281224818694511
 20
13.1387590652699444
 10
145.9281224818694511
 20
13.777921031426267
  0
LWPOLYLINE
  5
DF
100
AcDbEntity
  8
0
 62
256
370
-1
 48
1.0
  6
BYLAYER
100
AcDbPolyline
 90
15
 70
129
 10
150.0754230459307053
 20
12.0195004029008849
 10
150.0754230459307053
 20
11.8145044319097501
 10
148.3933924254633325
 20
11.8145044319097501
 42
0.2057646661349408
 10
148.5761482675262073
 20
11.4347300564061243
 42
0.1726032109462241
 10
149.0141821112006539
 20
11.3082997582594693
 42
0.0691113965401749
 10
149.4795326349718039
 20
11.3755036261079781
 42
0.056047924460794
 10
149.9685737308622038
 20
11.5795326349717982
 10
149.9685737308622038
 20
11.0249798549556814
 42
-0.0428546638464155
 10
149.4582594681708372
 20
10.8789685737308623
 42
-0.0478948782524701
 10
148.9479452054794706
 20
10.8296535052377116
 42
-0.1914102154877606
 10
147.9983883964544873
 20
11.1402900886381957
 42
-0.217915426848253
 10
147.6599516518936355
 20
12.0112812248186955
 42
-0.2132643270721449
 10
147.9923448831587507
 20
12.8774375503626111
 42
-0.1970960050083541
 10
148.9078162771958205
 20
13.1929089443996759
 42
-0.2062977058834501
 10
149.7568090249798445
 20
12.873569701853345
 42
-0.2055188954015661
  0
LWPOLYLINE
  5
E0
100
AcDbEntity
  8
0
 62
256
370
-1
 48
1.0
  6
BYLAYER
100
AcDbPolyline
 90
5
 70
129
 10
149.3356970185334376
 20
12.2588235294117638
 42
0.1990378483819908
 10
149.2160354552780177
 20
12.5892828364222389
 42
0.2135555669245513
 10
148.9034649476228651
 20
12.7147461724415791
 42
0.1906761079331873
 10
148.5640612409347341
 20
12.5972602739726014
 42
0.1782448469664825
 10
148.4011281224818788
 20
12.2588235294117638
  0
LWPOLYLINE
  5
E1
100
AcDbEntity
  8
0
 62
256
370
-1
 48
1.0
  6
BYLAYER
100
AcDbPolyline
 90
14
 70
129
 10
152.2917002417405286
 20
12.5257050765511622
 42
0.0550742085011741
 10
152.1038678485092532
 20
12.5912167606768719
 42
0.0555058594972373
 10
151.9160354552780063
 20
12.6122481869460117
 42
0.2312351226365759
 10
151.4888799355358628
 20
12.4343271555197425
 42
0.1776799302116992
 10
151.339242546333594
 20
11.9252215954875105
 10
151.339242546333594
 20
10.88815471394037
 10
150.6198227236099854
 20
10.88815471394037
 10
150.6198227236099854
 20
13.1387590652699444
 10
151.339242546333594
 20
13.1387590652699444
 10
151.339242546333594
 20
12.7688960515713141
 42
-0.1252871801875728
 10
151.6578565672844547
 20
13.0913779210314267
 42
-0.1304071855901431
 10
152.0886381950040231
 20
13.1929089443996759
 42
-0.0171476150823262
 10
152.1669621273166797
 20
13.1900080580177281
 42
-0.0129718099352979
 10
152.2897663174858849
 20
13.1769540692989509
  0
LWPOLYLINE
  5
E2
100
AcDbEntity
  8
0
 62
256
370
-1
 48
1.0
  6
BYLAYER
100
AcDbPolyline
 90
8
 70
129
 10
153.8465753424657692
 20
11.352296535052389
 42
0.2553550601534096
 10
154.199274778404515
 20
11.5210314262691362
 42
0.1553404256416162
 10
154.3208702659145786
 20
12.0112812248186955
 42
0.1551865646931564
 10
154.199274778404515
 20
12.5017727639000782
 42
0.2555798560059129
 10
153.8465753424657692
 20
12.6707493956486701
 42
0.2541797758809425
 10
153.4919419822723512
 20
12.5008058017727635
 42
0.1568605189444225
 10
153.368412570507644
 20
12.0112812248186955
 42
0.1569005089722917
 10
153.4919419822723512
 20
11.5222401289282814
 42
0.2541797758809326
  0
LWPOLYLINE
  5
E3
100
AcDbEntity
  8
0
 62
256
370
-1
 48
1.0
  6
BYLAYER
100
AcDbPolyline
 90
13
 70
129
 10
153.3684125705076156
 20
12.8090249798549678
 42
-0.1135843200853686
 10
153.6979049153908363
 20
13.0995970991136161
 42
-0.1207775821665346
 10
154.1139403706688142
 20
13.1929089443996759
 42
-0.2385946677863634
 10
154.7970991136180601
 20
12.8624496373892008
 42
-0.1754545092340036
 10
155.0644641418211052
 20
12.0112812248186955
 42
-0.175374786222675
 10
154.7970991136180601
 20
11.1603545527800172
 42
-0.2387033830842958
 10
154.1139403706688142
 20
10.8296535052377116
 42
-0.1210591816799215
 10
153.6979049153908363
 20
10.9232070910555983
 42
-0.1130190467334309
 10
153.368412570507644
 20
11.2135374697824339
 10
153.368412570507644
 20
10.88815471394037
 10
152.6489927477840638
 20
10.88815471394037
 10
152.6489927477840638
 20
14.0148267526188555
 10
153.368412570507644
 20
14.0148267526188555
  0
LWPOLYLINE
  5
E4
100
AcDbEntity
  8
0
 62
256
370
-1
 48
1.0
  6
BYLAYER
100
AcDbPolyline
 90
8
 70
129
 10
156.6657534246575381
 20
12.6784850926672057
 42
0.2528106725506235
 10
156.301208702659153
 20
12.506849315068493
 42
0.1577890542291877
 10
156.1755036261079681
 20
12.0112812248186955
 42
0.1576749368723634
 10
156.301208702659153
 20
11.515954875100725
 42
0.2530325641940087
 10
156.6657534246575381
 20
11.3440773569701854
 42
0.2543509340061448
 10
157.0254633360193566
 20
11.515954875100725
 42
0.1566279833247184
 10
157.150201450443177
 20
12.0112812248186955
 42
0.1567413386402828
 10
157.0254633360193566
 20
12.506849315068493
 42
0.2541302457084416
  0
LWPOLYLINE
  5
E5
100
AcDbEntity
  8
0
 62
256
370
-1
 48
1.0
  6
BYLAYER
100
AcDbPolyline
 90
8
 70
129
 10
156.6657534246575381
 20
13.1929089443996759
 42
-0.1985700988402828
 10
157.5730056406123936
 20
12.8793714746172441
 42
-0.2112549155218787
 10
157.8995970991136346
 20
12.0112812248186955
 42
-0.2112549155218935
 10
157.5730056406123936
 20
11.1431909750201434
 42
-0.198570098840278
 10
156.6657534246575381
 20
10.8296535052377116
 42
-0.1977221508060333
 10
155.7546333601933952
 20
11.1431909750201434
 42
-0.2121732306438296
 10
155.4261079774375389
 20
12.0112812248186955
 42
-0.2121732306438236
 10
155.7546333601933952
 20
12.8793714746172441
 42
-0.1977221508060329
  0
LWPOLYLINE
  5
E6
100
AcDbEntity
  8
0
 62
256
370
-1
 48
1.0
  6
BYLAYER
100
AcDbPolyline
 90
14
 70
129
 10
160.0936341659951836
 20
12.5257050765511657
 42
0.0550742085011913
 10
159.9058017727639083
 20
12.5912167606768719
 42
0.0555058594972641
 10
159.717969379532633
 20
12.6122481869460117
 42
0.2312351226365712
 10
159.2908138597904895
 20
12.4343271555197425
 42
0.1776799302117003
 10
159.1411764705882206
 20
11.9252215954875105
 10
159.1411764705882206
 20
10.88815471394037
 10
158.4217566478646404
 20
10.88815471394037
 10
158.4217566478646404
 20
13.1387590652699444
 10
159.1411764705882206
 20
13.1387590652699444
 10
159.1411764705882206
 20
12.7688960515713141
 42
-0.1252871801875617
 10
159.4597904915390814
 20
13.0913779210314267
 42
-0.1304071855901431
 10
159.8905721192586498
 20
13.1929089443996759
 42
-0.0171476150823213
 10
159.9688960515713347
 20
13.1900080580177281
 42
-0.0129718099352919
 10
160.0917002417405399
 20
13.1769540692989509
  0
LWPOLYLINE
  5
E7
100
AcDbEntity
  8
0
 62
256
370
-1
 48
1.0
  6
BYLAYER
100
AcDbPolyline
 90
15
 70
129
 10
162.6976631748590023
 20
12.0195004029008849
 10
162.6976631748590023
 20
11.8145044319097501
 10
161.0156325543916296
 20
11.8145044319097501
 42
0.2057646661348878
 10
161.1983883964544759
 20
11.4347300564061243
 42
0.1726032109462108
 10
161.6364222401289226
 20
11.3082997582594693
 42
0.0691113965401736
 10
162.1017727639001009
 20
11.3755036261079781
 42
0.0560479244608004
 10
162.5908138597905008
 20
11.5795326349717982
 10
162.5908138597905008
 20
11.0249798549556814
 42
-0.0428546638464256
 10
162.0804995970991058
 20
10.8789685737308623
 42
-0.0478948782524594
 10
161.5701853344077392
 20
10.8296535052377116
 42
-0.1914102154877723
 10
160.6206285253827559
 20
11.1402900886381957
 42
-0.2179154268483221
 10
160.2821917808219041
 20
12.0112812248186955
 42
-0.2132643270722015
 10
160.6145850120870193
 20
12.8774375503626111
 42
-0.197096005008337
 10
161.5300564061241175
 20
13.1929089443996759
 42
-0.2062977058834483
 10
162.3790491539081415
 20
12.873569701853345
 42
-0.2055188954015605
  0
LWPOLYLINE
  5
E8
100
AcDbEntity
  8
0
 62
256
370
-1
 48
1.0
  6
BYLAYER
100
AcDbPolyline
 90
5
 70
129
 10
161.9579371474617346
 20
12.2588235294117638
 42
0.1990378483820633
 10
161.8382755842062863
 20
12.5892828364222389
 42
0.213555566924561
 10
161.5257050765511622
 20
12.7147461724415791
 42
0.1906761079332125
 10
161.1863013698630311
 20
12.5972602739726014
 42
0.1782448469664181
 10
161.0233682514101474
 20
12.2588235294117638
  0
LWPOLYLINE
  5
E9
100
AcDbEntity
  8
0
 62
256
370
-1
 48
1.0
  6
BYLAYER
100
AcDbPolyline
 90
18
 70
129
 10
166.15551974214344
 20
14.0148267526188555
 10
166.15551974214344
 20
13.5424657534246577
 10
165.757614826752615
 20
13.5424657534246577
 42
0.179158636355384
 10
165.5446414182111141
 20
13.4873489121676045
 42
0.2079638973058349
 10
165.4844480257856674
 20
13.2954069298952433
 10
165.4844480257856674
 20
13.1387590652699444
 10
166.0994359387590578
 20
13.1387590652699444
 10
166.0994359387590578
 20
12.6243352135374707
 10
165.4844480257856674
 20
12.6243352135374707
 10
165.4844480257856674
 20
10.88815471394037
 10
164.7650282030620588
 20
10.88815471394037
 10
164.7650282030620588
 20
12.6243352135374707
 10
164.4072522159548839
 20
12.6243352135374707
 10
164.4072522159548839
 20
13.1387590652699444
 10
164.7650282030620588
 20
13.1387590652699444
 10
164.7650282030620588
 20
13.2954069298952433
 42
-0.2252439893086437
 10
164.9700241740531794
 20
13.8390813859790498
 42
-0.1769534742336225
 10
165.6048348106365893
 20
14.0148267526188555
  0
LWPOLYLINE
  5
EA
100
AcDbEntity
  8
0
 62
256
370
-1
 48
1.0
  6
BYLAYER
100
AcDbPolyline
 90
8
 70
129
 10
167.5358581788879917
 20
12.6784850926672412
 42
0.2528106725506715
 10
167.1713134568896066
 20
12.506849315068493
 42
0.1577890542292359
 10
167.0456083803384502
 20
12.0112812248186955
 42
0.1576749368724103
 10
167.1713134568896066
 20
11.515954875100725
 42
0.2530325641939781
 10
167.5358581788879917
 20
11.3440773569701854
 42
0.2543509340060959
 10
167.8955680902498102
 20
11.515954875100725
 42
0.156627983324666
 10
168.0203062046736591
 20
12.0112812248186955
 42
0.1567413386402307
 10
167.8955680902498102
 20
12.506849315068493
 42
0.2541302457084165
  0
LWPOLYLINE
  5
EB
100
AcDbEntity
  8
0
 62
256
370
-1
 48
1.0
  6
BYLAYER
100
AcDbPolyline
 90
8
 70
129
 10
167.5358581788879917
 20
13.1929089443996901
 42
-0.1985700988402855
 10
168.4431103948428756
 20
12.8793714746172441
 42
-0.2112549155218469
 10
168.7697018533440882
 20
12.0112812248186955
 42
-0.2112549155218643
 10
168.4431103948428756
 20
11.1431909750201434
 42
-0.1985700988402752
 10
167.5358581788879917
 20
10.8296535052377116
 42
-0.1977221508060213
 10
166.6247381144238489
 20
11.1431909750201434
 42
-0.2121732306438039
 10
166.296212731668021
 20
12.011281224818692
 42
-0.2121732306437928
 10
166.6247381144238489
 20
12.8793714746172441
 42
-0.197722150806003
  0
LWPOLYLINE
  5
EC
100
AcDbEntity
  8
0
 62
256
370
-1
 48
1.0
  6
BYLAYER
100
AcDbPolyline
 90
14
 70
129
 10
170.9637389202256372
 20
12.5257050765511657
 42
0.0550742085011913
 10
170.7759065269943619
 20
12.5912167606768719
 42
0.0555058594972808
 10
170.5880741337630866
 20
12.6122481869460117
 42
0.2312351226365454
 10
170.1609186140209431
 20
12.4343271555197425
 42
0.177679930211745
 10
170.0112812248187026
 20
11.9252215954875105
 10
170.0112812248187026
 20
10.88815471394037
 10
169.291861402095094
 20
10.88815471394037
 10
169.291861402095094
 20
13.1387590652699444
 10
170.0112812248187026
 20
13.1387590652699444
 10
170.0112812248187026
 20
12.7688960515713141
 42
-0.1252871801876218
 10
170.329895245769535
 20
13.0913779210314267
 42
-0.1304071855901343
 10
170.7606768734891318
 20
13.1929089443996759
 42
-0.0171476150823325
 10
170.83900080580176
 20
13.1900080580177281
 42
-0.0129718099353697
 10
170.9618049959709936
 20
13.1769540692989509
  0
LWPOLYLINE
  5
ED
100
AcDbEntity
  8
0
 62
256
370
-1
 48
1.0
  6
BYLAYER
100
AcDbPolyline
 90
19
 70
129
 10
175.0162771958098347
 20
12.2588235294117638
 10
175.0162771958098347
 20
10.88815471394037
 10
174.2929895245769671
 20
10.88815471394037
 10
174.2929895245769671
 20
11.1110394842868665
 10
174.2929895245769671
 20
11.9373086220789695
 42
0.0247848332853486
 10
174.2799355358581863
 20
12.3388396454472193
 42
0.1038630378755126
 10
174.2344883158743016
 20
12.5015310233682513
 42
0.1375379517397616
 10
174.1201450443190879
 20
12.6112812248186934
 42
0.1263805524733271
 10
173.9550362610797833
 20
12.6504431909750181
 42
0.2519449839986552
 10
173.6016116035455354
 20
12.4766317485898455
 42
0.1607868699696263
 10
173.4730056406124277
 20
11.9953263497179705
 10
173.4730056406124277
 20
10.88815471394037
 10
172.7535858178887906
 20
10.88815471394037
 10
172.7535858178887906
 20
13.1387590652699444
 10
173.4730056406124277
 20
13.1387590652699444
 10
173.4730056406124277
 20
12.8090249798549536
 42
-0.103091317358996
 10
173.8184528605962953
 20
13.0995970991136161
 42
-0.1199948138755258
 10
174.2224012892828569
 20
13.1929089443996759
 42
-0.2296591057469351
 10
174.8141821112006369
 20
12.9538275584206275
 42
-0.1777771703473328
  0
LWPOLYLINE
  5
EE
100
AcDbEntity
  8
0
 62
256
370
-1
 48
1.0
  6
BYLAYER
100
AcDbPolyline
 90
20
 70
129
 10
175.6588235294117624
 20
11.7642224012892811
 10
175.6588235294117624
 20
13.1387590652699444
 10
176.3821112006446583
 20
13.1387590652699444
 10
176.3821112006446583
 20
12.9139403706688149
 42
-0.0016953687267244
 10
176.3801772763900146
 20
12.4543916196619264
 42
0.0014012582690098
 10
176.378243352135371
 20
12.0857373086205726
 42
0.0258175615342265
 10
176.3922643029814594
 20
11.6948428686543089
 42
0.1055436883543778
 10
176.4406124093472954
 20
11.5210314262691362
 42
0.1326289315701167
 10
176.5559226430298168
 20
11.4127316680096698
 42
0.1250020919891859
 10
176.7200644641418137
 20
11.3745366639806598
 42
0.2510926372715407
 10
177.0734891216760616
 20
11.5473811442385177
 42
0.1614232261199338
 10
177.2020950846091978
 20
12.0277195809830779
 10
177.2020950846091978
 20
13.1387590652699444
 10
177.9215149073328064
 20
13.1387590652699444
 10
177.9215149073328064
 20
10.88815471394037
 10
177.2020950846091978
 20
10.88815471394037
 10
177.2020950846091978
 20
11.2135374697824339
 42
-0.1014001120056599
 10
176.8573730862207753
 20
10.9232070910555983
 42
-0.1209965211844281
 10
176.4565672844480275
 20
10.8296535052377116
 42
-0.228498257823144
 10
175.8628525382756038
 20
11.0689766317485905
 42
-0.1790545242478198
  0
LWPOLYLINE
  5
EF
100
AcDbEntity
  8
0
 62
256
370
-1
 48
1.0
  6
BYLAYER
100
AcDbPolyline
 90
18
 70
129
 10
179.398066075745362
 20
13.777921031426267
 10
179.398066075745362
 20
13.1387590652699444
 10
180.1397260273972449
 20
13.1387590652699444
 10
180.1397260273972449
 20
12.6243352135374707
 10
179.398066075745362
 20
12.6243352135374707
 10
179.398066075745362
 20
11.6699435938759066
 42
0.2064810433624095
 10
179.4604351329572864
 20
11.457937147461724
 42
0.1667858399498005
 10
179.7074939564867009
 20
11.4025785656728438
 10
180.0773569701853489
 20
11.4025785656728438
 10
180.0773569701853489
 20
10.88815471394037
 10
179.4604351329572864
 20
10.88815471394037
 42
-0.1954084677493299
 10
178.8565672844480332
 20
11.0660757453666392
 42
-0.1954084677493736
 10
178.6786462530217818
 20
11.6699435938759066
 10
178.6786462530217818
 20
12.6243352135374707
 10
178.3208702659145786
 20
12.6243352135374707
 10
178.3208702659145786
 20
13.1387590652699444
 10
178.6786462530217818
 20
13.1387590652699444
 10
178.6786462530217818
 20
13.777921031426267
  0
ENDSEC
  0
SECTION
  2
OBJECTS
  0
DICTIONARY
  5
C
100
AcDbDictionary
280
0
281
1
  3
ACAD_GROUP
350
D
  3
ACAD_LAYOUT
350
1A
  3
ACAD_MLINESTYLE
350
17
  3
ACAD_PLOTSETTINGS
350
19
  3
ACAD_PLOTSTYLENAME
350
E
  3
AcDbVariableDictionary
350
F0
  3
QCAD_OBJECTS
350
F1
  0
DICTIONARY
  5
D
100
AcDbDictionary
280
0
281
1
  0
ACDBDICTIONARYWDFLT
  5
E
100
AcDbDictionary
281
1
  3
Normal
350
F
100
AcDbDictionaryWithDefault
340
F
  0
ACDBPLACEHOLDER
  5
F
  0
DICTIONARY
  5
17
100
AcDbDictionary
280
0
281
1
  3
Standard
350
18
  0
MLINESTYLE
  5
18
100
AcDbMlineStyle
  2
STANDARD
 70
0
  3

 62
256
 51
90.0
 52
90.0
 71
2
 49
0.5
 62
256
  6
BYLAYER
 49
-0.5
 62
256
  6
BYLAYER
  0
DICTIONARY
  5
19
100
AcDbDictionary
280
0
281
1
  0
DICTIONARY
  5
1A
100
AcDbDictionary
281
1
  3
Layout1
350
1E
  3
Layout2
350
26
  3
Model
350
22
  0
LAYOUT
  5
1E
100
AcDbPlotSettings
  1

  2
none_device
  4

  6

 40
0.0
 41
0.0
 42
0.0
 43
0.0
 44
0.0
 45
0.0
 46
0.0
 47
0.0
 48
0.0
 49
0.0
140
0.0
141
0.0
142
1.0
143
1.0
 70
688
 72
0
 73
0
 74
5
  7

 75
16
147
1.0
148
0.0
149
0.0
100
AcDbLayout
  1
Layout1
 70
1
 71
1
 10
0.0
 20
0.0
 11
420.0
 21
297.0
 12
0.0
 22
0.0
 32
0.0
 14
100000000000000000000.0
 24
100000000000000000000.0
 34
100000000000000000000.0
 15
-100000000000000000000.0
 25
-100000000000000000000.0
 35
-100000000000000000000.0
146
0.0
 13
0.0
 23
0.0
 33
0.0
 16
1.0
 26
0.0
 36
0.0
 17
0.0
 27
1.0
 37
0.0
 76
0
330
1B
  0
LAYOUT
  5
22
100
AcDbPlotSettings
  1

  2
none_device
  4

  6

 40
0.0
 41
0.0
 42
0.0
 43
0.0
 44
0.0
 45
0.0
 46
0.0
 47
0.0
 48
0.0
 49
0.0
140
0.0
141
0.0
142
1.0
143
1.0
 70
1712
 72
0
 73
0
 74
0
  7

 75
0
147
1.0
148
0.0
149
0.0
100
AcDbLayout
  1
Model
 70
1
 71
0
 10
0.0
 20
0.0
 11
12.0
 21
9.0
 12
0.0
 22
0.0
 32
0.0
 14
0.0
 24
0.0
 34
0.0
 15
0.0
 25
0.0
 35
0.0
146
0.0
 13
0.0
 23
0.0
 33
0.0
 16
1.0
 26
0.0
 36
0.0
 17
0.0
 27
1.0
 37
0.0
 76
0
330
1F
  0
LAYOUT
  5
26
100
AcDbPlotSettings
  1

  2
none_device
  4

  6

 40
0.0
 41
0.0
 42
0.0
 43
0.0
 44
0.0
 45
0.0
 46
0.0
 47
0.0
 48
0.0
 49
0.0
140
0.0
141
0.0
142
1.0
143
1.0
 70
688
 72
0
 73
0
 74
5
  7

 75
16
147
1.0
148
0.0
149
0.0
100
AcDbLayout
  1
Layout2
 70
1
 71
2
 10
0.0
 20
0.0
 11
12.0
 21
9.0
 12
0.0
 22
0.0
 32
0.0
 14
0.0
 24
0.0
 34
0.0
 15
0.0
 25
0.0
 35
0.0
146
0.0
 13
0.0
 23
0.0
 33
0.0
 16
1.0
 26
0.0
 36
0.0
 17
0.0
 27
1.0
 37
0.0
 76
0
330
23
  0
DICTIONARY
  5
F0
100
AcDbDictionary
281
1
  3
DIMASSOC
350
F3
  3
HIDETEXT
350
F2
  0
DICTIONARYVAR
  5
F2
100
DictionaryVariables
280
0
  1
2
  0
DICTIONARYVAR
  5
F3
100
DictionaryVariables
280
0
  1
1
  0
DICTIONARY
  5
F1
100
AcDbDictionary
281
1
  3
ColorSettings/BackgroundColor
350
F4
  3
ColorSettings/ColorMode
350
F5
  3
Grid/DisplayGrid00
350
F6
  3
Grid/DisplayGrid01
350
F7
  3
Grid/DisplayGrid02
350
F8
  3
Grid/DisplayGrid03
350
F9
  3
Grid/GridSpacingX00
350
FA
  3
Grid/GridSpacingX01
350
FB
  3
Grid/GridSpacingX02
350
FC
  3
Grid/GridSpacingX03
350
FD
  3
Grid/GridSpacingY00
350
FE
  3
Grid/GridSpacingY01
350
FF
  3
Grid/GridSpacingY02
350
100
  3
Grid/GridSpacingY03
350
101
  3
Grid/IsometricGrid00
350
102
  3
Grid/IsometricGrid01
350
103
  3
Grid/IsometricGrid02
350
104
  3
Grid/IsometricGrid03
350
105
  3
Grid/IsometricProjection00
350
106
  3
Grid/IsometricProjection01
350
107
  3
Grid/IsometricProjection02
350
108
  3
Grid/IsometricProjection03
350
109
  3
Grid/MetaGridSpacingX00
350
10A
  3
Grid/MetaGridSpacingX01
350
10B
  3
Grid/MetaGridSpacingX02
350
10C
  3
Grid/MetaGridSpacingX03
350
10D
  3
Grid/MetaGridSpacingY00
350
10E
  3
Grid/MetaGridSpacingY01
350
10F
  3
Grid/MetaGridSpacingY02
350
110
  3
Grid/MetaGridSpacingY03
350
111
  3
MultiPageSettings/Columns
350
112
  3
MultiPageSettings/GlueMarginsBottom
350
113
  3
MultiPageSettings/GlueMarginsLeft
350
114
  3
MultiPageSettings/GlueMarginsRight
350
115
  3
MultiPageSettings/GlueMarginsTop
350
116
  3
MultiPageSettings/PrintCropMarks
350
117
  3
MultiPageSettings/Rows
350
118
  3
PageSettings/OffsetX
350
119
  3
PageSettings/OffsetY
350
11A
  3
PageSettings/PageOrientation
350
11B
  3
PageSettings/PaperHeight
350
11C
  3
PageSettings/PaperWidth
350
11D
  3
PageSettings/Scale
350
11E
  3
PageSettings/ShowPaperBorders
350
11F
  3
QCADVersion
350
120
  3
UnitSettings/PaperUnit
350
121
  3
ViewportCenter
350
122
  3
ViewportHeight
350
123
  3
ViewportWidth
350
124
  0
XRECORD
  5
F4
330
F1
100
AcDbXrecord
280
1
1000
White
  0
XRECORD
  5
F5
330
F1
100
AcDbXrecord
280
1
1000
FullColor
  0
XRECORD
  5
F6
330
F1
100
AcDbXrecord
280
1
290
1
  0
XRECORD
  5
F7
330
F1
100
AcDbXrecord
280
1
290
1
  0
XRECORD
  5
F8
330
F1
100
AcDbXrecord
280
1
290
1
  0
XRECORD
  5
F9
330
F1
100
AcDbXrecord
280
1
290
1
  0
XRECORD
  5
FA
330
F1
100
AcDbXrecord
280
1
1000
auto
  0
XRECORD
  5
FB
330
F1
100
AcDbXrecord
280
1
1000
auto
  0
XRECORD
  5
FC
330
F1
100
AcDbXrecord
280
1
1000
auto
  0
XRECORD
  5
FD
330
F1
100
AcDbXrecord
280
1
1000
auto
  0
XRECORD
  5
FE
330
F1
100
AcDbXrecord
280
1
1000
auto
  0
XRECORD
  5
FF
330
F1
100
AcDbXrecord
280
1
1000
auto
  0
XRECORD
  5
100
330
F1
100
AcDbXrecord
280
1
1000
auto
  0
XRECORD
  5
101
330
F1
100
AcDbXrecord
280
1
1000
auto
  0
XRECORD
  5
102
330
F1
100
AcDbXrecord
280
1
290
0
  0
XRECORD
  5
103
330
F1
100
AcDbXrecord
280
1
290
0
  0
XRECORD
  5
104
330
F1
100
AcDbXrecord
280
1
290
0
  0
XRECORD
  5
105
330
F1
100
AcDbXrecord
280
1
290
0
  0
XRECORD
  5
106
330
F1
100
AcDbXrecord
280
1
 90
65537
  0
XRECORD
  5
107
330
F1
100
AcDbXrecord
280
1
 90
65537
  0
XRECORD
  5
108
330
F1
100
AcDbXrecord
280
1
 90
65537
  0
XRECORD
  5
109
330
F1
100
AcDbXrecord
280
1
 90
65537
  0
XRECORD
  5
10A
330
F1
100
AcDbXrecord
280
1
1000
auto
  0
XRECORD
  5
10B
330
F1
100
AcDbXrecord
280
1
1000
auto
  0
XRECORD
  5
10C
330
F1
100
AcDbXrecord
280
1
1000
auto
  0
XRECORD
  5
10D
330
F1
100
AcDbXrecord
280
1
1000
auto
  0
XRECORD
  5
10E
330
F1
100
AcDbXrecord
280
1
1000
auto
  0
XRECORD
  5
10F
330
F1
100
AcDbXrecord
280
1
1000
auto
  0
XRECORD
  5
110
330
F1
100
AcDbXrecord
280
1
1000
auto
  0
XRECORD
  5
111
330
F1
100
AcDbXrecord
280
1
1000
auto
  0
XRECORD
  5
112
330
F1
100
AcDbXrecord
280
1
 90
1
  0
XRECORD
  5
113
330
F1
100
AcDbXrecord
280
1
 40
10.0
  0
XRECORD
  5
114
330
F1
100
AcDbXrecord
280
1
 40
10.0
  0
XRECORD
  5
115
330
F1
100
AcDbXrecord
280
1
 40
10.0
  0
XRECORD
  5
116
330
F1
100
AcDbXrecord
280
1
 40
10.0
  0
XRECORD
  5
117
330
F1
100
AcDbXrecord
280
1
290
0
  0
XRECORD
  5
118
330
F1
100
AcDbXrecord
280
1
 90
1
  0
XRECORD
  5
119
330
F1
100
AcDbXrecord
280
1
 40
0.0
  0
XRECORD
  5
11A
330
F1
100
AcDbXrecord
280
1
 40
0.0
  0
XRECORD
  5
11B
330
F1
100
AcDbXrecord
280
1
1000
Portrait
  0
XRECORD
  5
11C
330
F1
100
AcDbXrecord
280
1
 40
297.0
  0
XRECORD
  5
11D
330
F1
100
AcDbXrecord
280
1
 40
210.0
  0
XRECORD
  5
11E
330
F1
100
AcDbXrecord
280
1
1000
1:1
  0
XRECORD
  5
11F
330
F1
100
AcDbXrecord
280
1
290
1
  0
XRECORD
  5
120
330
F1
100
AcDbXrecord
280
1
1000
3.21.2
  0
XRECORD
  5
121
330
F1
100
AcDbXrecord
280
1
 90
4
  0
XRECORD
  5
123
330
F1
100
AcDbXrecord
280
1
 40
38.4946552397731665
  0
XRECORD
  5
124
330
F1
100
AcDbXrecord
280
1
 40
109.4867957285692199
  0
ENDSEC
  0
EOF
