999
dxflib 3.17.0.0
  0
SECTION
  2
HEADER
  9
$ACADVER
  1
AC1015
  9
$HANDSEED
  5
FFFF
  9
$DIMADEC
 70
0
  9
$DIMASZ
 40
2.5
  9
$DIMAUNIT
 70
0
  9
$DIMAZIN
 70
2
  9
$DIMDEC
 70
4
  9
$DIMDSEP
 70
46
  9
$DIMEXE
 40
1.25
  9
$DIMEXO
 40
0.625
  9
$DIMGAP
 40
0.625
  9
$DIMLUNIT
 70
2
  9
$DIMSCALE
 40
1.0
  9
$DIMTSZ
 40
0.0
  9
$DIMTXT
 40
2.5
  9
$DIMZIN
 70
8
  9
$DWGCODEPAGE
  3
ANSI_1252
  9
$INSUNITS
 70
4
  9
$LTSCALE
 40
1.0
  9
$MAXACTVP
 70
64
  9
$MEASUREMENT
 70
1
  9
$PDMODE
 70
0
  9
$PDSIZE
 40
0.0
  0
ENDSEC
  0
SECTION
  2
TABLES
  0
TABLE
  2
VPORT
  5
8
100
AcDbSymbolTable
 70
1
  0
VPORT
  5
30
100
AcDbSymbolTableRecord
100
AcDbViewportTableRecord
  2
*Active
 70
0
 10
0.0
 20
0.0
 11
1.0
 21
1.0
 12
286.30555555555549
 22
148.5
 13
0.0
 23
0.0
 14
10.0
 24
10.0
 15
10.0
 25
10.0
 16
0.0
 26
0.0
 36
1.0
 17
0.0
 27
0.0
 37
0.0
 40
297.0
 41
1.92798353909465
 42
50.0
 43
0.0
 44
0.0
 50
0.0
 51
0.0
 71
0
 72
100
 73
1
 74
3
 75
1
 76
1
 77
0
 78
0
281
0
 65
1
110
0.0
120
0.0
130
0.0
111
1.0
121
0.0
131
0.0
112
0.0
122
1.0
132
0.0
 79
0
146
0.0
  0
ENDTAB
  0
TABLE
  2
LTYPE
  5
5
100
AcDbSymbolTable
 70
41
  0
LTYPE
  5
16
100
AcDbSymbolTableRecord
100
AcDbLinetypeTableRecord
  2
Continuous
 70
0
  3
Solid line
 72
65
 73
0
 40
0.0
  0
LTYPE
  5
31
100
AcDbSymbolTableRecord
100
AcDbLinetypeTableRecord
  2
DASHDOT2
 70
0
  3
Dash dot (.5x) _._._._._._._._._._._._._._._.
 72
65
 73
4
 40
12.699999999999999
 49
6.3499999999999996
 74
0
 49
-3.125
 74
0
 49
0.1
 74
0
 49
-3.125
 74
0
  0
LTYPE
  5
32
100
AcDbSymbolTableRecord
100
AcDbLinetypeTableRecord
  2
HIDDEN
 70
0
  3
Hidden __ __ __ __ __ __ __ __ __ __ __ __ __ __
 72
65
 73
2
 40
9.5249999999999986
 49
6.3499999999999996
 74
0
 49
-3.1749999999999998
 74
0
  0
LTYPE
  5
33
100
AcDbSymbolTableRecord
100
AcDbLinetypeTableRecord
  2
DASHEDX2
 70
0
  3
Dashed (2x) ____  ____  ____  ____  ____  ___
 72
65
 73
2
 40
38.099999999999994
 49
25.399999999999999
 74
0
 49
-12.699999999999999
 74
0
  0
LTYPE
  5
34
100
AcDbSymbolTableRecord
100
AcDbLinetypeTableRecord
  2
ACAD_ISO09W100
 70
0
  3
ISO long-dash double-short-dash ____ __ __ ____
 72
65
 73
6
 40
45.0
 49
24.0
 74
0
 49
-3.0
 74
0
 49
6.0
 74
0
 49
-3.0
 74
0
 49
6.0
 74
0
 49
-3.0
 74
0
  0
LTYPE
  5
35
100
AcDbSymbolTableRecord
100
AcDbLinetypeTableRecord
  2
ACAD_ISO10W100
 70
0
  3
ISO dash dot __ . __ . __ . __ . __ . __ . __ . 
 72
65
 73
4
 40
18.0
 49
12.0
 74
0
 49
-2.9500000000000002
 74
0
 49
0.1
 74
0
 49
-2.9500000000000002
 74
0
  0
LTYPE
  5
36
100
AcDbSymbolTableRecord
100
AcDbLinetypeTableRecord
  2
PHANTOM2
 70
0
  3
Phantom (.5x) ___ _ _ ___ _ _ ___ _ _ ___ _ _
 72
65
 73
6
 40
31.750000000000004
 49
15.875
 74
0
 49
-3.1749999999999998
 74
0
 49
3.1749999999999998
 74
0
 49
-3.1749999999999998
 74
0
 49
3.1749999999999998
 74
0
 49
-3.1749999999999998
 74
0
  0
LTYPE
  5
37
100
AcDbSymbolTableRecord
100
AcDbLinetypeTableRecord
  2
ACAD_ISO08W100
 70
0
  3
ISO long-dash short-dash ____ __ ____ __ ____ _
 72
65
 73
4
 40
36.0
 49
24.0
 74
0
 49
-3.0
 74
0
 49
6.0
 74
0
 49
-3.0
 74
0
  0
LTYPE
  5
38
100
AcDbSymbolTableRecord
100
AcDbLinetypeTableRecord
  2
ACAD_ISO07W100
 70
0
  3
ISO dot . . . . . . . . . . . . . . . . . . . . 
 72
65
 73
2
 40
3.0
 49
0.1
 74
0
 49
-2.8999999999999999
 74
0
  0
LTYPE
  5
39
100
AcDbSymbolTableRecord
100
AcDbLinetypeTableRecord
  2
ACAD_ISO04W100
 70
0
  3
ISO long-dash dot ____ . ____ . ____ . ____ . _
 72
65
 73
4
 40
30.0
 49
24.0
 74
0
 49
-2.9500000000000002
 74
0
 49
0.1
 74
0
 49
-2.9500000000000002
 74
0
  0
LTYPE
  5
3A
100
AcDbSymbolTableRecord
100
AcDbLinetypeTableRecord
  2
ACAD_ISO05W100
 70
0
  3
ISO long-dash double-dot ____ .. ____ .. ____ . 
 72
65
 73
6
 40
33.000000000000007
 49
24.0
 74
0
 49
-2.9500000000000002
 74
0
 49
0.1
 74
0
 49
-2.9000000000000004
 74
0
 49
0.1
 74
0
 49
-2.9500000000000002
 74
0
  0
LTYPE
  5
14
100
AcDbSymbolTableRecord
100
AcDbLinetypeTableRecord
  2
BYBLOCK
 70
0
  3

 72
65
 73
0
 40
0.0
  0
LTYPE
  5
3B
100
AcDbSymbolTableRecord
100
AcDbLinetypeTableRecord
  2
ACAD_ISO03W100
 70
0
  3
ISO dash space __    __    __    __    __    __
 72
65
 73
2
 40
30.0
 49
12.0
 74
0
 49
-18.0
 74
0
  0
LTYPE
  5
3C
100
AcDbSymbolTableRecord
100
AcDbLinetypeTableRecord
  2
BORDER
 70
0
  3
Border __ __ . __ __ . __ __ . __ __ . __ __ .
 72
65
 73
6
 40
44.449999999999996
 49
12.699999999999999
 74
0
 49
-6.3499999999999996
 74
0
 49
12.699999999999999
 74
0
 49
-6.2999999999999998
 74
0
 49
0.1
 74
0
 49
-6.2999999999999998
 74
0
  0
LTYPE
  5
3D
100
AcDbSymbolTableRecord
100
AcDbLinetypeTableRecord
  2
CENTERX2
 70
0
  3
Center (2x) ________  __  ________  __  _____
 72
65
 73
4
 40
101.60000000000001
 49
63.5
 74
0
 49
-12.699999999999999
 74
0
 49
12.699999999999999
 74
0
 49
-12.699999999999999
 74
0
  0
LTYPE
  5
3E
100
AcDbSymbolTableRecord
100
AcDbLinetypeTableRecord
  2
PHANTOMX2
 70
0
  3
Phantom (2x) ____________    ____    ____   _
 72
65
 73
6
 40
127.00000000000001
 49
63.5
 74
0
 49
-12.699999999999999
 74
0
 49
12.699999999999999
 74
0
 49
-12.699999999999999
 74
0
 49
12.699999999999999
 74
0
 49
-12.699999999999999
 74
0
  0
LTYPE
  5
3F
100
AcDbSymbolTableRecord
100
AcDbLinetypeTableRecord
  2
BORDERX2
 70
0
  3
Border (2x) ____  ____  .  ____  ____  .  ___
 72
65
 73
6
 40
88.899999999999977
 49
25.399999999999999
 74
0
 49
-12.699999999999999
 74
0
 49
25.399999999999999
 74
0
 49
-12.649999999999999
 74
0
 49
0.1
 74
0
 49
-12.649999999999999
 74
0
  0
LTYPE
  5
40
100
AcDbSymbolTableRecord
100
AcDbLinetypeTableRecord
  2
DIVIDE
 70
0
  3
Divide ____ . . ____ . . ____ . . ____ . . ____
 72
65
 73
6
 40
31.750000000000004
 49
12.699999999999999
 74
0
 49
-6.2999999999999998
 74
0
 49
0.1
 74
0
 49
-6.25
 74
0
 49
0.1
 74
0
 49
-6.2999999999999998
 74
0
  0
LTYPE
  5
41
100
AcDbSymbolTableRecord
100
AcDbLinetypeTableRecord
  2
DOTX2
 70
0
  3
Dot (2x) .  .  .  .  .  .  .  .  .  .  .  .  .  .
 72
65
 73
2
 40
12.699999999999999
 49
0.1
 74
0
 49
-12.6
 74
0
  0
LTYPE
  5
42
100
AcDbSymbolTableRecord
100
AcDbLinetypeTableRecord
  2
ACAD_ISO15W100
 70
0
  3
ISO double-dash triple-dot __ __ . . . __ __ . .
 72
65
 73
10
 40
39.000000000000007
 49
12.0
 74
0
 49
-3.0
 74
0
 49
12.0
 74
0
 49
-2.9500000000000002
 74
0
 49
0.1
 74
0
 49
-2.9000000000000004
 74
0
 49
0.1
 74
0
 49
-2.9000000000000004
 74
0
 49
0.1
 74
0
 49
-2.9500000000000002
 74
0
  0
LTYPE
  5
43
100
AcDbSymbolTableRecord
100
AcDbLinetypeTableRecord
  2
CENTER2
 70
0
  3
Center (.5x) ___ _ ___ _ ___ _ ___ _ ___ _ ___
 72
65
 73
4
 40
28.575000000000003
 49
19.050000000000001
 74
0
 49
-3.1749999999999998
 74
0
 49
3.1749999999999998
 74
0
 49
-3.1749999999999998
 74
0
  0
LTYPE
  5
44
100
AcDbSymbolTableRecord
100
AcDbLinetypeTableRecord
  2
BORDER2
 70
0
  3
Border (.5x) __.__.__.__.__.__.__.__.__.__.__.
 72
65
 73
6
 40
22.225000000000001
 49
6.3499999999999996
 74
0
 49
-3.1749999999999998
 74
0
 49
6.3499999999999996
 74
0
 49
-3.125
 74
0
 49
0.1
 74
0
 49
-3.125
 74
0
  0
LTYPE
  5
45
100
AcDbSymbolTableRecord
100
AcDbLinetypeTableRecord
  2
HIDDEN2
 70
0
  3
Hidden (.5x) _ _ _ _ _ _ _ _ _ _ _ _ _ _ _ _ _ 
 72
65
 73
2
 40
4.7624999999999993
 49
3.1749999999999998
 74
0
 49
-1.5874999999999999
 74
0
  0
LTYPE
  5
46
100
AcDbSymbolTableRecord
100
AcDbLinetypeTableRecord
  2
ACAD_ISO02W100
 70
0
  3
ISO dash __ __ __ __ __ __ __ __ __ __ __ __ __
 72
65
 73
2
 40
15.0
 49
12.0
 74
0
 49
-3.0
 74
0
  0
LTYPE
  5
47
100
AcDbSymbolTableRecord
100
AcDbLinetypeTableRecord
  2
DOT2
 70
0
  3
Dot (.5x) ........................................
 72
65
 73
2
 40
3.1749999999999998
 49
0.1
 74
0
 49
-3.0749999999999997
 74
0
  0
LTYPE
  5
15
100
AcDbSymbolTableRecord
100
AcDbLinetypeTableRecord
  2
BYLAYER
 70
0
  3

 72
65
 73
0
 40
0.0
  0
LTYPE
  5
48
100
AcDbSymbolTableRecord
100
AcDbLinetypeTableRecord
  2
DOT
 70
0
  3
Dot . . . . . . . . . . . . . . . . . . . . . . . .
 72
65
 73
2
 40
6.3499999999999996
 49
0.1
 74
0
 49
-6.25
 74
0
  0
LTYPE
  5
49
100
AcDbSymbolTableRecord
100
AcDbLinetypeTableRecord
  2
CENTER
 70
0
  3
Center ____ _ ____ _ ____ _ ____ _ ____ _ ____
 72
65
 73
4
 40
50.800000000000004
 49
31.75
 74
0
 49
-6.3499999999999996
 74
0
 49
6.3499999999999996
 74
0
 49
-6.3499999999999996
 74
0
  0
LTYPE
  5
4A
100
AcDbSymbolTableRecord
100
AcDbLinetypeTableRecord
  2
ACAD_ISO12W100
 70
0
  3
ISO dash double-dot __ . . __ . . __ . . __ . . 
 72
65
 73
6
 40
21.0
 49
12.0
 74
0
 49
-2.9500000000000002
 74
0
 49
0.1
 74
0
 49
-2.9000000000000004
 74
0
 49
0.1
 74
0
 49
-2.9500000000000002
 74
0
  0
LTYPE
  5
4B
100
AcDbSymbolTableRecord
100
AcDbLinetypeTableRecord
  2
PHANTOM
 70
0
  3
Phantom ______  __  __  ______  __  __  ______ 
 72
65
 73
6
 40
63.500000000000007
 49
31.75
 74
0
 49
-6.3499999999999996
 74
0
 49
6.3499999999999996
 74
0
 49
-6.3499999999999996
 74
0
 49
6.3499999999999996
 74
0
 49
-6.3499999999999996
 74
0
  0
LTYPE
  5
4C
100
AcDbSymbolTableRecord
100
AcDbLinetypeTableRecord
  2
DASHDOTX2
 70
0
  3
Dash dot (2x) ____  .  ____  .  ____  .  ___
 72
65
 73
4
 40
50.799999999999997
 49
25.399999999999999
 74
0
 49
-12.649999999999999
 74
0
 49
0.1
 74
0
 49
-12.649999999999999
 74
0
  0
LTYPE
  5
4D
100
AcDbSymbolTableRecord
100
AcDbLinetypeTableRecord
  2
DASHDOT
 70
0
  3
Dash dot __ . __ . __ . __ . __ . __ . __ . __
 72
65
 73
4
 40
25.400000000000002
 49
12.699999999999999
 74
0
 49
-6.2999999999999998
 74
0
 49
0.1
 74
0
 49
-6.2999999999999998
 74
0
  0
LTYPE
  5
4E
100
AcDbSymbolTableRecord
100
AcDbLinetypeTableRecord
  2
ACAD_ISO13W100
 70
0
  3
ISO double-dash double-dot __ __ . . __ __ . . _
 72
65
 73
8
 40
36.000000000000007
 49
12.0
 74
0
 49
-3.0
 74
0
 49
12.0
 74
0
 49
-2.9500000000000002
 74
0
 49
0.1
 74
0
 49
-2.9000000000000004
 74
0
 49
0.1
 74
0
 49
-2.9500000000000002
 74
0
  0
LTYPE
  5
4F
100
AcDbSymbolTableRecord
100
AcDbLinetypeTableRecord
  2
ACAD_ISO11W100
 70
0
  3
ISO double-dash dot __ __ . __ __ . __ __ . __ _
 72
65
 73
6
 40
33.0
 49
12.0
 74
0
 49
-3.0
 74
0
 49
12.0
 74
0
 49
-2.9500000000000002
 74
0
 49
0.1
 74
0
 49
-2.9500000000000002
 74
0
  0
LTYPE
  5
50
100
AcDbSymbolTableRecord
100
AcDbLinetypeTableRecord
  2
DIVIDE2
 70
0
  3
Divide (.5x) __..__..__..__..__..__..__..__.._
 72
65
 73
6
 40
15.874999999999998
 49
6.3499999999999996
 74
0
 49
-3.125
 74
0
 49
0.1
 74
0
 49
-3.0750000000000002
 74
0
 49
0.1
 74
0
 49
-3.125
 74
0
  0
LTYPE
  5
51
100
AcDbSymbolTableRecord
100
AcDbLinetypeTableRecord
  2
HIDDENX2
 70
0
  3
Hidden (2x) ____ ____ ____ ____ ____ ____ ____ 
 72
65
 73
2
 40
19.049999999999997
 49
12.699999999999999
 74
0
 49
-6.3499999999999996
 74
0
  0
LTYPE
  5
52
100
AcDbSymbolTableRecord
100
AcDbLinetypeTableRecord
  2
DASHED2
 70
0
  3
Dashed (.5x) _ _ _ _ _ _ _ _ _ _ _ _ _ _ _ _ _ 
 72
65
 73
2
 40
9.5249999999999986
 49
6.3499999999999996
 74
0
 49
-3.1749999999999998
 74
0
  0
LTYPE
  5
53
100
AcDbSymbolTableRecord
100
AcDbLinetypeTableRecord
  2
ACAD_ISO14W100
 70
0
  3
ISO dash triple-dot __ . . . __ . . . __ . . . _
 72
65
 73
8
 40
24.000000000000004
 49
12.0
 74
0
 49
-2.9500000000000002
 74
0
 49
0.1
 74
0
 49
-2.9000000000000004
 74
0
 49
0.1
 74
0
 49
-2.9000000000000004
 74
0
 49
0.1
 74
0
 49
-2.9500000000000002
 74
0
  0
LTYPE
  5
54
100
AcDbSymbolTableRecord
100
AcDbLinetypeTableRecord
  2
DIVIDEX2
 70
0
  3
Divide (2x) ________  .  .  ________  .  .  _
 72
65
 73
6
 40
63.5
 49
25.399999999999999
 74
0
 49
-12.649999999999999
 74
0
 49
0.1
 74
0
 49
-12.599999999999998
 74
0
 49
0.1
 74
0
 49
-12.649999999999999
 74
0
  0
LTYPE
  5
55
100
AcDbSymbolTableRecord
100
AcDbLinetypeTableRecord
  2
DASHED
 70
0
  3
Dashed __ __ __ __ __ __ __ __ __ __ __ __ __ _
 72
65
 73
2
 40
19.049999999999997
 49
12.699999999999999
 74
0
 49
-6.3499999999999996
 74
0
  0
LTYPE
  5
56
100
AcDbSymbolTableRecord
100
AcDbLinetypeTableRecord
  2
ACAD_ISO06W100
 70
0
  3
ISO long-dash triple-dot ____ ... ____ ... ____
 72
65
 73
8
 40
36.000000000000007
 49
24.0
 74
0
 49
-2.9500000000000002
 74
0
 49
0.1
 74
0
 49
-2.9000000000000004
 74
0
 49
0.1
 74
0
 49
-2.9000000000000004
 74
0
 49
0.1
 74
0
 49
-2.9500000000000002
 74
0
  0
ENDTAB
  0
TABLE
  2
LAYER
  5
2
100
AcDbSymbolTable
 70
1
  0
LAYER
  5
10
100
AcDbSymbolTableRecord
100
AcDbLayerTableRecord
  2
0
 70
0
 62
7
420
16777215
  6
Continuous
370
25
390
F
  0
ENDTAB
  0
TABLE
  2
STYLE
  5
3
100
AcDbSymbolTable
 70
1
  0
STYLE
  5
57
100
AcDbSymbolTableRecord
100
AcDbTextStyleTableRecord
  2
Standard
 70
0
 40
0.0
 41
1.0
 50
0.0
 71
0
 42
2.5
  3

  4

1001
ACAD
1000
txt
1071
0
  0
ENDTAB
  0
TABLE
  2
VIEW
  5
6
100
AcDbSymbolTable
 70
0
  0
ENDTAB
  0
TABLE
  2
UCS
  5
7
100
AcDbSymbolTable
 70
0
  0
ENDTAB
  0
TABLE
  2
APPID
  5
9
100
AcDbSymbolTable
 70
1
  0
APPID
  5
12
100
AcDbSymbolTableRecord
100
AcDbRegAppTableRecord
  2
ACAD
 70
0
  0
APPID
  5
58
100
AcDbSymbolTableRecord
100
AcDbRegAppTableRecord
  2
QCAD
 70
0
  0
ENDTAB
  0
TABLE
  2
DIMSTYLE
  5
A
100
AcDbSymbolTable
 70
1
100
AcDbDimStyleTable
 71
0
  0
DIMSTYLE
105
27
100
AcDbSymbolTableRecord
100
AcDbDimStyleTableRecord
  2
Standard
 41
2.5
 42
0.625
 43
3.75
 44
1.25
 70
0
 73
0
 74
0
 77
1
 78
8
140
2.5
141
2.5
143
0.03937007874016
147
0.625
171
3
172
1
271
2
272
2
274
3
278
44
283
0
284
8
340
57
  0
ENDTAB
  0
TABLE
  2
BLOCK_RECORD
  5
1
100
AcDbSymbolTable
 70
1
  0
BLOCK_RECORD
  5
1F
100
AcDbSymbolTableRecord
100
AcDbBlockTableRecord
  2
*Model_Space
340
22
  0
BLOCK_RECORD
  5
1B
100
AcDbSymbolTableRecord
100
AcDbBlockTableRecord
  2
*Paper_Space
340
1E
  0
BLOCK_RECORD
  5
23
100
AcDbSymbolTableRecord
100
AcDbBlockTableRecord
  2
*Paper_Space0
340
26
  0
ENDTAB
  0
ENDSEC
  0
SECTION
  2
BLOCKS
  0
BLOCK
  5
20
100
AcDbEntity
  8
0
100
AcDbBlockBegin
  2
*Model_Space
 70
0
 10
0.0
 20
0.0
 30
0.0
  3
*Model_Space
  1

  0
ENDBLK
  5
21
100
AcDbEntity
  8
0
100
AcDbBlockEnd
  0
BLOCK
  5
1C
100
AcDbEntity
 67
1
  8
0
100
AcDbBlockBegin
  2
*Paper_Space
 70
0
 10
0.0
 20
0.0
 30
0.0
  3
*Paper_Space
  1

  0
ENDBLK
  5
1D
100
AcDbEntity
 67
1
  8
0
100
AcDbBlockEnd
  0
BLOCK
  5
24
100
AcDbEntity
  8
0
100
AcDbBlockBegin
  2
*Paper_Space0
 70
0
 10
0.0
 20
0.0
 30
0.0
  3
*Paper_Space0
  1

  0
ENDBLK
  5
25
100
AcDbEntity
  8
0
100
AcDbBlockEnd
  0
ENDSEC
  0
SECTION
  2
ENTITIES
  0
LINE
  5
59
100
AcDbEntity
  8
0
 62
256
370
-1
 48
1.0
  6
BYLAYER
100
AcDbLine
 10
0.0
 20
0.0
 30
0.0
 11
0.0
 21
128.5
 31
0.0
  0
LINE
  5
5A
100
AcDbEntity
  8
0
 62
256
370
-1
 48
1.0
  6
BYLAYER
100
AcDbLine
 10
0.0
 20
0.0
 30
0.0
 11
20.0
 21
0.0
 31
0.0
  0
LINE
  5
5B
100
AcDbEntity
  8
0
 62
256
370
-1
 48
1.0
  6
BYLAYER
100
AcDbLine
 10
20.0
 20
0.0
 30
0.0
 11
20.0
 21
128.5
 31
0.0
  0
LINE
  5
5C
100
AcDbEntity
  8
0
 62
256
370
-1
 48
1.0
  6
BYLAYER
100
AcDbLine
 10
0.0
 20
128.5
 30
0.0
 11
20.0
 21
128.5
 31
0.0
  0
CIRCLE
  5
5D
100
AcDbEntity
  8
0
 62
256
370
-1
 48
1.0
  6
BYLAYER
100
AcDbCircle
 10
7.4999999999999991
 20
2.9999999999999996
 30
0.0
 40
1.3000000000000003
  0
CIRCLE
  5
5E
100
AcDbEntity
  8
0
 62
256
370
-1
 48
1.0
  6
BYLAYER
100
AcDbCircle
 10
12.499999999999998
 20
125.49999999999999
 30
0.0
 40
1.3000000000000003
  0
CIRCLE
  5
5F
100
AcDbEntity
  8
0
 62
256
370
-1
 48
1.0
  6
BYLAYER
100
AcDbCircle
 10
9.5
 20
114.99999999999999
 30
0.0
 40
5.0
  0
CIRCLE
  5
60
100
AcDbEntity
  8
0
 62
256
370
-1
 48
1.0
  6
BYLAYER
100
AcDbCircle
 10
9.4999999999999982
 20
93.499999999999986
 30
0.0
 40
5.0
  0
CIRCLE
  5
61
100
AcDbEntity
  8
0
 62
256
370
-1
 48
1.0
  6
BYLAYER
100
AcDbCircle
 10
9.4999999999999964
 20
72.247999999999976
 30
0.0
 40
5.0
  0
CIRCLE
  5
62
100
AcDbEntity
  8
0
 62
256
370
-1
 48
1.0
  6
BYLAYER
100
AcDbCircle
 10
9.4999999999999947
 20
50.747999999999976
 30
0.0
 40
5.0
  0
CIRCLE
  5
63
100
AcDbEntity
  8
0
 62
256
370
-1
 48
1.0
  6
BYLAYER
100
AcDbCircle
 10
9.4999999999999929
 20
29.247999999999976
 30
0.0
 40
5.0
  0
CIRCLE
  5
64
100
AcDbEntity
  8
0
 62
256
370
-1
 48
1.0
  6
BYLAYER
100
AcDbCircle
 10
5.5
 20
106.74999999999999
 30
0.0
 40
2.5
  0
CIRCLE
  5
65
100
AcDbEntity
  8
0
 62
256
370
-1
 48
1.0
  6
BYLAYER
100
AcDbCircle
 10
5.4999999999999982
 20
85.249999999999986
 30
0.0
 40
2.5
  0
CIRCLE
  5
66
100
AcDbEntity
  8
0
 62
256
370
-1
 48
1.0
  6
BYLAYER
100
AcDbCircle
 10
5.4999999999999964
 20
63.997999999999976
 30
0.0
 40
2.5
  0
CIRCLE
  5
67
100
AcDbEntity
  8
0
 62
256
370
-1
 48
1.0
  6
BYLAYER
100
AcDbCircle
 10
5.4999999999999947
 20
42.497999999999976
 30
0.0
 40
2.5
  0
CIRCLE
  5
68
100
AcDbEntity
  8
0
 62
256
370
-1
 48
1.0
  6
BYLAYER
100
AcDbCircle
 10
14.0
 20
14.0
 30
0.0
 40
3.4999999999999982
  0
CIRCLE
  5
69
100
AcDbEntity
  8
0
 62
256
370
-1
 48
1.0
  6
BYLAYER
100
AcDbCircle
 10
12.499999999999998
 20
125.49999999999999
 30
0.0
 40
1.6000000000000085
  0
CIRCLE
  5
6A
100
AcDbEntity
  8
0
 62
256
370
-1
 48
1.0
  6
BYLAYER
100
AcDbCircle
 10
7.4999999999999991
 20
2.9999999999999996
 30
0.0
 40
1.6000000000000085
  0
LWPOLYLINE
  5
6B
100
AcDbEntity
  8
0
 62
256
370
-1
 48
1.0
  6
BYLAYER
100
AcDbPolyline
 90
30
 70
129
 10
-14.159494917375291
 20
142.24285303983012
 10
-13.570136117920992
 20
142.30015181199931
 42
0.1742698639721951
 10
-13.354242529926452
 20
141.86427186656957
 42
0.1822119347677206
 10
-12.915293007416217
 20
141.72511770558731
 42
0.1749322093143458
 10
-12.474297100185659
 20
141.8489239811671
 42
0.2327914426503368
 10
-12.325934207961922
 20
142.13848741909345
 42
0.1811098694255915
 10
-12.388348941931909
 20
142.31959246684241
 42
0.1292873456280753
 10
-12.606288914646779
 20
142.44953789658319
 42
0.0168515435653556
 10
-13.091282093364377
 20
142.58050651868416
 42
-0.1147099677202233
 10
-13.774774589953738
 20
142.87723230313165
 42
-0.2232150866739564
 10
-14.051036527197937
 20
143.48091579562822
 42
-0.1484219162819237
 10
-13.921091097457147
 20
143.90963339453683
 42
-0.1516027065393765
 10
-13.546602693637229
 20
144.21352152550546
 42
-0.1008779219693722
 10
-12.956220701822765
 20
144.31788714624213
 42
-0.1805269069094528
 10
-12.105947850526725
 20
144.07027459508254
 42
-0.2174301491091585
 10
-11.806152488998755
 20
143.40929233041675
 10
-12.411882366215671
 20
143.38268932905251
 42
0.1871423791968932
 10
-12.578662720922356
 20
143.71522684610571
 42
0.1670009239442889
 10
-12.962359855983749
 20
143.81652288976193
 42
0.1582324430724008
 10
-13.375729569489888
 20
143.70806449958457
 42
0.255393411473441
 10
-13.471909651345278
 20
143.52184349003477
 42
0.2323241784267772
 10
-13.381868723650872
 20
143.33971524992563
 42
0.0936974867588299
 10
-12.825252079721812
 20
143.13916954733355
 42
-0.0588045002858507
 10
-12.171432161577201
 20
142.92327595933901
 42
-0.1361073350706522
 10
-11.839917836884158
 20
142.61836463601023
 42
-0.1408318990042263
 10
-11.720204330745005
 20
142.14053380381375
 42
-0.1455664233979763
 10
-11.863451261167924
 20
141.6575870098165
 42
-0.1567867069059329
 10
-12.268635435792753
 20
141.32300310804297
 42
-0.09833023360736
 10
-12.921432161577201
 20
141.21352152550546
 42
-0.1813076090757023
 10
-13.79523843715701
 20
141.47648196206751
 42
-0.1923164667376641
  0
LWPOLYLINE
  5
6C
100
AcDbEntity
  8
0
 62
256
370
-1
 48
1.0
  6
BYLAYER
100
AcDbPolyline
 90
30
 70
129
 10
-11.248581891290296
 20
143.43998810122167
 10
-10.718568248725497
 20
143.43998810122167
 10
-10.718568248725497
 20
143.14326231677421
 42
-0.235277428612176
 10
-10.041214906297117
 20
143.48910133450954
 42
-0.1297180932575184
 10
-9.6790048107991637
 20
143.40315317625578
 42
-0.1396127710664674
 10
-9.4272994901988909
 20
143.14326231677421
 42
-0.1015752160210833
 10
-9.1182953974294492
 20
143.40315317625578
 42
-0.1219202445143887
 10
-8.7642708408128058
 20
143.48910133450954
 42
-0.134500100241547
 10
-8.3590866661879772
 20
143.39189806029398
 42
-0.1628622979486118
 10
-8.1114741150283578
 20
143.1064273918083
 42
-0.0924606854379847
 10
-8.0521289581388658
 20
142.65622275333627
 10
-8.0521289581388658
 20
141.26672752823396
 10
-8.6271630645508708
 20
141.26672752823396
 10
-8.6271630645508708
 20
142.50888305347272
 42
0.1155892055045251
 10
-8.6865082214403628
 20
142.92634553641949
 42
0.2704032074157135
 10
-8.9320743878796556
 20
143.04912861963913
 42
0.1560368153909316
 10
-9.1592230918359974
 20
142.97545876970736
 42
0.1665428661649798
 10
-9.3127019458605567
 20
142.75956518171282
 42
0.0730791917483651
 10
-9.359768794428085
 20
142.31038373560094
 10
-9.359768794428085
 20
141.26672752823396
 10
-9.93480290084009
 20
141.26672752823396
 10
-9.93480290084009
 20
142.45772343546452
 42
0.0623513009056601
 10
-9.9654986716450011
 20
142.86700037953
 42
0.1640436051320804
 10
-10.06065556114023
 20
143.00410815579193
 42
0.1537011612322166
 10
-10.235621454728225
 20
143.04912861963913
 42
0.1525559180264694
 10
-10.47504846700653
 20
142.97750515442769
 42
0.1680348615221561
 10
-10.627504128670925
 20
142.77082029767462
 42
0.0737117464130287
 10
-10.673547784878291
 20
142.32266204392292
 10
-10.673547784878291
 20
141.26672752823396
 10
-11.248581891290296
 20
141.26672752823396
  0
LWPOLYLINE
  5
6D
100
AcDbEntity
  8
0
 62
256
370
-1
 48
1.0
  6
BYLAYER
100
AcDbPolyline
 90
25
 70
129
 10
-7.0575398250058967
 20
142.77695945183558
 10
-7.5793679286893862
 20
142.87109314897066
 42
-0.1764233188762236
 10
-7.2765029900809282
 20
143.3376688652053
 42
-0.151409579975755
 10
-6.6380309573387741
 20
143.48910133450954
 42
-0.1066098011782165
 10
-6.0650432356470958
 20
143.39803721445497
 42
-0.1576832483993909
 10
-5.8000364143646959
 20
143.16679574105797
 42
-0.1110589339840804
 10
-5.7232969873524162
 20
142.65212998389563
 10
-5.7294361415133999
 20
141.98091579562822
 42
0.0455263498574629
 10
-5.7018099477889788
 20
141.55833735088061
 42
0.062954815950137
 10
-5.5984675194124449
 20
141.26672752823396
 10
-6.1673624716634663
 20
141.26672752823396
 42
-0.0211225456056167
 10
-6.2226148591123049
 20
141.43657746002114
 42
0.0170698393989998
 10
-6.243078706315579
 20
141.50410815579193
 42
-0.0927727221191484
 10
-6.5582219532460053
 20
141.28923776015756
 42
-0.1022100173172585
 10
-6.9163392793033021
 20
141.21761429494609
 42
-0.1961347624720624
 10
-7.4453297295079395
 20
141.39974253505525
 42
-0.2158389386634396
 10
-7.6387130855788854
 20
141.86017909712891
 42
-0.1402444068760463
 10
-7.5507185426048054
 20
142.18862384474147
 42
-0.1471011708480446
 10
-7.304129183805351
 20
142.40963339453683
 42
-0.0620634030351646
 10
-6.8467621988121721
 20
142.54367159371827
 42
0.0460780818374603
 10
-6.2880991701627842
 20
142.68487213942086
 10
-6.2880991701627842
 20
142.74217091159002
 42
0.2202108619331227
 10
-6.3699545589758806
 20
142.97852834678784
 42
0.1660009986570416
 10
-6.6789586517453223
 20
143.04912861963913
 42
0.153548130458897
 10
-6.9183856640236314
 20
142.98876027038949
 42
0.1546318814124183
  0
LWPOLYLINE
  5
6E
100
AcDbEntity
  8
0
 62
256
370
-1
 48
1.0
  6
BYLAYER
100
AcDbPolyline
 90
9
 70
129
 10
-6.2880991701627842
 20
142.31038373560094
 42
-0.0251125371531674
 10
-6.6380309573387759
 20
142.22238919262685
 42
0.0784565440284193
 10
-6.9511278195488693
 20
142.12211634133081
 42
0.257618462456185
 10
-7.0636789791668768
 20
141.9195242540184
 42
0.2104033417637571
 10
-6.9736380514724701
 20
141.710793012545
 42
0.2033201795233627
 10
-6.7444429627958016
 20
141.62279846957094
 42
0.1616872553874098
 10
-6.4477171783483236
 20
141.72511770558731
 42
0.1673624820507596
 10
-6.310609402086385
 20
141.91543148457774
 42
0.0621623233862291
 10
-6.2880991701627842
 20
142.19578619126261
  0
LWPOLYLINE
  5
6F
100
AcDbEntity
  8
0
 62
256
370
-1
 48
1.0
  6
BYLAYER
100
AcDbPolyline
 90
4
 70
129
 10
-5.1554483069884771
 20
141.26672752823396
 10
-5.1554483069884771
 20
144.26672752823396
 10
-4.5804142005764739
 20
144.26672752823396
 10
-4.5804142005764739
 20
141.26672752823396
  0
LWPOLYLINE
  5
70
100
AcDbEntity
  8
0
 62
256
370
-1
 48
1.0
  6
BYLAYER
100
AcDbPolyline
 90
4
 70
129
 10
-3.9895321523453902
 20
141.26672752823396
 10
-3.9895321523453902
 20
144.26672752823396
 10
-3.4144980459333851
 20
144.26672752823396
 10
-3.4144980459333851
 20
141.26672752823396
  0
LWPOLYLINE
  5
71
100
AcDbEntity
  8
0
 62
256
370
-1
 48
1.0
  6
BYLAYER
100
AcDbPolyline
 90
14
 70
129
 10
-1.565089394700939
 20
141.95840556370462
 10
-0.9921016730092589
 20
141.86222548184924
 42
-0.161958581388968
 10
-1.3410102678250855
 20
141.38234826493246
 42
-0.1545460799286757
 10
-1.9375314138005295
 20
141.21761429494609
 42
-0.2506197482441906
 10
-2.7765491491347714
 20
141.58800992932535
 42
-0.160580435198081
 10
-2.9914195447691512
 20
142.3369867369652
 42
-0.1927516888920774
 10
-2.7090184533639672
 20
143.18316681882058
 42
-0.2188537467415002
 10
-1.9948301859696969
 20
143.48910133450954
 42
-0.2259863963910344
 10
-1.2294823005672413
 20
143.1688421257783
 42
-0.1856404654604807
 10
-0.9614059022043477
 20
142.18760065238129
 10
-2.4020607453148539
 20
142.18760065238129
 42
0.1875592298419474
 10
-2.2629065843325904
 20
141.78957882427761
 42
0.2169548293509852
 10
-1.9313922596395481
 20
141.64735508621484
 42
0.1747326725965006
 10
-1.7042435556832027
 20
141.72102493614665
 42
0.15482424297012
  0
LWPOLYLINE
  5
72
100
AcDbEntity
  8
0
 62
256
370
-1
 48
1.0
  6
BYLAYER
100
AcDbPolyline
 90
5
 70
129
 10
-1.5323472391757191
 20
142.53957882427761
 42
0.1873846994946027
 10
-1.6612694765563276
 20
142.91918318989835
 42
0.2154434067535189
 10
-1.9600416457241288
 20
143.04912861963913
 42
0.223399815324231
 10
-2.2710921232138972
 20
142.91202084337721
 42
0.1912376905497553
 10
-2.3918288217132169
 20
142.53957882427761
  0
LWPOLYLINE
  5
73
100
AcDbEntity
  8
0
 62
256
370
-1
 48
1.0
  6
BYLAYER
100
AcDbPolyline
 90
13
 70
129
 10
0.05869380135195
 20
141.26672752823396
 10
-0.516340305060055
 20
141.26672752823396
 10
-0.516340305060055
 20
143.43998810122167
 10
0.0177661069454018
 20
143.43998810122167
 10
0.0177661069454018
 20
143.13098400845223
 42
-0.103252621878729
 10
0.264355465744856
 20
143.4195242540184
 42
-0.145293608913326
 10
0.5129912092646372
 20
143.48910133450954
 42
-0.1374436283284362
 10
0.8915723825252115
 20
143.38064294433218
 10
0.7135369118567247
 20
142.87927868785198
 42
0.1446986624674601
 10
0.4434141287735045
 20
142.97341238498703
 42
0.1736219943319229
 10
0.2387756567407635
 20
142.90690488157639
 42
0.1544311530859156
 10
0.1067838422796434
 20
142.66645467693792
 42
0.0535877492108412
 10
0.05869380135195
 20
141.93794171650134
  0
LWPOLYLINE
  5
74
100
AcDbEntity
  8
0
 62
256
370
-1
 48
1.0
  6
BYLAYER
100
AcDbPolyline
 90
30
 70
129
 10
2.2697432530849646
 20
143.43998810122167
 10
2.799756895649768
 20
143.43998810122167
 10
2.799756895649768
 20
143.14326231677421
 42
-0.2352774286121817
 10
3.4771102380781436
 20
143.48910133450954
 42
-0.1297180932575086
 10
3.8393203335760973
 20
143.40315317625578
 42
-0.139612771066453
 10
4.0910256541763736
 20
143.14326231677421
 42
-0.1015752160210961
 10
4.4000297469458118
 20
143.40315317625578
 42
-0.121920244514384
 10
4.7540543035624552
 20
143.48910133450954
 42
-0.1345001002415422
 10
5.1592384781872838
 20
143.39189806029398
 42
-0.1628622979486084
 10
5.4068510293469032
 20
143.1064273918083
 42
-0.0924606854379905
 10
5.4661961862363988
 20
142.65622275333627
 10
5.4661961862363988
 20
141.26672752823396
 10
4.8911620798243938
 20
141.26672752823396
 10
4.8911620798243938
 20
142.50888305347272
 42
0.1155892055045251
 10
4.8318169229348946
 20
142.92634553641949
 42
0.2704032074157391
 10
4.5862507564956054
 20
143.04912861963913
 42
0.156036815390931
 10
4.3591020525392636
 20
142.97545876970736
 42
0.1665428661650108
 10
4.2056231985147043
 20
142.75956518171282
 42
0.0730791917483744
 10
4.158556349947176
 20
142.31038373560094
 10
4.158556349947176
 20
141.26672752823396
 10
3.583522243535171
 20
141.26672752823396
 10
3.583522243535171
 20
142.45772343546452
 42
0.0623513009056592
 10
3.5528264727302599
 20
142.86700037953
 42
0.1640436051320085
 10
3.4576695832350346
 20
143.00410815579193
 42
0.1537011612322169
 10
3.2827036896470396
 20
143.04912861963913
 42
0.1525559180264614
 10
3.0432766773687305
 20
142.97750515442769
 42
0.1680348615221728
 10
2.8908210157043399
 20
142.77082029767462
 42
0.0737117464130368
 10
2.8447773594969732
 20
142.32266204392292
 10
2.8447773594969732
 20
141.26672752823396
 10
2.2697432530849646
 20
141.26672752823396
  0
LWPOLYLINE
  5
75
100
AcDbEntity
  8
0
 62
256
370
-1
 48
1.0
  6
BYLAYER
100
AcDbPolyline
 90
10
 70
129
 10
5.8980295212793301
 20
142.38405358553274
 42
-0.1235530753264399
 10
6.0392300669819186
 20
142.93862384474147
 42
-0.1509984122013903
 10
6.4392982798059286
 20
143.34790078880695
 42
-0.127339229918683
 10
7.0174019632984255
 20
143.48910133450954
 42
-0.2090855185083636
 10
7.8257239278277559
 20
143.1688421257783
 42
-0.2044432215222028
 10
8.1408671747581813
 20
142.35949696888881
 42
-0.2040261810827944
 10
7.8226543507472677
 20
141.54196627311799
 42
-0.2097458665472458
 10
7.0214947327390824
 20
141.21761429494609
 42
-0.1176310026618147
 10
6.451576588127895
 20
141.35267568648771
 42
-0.1581167900377879
 10
6.0392300669819186
 20
141.74865112987106
 42
-0.1252767960355503
  0
LWPOLYLINE
  5
76
100
AcDbEntity
  8
0
 62
256
370
-1
 48
1.0
  6
BYLAYER
100
AcDbPolyline
 90
8
 70
129
 10
6.4873883207336149
 20
142.35335781472781
 42
0.186259474266206
 10
6.6408671747581813
 20
141.85813271240858
 42
0.2238423430887823
 10
7.0194483480187522
 20
141.68623639590109
 42
0.2248461522325764
 10
7.3970063289191614
 20
141.85813271240858
 42
0.1849238093447479
 10
7.5494619905835556
 20
142.35745058416848
 42
0.1855851125505623
 10
7.3970063289191614
 20
142.84858291704705
 42
0.2248461522326146
 10
7.0194483480187522
 20
143.02047923355457
 42
0.2238423430888329
 10
6.6408671747581813
 20
142.84858291704705
 42
0.1862594742662191
  0
LWPOLYLINE
  5
77
100
AcDbEntity
  8
0
 62
256
370
-1
 48
1.0
  6
BYLAYER
100
AcDbPolyline
 90
19
 70
129
 10
10.013878488855152
 20
141.26672752823396
 10
10.013878488855152
 20
141.59210269876601
 42
-0.1259556170213654
 10
9.701804819005222
 20
141.31788714624213
 42
-0.121917401639632
 10
9.2935510672999051
 20
141.21761429494609
 42
-0.128792036973953
 10
8.9006452009970367
 20
141.3137943768015
 42
-0.1671038193848633
 10
8.6489398803967639
 20
141.58391715988472
 42
-0.1020889602928784
 10
8.5711772610243209
 20
142.06481756916165
 10
8.5711772610243209
 20
143.43998810122167
 10
9.1462113674363259
 20
143.43998810122167
 10
9.1462113674363259
 20
142.4413523577019
 42
0.0509227707216297
 10
9.1779303306014022
 20
141.87961975197203
 42
0.1682080884581781
 10
9.2935510672999051
 20
141.71590897434584
 42
0.159605783940853
 10
9.5063750782139564
 20
141.65554062509617
 42
0.1562691711445581
 10
9.770358707136193
 20
141.73637282154911
 42
0.1598178526061129
 10
9.9299767153217289
 20
141.93691852414119
 42
0.0633887207416085
 10
9.9729507944486038
 20
142.523207746515
 10
9.9729507944486038
 20
143.43998810122167
 10
10.547984900860616
 20
143.43998810122167
 10
10.547984900860616
 20
141.26672752823396
  0
LWPOLYLINE
  5
78
100
AcDbEntity
  8
0
 62
256
370
-1
 48
1.0
  6
BYLAYER
100
AcDbPolyline
 90
19
 70
129
 10
13.112674250428256
 20
141.26672752823396
 10
12.537640144016247
 20
141.26672752823396
 10
12.537640144016247
 20
142.37586804665142
 42
0.0669175869413325
 10
12.500805219050356
 20
142.83118864692426
 42
0.1608929415362995
 10
12.381091712911203
 20
142.99182984746997
 42
0.1553418751934634
 10
12.181569202679281
 20
143.04912861963913
 42
0.1556564042004272
 10
11.913492804316387
 20
142.96727323082604
 42
0.1690594357830406
 10
11.750805219050356
 20
142.75035645047134
 42
0.0671360903059328
 10
11.706807947563316
 20
142.25103857871144
 10
11.706807947563316
 20
141.26672752823396
 10
11.131773841151311
 20
141.26672752823396
 10
11.131773841151311
 20
143.43998810122167
 10
11.665880253156768
 20
143.43998810122167
 10
11.665880253156768
 20
143.12075208485061
 42
-0.2453154310907059
 10
12.382114905271369
 20
143.48910133450954
 42
-0.1038457803010397
 10
12.730000307727028
 20
143.42054744637858
 42
-0.1289378461665298
 10
12.968404127645169
 20
143.24558155279058
 42
-0.1062700363775065
 10
13.080955287263176
 20
143.00410815579193
 42
-0.0541739054045497
 10
13.112674250428256
 20
142.61734144365005
  0
LWPOLYLINE
  5
79
100
AcDbEntity
  8
0
 62
256
370
-1
 48
1.0
  6
BYLAYER
100
AcDbPolyline
 90
21
 70
129
 10
14.684867010637099
 20
143.43998810122167
 10
14.684867010637099
 20
142.98159792386835
 10
14.291961144334234
 20
142.98159792386835
 10
14.291961144334234
 20
142.1057452635682
 42
0.0356477566266293
 10
14.303216260296036
 20
141.7957179784386
 42
0.1816276587617781
 10
14.354375878304221
 20
141.72307132086698
 42
0.160133350339593
 10
14.451579152519773
 20
141.69442193478238
 42
0.0804174096891125
 10
14.682820625916772
 20
141.74967432223121
 10
14.731933859204634
 20
141.30356245319985
 42
-0.1021774704330127
 10
14.27763645129194
 20
141.21761429494609
 42
-0.0999273148092868
 10
13.99728174460709
 20
141.26979710531444
 42
-0.1418457765400062
 10
13.814130312137781
 20
141.40485849685606
 42
-0.1131446565550913
 10
13.73329811568485
 20
141.6289376237319
 42
-0.0364267570303059
 10
13.714880653201902
 20
142.03412179835675
 10
13.714880653201902
 20
142.98159792386835
 10
13.450897024279662
 20
142.98159792386835
 10
13.450897024279662
 20
143.43998810122167
 10
13.714880653201902
 20
143.43998810122167
 10
13.714880653201902
 20
143.87177527721076
 10
14.291961144334234
 20
144.20738237134447
 10
14.291961144334234
 20
143.43998810122167
  0
LWPOLYLINE
  5
7A
100
AcDbEntity
  8
0
 62
256
370
-1
 48
1.0
  6
BYLAYER
100
AcDbPolyline
 90
4
 70
129
 10
15.074772538440236
 20
143.73466750094883
 10
15.074772538440236
 20
144.26672752823396
 10
15.649806644852237
 20
144.26672752823396
 10
15.649806644852237
 20
143.73466750094883
  0
LWPOLYLINE
  5
7B
100
AcDbEntity
  8
0
 62
256
370
-1
 48
1.0
  6
BYLAYER
100
AcDbPolyline
 90
4
 70
129
 10
15.074772538440236
 20
141.26672752823396
 10
15.074772538440236
 20
143.43998810122167
 10
15.649806644852237
 20
143.43998810122167
 10
15.649806644852237
 20
141.26672752823396
  0
LWPOLYLINE
  5
7C
100
AcDbEntity
  8
0
 62
256
370
-1
 48
1.0
  6
BYLAYER
100
AcDbPolyline
 90
19
 70
129
 10
18.217496332919612
 20
141.26672752823396
 10
17.642462226507607
 20
141.26672752823396
 10
17.642462226507607
 20
142.37586804665142
 42
0.0669175869413441
 10
17.605627301541713
 20
142.83118864692426
 42
0.1608929415363469
 10
17.48591379540256
 20
142.99182984746997
 42
0.155341875193464
 10
17.286391285170637
 20
143.04912861963913
 42
0.1556564042004346
 10
17.018314886807747
 20
142.96727323082604
 42
0.1690594357829794
 10
16.855627301541713
 20
142.75035645047134
 42
0.067136090305937
 10
16.811630030054676
 20
142.25103857871144
 10
16.811630030054676
 20
141.26672752823396
 10
16.236595923642668
 20
141.26672752823396
 10
16.236595923642668
 20
143.43998810122167
 10
16.770702335648128
 20
143.43998810122167
 10
16.770702335648128
 20
143.12075208485061
 42
-0.2453154310907027
 10
17.486936987762721
 20
143.48910133450954
 42
-0.1038457803010384
 10
17.834822390218388
 20
143.42054744637858
 42
-0.1289378461664944
 10
18.073226210136529
 20
143.24558155279058
 42
-0.1062700363774981
 10
18.185777369754536
 20
143.00410815579193
 42
-0.0541739054045514
 10
18.217496332919612
 20
142.61734144365005
  0
LWPOLYLINE
  5
7D
100
AcDbEntity
  8
0
 62
256
370
-1
 48
1.0
  6
BYLAYER
100
AcDbPolyline
 90
23
 70
129
 10
18.739893731600493
 20
141.12348059781104
 10
19.396783226825594
 20
141.04367159371827
 42
0.2028735617155919
 10
19.472499461477707
 20
140.88609997025307
 42
0.1570565330901259
 10
19.730343936238963
 20
140.82470842864325
 42
0.130762891298356
 10
20.067997415092986
 20
140.89223912441403
 42
0.171114116922001
 10
20.182594959431324
 20
141.03753243955728
 42
0.0764185420511434
 10
20.209197960795574
 20
141.30151606847951
 10
20.209197960795574
 20
141.61870570013028
 42
-0.2529118102960241
 10
19.558447619731457
 20
141.26672752823396
 42
-0.2622986338777653
 10
18.86472319954046
 20
141.63712316261322
 42
-0.1535759222052056
 10
18.664177496948373
 20
142.3656361230498
 42
-0.1891690883154343
 10
18.927137933510448
 20
143.20056108894337
 42
-0.2208160651295238
 10
19.580957851655061
 20
143.48910133450954
 42
-0.2516013889544093
 10
20.246032885761469
 20
143.13507677789289
 10
20.246032885761469
 20
143.43998810122167
 10
20.784232067207586
 20
143.43998810122167
 10
20.784232067207586
 20
141.48978346274964
 42
-0.0748506363367663
 10
20.720794140877434
 20
140.91474935633764
 42
-0.123911666747724
 10
20.542758670208944
 20
140.61597718716985
 42
-0.1124680504751003
 10
20.236824154519997
 20
140.44612725538266
 42
-0.0761699053024
 10
19.752854168162568
 20
140.38473571377284
 42
-0.1653177059520193
 10
18.969088820277161
 20
140.57402630040312
 42
-0.2368254624348089
 10
18.737847346880162
 20
141.0539035173199
 42
-0.0121959639454302
  0
LWPOLYLINE
  5
7E
100
AcDbEntity
  8
0
 62
256
370
-1
 48
1.0
  6
BYLAYER
100
AcDbPolyline
 90
8
 70
129
 10
19.253536296402672
 20
142.39837827857502
 42
0.1720707089507205
 10
19.387574495584115
 20
141.89189806029398
 42
0.2337957751995212
 10
19.718065627916996
 20
141.73125685974827
 42
0.2256137442505718
 10
20.074136569253969
 20
141.89599082973464
 42
0.1832493650987161
 10
20.219429884397218
 20
142.38405358553274
 42
0.1762373789180314
 10
20.080275723414953
 20
142.88541784201294
 42
0.2312157061890738
 10
19.728297551518633
 20
143.04912861963913
 42
0.2339890961572703
 10
19.387574495584115
 20
142.88848741909345
 42
0.1737079645967002
  0
LWPOLYLINE
  5
7F
100
AcDbEntity
  8
0
 62
256
370
-1
 48
1.0
  6
BYLAYER
100
AcDbPolyline
 90
19
 70
129
 10
23.084414651909444
 20
144.26672752823396
 10
23.084414651909444
 20
143.16372616397749
 42
-0.2297683159001825
 10
23.74948968601586
 20
143.48910133450954
 42
-0.1095043667615198
 10
24.107607012073156
 20
143.41543148457774
 42
-0.1327577679670449
 10
24.348057216711634
 20
143.22716409030764
 42
-0.1024506007344402
 10
24.458561991609312
 20
142.97341238498703
 42
-0.0478078184136502
 10
24.488234570054065
 20
142.54162520899794
 10
24.488234570054065
 20
141.26672752823396
 10
23.913200463642053
 20
141.26672752823396
 10
23.913200463642053
 20
142.41474935633764
 42
0.0642513426534637
 10
23.880458308116811
 20
142.84858291704705
 42
0.1684049185418778
 10
23.764837571418315
 20
142.99489942455045
 42
0.1474606683999668
 10
23.557129522305086
 20
143.04912861963913
 42
0.1418909020378269
 10
23.301331432264153
 20
142.97955153914802
 42
0.1709473953315241
 10
23.136597462277795
 20
142.76979710531444
 42
0.0839388745353761
 10
23.084414651909444
 20
142.35540419944815
 10
23.084414651909444
 20
141.26672752823396
 10
22.509380545497439
 20
141.26672752823396
 10
22.509380545497439
 20
144.26672752823396
  0
LWPOLYLINE
  5
80
100
AcDbEntity
  8
0
 62
256
370
-1
 48
1.0
  6
BYLAYER
100
AcDbPolyline
 90
10
 70
129
 10
24.930822964642168
 20
142.38405358553271
 42
-0.1235530753264302
 10
25.072023510344753
 20
142.93862384474147
 42
-0.1509984122013972
 10
25.47209172316877
 20
143.34790078880695
 42
-0.1273392299186853
 10
26.050195406661263
 20
143.48910133450954
 42
-0.20908551850837
 10
26.858517371190597
 20
143.1688421257783
 42
-0.204443221522185
 10
27.173660618121023
 20
142.35949696888881
 42
-0.2040261810827937
 10
26.855447794110102
 20
141.54196627311799
 42
-0.2097458665472461
 10
26.054288176101917
 20
141.21761429494609
 42
-0.117631002661812
 10
25.48437003149073
 20
141.35267568648771
 42
-0.1581167900377822
 10
25.072023510344753
 20
141.74865112987106
 42
-0.1252767960355516
  0
LWPOLYLINE
  5
81
100
AcDbEntity
  8
0
 62
256
370
-1
 48
1.0
  6
BYLAYER
100
AcDbPolyline
 90
8
 70
129
 10
25.520181764096456
 20
142.35335781472781
 42
0.1862594742662077
 10
25.673660618121023
 20
141.85813271240858
 42
0.2238423430887808
 10
26.052241791381594
 20
141.68623639590109
 42
0.224846152232567
 10
26.429799772282006
 20
141.85813271240858
 42
0.1849238093447403
 10
26.58225543394639
 20
142.35745058416848
 42
0.1855851125505559
 10
26.429799772282006
 20
142.84858291704705
 42
0.2248461522326429
 10
26.052241791381594
 20
143.02047923355457
 42
0.2238423430888324
 10
25.673660618121023
 20
142.84858291704705
 42
0.1862594742662177
  0
LWPOLYLINE
  5
82
100
AcDbEntity
  8
0
 62
256
370
-1
 48
1.0
  6
BYLAYER
100
AcDbPolyline
 90
4
 70
129
 10
27.61624901270913
 20
141.26672752823396
 10
27.61624901270913
 20
144.26672752823396
 10
28.191283119121135
 20
144.26672752823396
 10
28.191283119121135
 20
141.26672752823396
  0
LWPOLYLINE
  5
83
100
AcDbEntity
  8
0
 62
256
370
-1
 48
1.0
  6
BYLAYER
100
AcDbPolyline
 90
14
 70
129
 10
30.040691770353579
 20
141.95840556370462
 10
30.613679492045254
 20
141.86222548184924
 42
-0.1619585813889678
 10
30.264770897229436
 20
141.38234826493246
 42
-0.1545460799286723
 10
29.668249751253992
 20
141.21761429494609
 42
-0.2506197482441986
 10
28.829232015919747
 20
141.58800992932535
 42
-0.1605804351980646
 10
28.614361620285369
 20
142.3369867369652
 42
-0.1927516888920695
 10
28.896762711690545
 20
143.18316681882058
 42
-0.2188537467414895
 10
29.610950979084823
 20
143.48910133450954
 42
-0.2259863963910327
 10
30.376298864487271
 20
143.1688421257783
 42
-0.1856404654605
 10
30.644375262850165
 20
142.18760065238129
 10
29.203720419739664
 20
142.18760065238129
 42
0.1875592298419699
 10
29.342874580721929
 20
141.78957882427761
 42
0.2169548293509982
 10
29.674388905414968
 20
141.64735508621484
 42
0.1747326725965276
 10
29.901537609371314
 20
141.72102493614665
 42
0.1548242429701069
  0
LWPOLYLINE
  5
84
100
AcDbEntity
  8
0
 62
256
370
-1
 48
1.0
  6
BYLAYER
100
AcDbPolyline
 90
5
 70
129
 10
30.073433925878824
 20
142.53957882427761
 42
0.1873846994945744
 10
29.944511688498192
 20
142.91918318989835
 42
0.2154434067535195
 10
29.645739519330387
 20
143.04912861963913
 42
0.2233998153242151
 10
29.334689041840623
 20
142.91202084337721
 42
0.1912376905497258
 10
29.213952343341301
 20
142.53957882427761
  0
LWPOLYLINE
  5
85
100
AcDbEntity
  8
0
 62
256
370
-1
 48
1.0
  6
BYLAYER
100
AcDbPolyline
 90
26
 70
129
 10
30.911405389325981
 20
141.88678209849317
 10
31.48848588045831
 20
141.97477664146726
 42
0.1802897130256346
 10
31.637871965042212
 20
141.72000174378647
 42
0.1663912994955104
 10
31.95301521197263
 20
141.63303039317256
 42
0.1554653797789024
 10
32.288622306106333
 20
141.71488578198566
 42
0.2486454460039053
 10
32.364338540758439
 20
141.86836463601023
 42
0.1995951405943736
 10
32.323410846351891
 20
141.97682302618756
 42
0.1142675158993629
 10
32.131050682641117
 20
142.05253926083969
 42
-0.0750039404673162
 10
31.249058868180001
 20
142.33289396752454
 42
-0.2640932623139385
 10
30.991214393418748
 20
142.82197991568279
 42
-0.2289676122616498
 10
31.214270327934432
 20
143.29674117079875
 42
-0.177757720191955
 10
31.905948363405106
 20
143.48910133450954
 42
-0.1435244907170714
 10
32.568977012791194
 20
143.34380801936629
 42
-0.1820429793206861
 10
32.867749181958999
 20
142.91406722809754
 10
32.325457231072221
 20
142.8137943768015
 42
0.1809644690422182
 10
32.193465416611105
 20
143.00820092523259
 42
0.1512025160575552
 10
31.916180287006743
 20
143.0757316210034
 42
0.135077307825182
 10
31.59080511647468
 20
143.01229369467325
 42
0.2623801400273191
 10
31.525320805424204
 20
142.89564976561459
 42
0.2486934353261442
 10
31.582619577593373
 20
142.79128414487789
 42
0.0652820663456764
 10
32.119795566679315
 20
142.62961975197203
 42
-0.1092628380847109
 10
32.761337176501968
 20
142.37382166193109
 42
-0.2297389100242054
 10
32.941419031890774
 20
141.94612725538266
 42
-0.2288852516768948
 10
32.691760096010839
 20
141.43248469058048
 42
-0.1796655323248974
 10
31.95301521197263
 20
141.21761429494609
 42
-0.1531631714921367
 10
31.250082060540169
 20
141.39769615033492
 42
-0.1854152645468135
  0
LWPOLYLINE
  5
86
100
AcDbEntity
  8
0
 62
256
370
-1
 48
1.0
  6
BYLAYER
100
AcDbPolyline
 90
19
 70
129
 10
-14.546954015324804
 20
138.68211285375787
 10
-14.227717998953725
 20
138.68211285375787
 10
-14.227717998953725
 20
138.84582363138406
 42
-0.0959078809463432
 10
-14.169396034424395
 20
139.25510057544955
 42
-0.1716885180150657
 10
-13.954525638790017
 20
139.47508693288475
 42
-0.1247255299483333
 10
-13.55855019540666
 20
139.56001189877833
 42
-0.0764318557865518
 10
-13.077649786129715
 20
139.48634204884655
 10
-13.155412405502158
 20
139.08525064366236
 42
0.0587502648538778
 10
-13.419396034424395
 20
139.11799279918759
 42
0.2086865325189712
 10
-13.598454697453043
 20
139.05967083465828
 42
0.1758652178904401
 10
-13.65268389254172
 20
138.83559170778241
 10
-13.65268389254172
 20
138.68211285375787
 10
-13.222943101272964
 20
138.68211285375787
 10
-13.222943101272964
 20
138.22986183056551
 10
-13.65268389254172
 20
138.22986183056551
 10
-13.65268389254172
 20
136.50885228077013
 10
-14.227717998953725
 20
136.50885228077013
 10
-14.227717998953725
 20
138.22986183056551
 10
-14.546954015324804
 20
138.22986183056551
  0
LWPOLYLINE
  5
87
100
AcDbEntity
  8
0
 62
256
370
-1
 48
1.0
  6
BYLAYER
100
AcDbPolyline
 90
10
 70
129
 10
-13.041768814943222
 20
137.62617833806894
 42
-0.1235530753264493
 10
-12.90056826924063
 20
138.18074859727764
 42
-0.1509984122013826
 10
-12.50050005641662
 20
138.59002554134312
 42
-0.1273392299185948
 10
-11.922396372924123
 20
138.73122608704571
 42
-0.2090855185083042
 10
-11.114074408394792
 20
138.41096687831447
 42
-0.2044432215222558
 10
-10.798931161464367
 20
137.60162172142498
 42
-0.2040261810827759
 10
-11.117143985475284
 20
136.78409102565419
 42
-0.2097458665472461
 10
-11.918303603483469
 20
136.45973904748229
 42
-0.1176310026617667
 10
-12.488221748094656
 20
136.59480043902389
 42
-0.1581167900377833
 10
-12.90056826924063
 20
136.99077588240723
 42
-0.1252767960355084
  0
LWPOLYLINE
  5
88
100
AcDbEntity
  8
0
 62
256
370
-1
 48
1.0
  6
BYLAYER
100
AcDbPolyline
 90
8
 70
129
 10
-12.452410015488928
 20
137.59548256726401
 42
0.1862594742662199
 10
-12.29893116146437
 20
137.10025746494478
 42
0.2238423430889481
 10
-11.920349988203796
 20
136.92836114843726
 42
0.2248461522327698
 10
-11.542792007303387
 20
137.10025746494478
 42
0.1849238093448138
 10
-11.390336345638993
 20
137.59957533670465
 42
0.185585112550574
 10
-11.542792007303387
 20
138.09070766958322
 42
0.2248461522326273
 10
-11.920349988203796
 20
138.26260398609074
 42
0.2238423430888329
 10
-12.29893116146437
 20
138.09070766958322
 42
0.1862594742661695
  0
LWPOLYLINE
  5
89
100
AcDbEntity
  8
0
 62
256
370
-1
 48
1.0
  6
BYLAYER
100
AcDbPolyline
 90
13
 70
129
 10
-9.805865277108186
 20
136.50885228077013
 10
-10.380899383520191
 20
136.50885228077013
 10
-10.380899383520191
 20
138.68211285375787
 10
-9.8467929715147342
 20
138.68211285375787
 10
-9.8467929715147342
 20
138.37310876098843
 42
-0.1032526218787245
 10
-9.6002036127152799
 20
138.6616490065546
 42
-0.1452936089130093
 10
-9.3515678691954989
 20
138.73122608704571
 42
-0.1374436283283774
 10
-8.9729866959349245
 20
138.62276769686838
 10
-9.1510221666034113
 20
138.12140344038815
 42
0.1446986624674824
 10
-9.421144949686628
 20
138.2155371375232
 42
0.1736219943321864
 10
-9.6257834217193725
 20
138.14902963411257
 42
0.1544311530858889
 10
-9.7577752361804926
 20
137.90857942947409
 42
0.053587749210829
 10
-9.805865277108186
 20
137.18006646903754
  0
LWPOLYLINE
  5
8A
100
AcDbEntity
  8
0
 62
256
370
-1
 48
1.0
  6
BYLAYER
100
AcDbPolyline
 90
18
 70
129
 10
-5.6568894952251014
 20
138.03954805157505
 10
-6.2237380627557997
 20
137.93722881555868
 42
0.1800241240423825
 10
-6.3536834924965859
 20
138.1930269055996
 42
0.1820889974822739
 10
-6.6166439290586609
 20
138.27897506385335
 42
0.2286876629121153
 10
-6.9594133697135057
 20
138.13061217162962
 42
0.1736001157841254
 10
-7.0873124147339688
 20
137.63436387695023
 42
0.163953516742715
 10
-6.957366984993179
 20
137.08797915662279
 42
0.2374916202501224
 10
-6.6084583901773541
 20
136.92836114843726
 42
0.1896451092624663
 10
-6.3403819918144606
 20
137.02147165321216
 42
0.1614870208009143
 10
-6.1930422919508885
 20
137.3417308619434
 10
-5.628240109140517
 20
137.24555078008802
 42
-0.174105277445932
 10
-5.9658935879945414
 20
136.65823836535404
 42
-0.1718942095237209
 10
-6.6350613915416092
 20
136.45973904748229
 42
-0.2149439961590149
 10
-7.3952933151432454
 20
136.76055760137041
 42
-0.1958184163489098
 10
-7.6787175989085945
 20
137.59343618254368
 42
-0.1965705241260595
 10
-7.3942701227830838
 20
138.43143072551774
 42
-0.2136769016566275
 10
-6.6248294679399713
 20
138.73122608704571
 42
-0.1597392867003625
 10
-5.9935197817189625
 20
138.56035296289838
 42
-0.1684092384496182
  0
LWPOLYLINE
  5
8B
100
AcDbEntity
  8
0
 62
256
370
-1
 48
1.0
  6
BYLAYER
100
AcDbPolyline
 90
25
 70
129
 10
-4.7902686456933594
 20
138.01908420437178
 10
-5.3120967493768525
 20
138.11321790150683
 42
-0.1764233188762502
 10
-5.0092318107683944
 20
138.5797936177415
 42
-0.1514095799757933
 10
-4.3707597780262386
 20
138.73122608704571
 42
-0.1066098011783127
 10
-3.7977720563345585
 20
138.64016196699114
 42
-0.1576832483995125
 10
-3.5327652350521586
 20
138.40892049359414
 42
-0.1110589339840716
 10
-3.4560258080398789
 20
137.8942547364318
 10
-3.4621649622008626
 20
137.22304054816442
 42
0.0455263498574574
 10
-3.4345387684764441
 20
136.80046210341681
 42
0.0629548159501072
 10
-3.3311963400999076
 20
136.50885228077013
 10
-3.9000912923509308
 20
136.50885228077013
 42
-0.0211225456055176
 10
-3.9553436797997712
 20
136.67870221255731
 42
0.0170698393989042
 10
-3.9758075270030453
 20
136.74623290832812
 42
-0.0927727221190835
 10
-4.2909507739334689
 20
136.53136251269373
 42
-0.1022100173173393
 10
-4.6490680999907674
 20
136.45973904748229
 42
-0.1961347624720106
 10
-5.1780585501954057
 20
136.64186728759142
 42
-0.215838938663405
 10
-5.3714419062663481
 20
137.10230384966511
 42
-0.1402444068760823
 10
-5.2834473632922681
 20
137.43074859727764
 42
-0.147101170848166
 10
-5.0368580044928137
 20
137.651758147073
 42
-0.0620634030352875
 10
-4.5794910194996348
 20
137.78579634625444
 42
0.0460780818373633
 10
-4.0208279908502496
 20
137.92699689195703
 10
-4.0208279908502487
 20
137.98429566412622
 42
0.2202108619330936
 10
-4.1026833796633451
 20
138.22065309932404
 42
0.1660009986568734
 10
-4.4116874724327868
 20
138.29125337217533
 42
0.1535481304590214
 10
-4.6511144847110941
 20
138.23088502292566
 42
0.1546318814122122
  0
LWPOLYLINE
  5
8C
100
AcDbEntity
  8
0
 62
256
370
-1
 48
1.0
  6
BYLAYER
100
AcDbPolyline
 90
9
 70
129
 10
-4.0208279908502478
 20
137.55250848813714
 42
-0.0251125371531698
 10
-4.3707597780262386
 20
137.46451394516305
 42
0.0784565440284152
 10
-4.6838566402363337
 20
137.36424109386701
 42
0.2576184624562034
 10
-4.7964077998543413
 20
137.1616490065546
 42
0.2104033417638379
 10
-4.7063668721599345
 20
136.9529177650812
 42
0.2033201795237431
 10
-4.4771717834832643
 20
136.86492322210711
 42
0.1616872553872416
 10
-4.1804459990357863
 20
136.96724245812348
 42
0.1673624820506841
 10
-4.0433382227738495
 20
137.15755623711394
 42
0.062162323386259
 10
-4.0208279908502487
 20
137.43791094379878
  0
LWPOLYLINE
  5
8D
100
AcDbEntity
  8
0
 62
256
370
-1
 48
1.0
  6
BYLAYER
100
AcDbPolyline
 90
13
 70
129
 10
-2.9045482054385605
 20
138.68211285375787
 10
-2.3683954087127752
 20
138.68211285375787
 10
-2.3683954087127752
 20
138.36287683738678
 42
-0.1227175361457858
 10
-2.085994317307593
 20
138.62890685102934
 42
-0.1333649245479383
 10
-1.6910420662843997
 20
138.73122608704571
 42
-0.2242941000401659
 10
-1.0484772641015887
 20
138.43450030259825
 42
-0.1869725400720726
 10
-0.7844936351793539
 20
137.60776087558597
 42
-0.1853594764234333
 10
-1.050523648821917
 20
136.76158079373059
 42
-0.2256234885490094
 10
-1.6951348357250531
 20
136.45973904748229
 42
-0.1155855007234923
 10
-2.0215331986172775
 20
136.53136251269373
 42
-0.0902340527775648
 10
-2.3295140990265573
 20
136.77692867913302
 10
-2.3295140990265573
 20
135.68211285375787
 10
-2.9045482054385605
 20
135.68211285375787
  0
LWPOLYLINE
  5
8E
100
AcDbEntity
  8
0
 62
256
370
-1
 48
1.0
  6
BYLAYER
100
AcDbPolyline
 90
8
 70
129
 10
-2.3356532531875231
 20
137.6323174922299
 42
0.172335587482841
 10
-2.190359938044292
 20
137.0910487337033
 42
0.2343402436800648
 10
-1.8363353814276471
 20
136.91608284011531
 42
0.2350672154349204
 10
-1.5027746720142794
 20
137.07672404066099
 42
0.1688328644413505
 10
-1.3697596651929942
 20
137.60366810614531
 42
0.1722728066742496
 10
-1.5068674414549328
 20
138.1111715167865
 42
0.2351187663210481
 10
-1.8465673050292839
 20
138.27692867913302
 42
0.2302695428954817
 10
-2.1964990922052756
 20
138.11424109386701
 42
0.1787035655014974
  0
LWPOLYLINE
  5
8F
100
AcDbEntity
  8
0
 62
256
370
-1
 48
1.0
  6
BYLAYER
100
AcDbPolyline
 90
21
 70
129
 10
0.6608232723691891
 20
138.68211285375787
 10
0.6608232723691891
 20
138.22372267640452
 10
0.2679174060663243
 20
138.22372267640452
 10
0.2679174060663243
 20
137.34787001610439
 42
0.0356477566266022
 10
0.2791725220281265
 20
137.03784273097477
 42
0.1816276587619013
 10
0.3303321400363117
 20
136.96519607340315
 42
0.1601333503393775
 10
0.4275354142518673
 20
136.93654668731858
 42
0.0804174096890962
 10
0.6587768876488639
 20
136.99179907476741
 10
0.707890120936721
 20
136.54568720573604
 42
-0.1021774704330087
 10
0.2535927130240333
 20
136.45973904748229
 42
-0.0999273148094777
 10
-0.0267619936608236
 20
136.51192185785064
 42
-0.1418457765399093
 10
-0.2099134261301253
 20
136.64698324939224
 42
-0.1131446565551268
 10
-0.29074562258306
 20
136.8710623762681
 42
-0.0364267570303095
 10
-0.3091630850660074
 20
137.27624655089292
 10
-0.3091630850660074
 20
138.22372267640452
 10
-0.573146713988244
 20
138.22372267640452
 10
-0.573146713988244
 20
138.68211285375787
 10
-0.3091630850660074
 20
138.68211285375787
 10
-0.3091630850660074
 20
139.11390002974696
 10
0.2679174060663243
 20
139.44950712388064
 10
0.2679174060663243
 20
138.68211285375787
  0
LWPOLYLINE
  5
90
100
AcDbEntity
  8
0
 62
256
370
-1
 48
1.0
  6
BYLAYER
100
AcDbPolyline
 90
4
 70
129
 10
1.0507288001723261
 20
138.976792253485
 10
1.0507288001723261
 20
139.50885228077013
 10
1.6257629065843346
 20
139.50885228077013
 10
1.6257629065843346
 20
138.976792253485
  0
LWPOLYLINE
  5
91
100
AcDbEntity
  8
0
 62
256
370
-1
 48
1.0
  6
BYLAYER
100
AcDbPolyline
 90
4
 70
129
 10
1.0507288001723261
 20
136.50885228077013
 10
1.0507288001723261
 20
138.68211285375787
 10
1.6257629065843346
 20
138.68211285375787
 10
1.6257629065843346
 20
136.50885228077013
  0
LWPOLYLINE
  5
92
100
AcDbEntity
  8
0
 62
256
370
-1
 48
1.0
  6
BYLAYER
100
AcDbPolyline
 90
10
 70
129
 10
2.8141892931510242
 20
136.50885228077013
 10
1.9383366328508878
 20
138.68211285375787
 10
2.5420201253474772
 20
138.68211285375787
 10
2.9512970694129592
 20
137.57297233534041
 10
3.0699873831919504
 20
137.20257670096115
 42
0.0108254449539016
 10
3.129332540081446
 20
137.38879771051094
 42
-0.0100001111012946
 10
3.1907240816912683
 20
137.57297233534041
 10
3.6040937951974072
 20
138.68211285375787
 10
4.195498979372033
 20
138.68211285375787
 10
3.3319246273938603
 20
136.50885228077013
  0
LWPOLYLINE
  5
93
100
AcDbEntity
  8
0
 62
256
370
-1
 48
1.0
  6
BYLAYER
100
AcDbPolyline
 90
14
 70
129
 10
5.7124701248345957
 20
137.20053031624082
 10
6.2854578465262776
 20
137.10435023438541
 42
-0.161958581388899
 10
5.9365492517104492
 20
136.62447301746863
 42
-0.1545460799287142
 10
5.340028105735005
 20
136.45973904748229
 42
-0.2506197482442532
 10
4.5010103704007633
 20
136.83013468186155
 42
-0.1605804351980726
 10
4.2861399747663853
 20
137.57911148950137
 42
-0.1927516888920972
 10
4.5685410661715693
 20
138.42529157135678
 42
-0.2188537467414551
 10
5.2827293335658396
 20
138.73122608704571
 42
-0.2259863963909629
 10
6.0480772189682952
 20
138.41096687831447
 42
-0.1856404654604602
 10
6.3161536173311887
 20
137.42972540491749
 10
4.8754987742206808
 20
137.42972540491749
 42
0.1875592298419135
 10
5.0146529352029461
 20
137.03170357681378
 42
0.2169548293509032
 10
5.3461672598959886
 20
136.88947983875104
 42
0.1747326725964006
 10
5.5733159638523304
 20
136.96314968868282
 42
0.1548242429700284
  0
LWPOLYLINE
  5
94
100
AcDbEntity
  8
0
 62
256
370
-1
 48
1.0
  6
BYLAYER
100
AcDbPolyline
 90
5
 70
129
 10
5.7452122803598442
 20
137.78170357681378
 42
0.1873846994945941
 10
5.6162900429792089
 20
138.16130794243455
 42
0.2154434067535187
 10
5.3175178738114042
 20
138.29125337217533
 42
0.2233998153243052
 10
5.0064673963216393
 20
138.15414559591338
 42
0.1912376905497874
 10
4.8857306978223178
 20
137.78170357681378
  0
LWPOLYLINE
  5
95
100
AcDbEntity
  8
0
 62
256
370
-1
 48
1.0
  6
BYLAYER
100
AcDbPolyline
 90
21
 70
129
 10
8.948281344561952
 20
138.68211285375787
 10
8.948281344561952
 20
138.22372267640452
 10
8.5553754782590872
 20
138.22372267640452
 10
8.5553754782590872
 20
137.34787001610439
 42
0.0356477566266397
 10
8.5666305942208893
 20
137.03784273097477
 42
0.1816276587619634
 10
8.6177902122290746
 20
136.96519607340315
 42
0.1601333503393739
 10
8.7149934864446266
 20
136.93654668731858
 42
0.0804174096891018
 10
8.9462349598416218
 20
136.99179907476741
 10
8.9953481931294803
 20
136.54568720573604
 42
-0.1021774704330156
 10
8.5410507852167967
 20
136.45973904748229
 42
-0.099927314809475
 10
8.2606960785319359
 20
136.51192185785064
 42
-0.1418457765398889
 10
8.0775446460626341
 20
136.64698324939224
 42
-0.1131446565551024
 10
7.9967124496096993
 20
136.8710623762681
 42
-0.0364267570302929
 10
7.9782949871267554
 20
137.27624655089292
 10
7.9782949871267554
 20
138.22372267640452
 10
7.7143113582045189
 20
138.22372267640452
 10
7.7143113582045189
 20
138.68211285375787
 10
7.9782949871267554
 20
138.68211285375787
 10
7.9782949871267554
 20
139.11390002974696
 10
8.5553754782590872
 20
139.44950712388064
 10
8.5553754782590872
 20
138.68211285375787
  0
LWPOLYLINE
  5
96
100
AcDbEntity
  8
0
 62
256
370
-1
 48
1.0
  6
BYLAYER
100
AcDbPolyline
 90
19
 70
129
 10
9.9111745940567673
 20
139.50885228077013
 10
9.9111745940567673
 20
138.40585091651366
 42
-0.2297683159001879
 10
10.576249628163179
 20
138.73122608704571
 42
-0.1095043667614354
 10
10.934366954220476
 20
138.65755623711394
 42
-0.1327577679671502
 10
11.174817158858946
 20
138.46928884284381
 42
-0.1024506007344589
 10
11.285321933756631
 20
138.2155371375232
 42
-0.047807818413648
 10
11.314994512201373
 20
137.78374996153411
 10
11.314994512201373
 20
136.50885228077013
 10
10.739960405789372
 20
136.50885228077013
 10
10.739960405789372
 20
137.65687410887384
 42
0.0642513426534802
 10
10.707218250264134
 20
138.09070766958322
 42
0.1684049185418249
 10
10.591597513565635
 20
138.23702417708665
 42
0.1474606683999599
 10
10.383889464452398
 20
138.29125337217533
 42
0.141890902037925
 10
10.128091374411472
 20
138.22167629168419
 42
0.1709473953316095
 10
9.9633574044251176
 20
138.01192185785064
 42
0.0839388745353813
 10
9.9111745940567673
 20
137.59752895198432
 10
9.9111745940567673
 20
136.50885228077013
 10
9.3361404876447587
 20
136.50885228077013
 10
9.3361404876447587
 20
139.50885228077013
  0
LWPOLYLINE
  5
97
100
AcDbEntity
  8
0
 62
256
370
-1
 48
1.0
  6
BYLAYER
100
AcDbPolyline
 90
19
 70
129
 10
13.321020833119636
 20
136.50885228077013
 10
13.321020833119636
 20
136.83422745130221
 42
-0.125955617021353
 10
13.008947163269703
 20
136.56001189877833
 42
-0.1219174016396381
 10
12.600693411564379
 20
136.45973904748229
 42
-0.1287920369738823
 10
12.207787545261517
 20
136.55591912933767
 42
-0.1671038193848446
 10
11.956082224661245
 20
136.82604191242089
 42
-0.1020889602928537
 10
11.878319605288802
 20
137.30694232169785
 10
11.878319605288802
 20
138.68211285375787
 10
12.45335371170081
 20
138.68211285375787
 10
12.45335371170081
 20
137.68347711023807
 42
0.0509227707216301
 10
12.485072674865883
 20
137.1217445045082
 42
0.1682080884580406
 10
12.600693411564379
 20
136.95803372688201
 42
0.159605783940565
 10
12.813517422478434
 20
136.89766537763234
 42
0.1562691711447435
 10
13.07750105140067
 20
136.97849757408528
 42
0.1598178526061163
 10
13.237119059586213
 20
137.17904327667736
 42
0.0633887207416011
 10
13.280093138713088
 20
137.76533249905117
 10
13.280093138713088
 20
138.68211285375787
 10
13.85512724512509
 20
138.68211285375787
 10
13.85512724512509
 20
136.50885228077013
  0
LWPOLYLINE
  5
98
100
AcDbEntity
  8
0
 62
256
370
-1
 48
1.0
  6
BYLAYER
100
AcDbPolyline
 90
30
 70
129
 10
14.400034875729574
 20
138.68211285375787
 10
14.93004851829437
 20
138.68211285375787
 10
14.93004851829437
 20
138.38538706931038
 42
-0.2352774286122368
 10
15.607401860722749
 20
138.73122608704571
 42
-0.129718093257664
 10
15.969611956220703
 20
138.64527792879196
 42
-0.1396127710664862
 10
16.221317276820976
 20
138.38538706931038
 42
-0.1015752160210954
 10
16.530321369590418
 20
138.64527792879196
 42
-0.1219202445145425
 10
16.884345926207057
 20
138.73122608704571
 42
-0.1345001002415384
 10
17.28953010083189
 20
138.63402281283015
 42
-0.1628622979485787
 10
17.537142651991509
 20
138.3485521443445
 42
-0.0924606854379861
 10
17.596487808881001
 20
137.89834750587247
 10
17.596487808881001
 20
136.50885228077013
 10
17.021453702468996
 20
136.50885228077013
 10
17.021453702468996
 20
137.75100780600889
 42
0.1155892055045195
 10
16.962108545579504
 20
138.16847028895569
 42
0.2704032074157329
 10
16.716542379140215
 20
138.29125337217533
 42
0.1560368153910476
 10
16.489393675183869
 20
138.21758352224353
 42
0.1665428661649518
 10
16.335914821159307
 20
138.00168993424899
 42
0.0730791917483811
 10
16.288847972591782
 20
137.55250848813714
 10
16.288847972591782
 20
136.50885228077013
 10
15.713813866179777
 20
136.50885228077013
 10
15.713813866179777
 20
137.69984818800069
 42
0.0623513009056715
 10
15.683118095374866
 20
138.1091251320662
 42
0.1640436051320619
 10
15.587961205879637
 20
138.24623290832812
 42
0.1537011612319279
 10
15.412995312291645
 20
138.29125337217533
 42
0.1525559180263682
 10
15.173568300013336
 20
138.21962990696386
 42
0.1680348615222905
 10
15.021112638348942
 20
138.01294505021079
 42
0.0737117464130386
 10
14.975068982141575
 20
137.56478679645909
 10
14.975068982141575
 20
136.50885228077013
 10
14.400034875729574
 20
136.50885228077013
  0
LWPOLYLINE
  5
99
100
AcDbEntity
  8
0
 62
256
370
-1
 48
1.0
  6
BYLAYER
100
AcDbPolyline
 90
12
 70
129
 10
18.136779534101287
 20
136.50885228077013
 10
18.136779534101287
 20
139.50885228077013
 10
18.711813640513292
 20
139.50885228077013
 10
18.711813640513292
 20
138.42836114843726
 42
-0.2258094728776491
 10
19.342100134374135
 20
138.73122608704571
 42
-0.2220073889212995
 10
19.998989629599237
 20
138.44370903383972
 42
-0.1882333761730023
 10
20.258880489080816
 20
137.61799279918759
 42
-0.1846727954538677
 10
19.993873667798418
 20
136.76055760137041
 42
-0.2257123956902725
 10
19.350285673255449
 20
136.45973904748229
 42
-0.1208142953308189
 10
18.982959615956673
 20
136.55284955225719
 42
-0.1201480642403446
 10
18.670885946106736
 20
136.82808829714122
 10
18.670885946106736
 20
136.50885228077013
  0
LWPOLYLINE
  5
9A
100
AcDbEntity
  8
0
 62
256
370
-1
 48
1.0
  6
BYLAYER
100
AcDbPolyline
 90
8
 70
129
 10
18.70772087107261
 20
137.64254941583152
 42
0.1408327143524329
 10
18.814132876529662
 20
137.14323154407165
 42
0.2703290392750095
 10
19.211131512273177
 20
136.91403645539498
 42
0.2353604972031905
 10
19.535483490445074
 20
137.07672404066099
 42
0.1702670683790601
 10
19.669521689626521
 20
137.58934341310302
 42
0.1677360037589368
 10
19.534460298084916
 20
138.12651940218896
 42
0.2366234811640463
 10
19.188621280349572
 20
138.29125337217533
 42
0.2305811972302643
 10
18.844828647334573
 20
138.13061217162962
 42
0.177224405229252
  0
LWPOLYLINE
  5
9B
100
AcDbEntity
  8
0
 62
256
370
-1
 48
1.0
  6
BYLAYER
100
AcDbPolyline
 90
26
 70
129
 10
20.51115510467848
 20
137.12890685102934
 10
21.088235595810808
 20
137.21690139400343
 42
0.180289713025629
 10
21.237621680394717
 20
136.96212649632267
 42
0.1663912994955205
 10
21.552764927325136
 20
136.87515514570876
 42
0.155465379778901
 10
21.888372021458835
 20
136.95701053452186
 42
0.2486454460037607
 10
21.964088256110948
 20
137.1104893885464
 42
0.1995951405943126
 10
21.9231605617044
 20
137.21894777872376
 42
0.1142675158994407
 10
21.730800397993619
 20
137.29466401337586
 42
-0.0750039404674151
 10
20.848808583532502
 20
137.57501872006074
 42
-0.2640932623139542
 10
20.590964108771246
 20
138.06410466821899
 42
-0.2289676122615531
 10
20.814020043286938
 20
138.53886592333495
 42
-0.1777577201919147
 10
21.505698078757604
 20
138.73122608704571
 42
-0.1435244907169843
 10
22.168726728143689
 20
138.58593277190246
 42
-0.1820429793207344
 10
22.467498897311494
 20
138.15619198063371
 10
21.925206946424723
 20
138.05591912933767
 42
0.1809644690421471
 10
21.793215131963606
 20
138.25032567776879
 42
0.1512025160576434
 10
21.515930002359241
 20
138.31785637353957
 42
0.1350773078251764
 10
21.190554831827178
 20
138.25441844720942
 42
0.26238014002757
 10
21.125070520776703
 20
138.13777451815076
 42
0.2486934353261223
 10
21.182369292945872
 20
138.03340889741406
 42
0.0652820663456784
 10
21.719545282031817
 20
137.8717445045082
 42
-0.1092628380846609
 10
22.361086891854463
 20
137.61594641446729
 42
-0.2297389100241813
 10
22.541168747243283
 20
137.18825200791883
 42
-0.2288852516769777
 10
22.291509811363333
 20
136.67460944311665
 42
-0.1796655323249361
 10
21.552764927325136
 20
136.45973904748229
 42
-0.1531631714921735
 10
20.849831775892667
 20
136.63982090287109
 42
-0.1854152645467707
  0
LWPOLYLINE
  5
9C
100
AcDbEntity
  8
0
 62
256
370
-1
 48
1.0
  6
BYLAYER
100
AcDbPolyline
 90
18
 70
129
 10
24.940531752300259
 20
138.03954805157505
 10
24.373683184769561
 20
137.93722881555868
 42
0.1800241240423677
 10
24.243737755028775
 20
138.1930269055996
 42
0.1820889974822608
 10
23.9807773184667
 20
138.27897506385335
 42
0.2286876629121012
 10
23.638007877811852
 20
138.13061217162962
 42
0.1736001157841361
 10
23.510108832791396
 20
137.63436387695023
 42
0.1639535167427376
 10
23.640054262532182
 20
137.08797915662279
 42
0.2374916202501061
 10
23.988962857348007
 20
136.92836114843726
 42
0.1896451092624539
 10
24.2570392557109
 20
137.02147165321216
 42
0.16148702080085
 10
24.404378955574479
 20
137.3417308619434
 10
24.969181138384847
 20
137.24555078008802
 42
-0.1741052774459206
 10
24.631527659530825
 20
136.65823836535404
 42
-0.1718942095237132
 10
23.962359855983749
 20
136.45973904748229
 42
-0.2149439961590152
 10
23.202127932382112
 20
136.76055760137041
 42
-0.1958184163489115
 10
22.918703648616763
 20
137.59343618254368
 42
-0.196570524126058
 10
23.203151124742284
 20
138.43143072551774
 42
-0.2136769016566426
 10
23.972591779585386
 20
138.73122608704571
 42
-0.1597392867003684
 10
24.603901465806402
 20
138.56035296289838
 42
-0.1684092384496121
  0
LWPOLYLINE
  5
9D
100
AcDbEntity
  8
0
 62
256
370
-1
 48
1.0
  6
BYLAYER
100
AcDbPolyline
 90
13
 70
129
 10
25.927889300331316
 20
136.50885228077013
 10
25.352855193919318
 20
136.50885228077013
 10
25.352855193919318
 20
138.68211285375787
 10
25.886961605924768
 20
138.68211285375787
 10
25.886961605924768
 20
138.37310876098843
 42
-0.1032526218787233
 10
26.133550964724229
 20
138.6616490065546
 42
-0.1452936089129981
 10
26.382186708244006
 20
138.73122608704571
 42
-0.1374436283283625
 10
26.760767881504584
 20
138.62276769686838
 10
26.582732410836094
 20
138.12140344038815
 42
0.1446986624674779
 10
26.31260962775287
 20
138.2155371375232
 42
0.1736219943321542
 10
26.107971155720129
 20
138.14902963411257
 42
0.1544311530859334
 10
25.975979341259013
 20
137.90857942947409
 42
0.0535877492108312
 10
25.927889300331316
 20
137.18006646903754
  0
LWPOLYLINE
  5
9E
100
AcDbEntity
  8
0
 62
256
370
-1
 48
1.0
  6
BYLAYER
100
AcDbPolyline
 90
14
 70
129
 10
28.274523279549484
 20
137.20053031624082
 10
28.847511001241166
 20
137.10435023438541
 42
-0.1619585813888873
 10
28.498602406425341
 20
136.62447301746863
 42
-0.1545460799287096
 10
27.902081260449897
 20
136.45973904748229
 42
-0.2506197482442531
 10
27.063063525115652
 20
136.83013468186155
 42
-0.160580435198064
 10
26.848193129481274
 20
137.57911148950137
 42
-0.1927516888920946
 10
27.130594220886458
 20
138.42529157135678
 42
-0.2188537467414555
 10
27.844782488280728
 20
138.73122608704571
 42
-0.2259863963909767
 10
28.610130373683184
 20
138.41096687831447
 42
-0.1856404654604774
 10
28.878206772046077
 20
137.42972540491749
 10
27.437551928935569
 20
137.42972540491749
 42
0.1875592298419206
 10
27.576706089917842
 20
137.03170357681378
 42
0.2169548293509157
 10
27.908220414610881
 20
136.88947983875104
 42
0.1747326725964035
 10
28.135369118567226
 20
136.96314968868282
 42
0.1548242429700689
  0
LWPOLYLINE
  5
9F
100
AcDbEntity
  8
0
 62
256
370
-1
 48
1.0
  6
BYLAYER
100
AcDbPolyline
 90
5
 70
129
 10
28.307265435074729
 20
137.78170357681378
 42
0.1873846994945909
 10
28.178343197694097
 20
138.16130794243455
 42
0.2154434067535195
 10
27.879571028526293
 20
138.29125337217533
 42
0.2233998153242898
 10
27.568520551036528
 20
138.15414559591338
 42
0.1912376905497882
 10
27.447783852537206
 20
137.78170357681378
  0
LWPOLYLINE
  5
A0
100
AcDbEntity
  8
0
 62
256
370
-1
 48
1.0
  6
BYLAYER
100
AcDbPolyline
 90
13
 70
129
 10
29.753013160459126
 20
136.50885228077013
 10
29.065427894429114
 20
138.68211285375787
 10
29.624090923078505
 20
138.68211285375787
 10
30.031321482423657
 20
137.25782908840998
 10
30.405809886243574
 20
138.68211285375787
 10
30.960380145452312
 20
138.68211285375787
 10
31.322590240950262
 20
137.25782908840998
 10
31.738006339176728
 20
138.68211285375787
 10
32.304854906707426
 20
138.68211285375787
 10
31.607037717075769
 20
136.50885228077013
 10
31.054513842587369
 20
136.50885228077013
 10
30.680025438767451
 20
137.90653304475376
 10
30.31167618910851
 20
136.50885228077013
  0
LWPOLYLINE
  5
A1
100
AcDbEntity
  8
0
 62
256
370
-1
 48
1.0
  6
BYLAYER
100
AcDbPolyline
 90
26
 70
129
 10
32.516940372760004
 20
137.12890685102934
 10
33.094020863892332
 20
137.21690139400343
 42
0.1802897130256506
 10
33.243406948476242
 20
136.96212649632267
 42
0.1663912994955298
 10
33.55855019540666
 20
136.87515514570876
 42
0.1554653797788933
 10
33.89415728954036
 20
136.95701053452186
 42
0.2486454460038294
 10
33.969873524192472
 20
137.1104893885464
 42
0.1995951405943126
 10
33.928945829785924
 20
137.21894777872376
 42
0.1142675158994289
 10
33.73658566607515
 20
137.29466401337586
 42
-0.0750039404674104
 10
32.854593851614027
 20
137.57501872006074
 42
-0.2640932623139416
 10
32.59674937685277
 20
138.06410466821899
 42
-0.2289676122615874
 10
32.819805311368462
 20
138.53886592333495
 42
-0.1777577201919269
 10
33.511483346839135
 20
138.73122608704571
 42
-0.1435244907169827
 10
34.174511996225213
 20
138.58593277190246
 42
-0.1820429793207627
 10
34.473284165393018
 20
138.15619198063371
 10
33.930992214506254
 20
138.05591912933767
 42
0.1809644690421532
 10
33.799000400045131
 20
138.25032567776879
 42
0.1512025160576403
 10
33.521715270440772
 20
138.31785637353957
 42
0.1350773078251664
 10
33.196340099908703
 20
138.25441844720942
 42
0.2623801400274896
 10
33.130855788858234
 20
138.13777451815076
 42
0.248693435326107
 10
33.188154561027396
 20
138.03340889741406
 42
0.0652820663456811
 10
33.725330550113348
 20
137.8717445045082
 42
-0.1092628380846618
 10
34.366872159936001
 20
137.61594641446729
 42
-0.2297389100241547
 10
34.546954015324808
 20
137.18825200791883
 42
-0.2288852516769785
 10
34.297295079444858
 20
136.67460944311665
 42
-0.179665532324931
 10
33.55855019540666
 20
136.45973904748229
 42
-0.1531631714921704
 10
32.855617043974192
 20
136.63982090287109
 42
-0.1854152645467709
  0
LWPOLYLINE
  5
A2
100
AcDbEntity
  8
0
 62
256
370
-1
 48
1.0
  6
BYLAYER
100
AcDbPolyline
 90
8
 70
129
 10
15.65893587994543
 20
104.49386084583902
 10
15.083901773533425
 20
104.49386084583902
 10
15.083901773533425
 20
106.66098226466576
 42
-0.1099280811122665
 10
14.34106412005457
 20
106.22510231923602
 10
14.34106412005457
 20
106.74693042291952
 42
0.0852870096898178
 10
14.830150068212824
 20
107.02626193724421
 42
0.1445706368945033
 10
15.192360163710777
 20
107.50613915416099
 10
15.65893587994543
 20
107.50613915416099
  0
LWPOLYLINE
  5
A3
100
AcDbEntity
  8
0
 62
256
370
-1
 48
1.0
  6
BYLAYER
100
AcDbPolyline
 90
21
 70
129
 10
16.007844474761256
 20
84.02796725784448
 10
16.007844474761256
 20
83.493860845839023
 10
13.992155525238745
 20
83.493860845839023
 42
-0.1105963301644764
 10
14.188608458390178
 20
84.067871759890863
 42
-0.0635609915235277
 10
14.835266030013642
 20
84.787175989085952
 42
0.0421479203749408
 10
15.31207366984993
 20
85.278308321964531
 42
0.1500945349394309
 10
15.430763983628921
 20
85.630286493860851
 42
0.2038431041097626
 10
15.327421555252387
 20
85.92598908594816
 42
0.2050057676366608
 10
15.041950886766712
 20
86.029331514324696
 42
0.2086261155037577
 10
14.755457025920872
 20
85.920873124147349
 42
0.1760691838329093
 10
14.632673942701228
 20
85.560709413369722
 10
14.059686221009549
 20
85.618008185538883
 42
-0.2092785674361496
 10
14.380968622100955
 20
86.29945429740792
 42
-0.168294650467835
 10
15.056275579809004
 20
86.506139154160991
 42
-0.1962538116056298
 10
15.754092769440655
 20
86.266712141882678
 42
-0.21564463313075
 10
16.007844474761256
 20
85.671214188267399
 42
-0.095527105327161
 10
15.935197817189632
 20
85.285470668485686
 42
-0.0716784105217103
 10
15.704979536152797
 20
84.90177353342429
 42
-0.0364798985823215
 10
15.328444747612549
 20
84.519099590723059
 42
0.0195462198952765
 10
14.983628922237379
 20
84.187585266030013
 42
0.0500684858961267
 10
14.865961800818553
 20
84.02796725784448
  0
LWPOLYLINE
  5
A4
100
AcDbEntity
  8
0
 62
256
370
-1
 48
1.0
  6
BYLAYER
100
AcDbPolyline
 90
28
 70
129
 10
14.003410641200546
 20
63.315484311050483
 10
14.560027285129605
 20
63.383015006821282
 42
0.1737520740297032
 10
14.703274215552524
 20
63.057639836289226
 42
0.2018750732183992
 10
14.985675306957708
 20
62.945088676671212
 42
0.2224093331159287
 10
15.285470668485676
 20
63.080150068212816
 42
0.1899860761866296
 10
15.407230559345157
 20
63.444406548431104
 42
0.1927793992304995
 10
15.290586630286494
 20
63.788199181446117
 42
0.2194823095466228
 10
15.006139154160982
 20
63.915075034106408
 42
0.0669523301687828
 10
14.742155525238745
 20
63.87210095497953
 10
14.805593451568894
 20
64.340723055934518
 42
0.1902763608947039
 10
15.161664392905866
 20
64.442019099590723
 42
0.2265125286282692
 10
15.284447476125511
 20
64.727489768076396
 42
0.2058012581372478
 10
15.194406548431106
 20
64.968963165075039
 42
0.2059976047869004
 10
14.954979536152797
 20
65.059004092769442
 42
0.2042100602121159
 10
14.703274215552524
 20
64.956684856753071
 42
0.1739311079315228
 10
14.576398362892224
 20
64.657912687585267
 10
14.046384720327422
 20
64.74795361527967
 42
-0.0992601207867501
 10
14.213165075034107
 20
65.182810368349251
 42
-0.1362289696456509
 10
14.524215552523874
 20
65.438608458390178
 42
-0.1106278783392042
 10
14.971350613915416
 20
65.531718963165076
 42
-0.2143594188117699
 10
15.65075034106412
 20
65.261596180081852
 42
-0.1998399126611714
 10
15.861527967257844
 20
64.762278308321967
 42
-0.2936239586544853
 10
15.429740791268758
 20
64.131991814461117
 42
-0.1775571458301648
 10
15.842087312414733
 20
63.884379263301497
 42
-0.175590217330149
 10
15.996589358799454
 20
63.419849931787169
 42
-0.2124030578800646
 10
15.708049113233288
 20
62.746589358799454
 42
-0.2016358623901103
 10
14.989768076398363
 20
62.468281036834924
 42
-0.1870148557159742
 10
14.314461118690314
 20
62.702592087312411
 42
-0.1935963176376277
  0
LWPOLYLINE
  5
A5
100
AcDbEntity
  8
0
 62
256
370
-1
 48
1.0
  6
BYLAYER
100
AcDbPolyline
 90
10
 70
129
 10
2.0428425310250002
 20
9.8042639584467253
 42
-0.1035033566386786
 10
2.1799503072869379
 20
10.573704613289836
 42
-0.0887304716847963
 10
2.459281821611631
 20
10.985027942075648
 42
-0.1022159918237364
 10
2.8470717261136773
 20
11.255150725158867
 42
-0.1008111681527628
 10
3.4937292977371426
 20
11.373841038937858
 42
-0.210969209152094
 10
4.5547797752269101
 20
10.962517710152046
 42
-0.1997447700764639
 10
4.9528016033305944
 20
9.8185886514890175
 42
-0.1990625992222405
 10
4.557849352307402
 20
8.6818219393471345
 42
-0.2117135593124134
 10
3.5019148366184516
 20
8.2715218029214874
 42
-0.2107726254246627
 10
2.4377947820481927
 20
8.6797755546268078
 42
-0.200008861335194
  0
LWPOLYLINE
  5
A6
100
AcDbEntity
  8
0
 62
256
370
-1
 48
1.0
  6
BYLAYER
100
AcDbPolyline
 90
8
 70
129
 10
2.6669898707248638
 20
9.8247278056499994
 42
0.1858023423294451
 10
2.9023241135625177
 20
9.0522175737263986
 42
0.2234885323936685
 10
3.4998684518981245
 20
8.7892571371643253
 42
0.2242506675355614
 10
4.0943432131532411
 20
9.0501711890060701
 42
0.1840757256043475
 10
4.3266078789104032
 20
9.8329133445313097
 42
0.1837364737804466
 10
4.100482367314223
 20
10.60235399937442
 42
0.2237063844645552
 10
3.4998684518981249
 20
10.85610570469502
 42
0.2235993490207226
 10
2.8961849594015354
 20
10.599284422293929
 42
0.1842082365376996
  0
LWPOLYLINE
  5
A7
100
AcDbEntity
  8
0
 62
256
370
-1
 48
1.0
  6
BYLAYER
100
AcDbPolyline
 90
19
 70
129
 10
6.8376142488598326
 20
8.3226814209296727
 10
6.8376142488598326
 20
8.6480565914617316
 42
-0.1259556170213167
 10
6.5255405790099017
 20
8.3738410389378579
 42
-0.1219174016396426
 10
6.1172868273045795
 20
8.2735681876418141
 42
-0.1287920369738307
 10
5.7243809610017156
 20
8.3697482694972027
 42
-0.1671038193848583
 10
5.4726756404014427
 20
8.639871052580423
 42
-0.1020889602928761
 10
5.3949130210290006
 20
9.1207714618573696
 10
5.3949130210290006
 20
10.495941993917395
 10
5.9699471274410065
 20
10.495941993917395
 10
5.9699471274410065
 20
9.497306250397612
 42
0.0509227707216153
 10
6.001666090606081
 20
8.9355736446677358
 42
0.1682080884581295
 10
6.1172868273045804
 20
8.7718628670415413
 42
0.1596057839407558
 10
6.3301108382186326
 20
8.7114945177918823
 42
0.1562691711446468
 10
6.5940944671408701
 20
8.7923267142448154
 42
0.1598178526060041
 10
6.7537124753264086
 20
8.992872416836903
 42
0.0633887207416043
 10
6.7966865544532844
 20
9.579161639210712
 10
6.7966865544532844
 20
10.495941993917395
 10
7.3717206608652894
 20
10.495941993917395
 10
7.3717206608652894
 20
8.3226814209296727
  0
LWPOLYLINE
  5
A8
100
AcDbEntity
  8
0
 62
256
370
-1
 48
1.0
  6
BYLAYER
100
AcDbPolyline
 90
21
 70
129
 10
8.9561917293960978
 20
10.495941993917395
 10
8.9561917293960978
 20
10.037551816564051
 10
8.5632858630932329
 20
10.037551816564051
 10
8.5632858630932329
 20
9.1616991562639161
 42
0.0356477566266286
 10
8.5745409790550351
 20
8.8516718711343145
 42
0.1816276587619605
 10
8.6257005970632203
 20
8.7790252135626883
 42
0.1601333503394274
 10
8.7229038712787741
 20
8.7503758274781038
 42
0.0804174096891156
 10
8.9541453446757711
 20
8.8056282149269443
 10
9.0032585779636296
 20
8.3595163458955657
 42
-0.1021774704330668
 10
8.5489611700509425
 20
8.2735681876418141
 42
-0.0999273148094312
 10
8.2686064633660852
 20
8.3257509980101627
 42
-0.1418457765398636
 10
8.0854550308967816
 20
8.4608123895517728
 42
-0.1131446565550596
 10
8.0046228344438468
 20
8.6848915164276264
 42
-0.0364267570303115
 10
7.9862053719609003
 20
9.0900756910524585
 10
7.9862053719609003
 20
10.037551816564051
 10
7.7222217430386637
 20
10.037551816564051
 10
7.7222217430386637
 20
10.495941993917395
 10
7.9862053719609003
 20
10.495941993917395
 10
7.9862053719609003
 20
10.927729169906481
 10
8.5632858630932329
 20
11.263336264040177
 10
8.5632858630932329
 20
10.495941993917395
  0
LWPOLYLINE
  5
A9
100
AcDbEntity
  8
0
 62
256
370
-1
 48
1.0
  6
BYLAYER
100
AcDbPolyline
 90
8
 70
129
 10
3.1801499462697205
 20
19.524556616643927
 10
3.1801499462697205
 20
22.017053206002728
 10
2.2899725929272918
 20
22.017053206002728
 10
2.2899725929272918
 20
22.524556616643927
 10
4.6740107921087386
 20
22.524556616643927
 10
4.6740107921087386
 20
22.017053206002728
 10
3.7858798234866367
 20
22.017053206002728
 10
3.7858798234866367
 20
19.524556616643927
  0
LWPOLYLINE
  5
AA
100
AcDbEntity
  8
0
 62
256
370
-1
 48
1.0
  6
BYLAYER
100
AcDbPolyline
 90
10
 70
129
 10
4.6094650484863777
 20
20.641882673942678
 42
-0.1235530753264732
 10
4.7506655941889733
 20
21.196452933151431
 42
-0.1509984122013761
 10
5.1507338070129833
 20
21.605729877216916
 42
-0.1273392299186422
 10
5.7288374905054802
 20
21.746930422919508
 42
-0.2090855185083215
 10
6.5371594550348107
 20
21.426671214188264
 42
-0.2044432215222106
 10
6.8523027019652343
 20
20.617326057298769
 42
-0.2040261810827733
 10
6.5340898779543188
 20
19.799795361527966
 42
-0.2097458665472352
 10
5.7329302599461336
 20
19.475443383356069
 42
-0.1176310026617933
 10
5.1630121153349471
 20
19.610504774897677
 42
-0.1581167900378135
 10
4.7506655941889733
 20
20.006480218281034
 42
-0.1252767960355574
  0
LWPOLYLINE
  5
AB
100
AcDbEntity
  8
0
 62
256
370
-1
 48
1.0
  6
BYLAYER
100
AcDbPolyline
 90
8
 70
129
 10
5.1988238479406768
 20
20.611186903137789
 42
0.1862594742662095
 10
5.3523027019652343
 20
20.115961800818553
 42
0.2238423430888258
 10
5.7308838752258069
 20
19.94406548431105
 42
0.2248461522326314
 10
6.1084418561262162
 20
20.115961800818553
 42
0.1849238093447899
 10
6.2608975177906103
 20
20.615279672578442
 42
0.1855851125505609
 10
6.1084418561262162
 20
21.106412005457024
 42
0.2248461522326269
 10
5.7308838752258069
 20
21.278308321964527
 42
0.2238423430888275
 10
5.3523027019652343
 20
21.106412005457024
 42
0.1862594742662091
  0
LWPOLYLINE
  5
AC
100
AcDbEntity
  8
0
 62
256
370
-1
 48
1.0
  6
BYLAYER
100
AcDbPolyline
 90
19
 70
129
 10
9.2716987363896308
 20
19.524556616643927
 10
8.6966646299776258
 20
19.524556616643927
 10
8.6966646299776258
 20
20.633697135061389
 42
0.0669175869412948
 10
8.6598297050117328
 20
21.089017735334242
 42
0.1608929415361547
 10
8.5401161988725782
 20
21.249658935879943
 42
0.1553418751934526
 10
8.340593688640654
 20
21.306957708049111
 42
0.1556564042004197
 10
8.0725172902777622
 20
21.225102319236015
 42
0.1690594357830562
 10
7.909829705011731
 20
21.008185538881307
 42
0.0671360903059428
 10
7.865832433524691
 20
20.508867667121415
 10
7.865832433524691
 20
19.524556616643927
 10
7.2907983271126859
 20
19.524556616643927
 10
7.2907983271126859
 20
21.69781718963165
 10
7.8249047391181428
 20
21.69781718963165
 10
7.8249047391181428
 20
21.378581173260571
 42
-0.2453154310907386
 10
8.5411393912327398
 20
21.746930422919508
 42
-0.103845780301037
 10
8.889024793688403
 20
21.678376534788537
 42
-0.1289378461665295
 10
9.127428613606547
 20
21.503410641200546
 42
-0.1062700363775646
 10
9.2399797732245545
 20
21.26193724420191
 42
-0.0541739054045466
 10
9.2716987363896308
 20
20.875170532060018
  0
LWPOLYLINE
  5
AD
100
AcDbEntity
  8
0
 62
256
370
-1
 48
1.0
  6
BYLAYER
100
AcDbPolyline
 90
14
 70
129
 10
11.105828740800384
 20
20.216234652114597
 10
11.678816462492062
 20
20.120054570259207
 42
-0.1619585813889174
 10
11.329907867676237
 20
19.640177353342427
 42
-0.1545460799286869
 10
10.733386721700796
 20
19.475443383356069
 42
-0.2506197482442109
 10
9.8943689863665512
 20
19.845839017735333
 42
-0.1605804351980766
 10
9.6794985907321713
 20
20.594815825375164
 42
-0.1927516888920903
 10
9.9618996821373571
 20
21.440995907230558
 42
-0.2188537467414733
 10
10.676087949531627
 20
21.746930422919508
 42
-0.2259863963909839
 10
11.441435834934083
 20
21.426671214188264
 42
-0.1856404654604754
 10
11.709512233296973
 20
20.445429740791266
 10
10.268857390186469
 20
20.445429740791266
 42
0.1875592298419802
 10
10.408011551168734
 20
20.047407912687582
 42
0.2169548293509224
 10
10.739525875861776
 20
19.905184174624829
 42
0.1747326725964244
 10
10.966674579818118
 20
19.978854024556615
 42
0.1548242429700839
  0
LWPOLYLINE
  5
AE
100
AcDbEntity
  8
0
 62
256
370
-1
 48
1.0
  6
BYLAYER
100
AcDbPolyline
 90
5
 70
129
 10
11.138570896325625
 20
20.797407912687582
 42
0.187384699494581
 10
11.009648658944997
 20
21.177012278308322
 42
0.215443406753378
 10
10.710876489777192
 20
21.306957708049111
 42
0.2233998153242442
 10
10.399826012287427
 20
21.169849931787173
 42
0.191237690549776
 10
10.279089313788106
 20
20.797407912687582
  0
LWPOLYLINE
  5
AF
100
AcDbEntity
  8
0
 62
256
370
-1
 48
1.0
  6
BYLAYER
100
AcDbPolyline
 90
11
 70
129
 10
15.149386084583902
 20
40.493860845839016
 10
15.149386084583902
 20
41.097544338335602
 10
13.921555252387449
 20
41.097544338335602
 10
13.921555252387449
 20
41.600954979536148
 10
15.223055934515688
 20
43.506139154160984
 10
15.70600272851296
 20
43.506139154160984
 10
15.70600272851296
 20
41.603001364256478
 10
16.078444747612551
 20
41.603001364256478
 10
16.078444747612551
 20
41.097544338335602
 10
15.70600272851296
 20
41.097544338335602
 10
15.70600272851296
 20
40.493860845839016
  0
LWPOLYLINE
  5
B0
100
AcDbEntity
  8
0
 62
256
370
-1
 48
1.0
  6
BYLAYER
100
AcDbPolyline
 90
3
 70
129
 10
15.149386084583902
 20
41.603001364256478
 10
15.149386084583902
 20
42.628240109140521
 10
14.459754433833561
 20
41.603001364256478
  0
ENDSEC
  0
SECTION
  2
OBJECTS
  0
DICTIONARY
  5
C
100
AcDbDictionary
280
0
281
1
  3
ACAD_GROUP
350
D
  3
ACAD_LAYOUT
350
1A
  3
ACAD_MLINESTYLE
350
17
  3
ACAD_PLOTSETTINGS
350
19
  3
ACAD_PLOTSTYLENAME
350
E
  3
AcDbVariableDictionary
350
B1
  3
QCAD_OBJECTS
350
B2
  0
DICTIONARY
  5
D
100
AcDbDictionary
280
0
281
1
  0
ACDBDICTIONARYWDFLT
  5
E
100
AcDbDictionary
281
1
  3
Normal
350
F
100
AcDbDictionaryWithDefault
340
F
  0
ACDBPLACEHOLDER
  5
F
  0
DICTIONARY
  5
17
100
AcDbDictionary
280
0
281
1
  3
Standard
350
18
  0
MLINESTYLE
  5
18
100
AcDbMlineStyle
  2
STANDARD
 70
0
  3

 62
256
 51
90.0
 52
90.0
 71
2
 49
0.5
 62
256
  6
BYLAYER
 49
-0.5
 62
256
  6
BYLAYER
  0
DICTIONARY
  5
19
100
AcDbDictionary
280
0
281
1
  0
DICTIONARY
  5
1A
100
AcDbDictionary
281
1
  3
Layout1
350
1E
  3
Layout2
350
26
  3
Model
350
22
  0
LAYOUT
  5
1E
100
AcDbPlotSettings
  1

  2
none_device
  4

  6

 40
0.0
 41
0.0
 42
0.0
 43
0.0
 44
0.0
 45
0.0
 46
0.0
 47
0.0
 48
0.0
 49
0.0
140
0.0
141
0.0
142
1.0
143
1.0
 70
688
 72
0
 73
0
 74
5
  7

 75
16
147
1.0
148
0.0
149
0.0
100
AcDbLayout
  1
Layout1
 70
1
 71
1
 10
0.0
 20
0.0
 11
420.0
 21
297.0
 12
0.0
 22
0.0
 32
0.0
 14
100000000000000000000.0
 24
100000000000000000000.0
 34
100000000000000000000.0
 15
-100000000000000000000.0
 25
-100000000000000000000.0
 35
-100000000000000000000.0
146
0.0
 13
0.0
 23
0.0
 33
0.0
 16
1.0
 26
0.0
 36
0.0
 17
0.0
 27
1.0
 37
0.0
 76
0
330
1B
  0
LAYOUT
  5
22
100
AcDbPlotSettings
  1

  2
none_device
  4

  6

 40
0.0
 41
0.0
 42
0.0
 43
0.0
 44
0.0
 45
0.0
 46
0.0
 47
0.0
 48
0.0
 49
0.0
140
0.0
141
0.0
142
1.0
143
1.0
 70
1712
 72
0
 73
0
 74
0
  7

 75
0
147
1.0
148
0.0
149
0.0
100
AcDbLayout
  1
Model
 70
1
 71
0
 10
0.0
 20
0.0
 11
12.0
 21
9.0
 12
0.0
 22
0.0
 32
0.0
 14
0.0
 24
0.0
 34
0.0
 15
0.0
 25
0.0
 35
0.0
146
0.0
 13
0.0
 23
0.0
 33
0.0
 16
1.0
 26
0.0
 36
0.0
 17
0.0
 27
1.0
 37
0.0
 76
0
330
1F
  0
LAYOUT
  5
26
100
AcDbPlotSettings
  1

  2
none_device
  4

  6

 40
0.0
 41
0.0
 42
0.0
 43
0.0
 44
0.0
 45
0.0
 46
0.0
 47
0.0
 48
0.0
 49
0.0
140
0.0
141
0.0
142
1.0
143
1.0
 70
688
 72
0
 73
0
 74
5
  7

 75
16
147
1.0
148
0.0
149
0.0
100
AcDbLayout
  1
Layout2
 70
1
 71
2
 10
0.0
 20
0.0
 11
12.0
 21
9.0
 12
0.0
 22
0.0
 32
0.0
 14
0.0
 24
0.0
 34
0.0
 15
0.0
 25
0.0
 35
0.0
146
0.0
 13
0.0
 23
0.0
 33
0.0
 16
1.0
 26
0.0
 36
0.0
 17
0.0
 27
1.0
 37
0.0
 76
0
330
23
  0
DICTIONARY
  5
B1
100
AcDbDictionary
281
1
  3
DIMASSOC
350
B4
  3
HIDETEXT
350
B3
  0
DICTIONARYVAR
  5
B3
100
DictionaryVariables
280
0
  1
2
  0
DICTIONARYVAR
  5
B4
100
DictionaryVariables
280
0
  1
1
  0
DICTIONARY
  5
B2
100
AcDbDictionary
281
1
  3
ColorSettings/BackgroundColor
350
B5
  3
ColorSettings/ColorMode
350
B6
  3
Grid/DisplayGrid00
350
B7
  3
Grid/DisplayGrid01
350
B8
  3
Grid/DisplayGrid02
350
B9
  3
Grid/DisplayGrid03
350
BA
  3
Grid/GridSpacingX00
350
BB
  3
Grid/GridSpacingX01
350
BC
  3
Grid/GridSpacingX02
350
BD
  3
Grid/GridSpacingX03
350
BE
  3
Grid/GridSpacingY00
350
BF
  3
Grid/GridSpacingY01
350
C0
  3
Grid/GridSpacingY02
350
C1
  3
Grid/GridSpacingY03
350
C2
  3
Grid/IsometricGrid00
350
C3
  3
Grid/IsometricGrid01
350
C4
  3
Grid/IsometricGrid02
350
C5
  3
Grid/IsometricGrid03
350
C6
  3
Grid/IsometricProjection00
350
C7
  3
Grid/IsometricProjection01
350
C8
  3
Grid/IsometricProjection02
350
C9
  3
Grid/IsometricProjection03
350
CA
  3
Grid/MetaGridSpacingX00
350
CB
  3
Grid/MetaGridSpacingX01
350
CC
  3
Grid/MetaGridSpacingX02
350
CD
  3
Grid/MetaGridSpacingX03
350
CE
  3
Grid/MetaGridSpacingY00
350
CF
  3
Grid/MetaGridSpacingY01
350
D0
  3
Grid/MetaGridSpacingY02
350
D1
  3
Grid/MetaGridSpacingY03
350
D2
  3
MultiPageSettings/Columns
350
D3
  3
MultiPageSettings/GlueMarginsBottom
350
D4
  3
MultiPageSettings/GlueMarginsLeft
350
D5
  3
MultiPageSettings/GlueMarginsRight
350
D6
  3
MultiPageSettings/GlueMarginsTop
350
D7
  3
MultiPageSettings/PrintCropMarks
350
D8
  3
MultiPageSettings/Rows
350
D9
  3
PageSettings/OffsetX
350
DA
  3
PageSettings/OffsetY
350
DB
  3
PageSettings/PageOrientation
350
DC
  3
PageSettings/PaperHeight
350
DD
  3
PageSettings/PaperWidth
350
DE
  3
PageSettings/Scale
350
DF
  3
PageSettings/ShowPaperBorders
350
E0
  3
QCADVersion
350
E1
  3
UnitSettings/PaperUnit
350
E2
  3
ViewportCenter
350
E3
  3
ViewportHeight
350
E4
  3
ViewportWidth
350
E5
  0
XRECORD
  5
B5
330
B2
100
AcDbXrecord
280
1
1000
White
  0
XRECORD
  5
B6
330
B2
100
AcDbXrecord
280
1
1000
FullColor
  0
XRECORD
  5
B7
330
B2
100
AcDbXrecord
280
1
290
1
  0
XRECORD
  5
B8
330
B2
100
AcDbXrecord
280
1
290
1
  0
XRECORD
  5
B9
330
B2
100
AcDbXrecord
280
1
290
1
  0
XRECORD
  5
BA
330
B2
100
AcDbXrecord
280
1
290
1
  0
XRECORD
  5
BB
330
B2
100
AcDbXrecord
280
1
1000
auto
  0
XRECORD
  5
BC
330
B2
100
AcDbXrecord
280
1
1000
auto
  0
XRECORD
  5
BD
330
B2
100
AcDbXrecord
280
1
1000
auto
  0
XRECORD
  5
BE
330
B2
100
AcDbXrecord
280
1
1000
auto
  0
XRECORD
  5
BF
330
B2
100
AcDbXrecord
280
1
1000
auto
  0
XRECORD
  5
C0
330
B2
100
AcDbXrecord
280
1
1000
auto
  0
XRECORD
  5
C1
330
B2
100
AcDbXrecord
280
1
1000
auto
  0
XRECORD
  5
C2
330
B2
100
AcDbXrecord
280
1
1000
auto
  0
XRECORD
  5
C3
330
B2
100
AcDbXrecord
280
1
290
0
  0
XRECORD
  5
C4
330
B2
100
AcDbXrecord
280
1
290
0
  0
XRECORD
  5
C5
330
B2
100
AcDbXrecord
280
1
290
0
  0
XRECORD
  5
C6
330
B2
100
AcDbXrecord
280
1
290
0
  0
XRECORD
  5
C7
330
B2
100
AcDbXrecord
280
1
 90
65537
  0
XRECORD
  5
C8
330
B2
100
AcDbXrecord
280
1
 90
65537
  0
XRECORD
  5
C9
330
B2
100
AcDbXrecord
280
1
 90
65537
  0
XRECORD
  5
CA
330
B2
100
AcDbXrecord
280
1
 90
65537
  0
XRECORD
  5
CB
330
B2
100
AcDbXrecord
280
1
1000
auto
  0
XRECORD
  5
CC
330
B2
100
AcDbXrecord
280
1
1000
auto
  0
XRECORD
  5
CD
330
B2
100
AcDbXrecord
280
1
1000
auto
  0
XRECORD
  5
CE
330
B2
100
AcDbXrecord
280
1
1000
auto
  0
XRECORD
  5
CF
330
B2
100
AcDbXrecord
280
1
1000
auto
  0
XRECORD
  5
D0
330
B2
100
AcDbXrecord
280
1
1000
auto
  0
XRECORD
  5
D1
330
B2
100
AcDbXrecord
280
1
1000
auto
  0
XRECORD
  5
D2
330
B2
100
AcDbXrecord
280
1
1000
auto
  0
XRECORD
  5
D3
330
B2
100
AcDbXrecord
280
1
 90
1
  0
XRECORD
  5
D4
330
B2
100
AcDbXrecord
280
1
 40
10.0
  0
XRECORD
  5
D5
330
B2
100
AcDbXrecord
280
1
 40
10.0
  0
XRECORD
  5
D6
330
B2
100
AcDbXrecord
280
1
 40
10.0
  0
XRECORD
  5
D7
330
B2
100
AcDbXrecord
280
1
 40
10.0
  0
XRECORD
  5
D8
330
B2
100
AcDbXrecord
280
1
290
0
  0
XRECORD
  5
D9
330
B2
100
AcDbXrecord
280
1
 90
1
  0
XRECORD
  5
DA
330
B2
100
AcDbXrecord
280
1
 40
0.0
  0
XRECORD
  5
DB
330
B2
100
AcDbXrecord
280
1
 40
0.0
  0
XRECORD
  5
DC
330
B2
100
AcDbXrecord
280
1
1000
Portrait
  0
XRECORD
  5
DD
330
B2
100
AcDbXrecord
280
1
 40
297.0
  0
XRECORD
  5
DE
330
B2
100
AcDbXrecord
280
1
 40
210.0
  0
XRECORD
  5
DF
330
B2
100
AcDbXrecord
280
1
1000
1:1
  0
XRECORD
  5
E0
330
B2
100
AcDbXrecord
280
1
290
1
  0
XRECORD
  5
E1
330
B2
100
AcDbXrecord
280
1
1000
3.20.1
  0
XRECORD
  5
E2
330
B2
100
AcDbXrecord
280
1
 90
4
  0
XRECORD
  5
E4
330
B2
100
AcDbXrecord
280
1
 40
153.34386940610256
  0
XRECORD
  5
E5
330
B2
100
AcDbXrecord
280
1
 40
264.93048375653871
  0
ENDSEC
  0
EOF
